<?xml version="1.0" encoding="utf-8" standalone="no"?>
<!DOCTYPE svg PUBLIC "-//W3C//DTD SVG 1.1//EN"
  "http://www.w3.org/Graphics/SVG/1.1/DTD/svg11.dtd">
<!-- Created with matplotlib (https://matplotlib.org/) -->
<svg height="345.6pt" version="1.1" viewBox="0 0 460.8 345.6" width="460.8pt" xmlns="http://www.w3.org/2000/svg" xmlns:xlink="http://www.w3.org/1999/xlink">
 <metadata>
  <rdf:RDF xmlns:cc="http://creativecommons.org/ns#" xmlns:dc="http://purl.org/dc/elements/1.1/" xmlns:rdf="http://www.w3.org/1999/02/22-rdf-syntax-ns#">
   <cc:Work>
    <dc:type rdf:resource="http://purl.org/dc/dcmitype/StillImage"/>
    <dc:date>2020-10-17T10:10:37.337594</dc:date>
    <dc:format>image/svg+xml</dc:format>
    <dc:creator>
     <cc:Agent>
      <dc:title>Matplotlib v3.3.1, https://matplotlib.org/</dc:title>
     </cc:Agent>
    </dc:creator>
   </cc:Work>
  </rdf:RDF>
 </metadata>
 <defs>
  <style type="text/css">*{stroke-linecap:butt;stroke-linejoin:round;}</style>
 </defs>
 <g id="figure_1">
  <g id="patch_1">
   <path d="M 0 345.6 
L 460.8 345.6 
L 460.8 0 
L 0 0 
z
" style="fill:#ffffff;"/>
  </g>
  <g id="axes_1">
   <g id="patch_2">
    <path d="M 57.6 307.584 
L 414.72 307.584 
L 414.72 41.472 
L 57.6 41.472 
z
" style="fill:#ffffff;"/>
   </g>
   <g id="matplotlib.axis_1">
    <g id="xtick_1">
     <g id="line2d_1">
      <defs>
       <path d="M 0 0 
L 0 3.5 
" id="m53b4b30f06" style="stroke:#000000;stroke-width:0.8;"/>
      </defs>
      <g>
       <use style="stroke:#000000;stroke-width:0.8;" x="73.832727" xlink:href="#m53b4b30f06" y="307.584"/>
      </g>
     </g>
     <g id="text_1">
      <!-- 0.00 -->
      <g transform="translate(62.699915 322.182437)scale(0.1 -0.1)">
       <defs>
        <path d="M 31.78125 66.40625 
Q 24.171875 66.40625 20.328125 58.90625 
Q 16.5 51.421875 16.5 36.375 
Q 16.5 21.390625 20.328125 13.890625 
Q 24.171875 6.390625 31.78125 6.390625 
Q 39.453125 6.390625 43.28125 13.890625 
Q 47.125 21.390625 47.125 36.375 
Q 47.125 51.421875 43.28125 58.90625 
Q 39.453125 66.40625 31.78125 66.40625 
z
M 31.78125 74.21875 
Q 44.046875 74.21875 50.515625 64.515625 
Q 56.984375 54.828125 56.984375 36.375 
Q 56.984375 17.96875 50.515625 8.265625 
Q 44.046875 -1.421875 31.78125 -1.421875 
Q 19.53125 -1.421875 13.0625 8.265625 
Q 6.59375 17.96875 6.59375 36.375 
Q 6.59375 54.828125 13.0625 64.515625 
Q 19.53125 74.21875 31.78125 74.21875 
z
" id="DejaVuSans-48"/>
        <path d="M 10.6875 12.40625 
L 21 12.40625 
L 21 0 
L 10.6875 0 
z
" id="DejaVuSans-46"/>
       </defs>
       <use xlink:href="#DejaVuSans-48"/>
       <use x="63.623047" xlink:href="#DejaVuSans-46"/>
       <use x="95.410156" xlink:href="#DejaVuSans-48"/>
       <use x="159.033203" xlink:href="#DejaVuSans-48"/>
      </g>
     </g>
    </g>
    <g id="xtick_2">
     <g id="line2d_2">
      <g>
       <use style="stroke:#000000;stroke-width:0.8;" x="138.848292" xlink:href="#m53b4b30f06" y="307.584"/>
      </g>
     </g>
     <g id="text_2">
      <!-- 0.01 -->
      <g transform="translate(127.71548 322.182437)scale(0.1 -0.1)">
       <defs>
        <path d="M 12.40625 8.296875 
L 28.515625 8.296875 
L 28.515625 63.921875 
L 10.984375 60.40625 
L 10.984375 69.390625 
L 28.421875 72.90625 
L 38.28125 72.90625 
L 38.28125 8.296875 
L 54.390625 8.296875 
L 54.390625 0 
L 12.40625 0 
z
" id="DejaVuSans-49"/>
       </defs>
       <use xlink:href="#DejaVuSans-48"/>
       <use x="63.623047" xlink:href="#DejaVuSans-46"/>
       <use x="95.410156" xlink:href="#DejaVuSans-48"/>
       <use x="159.033203" xlink:href="#DejaVuSans-49"/>
      </g>
     </g>
    </g>
    <g id="xtick_3">
     <g id="line2d_3">
      <g>
       <use style="stroke:#000000;stroke-width:0.8;" x="203.863857" xlink:href="#m53b4b30f06" y="307.584"/>
      </g>
     </g>
     <g id="text_3">
      <!-- 0.02 -->
      <g transform="translate(192.731044 322.182437)scale(0.1 -0.1)">
       <defs>
        <path d="M 19.1875 8.296875 
L 53.609375 8.296875 
L 53.609375 0 
L 7.328125 0 
L 7.328125 8.296875 
Q 12.9375 14.109375 22.625 23.890625 
Q 32.328125 33.6875 34.8125 36.53125 
Q 39.546875 41.84375 41.421875 45.53125 
Q 43.3125 49.21875 43.3125 52.78125 
Q 43.3125 58.59375 39.234375 62.25 
Q 35.15625 65.921875 28.609375 65.921875 
Q 23.96875 65.921875 18.8125 64.3125 
Q 13.671875 62.703125 7.8125 59.421875 
L 7.8125 69.390625 
Q 13.765625 71.78125 18.9375 73 
Q 24.125 74.21875 28.421875 74.21875 
Q 39.75 74.21875 46.484375 68.546875 
Q 53.21875 62.890625 53.21875 53.421875 
Q 53.21875 48.921875 51.53125 44.890625 
Q 49.859375 40.875 45.40625 35.40625 
Q 44.1875 33.984375 37.640625 27.21875 
Q 31.109375 20.453125 19.1875 8.296875 
z
" id="DejaVuSans-50"/>
       </defs>
       <use xlink:href="#DejaVuSans-48"/>
       <use x="63.623047" xlink:href="#DejaVuSans-46"/>
       <use x="95.410156" xlink:href="#DejaVuSans-48"/>
       <use x="159.033203" xlink:href="#DejaVuSans-50"/>
      </g>
     </g>
    </g>
    <g id="xtick_4">
     <g id="line2d_4">
      <g>
       <use style="stroke:#000000;stroke-width:0.8;" x="268.879422" xlink:href="#m53b4b30f06" y="307.584"/>
      </g>
     </g>
     <g id="text_4">
      <!-- 0.03 -->
      <g transform="translate(257.746609 322.182437)scale(0.1 -0.1)">
       <defs>
        <path d="M 40.578125 39.3125 
Q 47.65625 37.796875 51.625 33 
Q 55.609375 28.21875 55.609375 21.1875 
Q 55.609375 10.40625 48.1875 4.484375 
Q 40.765625 -1.421875 27.09375 -1.421875 
Q 22.515625 -1.421875 17.65625 -0.515625 
Q 12.796875 0.390625 7.625 2.203125 
L 7.625 11.71875 
Q 11.71875 9.328125 16.59375 8.109375 
Q 21.484375 6.890625 26.8125 6.890625 
Q 36.078125 6.890625 40.9375 10.546875 
Q 45.796875 14.203125 45.796875 21.1875 
Q 45.796875 27.640625 41.28125 31.265625 
Q 36.765625 34.90625 28.71875 34.90625 
L 20.21875 34.90625 
L 20.21875 43.015625 
L 29.109375 43.015625 
Q 36.375 43.015625 40.234375 45.921875 
Q 44.09375 48.828125 44.09375 54.296875 
Q 44.09375 59.90625 40.109375 62.90625 
Q 36.140625 65.921875 28.71875 65.921875 
Q 24.65625 65.921875 20.015625 65.03125 
Q 15.375 64.15625 9.8125 62.3125 
L 9.8125 71.09375 
Q 15.4375 72.65625 20.34375 73.4375 
Q 25.25 74.21875 29.59375 74.21875 
Q 40.828125 74.21875 47.359375 69.109375 
Q 53.90625 64.015625 53.90625 55.328125 
Q 53.90625 49.265625 50.4375 45.09375 
Q 46.96875 40.921875 40.578125 39.3125 
z
" id="DejaVuSans-51"/>
       </defs>
       <use xlink:href="#DejaVuSans-48"/>
       <use x="63.623047" xlink:href="#DejaVuSans-46"/>
       <use x="95.410156" xlink:href="#DejaVuSans-48"/>
       <use x="159.033203" xlink:href="#DejaVuSans-51"/>
      </g>
     </g>
    </g>
    <g id="xtick_5">
     <g id="line2d_5">
      <g>
       <use style="stroke:#000000;stroke-width:0.8;" x="333.894986" xlink:href="#m53b4b30f06" y="307.584"/>
      </g>
     </g>
     <g id="text_5">
      <!-- 0.04 -->
      <g transform="translate(322.762174 322.182437)scale(0.1 -0.1)">
       <defs>
        <path d="M 37.796875 64.3125 
L 12.890625 25.390625 
L 37.796875 25.390625 
z
M 35.203125 72.90625 
L 47.609375 72.90625 
L 47.609375 25.390625 
L 58.015625 25.390625 
L 58.015625 17.1875 
L 47.609375 17.1875 
L 47.609375 0 
L 37.796875 0 
L 37.796875 17.1875 
L 4.890625 17.1875 
L 4.890625 26.703125 
z
" id="DejaVuSans-52"/>
       </defs>
       <use xlink:href="#DejaVuSans-48"/>
       <use x="63.623047" xlink:href="#DejaVuSans-46"/>
       <use x="95.410156" xlink:href="#DejaVuSans-48"/>
       <use x="159.033203" xlink:href="#DejaVuSans-52"/>
      </g>
     </g>
    </g>
    <g id="xtick_6">
     <g id="line2d_6">
      <g>
       <use style="stroke:#000000;stroke-width:0.8;" x="398.910551" xlink:href="#m53b4b30f06" y="307.584"/>
      </g>
     </g>
     <g id="text_6">
      <!-- 0.05 -->
      <g transform="translate(387.777739 322.182437)scale(0.1 -0.1)">
       <defs>
        <path d="M 10.796875 72.90625 
L 49.515625 72.90625 
L 49.515625 64.59375 
L 19.828125 64.59375 
L 19.828125 46.734375 
Q 21.96875 47.46875 24.109375 47.828125 
Q 26.265625 48.1875 28.421875 48.1875 
Q 40.625 48.1875 47.75 41.5 
Q 54.890625 34.8125 54.890625 23.390625 
Q 54.890625 11.625 47.5625 5.09375 
Q 40.234375 -1.421875 26.90625 -1.421875 
Q 22.3125 -1.421875 17.546875 -0.640625 
Q 12.796875 0.140625 7.71875 1.703125 
L 7.71875 11.625 
Q 12.109375 9.234375 16.796875 8.0625 
Q 21.484375 6.890625 26.703125 6.890625 
Q 35.15625 6.890625 40.078125 11.328125 
Q 45.015625 15.765625 45.015625 23.390625 
Q 45.015625 31 40.078125 35.4375 
Q 35.15625 39.890625 26.703125 39.890625 
Q 22.75 39.890625 18.8125 39.015625 
Q 14.890625 38.140625 10.796875 36.28125 
z
" id="DejaVuSans-53"/>
       </defs>
       <use xlink:href="#DejaVuSans-48"/>
       <use x="63.623047" xlink:href="#DejaVuSans-46"/>
       <use x="95.410156" xlink:href="#DejaVuSans-48"/>
       <use x="159.033203" xlink:href="#DejaVuSans-53"/>
      </g>
     </g>
    </g>
   </g>
   <g id="matplotlib.axis_2">
    <g id="ytick_1">
     <g id="line2d_7">
      <defs>
       <path d="M 0 0 
L -3.5 0 
" id="m6efc5324e3" style="stroke:#000000;stroke-width:0.8;"/>
      </defs>
      <g>
       <use style="stroke:#000000;stroke-width:0.8;" x="57.6" xlink:href="#m6efc5324e3" y="279.063362"/>
      </g>
     </g>
     <g id="text_7">
      <!-- −3000 -->
      <g transform="translate(16.770313 282.862581)scale(0.1 -0.1)">
       <defs>
        <path d="M 10.59375 35.5 
L 73.1875 35.5 
L 73.1875 27.203125 
L 10.59375 27.203125 
z
" id="DejaVuSans-8722"/>
       </defs>
       <use xlink:href="#DejaVuSans-8722"/>
       <use x="83.789062" xlink:href="#DejaVuSans-51"/>
       <use x="147.412109" xlink:href="#DejaVuSans-48"/>
       <use x="211.035156" xlink:href="#DejaVuSans-48"/>
       <use x="274.658203" xlink:href="#DejaVuSans-48"/>
      </g>
     </g>
    </g>
    <g id="ytick_2">
     <g id="line2d_8">
      <g>
       <use style="stroke:#000000;stroke-width:0.8;" x="57.6" xlink:href="#m6efc5324e3" y="244.426328"/>
      </g>
     </g>
     <g id="text_8">
      <!-- −2000 -->
      <g transform="translate(16.770313 248.225547)scale(0.1 -0.1)">
       <use xlink:href="#DejaVuSans-8722"/>
       <use x="83.789062" xlink:href="#DejaVuSans-50"/>
       <use x="147.412109" xlink:href="#DejaVuSans-48"/>
       <use x="211.035156" xlink:href="#DejaVuSans-48"/>
       <use x="274.658203" xlink:href="#DejaVuSans-48"/>
      </g>
     </g>
    </g>
    <g id="ytick_3">
     <g id="line2d_9">
      <g>
       <use style="stroke:#000000;stroke-width:0.8;" x="57.6" xlink:href="#m6efc5324e3" y="209.789294"/>
      </g>
     </g>
     <g id="text_9">
      <!-- −1000 -->
      <g transform="translate(16.770313 213.588513)scale(0.1 -0.1)">
       <use xlink:href="#DejaVuSans-8722"/>
       <use x="83.789062" xlink:href="#DejaVuSans-49"/>
       <use x="147.412109" xlink:href="#DejaVuSans-48"/>
       <use x="211.035156" xlink:href="#DejaVuSans-48"/>
       <use x="274.658203" xlink:href="#DejaVuSans-48"/>
      </g>
     </g>
    </g>
    <g id="ytick_4">
     <g id="line2d_10">
      <g>
       <use style="stroke:#000000;stroke-width:0.8;" x="57.6" xlink:href="#m6efc5324e3" y="175.15226"/>
      </g>
     </g>
     <g id="text_10">
      <!-- 0 -->
      <g transform="translate(44.2375 178.951479)scale(0.1 -0.1)">
       <use xlink:href="#DejaVuSans-48"/>
      </g>
     </g>
    </g>
    <g id="ytick_5">
     <g id="line2d_11">
      <g>
       <use style="stroke:#000000;stroke-width:0.8;" x="57.6" xlink:href="#m6efc5324e3" y="140.515226"/>
      </g>
     </g>
     <g id="text_11">
      <!-- 1000 -->
      <g transform="translate(25.15 144.314445)scale(0.1 -0.1)">
       <use xlink:href="#DejaVuSans-49"/>
       <use x="63.623047" xlink:href="#DejaVuSans-48"/>
       <use x="127.246094" xlink:href="#DejaVuSans-48"/>
       <use x="190.869141" xlink:href="#DejaVuSans-48"/>
      </g>
     </g>
    </g>
    <g id="ytick_6">
     <g id="line2d_12">
      <g>
       <use style="stroke:#000000;stroke-width:0.8;" x="57.6" xlink:href="#m6efc5324e3" y="105.878192"/>
      </g>
     </g>
     <g id="text_12">
      <!-- 2000 -->
      <g transform="translate(25.15 109.677411)scale(0.1 -0.1)">
       <use xlink:href="#DejaVuSans-50"/>
       <use x="63.623047" xlink:href="#DejaVuSans-48"/>
       <use x="127.246094" xlink:href="#DejaVuSans-48"/>
       <use x="190.869141" xlink:href="#DejaVuSans-48"/>
      </g>
     </g>
    </g>
    <g id="ytick_7">
     <g id="line2d_13">
      <g>
       <use style="stroke:#000000;stroke-width:0.8;" x="57.6" xlink:href="#m6efc5324e3" y="71.241158"/>
      </g>
     </g>
     <g id="text_13">
      <!-- 3000 -->
      <g transform="translate(25.15 75.040377)scale(0.1 -0.1)">
       <use xlink:href="#DejaVuSans-51"/>
       <use x="63.623047" xlink:href="#DejaVuSans-48"/>
       <use x="127.246094" xlink:href="#DejaVuSans-48"/>
       <use x="190.869141" xlink:href="#DejaVuSans-48"/>
      </g>
     </g>
    </g>
   </g>
   <g id="line2d_14">
    <path clip-path="url(#p0e69d6ab5c)" d="M 73.832727 175.15226 
L 79.335347 138.274371 
L 82.298296 119.732722 
L 84.837966 105.119244 
L 86.954358 94.086974 
L 89.07075 84.274059 
L 90.763864 77.401526 
L 92.456978 71.47043 
L 93.726813 67.674646 
L 94.996648 64.46132 
L 96.266483 61.847866 
L 97.536319 59.848447 
L 98.382875 58.862121 
L 99.229432 58.155962 
L 100.075989 57.731671 
L 100.922546 57.590269 
L 101.769103 57.732098 
L 102.61566 58.156815 
L 103.462216 58.863398 
L 104.308773 59.850144 
L 105.15533 61.114677 
L 106.425165 63.525478 
L 107.695001 66.541224 
L 108.964836 70.145569 
L 110.234671 74.318982 
L 111.927785 80.729228 
L 113.620898 88.048862 
L 115.737291 98.369056 
L 117.853683 109.844196 
L 120.393353 124.894792 
L 123.356302 143.804643 
L 128.012365 175.160961 
L 133.514984 212.038411 
L 136.477933 230.579472 
L 139.017603 245.192265 
L 141.133995 256.223848 
L 143.250388 266.035981 
L 144.943501 272.907828 
L 146.636615 278.838192 
L 147.90645 282.6334 
L 149.176285 285.846132 
L 150.446121 288.458975 
L 151.715956 290.457771 
L 152.562513 291.443675 
L 153.40907 292.149411 
L 154.255626 292.573276 
L 155.102183 292.714251 
L 155.94874 292.571996 
L 156.795297 292.146852 
L 157.641854 291.439845 
L 158.488411 290.452678 
L 159.334967 289.187729 
L 160.604803 286.776312 
L 161.874638 283.759966 
L 163.144473 280.155038 
L 164.414308 275.981064 
L 166.107422 269.570109 
L 167.800536 262.249815 
L 169.916928 251.928876 
L 172.03332 240.45309 
L 174.57299 225.401863 
L 177.535939 206.491492 
L 182.192002 175.134858 
L 187.694621 138.257848 
L 190.65757 119.717375 
L 193.197241 105.105267 
L 195.313633 94.074372 
L 197.430025 84.263021 
L 199.123139 77.391859 
L 200.816252 71.462228 
L 202.086087 67.667596 
L 203.355923 64.455459 
L 204.625758 61.843226 
L 205.895593 59.845054 
L 206.74215 58.85957 
L 207.588707 58.154258 
L 208.435264 57.730819 
L 209.281821 57.590271 
L 210.128377 57.732953 
L 210.974934 58.158523 
L 211.821491 58.865953 
L 212.668048 59.853541 
L 213.514605 61.118907 
L 214.78444 63.530939 
L 216.054275 66.547885 
L 217.32411 70.153396 
L 218.593946 74.327931 
L 220.287059 80.739596 
L 221.980173 88.06055 
L 224.096565 98.382235 
L 226.212957 109.858666 
L 228.752628 124.910524 
L 231.715577 143.821415 
L 236.371639 175.178364 
L 241.874259 212.054934 
L 244.837208 230.594818 
L 247.376878 245.206241 
L 249.49327 256.236449 
L 251.609662 266.047018 
L 253.302776 272.917494 
L 254.99589 278.846392 
L 256.265725 282.640449 
L 257.53556 285.851991 
L 258.805395 288.463613 
L 260.075231 290.461163 
L 260.921787 291.446226 
L 261.768344 292.151113 
L 262.614901 292.574127 
L 263.461458 292.714248 
L 264.308015 292.571138 
L 265.154572 292.145143 
L 266.001128 291.437289 
L 266.847685 290.44928 
L 267.694242 289.183497 
L 268.964077 286.77085 
L 270.233913 283.753304 
L 271.503748 280.147211 
L 272.773583 275.972115 
L 274.466697 269.55974 
L 276.15981 262.238126 
L 278.276202 251.915696 
L 280.392595 240.438618 
L 282.932265 225.38613 
L 285.895214 206.474719 
L 290.551277 175.117456 
L 296.053896 138.241325 
L 299.016845 119.70203 
L 301.556515 105.091292 
L 303.672907 94.061771 
L 305.7893 84.251984 
L 307.482413 77.382195 
L 309.175527 71.454029 
L 310.445362 67.660547 
L 311.715197 64.4496 
L 312.985033 61.838589 
L 314.254868 59.841663 
L 315.101425 58.857021 
L 315.947982 58.152557 
L 316.794538 57.729969 
L 317.641095 57.590275 
L 318.487652 57.733812 
L 319.334209 58.160233 
L 320.180766 58.868511 
L 321.027323 59.856941 
L 321.873879 61.12314 
L 323.143715 63.536402 
L 324.41355 66.554549 
L 325.683385 70.161224 
L 326.95322 74.336881 
L 328.646334 80.749966 
L 330.339448 88.07224 
L 332.45584 98.395415 
L 334.572232 109.873138 
L 337.111902 124.926258 
L 340.074851 143.838188 
L 344.730914 175.195766 
L 350.233533 212.071457 
L 353.196482 230.610163 
L 355.736153 245.220215 
L 357.852545 256.249049 
L 359.968937 266.058054 
L 361.66205 272.927157 
L 363.355164 278.854591 
L 364.624999 282.647496 
L 365.894835 285.857849 
L 367.16467 288.468249 
L 368.434505 290.464552 
L 369.281062 291.448774 
L 370.127619 292.152813 
L 370.974176 292.574975 
L 371.820732 292.714242 
L 372.667289 292.570279 
L 373.513846 292.143432 
L 374.360403 291.434729 
L 375.20696 290.445879 
L 376.053517 289.179263 
L 377.323352 286.765386 
L 378.593187 283.746639 
L 379.863022 280.139382 
L 381.132858 275.963163 
L 382.825971 269.549368 
L 384.519085 262.226435 
L 386.635477 251.902515 
L 388.751869 240.424146 
L 391.29154 225.370396 
L 394.254489 206.457945 
L 398.487273 177.985253 
L 398.487273 177.985253 
" style="fill:none;stroke:#1f77b4;stroke-linecap:square;stroke-width:1.5;"/>
   </g>
   <g id="line2d_15">
    <path clip-path="url(#p0e69d6ab5c)" d="M 73.832727 175.15226 
L 79.335347 138.27689 
L 82.298296 119.741712 
L 84.837966 105.133547 
L 86.954358 94.100143 
L 89.07075 84.280755 
L 90.763864 77.421219 
L 92.456978 71.472222 
L 94.150091 66.55927 
L 95.419927 63.544547 
L 96.689762 61.133175 
L 97.536319 59.869215 
L 98.382875 58.870231 
L 99.229432 58.169124 
L 100.075989 57.753606 
L 100.922546 57.608033 
L 101.769103 57.732737 
L 102.61566 58.173326 
L 103.462216 58.884349 
L 104.308773 59.862737 
L 105.578609 61.86621 
L 106.848444 64.481989 
L 108.118279 67.695986 
L 109.388114 71.490889 
L 110.65795 75.846292 
L 112.351063 82.479798 
L 114.467455 92.027139 
L 116.583847 102.834306 
L 118.700239 114.724314 
L 121.23991 130.169232 
L 124.626137 152.220725 
L 136.054654 227.999578 
L 138.594325 242.834613 
L 140.710717 254.087312 
L 142.827109 264.156385 
L 144.520223 271.257346 
L 146.213336 277.42704 
L 147.90645 282.611923 
L 149.176285 285.828799 
L 150.446121 288.447578 
L 151.715956 290.454094 
L 152.985791 291.823715 
L 153.832348 292.382038 
L 154.678905 292.656974 
L 155.525462 292.661717 
L 156.372018 292.395006 
L 157.218575 291.812578 
L 158.065132 290.962012 
L 158.911689 289.845124 
L 160.181524 287.635405 
L 161.451359 284.817737 
L 162.721195 281.407307 
L 163.99103 277.422483 
L 165.260865 272.884699 
L 166.953979 266.026179 
L 168.647093 258.279567 
L 170.763485 247.477552 
L 173.303155 233.08771 
L 175.842826 217.46024 
L 179.229053 195.250041 
L 189.387735 127.519805 
L 192.350684 109.840658 
L 194.890354 96.209379 
L 197.006746 86.136057 
L 198.69986 79.052788 
L 200.392974 72.871761 
L 202.086087 67.693647 
L 203.355923 64.48264 
L 204.625758 61.870001 
L 205.472315 60.462515 
L 206.318872 59.323622 
L 207.165428 58.492784 
L 208.011985 57.930274 
L 208.858542 57.637281 
L 209.705099 57.634728 
L 210.551656 57.929625 
L 211.398213 58.494028 
L 212.244769 59.326742 
L 213.514605 61.125111 
L 214.78444 63.539745 
L 216.054275 66.5576 
L 217.32411 70.162406 
L 218.593946 74.334746 
L 220.287059 80.726363 
L 221.980173 88.060699 
L 223.673287 96.207586 
L 225.789679 107.469138 
L 228.329349 122.298263 
L 231.292298 141.032177 
L 235.525082 169.384245 
L 242.297537 214.755664 
L 245.260486 233.087547 
L 247.800156 247.467964 
L 249.916549 258.265613 
L 251.609662 266.025087 
L 253.302776 272.883979 
L 254.99589 278.823005 
L 256.265725 282.624538 
L 257.53556 285.838759 
L 258.805395 288.445871 
L 260.075231 290.440232 
L 260.921787 291.437963 
L 261.768344 292.129186 
L 262.614901 292.55137 
L 263.461458 292.703628 
L 264.308015 292.562556 
L 265.154572 292.1271 
L 266.001128 291.422711 
L 266.847685 290.45088 
L 268.11752 288.445047 
L 269.387356 285.826945 
L 270.657191 282.610717 
L 271.927026 278.813715 
L 273.62014 272.898124 
L 275.313254 266.025136 
L 277.006367 258.277344 
L 279.122759 247.47766 
L 281.239151 235.580048 
L 283.778822 220.1397 
L 287.165049 198.087161 
L 298.170288 124.888273 
L 301.133237 107.471634 
L 303.249629 96.216267 
L 305.366021 86.143779 
L 307.059135 79.051682 
L 308.752248 72.870661 
L 310.445362 67.69569 
L 311.715197 64.481066 
L 312.985033 61.864631 
L 314.254868 59.860498 
L 315.101425 58.883976 
L 315.947982 58.174845 
L 316.794538 57.734602 
L 317.641095 57.606351 
L 318.487652 57.753826 
L 319.334209 58.171245 
L 320.180766 58.867286 
L 321.450601 60.449958 
L 322.720436 62.662056 
L 323.990271 65.482042 
L 325.260107 68.894699 
L 326.529942 72.881614 
L 328.223056 79.043737 
L 329.916169 86.147883 
L 332.032561 96.209791 
L 334.148953 107.460872 
L 336.688624 122.30019 
L 339.651573 141.031101 
L 343.884357 169.384817 
L 350.656812 214.753634 
L 353.619761 233.089481 
L 356.159431 247.475292 
L 358.275823 258.268645 
L 359.968937 266.018856 
L 361.66205 272.884552 
L 363.355164 278.825993 
L 365.048278 283.745273 
L 366.318113 286.76152 
L 367.587948 289.174492 
L 368.434505 290.433869 
L 369.281062 291.428197 
L 370.127619 292.141833 
L 370.974176 292.552672 
L 371.820732 292.693536 
L 372.667289 292.564136 
L 373.513846 292.136146 
L 374.360403 291.420441 
L 375.20696 290.437424 
L 376.053517 289.189179 
L 377.323352 286.772155 
L 378.593187 283.751975 
L 379.863022 280.14495 
L 381.556136 274.470239 
L 383.24925 267.827553 
L 384.942363 260.292567 
L 387.058755 249.71885 
L 389.175148 238.037458 
L 391.714818 222.793152 
L 395.101045 200.90953 
L 398.487273 178.037261 
L 398.487273 178.037261 
" style="fill:none;stroke:#ff7f0e;stroke-linecap:square;stroke-width:2;"/>
   </g>
   <g id="line2d_16">
    <path clip-path="url(#p0e69d6ab5c)" d="M 73.832727 173.066655 
L 74.256006 175.154548 
L 74.679284 168.65597 
L 75.102563 166.925441 
L 75.949119 160.700784 
L 76.372398 160.335186 
L 77.218955 150.581466 
L 77.642233 150.085296 
L 78.48879 143.460652 
L 78.912068 142.948844 
L 79.335347 140.27372 
L 80.605182 129.616533 
L 81.02846 127.786745 
L 81.875017 122.534251 
L 82.298296 117.701195 
L 82.721574 116.904427 
L 83.144852 111.225671 
L 83.568131 112.310055 
L 83.991409 111.811787 
L 84.414688 107.289142 
L 84.837966 106.470886 
L 85.261245 101.362026 
L 85.684523 99.954283 
L 86.107801 94.962231 
L 86.53108 96.463522 
L 86.954358 95.353604 
L 87.800915 91.733576 
L 88.224193 87.696852 
L 88.647472 87.956933 
L 89.07075 85.891635 
L 89.494029 79.978444 
L 89.917307 81.489355 
L 90.340586 78.656498 
L 91.610421 74.515931 
L 92.033699 75.037315 
L 92.880256 67.678084 
L 94.150091 65.975486 
L 94.57337 63.588022 
L 94.996648 65.867445 
L 96.266483 59.650987 
L 96.689762 61.514806 
L 97.11304 60.432352 
L 97.536319 58.939075 
L 97.959597 58.486484 
L 98.382875 59.451137 
L 98.806154 56.19847 
L 99.229432 59.295077 
L 99.652711 59.129251 
L 100.075989 55.390114 
L 100.499268 57.26221 
L 101.345824 59.898037 
L 101.769103 56.565268 
L 102.61566 60.97535 
L 103.038938 55.692718 
L 103.462216 58.078214 
L 103.885495 61.89373 
L 104.308773 58.737783 
L 104.732052 62.279605 
L 105.15533 60.073314 
L 105.578609 61.885242 
L 106.001887 59.540944 
L 106.425165 63.522055 
L 106.848444 61.55327 
L 107.271722 65.289974 
L 107.695001 65.781664 
L 108.118279 67.122077 
L 108.964836 72.29799 
L 109.811393 71.270308 
L 110.234671 72.461011 
L 111.081228 77.064943 
L 111.504506 77.435594 
L 111.927785 79.57133 
L 112.351063 79.045355 
L 112.774342 85.525709 
L 113.19762 85.383688 
L 114.044177 89.650718 
L 114.467455 91.90314 
L 114.890734 92.211204 
L 115.314012 95.408386 
L 115.737291 100.603577 
L 116.160569 101.814486 
L 116.583847 100.463737 
L 117.007126 106.694337 
L 117.430404 107.598885 
L 117.853683 110.749215 
L 118.276961 112.201513 
L 118.700239 114.099631 
L 119.123518 117.799302 
L 119.546796 119.533864 
L 119.970075 119.917607 
L 120.393353 125.567516 
L 120.816632 128.71553 
L 121.23991 129.461713 
L 121.663188 135.415931 
L 122.086467 135.255599 
L 122.509745 136.276251 
L 123.356302 146.394979 
L 123.77958 145.627544 
L 124.202859 150.93212 
L 124.626137 150.836882 
L 125.049416 155.193061 
L 125.895973 160.740696 
L 127.165808 172.375795 
L 127.589086 169.641161 
L 128.435643 182.844548 
L 128.858921 183.770063 
L 129.2822 182.217265 
L 130.128757 190.600933 
L 130.552035 192.970191 
L 130.975314 191.941667 
L 131.398592 198.779123 
L 131.82187 200.048402 
L 132.245149 202.440765 
L 132.668427 206.663409 
L 133.091706 209.367219 
L 133.514984 208.941778 
L 134.361541 217.532207 
L 134.784819 217.172101 
L 135.208098 224.324826 
L 135.631376 227.2901 
L 136.054654 226.322371 
L 136.477933 231.294038 
L 137.32449 234.021206 
L 137.747768 238.420606 
L 138.594325 241.634534 
L 139.017603 243.964816 
L 139.440882 247.79996 
L 139.86416 248.910908 
L 140.710717 252.295209 
L 141.557274 261.794945 
L 141.980552 262.186284 
L 142.403831 260.447592 
L 142.827109 266.396358 
L 143.250388 267.182065 
L 144.096944 272.387032 
L 144.520223 272.811872 
L 144.943501 276.316178 
L 145.36678 273.168376 
L 145.790058 276.10855 
L 146.213336 276.579709 
L 146.636615 278.550914 
L 147.059893 283.350912 
L 147.483172 279.437331 
L 147.90645 280.061939 
L 148.329729 281.027039 
L 148.753007 284.312946 
L 149.176285 285.509812 
L 149.599564 289.275723 
L 150.022842 285.592756 
L 150.446121 289.370024 
L 150.869399 287.84096 
L 151.715956 290.966292 
L 152.139234 293.794438 
L 152.562513 291.727244 
L 152.985791 293.473285 
L 153.40907 293.720907 
L 153.832348 295.042529 
L 154.255626 292.085745 
L 154.678905 293.863693 
L 155.102183 291.737799 
L 155.525462 291.284968 
L 155.94874 292.126138 
L 156.372018 294.076221 
L 156.795297 290.62858 
L 157.641854 291.896646 
L 158.065132 290.338459 
L 158.488411 286.818467 
L 158.911689 289.628857 
L 159.334967 288.470052 
L 159.758246 286.721466 
L 160.181524 286.720946 
L 160.604803 287.413263 
L 161.028081 283.961056 
L 161.451359 286.468115 
L 161.874638 283.268948 
L 162.297916 281.318936 
L 162.721195 280.326345 
L 163.144473 282.506102 
L 164.414308 275.456432 
L 165.260865 274.134383 
L 165.684144 269.574092 
L 166.107422 270.705318 
L 166.5307 266.910808 
L 167.377257 265.26004 
L 167.800536 263.633456 
L 169.070371 255.202521 
L 169.493649 250.538099 
L 169.916928 252.908192 
L 170.763485 245.807211 
L 171.186763 247.982472 
L 172.03332 238.675237 
L 172.456598 237.510716 
L 172.879877 236.700834 
L 173.303155 237.876994 
L 173.726434 230.25207 
L 174.149712 226.28407 
L 174.57299 225.015943 
L 174.996269 224.336874 
L 175.419547 220.24482 
L 175.842826 217.29231 
L 176.266104 215.188478 
L 176.689382 209.518369 
L 177.112661 210.48556 
L 177.535939 207.007558 
L 177.959218 202.453464 
L 178.805775 197.995867 
L 179.229053 193.323744 
L 179.652331 192.98475 
L 180.07561 188.343095 
L 180.498888 187.715497 
L 180.922167 181.647647 
L 181.345445 182.228103 
L 181.768723 179.123185 
L 183.038559 167.292985 
L 183.461837 166.413425 
L 183.885116 166.551413 
L 184.308394 159.01665 
L 184.731672 159.445302 
L 185.154951 154.27807 
L 185.578229 153.449448 
L 186.001508 148.119667 
L 186.424786 145.902572 
L 187.271343 138.506506 
L 187.694621 139.820521 
L 188.1179 134.820192 
L 188.541178 136.103923 
L 188.964457 126.953913 
L 189.387735 127.675793 
L 189.811013 125.652211 
L 191.080849 116.620305 
L 191.504127 115.909938 
L 191.927405 110.467977 
L 192.350684 109.039577 
L 192.773962 109.83713 
L 193.620519 102.853384 
L 194.043798 101.57699 
L 194.467076 101.185541 
L 194.890354 94.968511 
L 195.313633 94.066676 
L 195.736911 89.04769 
L 196.16019 90.004068 
L 196.583468 87.276733 
L 197.006746 85.850298 
L 197.430025 82.645746 
L 197.853303 86.794681 
L 198.276582 80.642076 
L 198.69986 79.465686 
L 199.123139 77.919808 
L 199.546417 74.317479 
L 199.969695 73.508045 
L 200.392974 72.411265 
L 200.816252 72.429619 
L 201.662809 68.013205 
L 202.509366 66.86933 
L 202.932644 62.096364 
L 203.355923 62.643359 
L 203.779201 64.395615 
L 204.20248 65.236629 
L 204.625758 61.877446 
L 205.049036 63.224548 
L 205.472315 61.781049 
L 205.895593 57.983322 
L 206.318872 60.062841 
L 206.74215 59.484032 
L 207.165428 53.568 
L 207.588707 57.811911 
L 208.011985 57.86663 
L 208.435264 58.998336 
L 208.858542 58.524598 
L 209.281821 55.957233 
L 209.705099 58.704131 
L 210.128377 55.904972 
L 210.551656 57.010531 
L 210.974934 55.711284 
L 211.821491 57.789689 
L 212.244769 61.610234 
L 212.668048 58.417344 
L 213.091326 60.79417 
L 213.937883 59.508908 
L 214.361162 62.453543 
L 214.78444 63.279511 
L 215.207718 66.447507 
L 215.630997 63.094968 
L 216.054275 64.316146 
L 216.477554 66.216852 
L 216.900832 66.493182 
L 217.32411 71.635517 
L 217.747389 71.810978 
L 218.170667 73.019735 
L 218.593946 76.768294 
L 219.017224 75.022882 
L 219.440503 78.38514 
L 219.863781 78.03075 
L 220.287059 81.101401 
L 220.710338 83.260531 
L 221.133616 83.34456 
L 221.556895 85.996964 
L 221.980173 87.38175 
L 222.403451 90.370645 
L 222.82673 89.473875 
L 223.250008 94.122516 
L 223.673287 94.743438 
L 224.096565 98.584396 
L 224.943122 101.621517 
L 225.3664 102.49551 
L 225.789679 109.657454 
L 226.212957 112.113308 
L 226.636236 111.683019 
L 227.482792 120.906616 
L 227.906071 119.874178 
L 228.752628 124.735846 
L 229.175906 125.355996 
L 229.599185 131.176988 
L 230.022463 131.987839 
L 230.445741 133.866538 
L 231.292298 142.288887 
L 232.138855 145.473444 
L 232.562133 150.878313 
L 232.985412 153.616724 
L 233.40869 154.508373 
L 233.831969 158.009453 
L 234.255247 162.609282 
L 234.678526 164.592828 
L 235.101804 163.502922 
L 235.525082 170.787294 
L 235.948361 173.347941 
L 236.371639 176.729555 
L 236.794918 174.856984 
L 237.218196 178.666095 
L 237.641474 181.332156 
L 239.334588 196.594799 
L 240.181145 199.264486 
L 240.604423 202.609856 
L 241.027702 207.856256 
L 241.45098 207.667556 
L 241.874259 212.803861 
L 242.297537 214.806182 
L 242.720815 218.595266 
L 243.144094 219.001293 
L 243.990651 227.013053 
L 244.413929 226.540514 
L 246.107043 239.320191 
L 246.530321 240.432364 
L 246.9536 243.326682 
L 247.376878 247.303892 
L 247.800156 248.749678 
L 248.223435 246.410092 
L 248.646713 251.955907 
L 249.49327 255.890808 
L 250.339827 263.169893 
L 250.763105 263.121018 
L 251.186384 262.87133 
L 251.609662 266.618708 
L 252.032941 267.400976 
L 252.456219 269.125297 
L 252.879497 274.366744 
L 253.302776 270.704404 
L 253.726054 272.820898 
L 254.149333 278.695662 
L 254.572611 279.575158 
L 254.99589 279.930565 
L 255.419168 278.46128 
L 255.842446 284.615646 
L 256.265725 279.757829 
L 257.112282 286.182372 
L 257.53556 288.66796 
L 258.382117 285.962012 
L 259.228674 290.736942 
L 259.651952 290.517413 
L 260.075231 289.651865 
L 260.498509 290.467581 
L 260.921787 293.507966 
L 261.345066 289.476335 
L 261.768344 293.025087 
L 262.191623 294.052603 
L 262.614901 293.933368 
L 263.038179 290.375986 
L 263.461458 292.809908 
L 263.884736 292.419531 
L 264.308015 293.257453 
L 264.731293 288.055646 
L 265.154572 292.806439 
L 265.57785 290.847271 
L 266.847685 289.964882 
L 267.270964 289.954172 
L 267.694242 287.501724 
L 268.11752 289.036278 
L 268.540799 287.909963 
L 268.964077 285.374256 
L 269.387356 280.289215 
L 269.810634 285.663098 
L 270.233913 283.735352 
L 270.657191 284.433206 
L 271.080469 280.382245 
L 271.503748 282.140687 
L 271.927026 277.25111 
L 272.350305 277.903284 
L 273.196861 275.896142 
L 273.62014 272.02608 
L 274.043418 271.558906 
L 274.466697 268.760052 
L 275.313254 267.248495 
L 275.736532 263.238276 
L 276.15981 263.296386 
L 277.006367 256.182889 
L 277.429646 258.280475 
L 277.852924 254.606401 
L 278.276202 253.495878 
L 278.699481 250.608684 
L 279.122759 246.623049 
L 279.546038 243.792066 
L 279.969316 242.699146 
L 280.392595 240.889149 
L 280.815873 240.634467 
L 281.239151 234.457299 
L 281.66243 236.662137 
L 282.085708 234.083353 
L 282.932265 224.144918 
L 283.355543 224.278249 
L 283.778822 219.853354 
L 284.2021 219.787294 
L 284.625379 212.936035 
L 285.048657 210.320801 
L 285.471936 211.470384 
L 285.895214 204.514216 
L 286.318492 206.387572 
L 286.741771 197.602035 
L 287.165049 197.51168 
L 287.588328 196.901969 
L 288.434884 188.944233 
L 288.858163 189.238555 
L 289.281441 182.444747 
L 289.70472 181.800787 
L 290.127998 179.023 
L 290.551277 174.423213 
L 292.24439 162.535078 
L 292.667669 161.254298 
L 293.090947 154.721517 
L 293.514225 156.307104 
L 294.360782 148.052724 
L 294.784061 146.382508 
L 295.207339 144.186732 
L 295.630618 139.762812 
L 296.053896 137.332531 
L 296.477174 130.058804 
L 296.900453 132.243852 
L 297.323731 129.577034 
L 297.74701 130.34292 
L 298.170288 125.461528 
L 298.593566 123.311023 
L 299.440123 117.306246 
L 299.863402 116.148509 
L 300.28668 111.774555 
L 300.709959 108.957097 
L 301.133237 107.380715 
L 301.556515 108.287011 
L 301.979794 104.222624 
L 302.403072 98.71704 
L 302.826351 98.610444 
L 303.249629 97.0677 
L 303.672907 95.031348 
L 304.096186 89.883915 
L 304.519464 90.727701 
L 304.942743 87.883198 
L 305.366021 87.517185 
L 305.7893 83.810127 
L 306.212578 83.259095 
L 306.635856 81.283993 
L 307.059135 78.545902 
L 307.482413 78.188902 
L 307.905692 75.91831 
L 308.32897 74.678823 
L 308.752248 69.236721 
L 309.175527 71.486751 
L 309.598805 68.963233 
L 310.022084 70.133963 
L 310.445362 66.476989 
L 310.868641 66.410147 
L 311.291919 63.801337 
L 311.715197 64.030409 
L 312.138476 64.829057 
L 312.561754 64.443718 
L 312.985033 57.069821 
L 313.408311 60.29364 
L 313.831589 60.610049 
L 314.678146 59.788725 
L 315.101425 59.553552 
L 315.524703 56.959212 
L 316.37126 55.310725 
L 316.794538 61.782804 
L 317.217817 57.282957 
L 317.641095 57.58963 
L 318.064374 59.184784 
L 318.487652 56.932403 
L 318.91093 58.091226 
L 319.334209 60.641693 
L 319.757487 57.190297 
L 320.180766 61.965843 
L 321.027323 58.523696 
L 321.450601 57.956265 
L 321.873879 61.774947 
L 322.297158 59.576691 
L 322.720436 64.898301 
L 323.143715 64.788363 
L 323.566993 65.986562 
L 323.990271 66.133398 
L 324.41355 68.793159 
L 324.836828 67.295264 
L 325.260107 68.012134 
L 325.683385 68.010366 
L 326.529942 72.102423 
L 327.376499 76.182839 
L 327.799777 75.313215 
L 328.223056 79.743412 
L 328.646334 78.084809 
L 329.069612 86.008 
L 329.492891 84.293926 
L 329.916169 87.677503 
L 330.339448 85.253338 
L 331.186005 91.645588 
L 331.609283 91.094498 
L 332.032561 98.067144 
L 332.45584 97.191935 
L 332.879118 100.371707 
L 333.302397 102.058242 
L 333.725675 104.331783 
L 334.148953 107.498149 
L 334.572232 109.052977 
L 334.99551 113.199565 
L 335.418789 115.583412 
L 335.842067 118.664031 
L 336.265346 117.386133 
L 336.688624 120.17811 
L 337.535181 128.345935 
L 337.958459 128.591783 
L 338.381738 132.216735 
L 338.805016 137.700878 
L 339.228294 139.486449 
L 339.651573 139.675212 
L 340.074851 147.240547 
L 340.49813 146.0784 
L 340.921408 152.046073 
L 341.344686 153.484759 
L 341.767965 157.254088 
L 342.191243 156.60778 
L 342.614522 159.79916 
L 343.0378 166.180762 
L 343.461079 166.585869 
L 343.884357 169.123117 
L 344.730914 177.718819 
L 345.154192 177.033261 
L 346.000749 182.510875 
L 346.424027 184.490959 
L 346.847306 191.84052 
L 347.270584 189.811472 
L 347.693863 196.339844 
L 348.117141 199.935197 
L 348.54042 198.18254 
L 348.963698 202.390363 
L 349.386976 208.810092 
L 349.810255 208.066694 
L 350.233533 214.704122 
L 350.656812 214.970047 
L 351.503368 220.148872 
L 351.926647 223.908208 
L 352.349925 223.641606 
L 352.773204 229.081222 
L 353.196482 229.905884 
L 353.619761 231.908993 
L 354.889596 241.709504 
L 355.312874 241.246642 
L 355.736153 245.669435 
L 356.159431 246.964193 
L 356.582709 252.224568 
L 357.005988 252.389834 
L 357.429266 253.88011 
L 357.852545 256.777562 
L 358.275823 255.437082 
L 358.699102 263.471022 
L 359.12238 261.920178 
L 359.545658 262.846608 
L 359.968937 267.429769 
L 360.392215 268.861886 
L 360.815494 268.2129 
L 361.238772 271.274591 
L 361.66205 268.857043 
L 362.085329 275.896743 
L 362.931886 278.299278 
L 363.355164 275.824787 
L 363.778443 280.044547 
L 364.201721 282.051134 
L 364.624999 283.11911 
L 365.048278 283.273763 
L 365.471556 286.944624 
L 365.894835 287.549733 
L 366.318113 288.35973 
L 366.741391 288.265059 
L 367.16467 285.159253 
L 367.587948 290.532964 
L 368.011227 287.793993 
L 368.434505 291.388169 
L 368.857784 288.8374 
L 369.281062 293.121282 
L 369.70434 292.348267 
L 370.127619 289.366208 
L 370.550897 292.616882 
L 370.974176 294.736828 
L 371.397454 294.313998 
L 371.820732 294.970631 
L 372.244011 292.119655 
L 372.667289 295.488 
L 373.090568 292.599274 
L 373.513846 294.264996 
L 373.937125 290.595551 
L 374.360403 290.214053 
L 374.783681 290.359634 
L 375.20696 288.477753 
L 375.630238 290.079689 
L 376.053517 287.816546 
L 376.476795 287.482079 
L 376.900073 288.017323 
L 377.74663 284.78628 
L 378.169909 284.201592 
L 378.593187 287.643036 
L 379.016466 283.741349 
L 379.439744 278.720597 
L 379.863022 276.886443 
L 380.286301 277.644592 
L 380.709579 279.483209 
L 381.132858 274.523429 
L 381.979414 275.37385 
L 382.402693 268.989133 
L 383.24925 267.655493 
L 383.672528 270.218728 
L 384.095807 263.89357 
L 384.519085 266.21043 
L 384.942363 260.591294 
L 385.78892 253.34075 
L 386.212199 252.400887 
L 386.635477 253.803455 
L 387.058755 248.494348 
L 387.482034 244.823367 
L 387.905312 243.658008 
L 388.751869 238.973963 
L 389.175148 237.291266 
L 389.598426 236.72895 
L 390.444983 229.651925 
L 390.868261 227.279676 
L 391.29154 225.903062 
L 391.714818 226.381958 
L 392.138096 218.790741 
L 392.561375 217.61026 
L 394.254489 210.252502 
L 394.677767 203.536534 
L 395.101045 202.843102 
L 395.524324 196.740161 
L 395.947602 192.571265 
L 396.370881 192.816612 
L 397.217437 187.357379 
L 398.063994 179.868812 
L 398.487273 176.083633 
L 398.487273 176.083633 
" style="fill:none;stroke:#2ca02c;stroke-linecap:square;stroke-opacity:0.8;stroke-width:1.5;"/>
   </g>
   <g id="patch_3">
    <path d="M 57.6 307.584 
L 57.6 41.472 
" style="fill:none;stroke:#000000;stroke-linecap:square;stroke-linejoin:miter;stroke-width:0.8;"/>
   </g>
   <g id="patch_4">
    <path d="M 414.72 307.584 
L 414.72 41.472 
" style="fill:none;stroke:#000000;stroke-linecap:square;stroke-linejoin:miter;stroke-width:0.8;"/>
   </g>
   <g id="patch_5">
    <path d="M 57.6 307.584 
L 414.72 307.584 
" style="fill:none;stroke:#000000;stroke-linecap:square;stroke-linejoin:miter;stroke-width:0.8;"/>
   </g>
   <g id="patch_6">
    <path d="M 57.6 41.472 
L 414.72 41.472 
" style="fill:none;stroke:#000000;stroke-linecap:square;stroke-linejoin:miter;stroke-width:0.8;"/>
   </g>
  </g>
 </g>
 <defs>
  <clipPath id="p0e69d6ab5c">
   <rect height="266.112" width="357.12" x="57.6" y="41.472"/>
  </clipPath>
 </defs>
</svg>
