<?xml version="1.0" encoding="utf-8" standalone="no"?>
<!DOCTYPE svg PUBLIC "-//W3C//DTD SVG 1.1//EN"
  "http://www.w3.org/Graphics/SVG/1.1/DTD/svg11.dtd">
<!-- Created with matplotlib (https://matplotlib.org/) -->
<svg height="345.6pt" version="1.1" viewBox="0 0 460.8 345.6" width="460.8pt" xmlns="http://www.w3.org/2000/svg" xmlns:xlink="http://www.w3.org/1999/xlink">
 <defs>
  <style type="text/css">
*{stroke-linecap:butt;stroke-linejoin:round;}
  </style>
 </defs>
 <g id="figure_1">
  <g id="patch_1">
   <path d="M 0 345.6 
L 460.8 345.6 
L 460.8 0 
L 0 0 
z
" style="fill:#ffffff;"/>
  </g>
  <g id="axes_1">
   <g id="patch_2">
    <path d="M 57.6 307.584 
L 414.72 307.584 
L 414.72 41.472 
L 57.6 41.472 
z
" style="fill:#ffffff;"/>
   </g>
   <g id="matplotlib.axis_1">
    <g id="xtick_1">
     <g id="line2d_1">
      <defs>
       <path d="M 0 0 
L 0 3.5 
" id="m127d2f6d0e" style="stroke:#000000;stroke-width:0.8;"/>
      </defs>
      <g>
       <use style="stroke:#000000;stroke-width:0.8;" x="73.832727" xlink:href="#m127d2f6d0e" y="307.584"/>
      </g>
     </g>
     <g id="text_1">
      <!-- 0.00 -->
      <defs>
       <path d="M 31.78125 66.40625 
Q 24.171875 66.40625 20.328125 58.90625 
Q 16.5 51.421875 16.5 36.375 
Q 16.5 21.390625 20.328125 13.890625 
Q 24.171875 6.390625 31.78125 6.390625 
Q 39.453125 6.390625 43.28125 13.890625 
Q 47.125 21.390625 47.125 36.375 
Q 47.125 51.421875 43.28125 58.90625 
Q 39.453125 66.40625 31.78125 66.40625 
z
M 31.78125 74.21875 
Q 44.046875 74.21875 50.515625 64.515625 
Q 56.984375 54.828125 56.984375 36.375 
Q 56.984375 17.96875 50.515625 8.265625 
Q 44.046875 -1.421875 31.78125 -1.421875 
Q 19.53125 -1.421875 13.0625 8.265625 
Q 6.59375 17.96875 6.59375 36.375 
Q 6.59375 54.828125 13.0625 64.515625 
Q 19.53125 74.21875 31.78125 74.21875 
z
" id="DejaVuSans-48"/>
       <path d="M 10.6875 12.40625 
L 21 12.40625 
L 21 0 
L 10.6875 0 
z
" id="DejaVuSans-46"/>
      </defs>
      <g transform="translate(62.699915 322.182437)scale(0.1 -0.1)">
       <use xlink:href="#DejaVuSans-48"/>
       <use x="63.623047" xlink:href="#DejaVuSans-46"/>
       <use x="95.410156" xlink:href="#DejaVuSans-48"/>
       <use x="159.033203" xlink:href="#DejaVuSans-48"/>
      </g>
     </g>
    </g>
    <g id="xtick_2">
     <g id="line2d_2">
      <g>
       <use style="stroke:#000000;stroke-width:0.8;" x="138.848292" xlink:href="#m127d2f6d0e" y="307.584"/>
      </g>
     </g>
     <g id="text_2">
      <!-- 0.01 -->
      <defs>
       <path d="M 12.40625 8.296875 
L 28.515625 8.296875 
L 28.515625 63.921875 
L 10.984375 60.40625 
L 10.984375 69.390625 
L 28.421875 72.90625 
L 38.28125 72.90625 
L 38.28125 8.296875 
L 54.390625 8.296875 
L 54.390625 0 
L 12.40625 0 
z
" id="DejaVuSans-49"/>
      </defs>
      <g transform="translate(127.71548 322.182437)scale(0.1 -0.1)">
       <use xlink:href="#DejaVuSans-48"/>
       <use x="63.623047" xlink:href="#DejaVuSans-46"/>
       <use x="95.410156" xlink:href="#DejaVuSans-48"/>
       <use x="159.033203" xlink:href="#DejaVuSans-49"/>
      </g>
     </g>
    </g>
    <g id="xtick_3">
     <g id="line2d_3">
      <g>
       <use style="stroke:#000000;stroke-width:0.8;" x="203.863857" xlink:href="#m127d2f6d0e" y="307.584"/>
      </g>
     </g>
     <g id="text_3">
      <!-- 0.02 -->
      <defs>
       <path d="M 19.1875 8.296875 
L 53.609375 8.296875 
L 53.609375 0 
L 7.328125 0 
L 7.328125 8.296875 
Q 12.9375 14.109375 22.625 23.890625 
Q 32.328125 33.6875 34.8125 36.53125 
Q 39.546875 41.84375 41.421875 45.53125 
Q 43.3125 49.21875 43.3125 52.78125 
Q 43.3125 58.59375 39.234375 62.25 
Q 35.15625 65.921875 28.609375 65.921875 
Q 23.96875 65.921875 18.8125 64.3125 
Q 13.671875 62.703125 7.8125 59.421875 
L 7.8125 69.390625 
Q 13.765625 71.78125 18.9375 73 
Q 24.125 74.21875 28.421875 74.21875 
Q 39.75 74.21875 46.484375 68.546875 
Q 53.21875 62.890625 53.21875 53.421875 
Q 53.21875 48.921875 51.53125 44.890625 
Q 49.859375 40.875 45.40625 35.40625 
Q 44.1875 33.984375 37.640625 27.21875 
Q 31.109375 20.453125 19.1875 8.296875 
z
" id="DejaVuSans-50"/>
      </defs>
      <g transform="translate(192.731044 322.182437)scale(0.1 -0.1)">
       <use xlink:href="#DejaVuSans-48"/>
       <use x="63.623047" xlink:href="#DejaVuSans-46"/>
       <use x="95.410156" xlink:href="#DejaVuSans-48"/>
       <use x="159.033203" xlink:href="#DejaVuSans-50"/>
      </g>
     </g>
    </g>
    <g id="xtick_4">
     <g id="line2d_4">
      <g>
       <use style="stroke:#000000;stroke-width:0.8;" x="268.879422" xlink:href="#m127d2f6d0e" y="307.584"/>
      </g>
     </g>
     <g id="text_4">
      <!-- 0.03 -->
      <defs>
       <path d="M 40.578125 39.3125 
Q 47.65625 37.796875 51.625 33 
Q 55.609375 28.21875 55.609375 21.1875 
Q 55.609375 10.40625 48.1875 4.484375 
Q 40.765625 -1.421875 27.09375 -1.421875 
Q 22.515625 -1.421875 17.65625 -0.515625 
Q 12.796875 0.390625 7.625 2.203125 
L 7.625 11.71875 
Q 11.71875 9.328125 16.59375 8.109375 
Q 21.484375 6.890625 26.8125 6.890625 
Q 36.078125 6.890625 40.9375 10.546875 
Q 45.796875 14.203125 45.796875 21.1875 
Q 45.796875 27.640625 41.28125 31.265625 
Q 36.765625 34.90625 28.71875 34.90625 
L 20.21875 34.90625 
L 20.21875 43.015625 
L 29.109375 43.015625 
Q 36.375 43.015625 40.234375 45.921875 
Q 44.09375 48.828125 44.09375 54.296875 
Q 44.09375 59.90625 40.109375 62.90625 
Q 36.140625 65.921875 28.71875 65.921875 
Q 24.65625 65.921875 20.015625 65.03125 
Q 15.375 64.15625 9.8125 62.3125 
L 9.8125 71.09375 
Q 15.4375 72.65625 20.34375 73.4375 
Q 25.25 74.21875 29.59375 74.21875 
Q 40.828125 74.21875 47.359375 69.109375 
Q 53.90625 64.015625 53.90625 55.328125 
Q 53.90625 49.265625 50.4375 45.09375 
Q 46.96875 40.921875 40.578125 39.3125 
z
" id="DejaVuSans-51"/>
      </defs>
      <g transform="translate(257.746609 322.182437)scale(0.1 -0.1)">
       <use xlink:href="#DejaVuSans-48"/>
       <use x="63.623047" xlink:href="#DejaVuSans-46"/>
       <use x="95.410156" xlink:href="#DejaVuSans-48"/>
       <use x="159.033203" xlink:href="#DejaVuSans-51"/>
      </g>
     </g>
    </g>
    <g id="xtick_5">
     <g id="line2d_5">
      <g>
       <use style="stroke:#000000;stroke-width:0.8;" x="333.894986" xlink:href="#m127d2f6d0e" y="307.584"/>
      </g>
     </g>
     <g id="text_5">
      <!-- 0.04 -->
      <defs>
       <path d="M 37.796875 64.3125 
L 12.890625 25.390625 
L 37.796875 25.390625 
z
M 35.203125 72.90625 
L 47.609375 72.90625 
L 47.609375 25.390625 
L 58.015625 25.390625 
L 58.015625 17.1875 
L 47.609375 17.1875 
L 47.609375 0 
L 37.796875 0 
L 37.796875 17.1875 
L 4.890625 17.1875 
L 4.890625 26.703125 
z
" id="DejaVuSans-52"/>
      </defs>
      <g transform="translate(322.762174 322.182437)scale(0.1 -0.1)">
       <use xlink:href="#DejaVuSans-48"/>
       <use x="63.623047" xlink:href="#DejaVuSans-46"/>
       <use x="95.410156" xlink:href="#DejaVuSans-48"/>
       <use x="159.033203" xlink:href="#DejaVuSans-52"/>
      </g>
     </g>
    </g>
    <g id="xtick_6">
     <g id="line2d_6">
      <g>
       <use style="stroke:#000000;stroke-width:0.8;" x="398.910551" xlink:href="#m127d2f6d0e" y="307.584"/>
      </g>
     </g>
     <g id="text_6">
      <!-- 0.05 -->
      <defs>
       <path d="M 10.796875 72.90625 
L 49.515625 72.90625 
L 49.515625 64.59375 
L 19.828125 64.59375 
L 19.828125 46.734375 
Q 21.96875 47.46875 24.109375 47.828125 
Q 26.265625 48.1875 28.421875 48.1875 
Q 40.625 48.1875 47.75 41.5 
Q 54.890625 34.8125 54.890625 23.390625 
Q 54.890625 11.625 47.5625 5.09375 
Q 40.234375 -1.421875 26.90625 -1.421875 
Q 22.3125 -1.421875 17.546875 -0.640625 
Q 12.796875 0.140625 7.71875 1.703125 
L 7.71875 11.625 
Q 12.109375 9.234375 16.796875 8.0625 
Q 21.484375 6.890625 26.703125 6.890625 
Q 35.15625 6.890625 40.078125 11.328125 
Q 45.015625 15.765625 45.015625 23.390625 
Q 45.015625 31 40.078125 35.4375 
Q 35.15625 39.890625 26.703125 39.890625 
Q 22.75 39.890625 18.8125 39.015625 
Q 14.890625 38.140625 10.796875 36.28125 
z
" id="DejaVuSans-53"/>
      </defs>
      <g transform="translate(387.777739 322.182437)scale(0.1 -0.1)">
       <use xlink:href="#DejaVuSans-48"/>
       <use x="63.623047" xlink:href="#DejaVuSans-46"/>
       <use x="95.410156" xlink:href="#DejaVuSans-48"/>
       <use x="159.033203" xlink:href="#DejaVuSans-53"/>
      </g>
     </g>
    </g>
   </g>
   <g id="matplotlib.axis_2">
    <g id="ytick_1">
     <g id="line2d_7">
      <defs>
       <path d="M 0 0 
L -3.5 0 
" id="m2093d07a6d" style="stroke:#000000;stroke-width:0.8;"/>
      </defs>
      <g>
       <use style="stroke:#000000;stroke-width:0.8;" x="57.6" xlink:href="#m2093d07a6d" y="276.997375"/>
      </g>
     </g>
     <g id="text_7">
      <!-- 0 -->
      <g transform="translate(44.2375 280.796594)scale(0.1 -0.1)">
       <use xlink:href="#DejaVuSans-48"/>
      </g>
     </g>
    </g>
    <g id="ytick_2">
     <g id="line2d_8">
      <g>
       <use style="stroke:#000000;stroke-width:0.8;" x="57.6" xlink:href="#m2093d07a6d" y="217.970596"/>
      </g>
     </g>
     <g id="text_8">
      <!-- 5 -->
      <g transform="translate(44.2375 221.769815)scale(0.1 -0.1)">
       <use xlink:href="#DejaVuSans-53"/>
      </g>
     </g>
    </g>
    <g id="ytick_3">
     <g id="line2d_9">
      <g>
       <use style="stroke:#000000;stroke-width:0.8;" x="57.6" xlink:href="#m2093d07a6d" y="158.943817"/>
      </g>
     </g>
     <g id="text_9">
      <!-- 10 -->
      <g transform="translate(37.875 162.743035)scale(0.1 -0.1)">
       <use xlink:href="#DejaVuSans-49"/>
       <use x="63.623047" xlink:href="#DejaVuSans-48"/>
      </g>
     </g>
    </g>
    <g id="ytick_4">
     <g id="line2d_10">
      <g>
       <use style="stroke:#000000;stroke-width:0.8;" x="57.6" xlink:href="#m2093d07a6d" y="99.917037"/>
      </g>
     </g>
     <g id="text_10">
      <!-- 15 -->
      <g transform="translate(37.875 103.716256)scale(0.1 -0.1)">
       <use xlink:href="#DejaVuSans-49"/>
       <use x="63.623047" xlink:href="#DejaVuSans-53"/>
      </g>
     </g>
    </g>
   </g>
   <g id="line2d_11">
    <path clip-path="url(#p03174fd74f)" d="M 73.832727 276.997375 
L 74.679284 274.86499 
L 75.949119 271.038664 
L 77.218955 266.630658 
L 78.912068 260.032204 
L 80.605182 252.517524 
L 83.991409 235.358379 
L 87.800915 213.1464 
L 92.456978 183.509309 
L 100.499268 131.643343 
L 104.308773 109.575281 
L 107.271722 94.305884 
L 110.65795 79.821384 
L 113.620898 69.856888 
L 117.007126 62.411436 
L 119.970075 59.366493 
L 120.393353 59.192036 
L 123.356302 59.840805 
L 126.742529 64.743626 
L 128.435643 68.8057 
L 130.975314 76.787359 
L 133.514984 86.696821 
L 137.32449 105.263473 
L 141.133995 127.000659 
L 145.36678 153.646538 
L 155.94874 221.681485 
L 157.641854 231.507151 
L 160.604803 247.452837 
L 163.567752 261.137433 
L 166.5307 272.416904 
L 168.223814 277.43036 
L 170.340206 282.277633 
L 172.03332 285.113037 
L 172.879877 286.08619 
L 173.303155 286.482611 
L 174.149712 286.868016 
L 175.419547 287.3238 
L 175.842826 287.301115 
L 177.959218 286.226779 
L 178.805775 285.262932 
L 179.652331 284.058529 
L 180.498888 282.573291 
L 181.768723 279.876501 
L 182.61528 277.801806 
L 183.885116 274.156024 
L 185.578229 268.428341 
L 186.848064 263.539905 
L 189.811013 250.261099 
L 193.197241 232.474235 
L 196.583468 212.351897 
L 200.392974 188.035339 
L 208.011985 138.698305 
L 210.974934 120.834004 
L 213.937883 104.479084 
L 216.900832 90.102345 
L 220.287059 76.88435 
L 223.250008 68.292734 
L 224.096565 66.693788 
L 226.636236 62.340969 
L 227.482792 61.866607 
L 230.022463 60.697066 
L 233.40869 63.461219 
L 235.101804 66.502749 
L 236.794918 70.480995 
L 238.488031 75.523453 
L 240.181145 81.580864 
L 243.567372 96.196825 
L 247.376878 116.288694 
L 251.186384 139.119748 
L 255.842446 169.187974 
L 263.038179 215.764905 
L 265.57785 230.781386 
L 267.270964 240.277649 
L 270.233913 255.333213 
L 273.62014 269.645447 
L 275.313254 275.407084 
L 276.583089 279.08067 
L 277.852924 282.219601 
L 279.122759 284.853479 
L 279.969316 286.245043 
L 282.508987 288.690992 
L 284.625379 288.934715 
L 285.471936 288.581649 
L 286.318492 287.909402 
L 287.165049 286.84741 
L 288.434884 285.0428 
L 290.127998 281.518685 
L 290.974555 279.48937 
L 292.24439 275.827488 
L 293.514225 271.64435 
L 294.784061 266.884687 
L 296.900453 257.931321 
L 298.593566 249.935991 
L 300.709959 238.685739 
L 304.096186 219.132667 
L 308.752248 189.665322 
L 317.641095 132.567563 
L 320.604044 115.281577 
L 323.566993 99.71045 
L 326.95322 84.808131 
L 329.916169 74.425229 
L 333.302397 66.458607 
L 336.265346 63.030504 
L 336.688624 62.710983 
L 339.651573 63.026896 
L 340.074851 63.276567 
L 342.191243 65.802028 
L 344.730914 71.052465 
L 346.424027 75.871393 
L 348.54042 83.594963 
L 350.233533 90.22326 
L 353.619761 106.39502 
L 357.429266 127.830903 
L 361.66205 154.278531 
L 373.090568 227.707298 
L 376.476795 246.629803 
L 380.286301 264.576032 
L 382.402693 272.759287 
L 384.095807 278.386821 
L 385.78892 282.9176 
L 386.635477 284.828337 
L 389.175148 288.988847 
L 391.714818 290.706992 
L 392.561375 290.720302 
L 392.984653 290.642478 
L 393.83121 290.004909 
L 395.524324 288.559764 
L 395.947602 287.983654 
L 398.487273 283.272766 
L 398.487273 283.272766 
" style="fill:none;stroke:#1f77b4;stroke-linecap:square;stroke-width:2;"/>
   </g>
   <g id="line2d_12">
    <path clip-path="url(#p03174fd74f)" d="M 73.832727 276.060393 
L 74.256006 274.725888 
L 74.679284 280.005215 
L 75.102563 275.01264 
L 75.949119 272.549936 
L 76.372398 273.440465 
L 76.795676 268.608413 
L 77.218955 266.66269 
L 77.642233 266.655674 
L 78.065511 264.675909 
L 78.48879 261.874793 
L 78.912068 260.765418 
L 79.335347 261.129613 
L 79.758625 260.180153 
L 80.181904 253.36105 
L 80.605182 251.860989 
L 81.02846 253.799333 
L 81.451739 253.525943 
L 81.875017 240.58697 
L 82.298296 244.400316 
L 82.721574 242.905719 
L 83.144852 240.962713 
L 83.568131 235.006219 
L 83.991409 235.296055 
L 84.837966 230.793538 
L 85.261245 227.136858 
L 86.107801 217.091608 
L 86.53108 222.250604 
L 86.954358 219.055024 
L 87.377637 214.629326 
L 87.800915 213.469761 
L 88.224193 209.284138 
L 89.07075 205.799784 
L 89.494029 200.858018 
L 89.917307 199.481574 
L 90.340586 200.766689 
L 90.763864 197.218981 
L 91.187142 189.287066 
L 91.610421 187.131421 
L 92.033699 188.746811 
L 92.456978 180.926827 
L 92.880256 178.400757 
L 93.303534 183.281217 
L 94.150091 169.378028 
L 94.57337 167.817613 
L 94.996648 164.306573 
L 95.419927 166.535749 
L 97.11304 152.234115 
L 97.536319 143.944152 
L 97.959597 154.560202 
L 98.382875 150.273212 
L 99.229432 138.341798 
L 99.652711 134.951105 
L 100.075989 134.897032 
L 100.499268 130.394862 
L 100.922546 131.811756 
L 101.345824 124.955284 
L 101.769103 121.897624 
L 102.192381 124.505662 
L 102.61566 122.426431 
L 103.038938 123.27484 
L 104.308773 105.287564 
L 104.732052 111.322171 
L 105.15533 105.668427 
L 105.578609 103.285775 
L 106.001887 98.379565 
L 106.425165 98.303535 
L 106.848444 97.454492 
L 107.695001 94.515051 
L 108.118279 88.050631 
L 108.541557 83.966907 
L 108.964836 86.99954 
L 109.388114 84.039171 
L 109.811393 79.455565 
L 110.234671 80.913057 
L 110.65795 77.48186 
L 111.081228 78.197556 
L 111.504506 77.589451 
L 111.927785 72.784509 
L 112.351063 74.386923 
L 112.774342 68.423157 
L 113.19762 69.828714 
L 113.620898 70.023395 
L 114.044177 72.707346 
L 114.467455 66.674862 
L 114.890734 62.804383 
L 115.314012 64.429129 
L 115.737291 67.245277 
L 116.160569 64.390094 
L 116.583847 66.049071 
L 117.007126 66.607488 
L 117.430404 63.122989 
L 117.853683 64.701659 
L 118.276961 64.34321 
L 119.546796 54.299375 
L 119.970075 61.320933 
L 120.393353 53.568 
L 121.23991 60.664199 
L 121.663188 60.379985 
L 122.086467 60.674721 
L 122.509745 56.362084 
L 122.933024 53.752449 
L 123.356302 58.104881 
L 123.77958 61.164959 
L 124.202859 57.479135 
L 124.626137 64.451211 
L 125.049416 61.237682 
L 125.895973 66.046512 
L 126.319251 64.017062 
L 126.742529 64.082061 
L 127.165808 65.970905 
L 127.589086 64.035348 
L 128.435643 65.11932 
L 129.2822 73.967631 
L 129.705478 70.384592 
L 130.128757 75.491772 
L 130.552035 73.818478 
L 130.975314 75.529997 
L 131.398592 73.351008 
L 131.82187 82.513517 
L 132.245149 85.987728 
L 132.668427 82.16232 
L 133.091706 85.775578 
L 133.514984 86.156939 
L 133.938262 90.520689 
L 134.361541 91.31544 
L 135.208098 97.218476 
L 135.631376 94.697721 
L 136.054654 96.412001 
L 136.477933 101.503293 
L 136.901211 101.274259 
L 137.32449 103.247969 
L 137.747768 109.133089 
L 138.171047 112.105411 
L 138.594325 113.244571 
L 139.017603 110.501459 
L 139.440882 116.943559 
L 139.86416 115.324316 
L 140.287439 122.237277 
L 140.710717 122.67934 
L 141.557274 134.564111 
L 141.980552 132.473726 
L 142.403831 134.573854 
L 142.827109 137.547804 
L 143.250388 144.065044 
L 143.673666 142.11081 
L 144.096944 149.140725 
L 144.943501 154.064413 
L 145.36678 152.76297 
L 145.790058 153.825311 
L 146.213336 156.705703 
L 146.636615 162.14826 
L 147.059893 161.525699 
L 147.483172 169.011535 
L 147.90645 169.361448 
L 148.329729 176.062492 
L 148.753007 174.596519 
L 149.176285 176.23689 
L 149.599564 179.85835 
L 150.022842 186.542274 
L 150.446121 187.967205 
L 150.869399 186.589825 
L 151.292677 193.269453 
L 151.715956 195.243885 
L 152.139234 200.770321 
L 152.562513 204.635533 
L 152.985791 203.760704 
L 153.40907 210.24839 
L 153.832348 212.256236 
L 154.255626 214.976649 
L 154.678905 211.390815 
L 155.102183 215.812897 
L 155.525462 218.471898 
L 155.94874 220.400243 
L 156.372018 221.490465 
L 157.218575 225.477995 
L 157.641854 235.806791 
L 158.065132 238.375262 
L 158.488411 237.970372 
L 158.911689 238.318773 
L 159.334967 244.165386 
L 159.758246 246.680883 
L 160.181524 246.753007 
L 160.604803 248.046961 
L 161.028081 252.295189 
L 161.451359 249.090948 
L 161.874638 251.451627 
L 162.297916 261.973153 
L 162.721195 258.228913 
L 163.567752 263.540051 
L 163.99103 260.911368 
L 164.414308 267.075965 
L 164.837587 262.892956 
L 165.260865 270.723804 
L 165.684144 276.265938 
L 166.107422 273.91612 
L 166.5307 274.536199 
L 166.953979 267.261107 
L 167.800536 280.125894 
L 168.223814 275.603176 
L 168.647093 276.652176 
L 169.070371 279.172577 
L 169.493649 278.763657 
L 169.916928 284.668963 
L 170.340206 283.035039 
L 170.763485 283.755908 
L 171.186763 282.82316 
L 171.610041 284.999467 
L 172.03332 283.195442 
L 172.456598 282.882595 
L 172.879877 287.914936 
L 173.303155 287.7013 
L 173.726434 286.552687 
L 174.149712 284.906001 
L 174.57299 287.166415 
L 174.996269 286.09207 
L 175.419547 287.681643 
L 175.842826 284.363995 
L 176.266104 290.842053 
L 176.689382 290.782388 
L 177.112661 285.297621 
L 177.535939 291.810273 
L 177.959218 285.666834 
L 178.382496 284.11541 
L 178.805775 285.690723 
L 179.229053 284.483661 
L 179.652331 288.495279 
L 180.07561 287.928104 
L 180.498888 278.342106 
L 180.922167 280.084092 
L 181.345445 282.584044 
L 181.768723 278.852082 
L 182.192002 282.062996 
L 182.61528 280.668998 
L 183.038559 279.789657 
L 183.461837 274.630554 
L 183.885116 276.250911 
L 184.308394 274.25366 
L 184.731672 269.529087 
L 185.154951 271.709616 
L 185.578229 269.985617 
L 186.001508 266.598344 
L 186.848064 268.298328 
L 187.271343 265.985618 
L 187.694621 253.256629 
L 188.1179 256.014864 
L 188.541178 252.848083 
L 188.964457 251.550067 
L 189.387735 249.57593 
L 189.811013 249.709074 
L 190.234292 249.005481 
L 190.65757 247.338607 
L 191.080849 240.430205 
L 191.504127 242.520816 
L 191.927405 238.129366 
L 192.350684 241.249653 
L 192.773962 236.010158 
L 193.620519 228.108559 
L 194.043798 223.956266 
L 194.467076 223.895547 
L 194.890354 222.416825 
L 195.313633 221.512866 
L 195.736911 217.131842 
L 196.16019 217.444747 
L 196.583468 209.988187 
L 197.006746 208.093581 
L 197.430025 210.458942 
L 197.853303 203.912649 
L 198.276582 202.334687 
L 198.69986 203.368204 
L 199.123139 193.627417 
L 199.546417 199.271084 
L 199.969695 192.143185 
L 200.816252 187.462414 
L 201.662809 179.295896 
L 202.086087 179.688796 
L 202.509366 171.675082 
L 202.932644 168.751104 
L 203.355923 168.147214 
L 203.779201 162.728582 
L 204.20248 161.489675 
L 204.625758 157.843181 
L 205.049036 160.644707 
L 205.895593 155.6254 
L 206.318872 147.824171 
L 206.74215 147.429254 
L 207.588707 139.797035 
L 208.011985 140.531099 
L 208.435264 138.619995 
L 209.705099 126.199494 
L 210.128377 125.586253 
L 210.551656 121.345173 
L 210.974934 120.931227 
L 211.398213 116.951014 
L 211.821491 114.85519 
L 212.244769 114.556949 
L 212.668048 119.432383 
L 213.091326 111.399037 
L 213.514605 108.042044 
L 213.937883 100.969435 
L 214.361162 105.318853 
L 214.78444 103.325573 
L 215.207718 95.883737 
L 215.630997 99.668489 
L 216.054275 94.217959 
L 216.477554 93.904608 
L 216.900832 89.071843 
L 217.32411 90.675293 
L 217.747389 88.281688 
L 218.170667 87.084945 
L 218.593946 81.999022 
L 219.017224 85.37084 
L 219.440503 80.364164 
L 219.863781 78.91157 
L 220.287059 80.134513 
L 220.710338 76.652402 
L 221.133616 74.432875 
L 221.980173 75.83428 
L 222.82673 66.26955 
L 223.250008 62.64719 
L 223.673287 71.669156 
L 224.096565 65.199235 
L 224.519844 63.97671 
L 224.943122 65.169437 
L 225.3664 64.190718 
L 226.212957 59.873337 
L 226.636236 65.267856 
L 227.059514 65.62994 
L 227.482792 60.683023 
L 227.906071 61.353912 
L 228.329349 59.28225 
L 228.752628 63.156146 
L 229.175906 61.834063 
L 229.599185 58.845161 
L 230.022463 66.481922 
L 230.445741 62.717382 
L 230.86902 63.197404 
L 231.292298 63.042348 
L 231.715577 58.801104 
L 232.138855 64.104283 
L 232.562133 57.422435 
L 232.985412 63.8374 
L 233.40869 65.914474 
L 233.831969 60.668983 
L 234.255247 64.874127 
L 234.678526 65.324679 
L 235.101804 71.761021 
L 235.525082 65.840613 
L 235.948361 65.553937 
L 236.371639 69.472129 
L 236.794918 70.83187 
L 237.218196 71.137367 
L 237.641474 73.924415 
L 238.064753 73.717654 
L 238.488031 73.821586 
L 238.91131 78.514335 
L 239.334588 77.357464 
L 239.757867 81.538123 
L 240.181145 82.388017 
L 240.604423 82.468577 
L 241.027702 90.901228 
L 241.45098 87.123776 
L 241.874259 85.597053 
L 243.144094 93.724518 
L 243.567372 100.348294 
L 243.990651 97.554102 
L 244.413929 99.801697 
L 244.837208 107.083027 
L 245.260486 101.208896 
L 245.683764 105.763353 
L 246.107043 108.693253 
L 246.530321 113.395022 
L 246.9536 111.002057 
L 247.376878 120.058843 
L 247.800156 114.292841 
L 248.223435 126.423346 
L 248.646713 125.64742 
L 249.069992 122.089744 
L 249.49327 132.519718 
L 249.916549 129.838946 
L 250.339827 134.189144 
L 250.763105 135.44395 
L 251.186384 142.634738 
L 251.609662 142.069869 
L 252.032941 143.581566 
L 252.456219 151.349128 
L 252.879497 152.874957 
L 253.302776 153.290286 
L 253.726054 153.474274 
L 254.149333 159.573378 
L 254.99589 162.003412 
L 255.419168 165.416209 
L 255.842446 170.815041 
L 256.265725 172.198687 
L 256.689003 171.578312 
L 257.112282 179.483381 
L 257.53556 175.031675 
L 257.958838 185.199404 
L 258.382117 184.427339 
L 258.805395 193.797643 
L 259.228674 192.72266 
L 259.651952 197.720788 
L 260.075231 192.484 
L 260.498509 199.593662 
L 260.921787 200.718584 
L 261.345066 204.407895 
L 261.768344 211.629629 
L 262.191623 214.891967 
L 262.614901 214.331361 
L 263.038179 216.423038 
L 263.461458 216.738608 
L 263.884736 220.165786 
L 264.308015 225.870533 
L 264.731293 227.580216 
L 265.154572 226.829266 
L 265.57785 229.695221 
L 266.001128 230.400611 
L 266.847685 241.375843 
L 267.270964 234.379569 
L 267.694242 245.987195 
L 268.11752 241.606947 
L 269.387356 251.551335 
L 269.810634 258.96376 
L 270.233913 259.923514 
L 270.657191 255.635937 
L 271.080469 257.815435 
L 271.927026 263.639201 
L 272.350305 269.960231 
L 272.773583 266.167819 
L 273.196861 269.076642 
L 273.62014 270.729192 
L 274.043418 268.780434 
L 274.466697 275.60257 
L 274.889975 276.150863 
L 275.313254 273.868014 
L 275.736532 276.748312 
L 276.15981 278.174469 
L 276.583089 276.788685 
L 277.006367 281.337294 
L 277.429646 281.283288 
L 277.852924 283.15262 
L 278.276202 283.615068 
L 278.699481 284.615689 
L 279.122759 283.409701 
L 279.546038 287.481727 
L 279.969316 288.004135 
L 280.392595 290.334137 
L 280.815873 285.962843 
L 281.239151 286.833752 
L 281.66243 288.363265 
L 282.508987 287.155827 
L 282.932265 287.560635 
L 283.355543 285.103576 
L 283.778822 284.207746 
L 284.2021 289.973543 
L 284.625379 285.650482 
L 285.048657 288.623483 
L 285.471936 287.880047 
L 285.895214 291.011474 
L 286.741771 283.99908 
L 287.165049 292.600323 
L 287.588328 282.950931 
L 288.011606 287.724629 
L 288.434884 287.812521 
L 288.858163 288.449977 
L 289.281441 281.599177 
L 289.70472 283.417595 
L 290.127998 280.725435 
L 290.551277 283.366388 
L 290.974555 278.4148 
L 291.397833 276.405021 
L 291.821112 278.762805 
L 292.24439 276.102405 
L 293.090947 272.823955 
L 293.514225 267.982188 
L 293.937504 266.4892 
L 294.360782 264.25767 
L 294.784061 264.227021 
L 295.207339 262.280966 
L 295.630618 263.408365 
L 296.053896 263.301796 
L 296.477174 262.794898 
L 296.900453 259.908802 
L 297.74701 248.797065 
L 298.170288 246.605733 
L 298.593566 253.783753 
L 299.016845 246.407779 
L 299.440123 249.759582 
L 299.863402 242.979014 
L 300.28668 239.576196 
L 300.709959 240.201337 
L 301.133237 239.832155 
L 301.556515 232.405717 
L 301.979794 231.592342 
L 302.403072 229.803072 
L 302.826351 224.416954 
L 303.249629 223.288008 
L 303.672907 224.488243 
L 304.096186 220.620291 
L 304.519464 213.491306 
L 304.942743 215.113814 
L 305.7893 206.675821 
L 306.212578 202.244164 
L 306.635856 202.83662 
L 307.059135 196.845455 
L 307.482413 196.155911 
L 307.905692 196.34816 
L 308.32897 194.815877 
L 308.752248 190.262138 
L 309.175527 182.940667 
L 309.598805 181.932243 
L 310.022084 176.157966 
L 310.445362 181.814417 
L 310.868641 172.445521 
L 311.291919 173.081412 
L 311.715197 170.569313 
L 312.138476 172.633115 
L 312.561754 163.786522 
L 312.985033 161.529061 
L 313.408311 158.41056 
L 313.831589 158.706556 
L 314.254868 153.105169 
L 314.678146 149.880809 
L 315.101425 152.52514 
L 315.947982 144.379108 
L 316.794538 138.145372 
L 317.217817 132.604951 
L 317.641095 133.604875 
L 318.064374 130.307906 
L 318.487652 124.876198 
L 318.91093 125.343988 
L 319.334209 123.020925 
L 319.757487 119.834267 
L 320.180766 118.550824 
L 320.604044 116.502846 
L 321.450601 106.173511 
L 321.873879 109.321864 
L 322.297158 107.942632 
L 322.720436 108.862774 
L 323.143715 101.754765 
L 323.566993 100.336621 
L 323.990271 97.433661 
L 324.41355 98.273348 
L 324.836828 95.4722 
L 325.260107 91.415159 
L 325.683385 90.555155 
L 326.106664 90.019767 
L 326.529942 84.645416 
L 326.95322 84.342708 
L 327.376499 84.895332 
L 327.799777 78.826554 
L 328.223056 81.531832 
L 329.069612 76.978268 
L 329.492891 76.091893 
L 329.916169 77.947926 
L 330.339448 69.544596 
L 330.762726 74.939007 
L 331.186005 72.361367 
L 331.609283 68.30451 
L 332.032561 70.528708 
L 332.45584 62.53211 
L 332.879118 64.781375 
L 333.302397 69.32525 
L 333.725675 65.857364 
L 334.148953 64.296546 
L 334.572232 69.739821 
L 334.99551 61.516359 
L 335.418789 64.436023 
L 335.842067 61.938741 
L 336.265346 67.607727 
L 336.688624 61.622759 
L 337.111902 64.252937 
L 337.535181 61.127797 
L 337.958459 65.412079 
L 338.381738 66.272569 
L 338.805016 62.515474 
L 339.228294 66.202747 
L 339.651573 64.357379 
L 340.074851 61.216761 
L 340.49813 62.528297 
L 340.921408 61.706728 
L 341.344686 66.075946 
L 341.767965 65.026822 
L 342.614522 69.058053 
L 343.0378 63.093059 
L 343.461079 70.486004 
L 343.884357 69.611452 
L 344.307635 74.708675 
L 344.730914 70.622162 
L 345.154192 71.773148 
L 345.577471 69.467057 
L 346.000749 70.608683 
L 346.424027 74.659342 
L 347.270584 74.940279 
L 347.693863 83.443835 
L 348.117141 84.666491 
L 348.54042 84.649649 
L 348.963698 85.970296 
L 349.386976 92.105295 
L 349.810255 91.580356 
L 350.233533 93.610756 
L 350.656812 93.798919 
L 351.08009 98.203242 
L 351.503368 94.131894 
L 351.926647 96.647548 
L 352.773204 106.575944 
L 353.196482 104.30749 
L 353.619761 104.502822 
L 354.043039 108.61225 
L 354.466317 114.826866 
L 354.889596 111.868852 
L 355.312874 115.851699 
L 355.736153 115.220061 
L 356.159431 118.356066 
L 357.005988 120.086783 
L 357.429266 128.069869 
L 357.852545 133.807796 
L 358.275823 131.903137 
L 358.699102 132.50426 
L 359.12238 133.453933 
L 359.545658 134.735255 
L 359.968937 140.452863 
L 360.815494 148.208883 
L 361.238772 153.680781 
L 361.66205 153.362687 
L 362.085329 156.611943 
L 362.508607 155.836385 
L 362.931886 165.034109 
L 363.355164 163.783475 
L 363.778443 167.537941 
L 364.201721 175.138788 
L 364.624999 174.438192 
L 365.048278 179.39128 
L 365.471556 178.485491 
L 365.894835 178.546785 
L 366.318113 183.557657 
L 366.741391 195.071804 
L 367.16467 193.780866 
L 367.587948 193.363297 
L 368.011227 195.651638 
L 368.434505 197.104848 
L 368.857784 202.055136 
L 369.281062 202.615481 
L 369.70434 208.411847 
L 370.127619 207.269385 
L 370.550897 214.639783 
L 370.974176 214.62283 
L 371.397454 216.553942 
L 371.820732 220.652035 
L 372.244011 220.576192 
L 373.090568 226.538419 
L 373.937125 234.294554 
L 374.360403 236.181472 
L 374.783681 242.88439 
L 375.20696 238.003098 
L 375.630238 243.55858 
L 376.053517 246.492237 
L 376.476795 246.124781 
L 376.900073 247.699419 
L 377.323352 250.567102 
L 377.74663 257.003467 
L 378.169909 252.447756 
L 378.593187 263.281602 
L 379.439744 261.12781 
L 379.863022 263.411569 
L 380.286301 266.507246 
L 380.709579 266.213035 
L 381.556136 267.762479 
L 381.979414 272.537596 
L 382.402693 271.584365 
L 382.825971 271.154429 
L 383.24925 277.869867 
L 383.672528 281.068915 
L 384.095807 277.72295 
L 384.519085 277.685668 
L 384.942363 279.731466 
L 385.365642 285.71253 
L 385.78892 285.323554 
L 386.212199 283.908329 
L 386.635477 285.030136 
L 387.058755 286.903813 
L 387.482034 287.602808 
L 387.905312 286.295859 
L 388.328591 291.157683 
L 388.751869 282.810368 
L 389.175148 286.981504 
L 389.598426 289.251069 
L 390.021704 289.458623 
L 390.444983 291.729727 
L 391.29154 289.026319 
L 391.714818 288.530413 
L 392.138096 290.55278 
L 392.561375 290.054416 
L 392.984653 291.989403 
L 393.407932 295.488 
L 393.83121 289.245979 
L 394.254489 287.060645 
L 394.677767 289.606542 
L 395.101045 289.961299 
L 395.524324 288.151195 
L 395.947602 288.513948 
L 396.370881 290.289728 
L 396.794159 282.310409 
L 397.217437 287.660665 
L 397.640716 281.329892 
L 398.063994 283.101932 
L 398.487273 287.494744 
L 398.487273 287.494744 
" style="fill:none;stroke:#ff7f0e;stroke-linecap:square;stroke-opacity:0.8;stroke-width:1.5;"/>
   </g>
   <g id="patch_3">
    <path d="M 57.6 307.584 
L 57.6 41.472 
" style="fill:none;stroke:#000000;stroke-linecap:square;stroke-linejoin:miter;stroke-width:0.8;"/>
   </g>
   <g id="patch_4">
    <path d="M 414.72 307.584 
L 414.72 41.472 
" style="fill:none;stroke:#000000;stroke-linecap:square;stroke-linejoin:miter;stroke-width:0.8;"/>
   </g>
   <g id="patch_5">
    <path d="M 57.6 307.584 
L 414.72 307.584 
" style="fill:none;stroke:#000000;stroke-linecap:square;stroke-linejoin:miter;stroke-width:0.8;"/>
   </g>
   <g id="patch_6">
    <path d="M 57.6 41.472 
L 414.72 41.472 
" style="fill:none;stroke:#000000;stroke-linecap:square;stroke-linejoin:miter;stroke-width:0.8;"/>
   </g>
  </g>
 </g>
 <defs>
  <clipPath id="p03174fd74f">
   <rect height="266.112" width="357.12" x="57.6" y="41.472"/>
  </clipPath>
 </defs>
</svg>
