<?xml version="1.0" encoding="utf-8" standalone="no"?>
<!DOCTYPE svg PUBLIC "-//W3C//DTD SVG 1.1//EN"
  "http://www.w3.org/Graphics/SVG/1.1/DTD/svg11.dtd">
<!-- Created with matplotlib (https://matplotlib.org/) -->
<svg height="345.6pt" version="1.1" viewBox="0 0 460.8 345.6" width="460.8pt" xmlns="http://www.w3.org/2000/svg" xmlns:xlink="http://www.w3.org/1999/xlink">
 <defs>
  <style type="text/css">
*{stroke-linecap:butt;stroke-linejoin:round;}
  </style>
 </defs>
 <g id="figure_1">
  <g id="patch_1">
   <path d="M 0 345.6 
L 460.8 345.6 
L 460.8 0 
L 0 0 
z
" style="fill:#ffffff;"/>
  </g>
  <g id="axes_1">
   <g id="patch_2">
    <path d="M 57.6 307.584 
L 414.72 307.584 
L 414.72 41.472 
L 57.6 41.472 
z
" style="fill:#ffffff;"/>
   </g>
   <g id="matplotlib.axis_1">
    <g id="xtick_1">
     <g id="line2d_1">
      <defs>
       <path d="M 0 0 
L 0 3.5 
" id="m11ab7a138d" style="stroke:#000000;stroke-width:0.8;"/>
      </defs>
      <g>
       <use style="stroke:#000000;stroke-width:0.8;" x="73.832727" xlink:href="#m11ab7a138d" y="307.584"/>
      </g>
     </g>
     <g id="text_1">
      <!-- 0.00 -->
      <defs>
       <path d="M 31.78125 66.40625 
Q 24.171875 66.40625 20.328125 58.90625 
Q 16.5 51.421875 16.5 36.375 
Q 16.5 21.390625 20.328125 13.890625 
Q 24.171875 6.390625 31.78125 6.390625 
Q 39.453125 6.390625 43.28125 13.890625 
Q 47.125 21.390625 47.125 36.375 
Q 47.125 51.421875 43.28125 58.90625 
Q 39.453125 66.40625 31.78125 66.40625 
z
M 31.78125 74.21875 
Q 44.046875 74.21875 50.515625 64.515625 
Q 56.984375 54.828125 56.984375 36.375 
Q 56.984375 17.96875 50.515625 8.265625 
Q 44.046875 -1.421875 31.78125 -1.421875 
Q 19.53125 -1.421875 13.0625 8.265625 
Q 6.59375 17.96875 6.59375 36.375 
Q 6.59375 54.828125 13.0625 64.515625 
Q 19.53125 74.21875 31.78125 74.21875 
z
" id="DejaVuSans-48"/>
       <path d="M 10.6875 12.40625 
L 21 12.40625 
L 21 0 
L 10.6875 0 
z
" id="DejaVuSans-46"/>
      </defs>
      <g transform="translate(53.793665 328.261187)scale(0.18 -0.18)">
       <use xlink:href="#DejaVuSans-48"/>
       <use x="63.623047" xlink:href="#DejaVuSans-46"/>
       <use x="95.410156" xlink:href="#DejaVuSans-48"/>
       <use x="159.033203" xlink:href="#DejaVuSans-48"/>
      </g>
     </g>
    </g>
    <g id="xtick_2">
     <g id="line2d_2">
      <g>
       <use style="stroke:#000000;stroke-width:0.8;" x="138.848292" xlink:href="#m11ab7a138d" y="307.584"/>
      </g>
     </g>
     <g id="text_2">
      <!-- 0.01 -->
      <defs>
       <path d="M 12.40625 8.296875 
L 28.515625 8.296875 
L 28.515625 63.921875 
L 10.984375 60.40625 
L 10.984375 69.390625 
L 28.421875 72.90625 
L 38.28125 72.90625 
L 38.28125 8.296875 
L 54.390625 8.296875 
L 54.390625 0 
L 12.40625 0 
z
" id="DejaVuSans-49"/>
      </defs>
      <g transform="translate(118.80923 328.261187)scale(0.18 -0.18)">
       <use xlink:href="#DejaVuSans-48"/>
       <use x="63.623047" xlink:href="#DejaVuSans-46"/>
       <use x="95.410156" xlink:href="#DejaVuSans-48"/>
       <use x="159.033203" xlink:href="#DejaVuSans-49"/>
      </g>
     </g>
    </g>
    <g id="xtick_3">
     <g id="line2d_3">
      <g>
       <use style="stroke:#000000;stroke-width:0.8;" x="203.863857" xlink:href="#m11ab7a138d" y="307.584"/>
      </g>
     </g>
     <g id="text_3">
      <!-- 0.02 -->
      <defs>
       <path d="M 19.1875 8.296875 
L 53.609375 8.296875 
L 53.609375 0 
L 7.328125 0 
L 7.328125 8.296875 
Q 12.9375 14.109375 22.625 23.890625 
Q 32.328125 33.6875 34.8125 36.53125 
Q 39.546875 41.84375 41.421875 45.53125 
Q 43.3125 49.21875 43.3125 52.78125 
Q 43.3125 58.59375 39.234375 62.25 
Q 35.15625 65.921875 28.609375 65.921875 
Q 23.96875 65.921875 18.8125 64.3125 
Q 13.671875 62.703125 7.8125 59.421875 
L 7.8125 69.390625 
Q 13.765625 71.78125 18.9375 73 
Q 24.125 74.21875 28.421875 74.21875 
Q 39.75 74.21875 46.484375 68.546875 
Q 53.21875 62.890625 53.21875 53.421875 
Q 53.21875 48.921875 51.53125 44.890625 
Q 49.859375 40.875 45.40625 35.40625 
Q 44.1875 33.984375 37.640625 27.21875 
Q 31.109375 20.453125 19.1875 8.296875 
z
" id="DejaVuSans-50"/>
      </defs>
      <g transform="translate(183.824794 328.261187)scale(0.18 -0.18)">
       <use xlink:href="#DejaVuSans-48"/>
       <use x="63.623047" xlink:href="#DejaVuSans-46"/>
       <use x="95.410156" xlink:href="#DejaVuSans-48"/>
       <use x="159.033203" xlink:href="#DejaVuSans-50"/>
      </g>
     </g>
    </g>
    <g id="xtick_4">
     <g id="line2d_4">
      <g>
       <use style="stroke:#000000;stroke-width:0.8;" x="268.879422" xlink:href="#m11ab7a138d" y="307.584"/>
      </g>
     </g>
     <g id="text_4">
      <!-- 0.03 -->
      <defs>
       <path d="M 40.578125 39.3125 
Q 47.65625 37.796875 51.625 33 
Q 55.609375 28.21875 55.609375 21.1875 
Q 55.609375 10.40625 48.1875 4.484375 
Q 40.765625 -1.421875 27.09375 -1.421875 
Q 22.515625 -1.421875 17.65625 -0.515625 
Q 12.796875 0.390625 7.625 2.203125 
L 7.625 11.71875 
Q 11.71875 9.328125 16.59375 8.109375 
Q 21.484375 6.890625 26.8125 6.890625 
Q 36.078125 6.890625 40.9375 10.546875 
Q 45.796875 14.203125 45.796875 21.1875 
Q 45.796875 27.640625 41.28125 31.265625 
Q 36.765625 34.90625 28.71875 34.90625 
L 20.21875 34.90625 
L 20.21875 43.015625 
L 29.109375 43.015625 
Q 36.375 43.015625 40.234375 45.921875 
Q 44.09375 48.828125 44.09375 54.296875 
Q 44.09375 59.90625 40.109375 62.90625 
Q 36.140625 65.921875 28.71875 65.921875 
Q 24.65625 65.921875 20.015625 65.03125 
Q 15.375 64.15625 9.8125 62.3125 
L 9.8125 71.09375 
Q 15.4375 72.65625 20.34375 73.4375 
Q 25.25 74.21875 29.59375 74.21875 
Q 40.828125 74.21875 47.359375 69.109375 
Q 53.90625 64.015625 53.90625 55.328125 
Q 53.90625 49.265625 50.4375 45.09375 
Q 46.96875 40.921875 40.578125 39.3125 
z
" id="DejaVuSans-51"/>
      </defs>
      <g transform="translate(248.840359 328.261187)scale(0.18 -0.18)">
       <use xlink:href="#DejaVuSans-48"/>
       <use x="63.623047" xlink:href="#DejaVuSans-46"/>
       <use x="95.410156" xlink:href="#DejaVuSans-48"/>
       <use x="159.033203" xlink:href="#DejaVuSans-51"/>
      </g>
     </g>
    </g>
    <g id="xtick_5">
     <g id="line2d_5">
      <g>
       <use style="stroke:#000000;stroke-width:0.8;" x="333.894986" xlink:href="#m11ab7a138d" y="307.584"/>
      </g>
     </g>
     <g id="text_5">
      <!-- 0.04 -->
      <defs>
       <path d="M 37.796875 64.3125 
L 12.890625 25.390625 
L 37.796875 25.390625 
z
M 35.203125 72.90625 
L 47.609375 72.90625 
L 47.609375 25.390625 
L 58.015625 25.390625 
L 58.015625 17.1875 
L 47.609375 17.1875 
L 47.609375 0 
L 37.796875 0 
L 37.796875 17.1875 
L 4.890625 17.1875 
L 4.890625 26.703125 
z
" id="DejaVuSans-52"/>
      </defs>
      <g transform="translate(313.855924 328.261187)scale(0.18 -0.18)">
       <use xlink:href="#DejaVuSans-48"/>
       <use x="63.623047" xlink:href="#DejaVuSans-46"/>
       <use x="95.410156" xlink:href="#DejaVuSans-48"/>
       <use x="159.033203" xlink:href="#DejaVuSans-52"/>
      </g>
     </g>
    </g>
    <g id="xtick_6">
     <g id="line2d_6">
      <g>
       <use style="stroke:#000000;stroke-width:0.8;" x="398.910551" xlink:href="#m11ab7a138d" y="307.584"/>
      </g>
     </g>
     <g id="text_6">
      <!-- 0.05 -->
      <defs>
       <path d="M 10.796875 72.90625 
L 49.515625 72.90625 
L 49.515625 64.59375 
L 19.828125 64.59375 
L 19.828125 46.734375 
Q 21.96875 47.46875 24.109375 47.828125 
Q 26.265625 48.1875 28.421875 48.1875 
Q 40.625 48.1875 47.75 41.5 
Q 54.890625 34.8125 54.890625 23.390625 
Q 54.890625 11.625 47.5625 5.09375 
Q 40.234375 -1.421875 26.90625 -1.421875 
Q 22.3125 -1.421875 17.546875 -0.640625 
Q 12.796875 0.140625 7.71875 1.703125 
L 7.71875 11.625 
Q 12.109375 9.234375 16.796875 8.0625 
Q 21.484375 6.890625 26.703125 6.890625 
Q 35.15625 6.890625 40.078125 11.328125 
Q 45.015625 15.765625 45.015625 23.390625 
Q 45.015625 31 40.078125 35.4375 
Q 35.15625 39.890625 26.703125 39.890625 
Q 22.75 39.890625 18.8125 39.015625 
Q 14.890625 38.140625 10.796875 36.28125 
z
" id="DejaVuSans-53"/>
      </defs>
      <g transform="translate(378.871489 328.261187)scale(0.18 -0.18)">
       <use xlink:href="#DejaVuSans-48"/>
       <use x="63.623047" xlink:href="#DejaVuSans-46"/>
       <use x="95.410156" xlink:href="#DejaVuSans-48"/>
       <use x="159.033203" xlink:href="#DejaVuSans-53"/>
      </g>
     </g>
    </g>
   </g>
   <g id="matplotlib.axis_2">
    <g id="ytick_1">
     <g id="line2d_7">
      <defs>
       <path d="M 0 0 
L -3.5 0 
" id="m7e418c1467" style="stroke:#000000;stroke-width:0.8;"/>
      </defs>
      <g>
       <use style="stroke:#000000;stroke-width:0.8;" x="57.6" xlink:href="#m7e418c1467" y="244.875067"/>
      </g>
     </g>
     <g id="text_7">
      <!-- −2 -->
      <defs>
       <path d="M 10.59375 35.5 
L 73.1875 35.5 
L 73.1875 27.203125 
L 10.59375 27.203125 
z
" id="DejaVuSans-8722"/>
      </defs>
      <g transform="translate(24.064063 251.713661)scale(0.18 -0.18)">
       <use xlink:href="#DejaVuSans-8722"/>
       <use x="83.789062" xlink:href="#DejaVuSans-50"/>
      </g>
     </g>
    </g>
    <g id="ytick_2">
     <g id="line2d_8">
      <g>
       <use style="stroke:#000000;stroke-width:0.8;" x="57.6" xlink:href="#m7e418c1467" y="174.269446"/>
      </g>
     </g>
     <g id="text_8">
      <!-- 0 -->
      <g transform="translate(39.1475 181.108039)scale(0.18 -0.18)">
       <use xlink:href="#DejaVuSans-48"/>
      </g>
     </g>
    </g>
    <g id="ytick_3">
     <g id="line2d_9">
      <g>
       <use style="stroke:#000000;stroke-width:0.8;" x="57.6" xlink:href="#m7e418c1467" y="103.663824"/>
      </g>
     </g>
     <g id="text_9">
      <!-- 2 -->
      <g transform="translate(39.1475 110.502418)scale(0.18 -0.18)">
       <use xlink:href="#DejaVuSans-50"/>
      </g>
     </g>
    </g>
   </g>
   <g id="line2d_10">
    <path clip-path="url(#p32c5e4fca8)" d="M 73.832727 174.269446 
L 74.679284 169.030003 
L 79.758625 134.945575 
L 81.875017 121.782392 
L 84.414688 106.811669 
L 87.377637 91.172148 
L 90.340586 77.909141 
L 93.726813 66.449807 
L 96.689762 59.805238 
L 97.11304 59.154435 
L 100.075989 56.313002 
L 100.499268 56.290583 
L 103.462216 57.368605 
L 104.308773 58.68277 
L 106.848444 62.922651 
L 110.234671 72.820358 
L 113.620898 86.637381 
L 117.430404 106.298691 
L 121.23991 129.144913 
L 125.049416 154.145186 
L 135.631376 224.798475 
L 137.747768 237.507984 
L 140.710717 253.7505 
L 143.673666 267.739336 
L 147.059893 280.172276 
L 150.022842 287.830262 
L 150.869399 289.097025 
L 153.40907 292.447687 
L 154.255626 292.529366 
L 156.795297 292.533062 
L 160.181524 288.026986 
L 163.144473 280.538923 
L 166.5307 268.158431 
L 168.223814 260.546508 
L 170.763485 247.587409 
L 173.303155 233.206894 
L 176.689382 211.92446 
L 180.498888 186.449135 
L 188.1179 135.029996 
L 191.080849 116.578497 
L 193.620519 101.958046 
L 197.006746 85.14186 
L 200.392974 71.765242 
L 203.355923 63.114994 
L 205.472315 59.510339 
L 206.74215 57.396715 
L 210.128377 56.244897 
L 213.091326 59.066226 
L 213.514605 59.63177 
L 216.900832 67.436067 
L 220.287059 79.345467 
L 223.673287 94.909697 
L 227.482792 116.116106 
L 231.292298 140.064455 
L 236.371639 174.308881 
L 241.45098 208.55975 
L 244.413929 227.392895 
L 247.376878 244.725766 
L 250.339827 260.065253 
L 253.726054 274.352176 
L 256.689003 283.937647 
L 260.075231 290.696334 
L 263.038179 292.862756 
L 263.461458 292.986 
L 266.424407 291.240519 
L 266.847685 290.735188 
L 269.810634 285.170143 
L 271.080469 281.374235 
L 273.62014 273.202863 
L 275.313254 266.285781 
L 277.006367 258.508664 
L 279.122759 247.67615 
L 281.239151 235.5754 
L 283.778822 220.058243 
L 286.741771 200.785018 
L 298.170288 124.173589 
L 300.28668 111.511949 
L 303.672907 93.219021 
L 307.059135 78.056066 
L 310.022084 67.615444 
L 313.408311 59.775487 
L 316.37126 56.53543 
L 316.794538 56.35375 
L 319.757487 57.01788 
L 320.180766 57.468388 
L 323.143715 62.022936 
L 324.41355 65.446145 
L 326.529942 71.349825 
L 329.916169 84.67371 
L 333.725675 103.920463 
L 337.535181 126.479755 
L 341.767965 154.075326 
L 353.196482 230.19729 
L 357.005988 251.584692 
L 360.392215 267.586154 
L 363.355164 278.856181 
L 366.741391 287.757116 
L 369.70434 292.061066 
L 370.127619 292.301238 
L 373.090568 292.71981 
L 373.937125 291.827495 
L 376.476795 288.833262 
L 379.863022 280.526272 
L 381.979414 273.169915 
L 384.095807 264.432133 
L 386.212199 254.306068 
L 388.328591 242.847148 
L 390.021704 233.056996 
L 393.407932 211.95589 
L 398.487273 177.737861 
L 398.487273 177.737861 
" style="fill:none;stroke:#1f77b4;stroke-linecap:square;stroke-width:2;"/>
   </g>
   <g id="line2d_11">
    <path clip-path="url(#p32c5e4fca8)" d="M 73.832727 174.209874 
L 74.256006 172.006487 
L 74.679284 170.630496 
L 75.102563 164.06621 
L 75.949119 160.185019 
L 76.795676 154.415557 
L 77.218955 149.667197 
L 77.642233 148.86275 
L 78.065511 144.170638 
L 78.48879 144.789341 
L 78.912068 141.921 
L 79.335347 135.638021 
L 79.758625 136.533027 
L 80.181904 134.698114 
L 80.605182 126.85656 
L 81.02846 127.096898 
L 81.451739 122.396327 
L 81.875017 122.800751 
L 82.298296 121.423312 
L 82.721574 118.03295 
L 83.144852 113.312049 
L 83.568131 113.361455 
L 83.991409 107.990413 
L 84.414688 105.593148 
L 84.837966 104.827443 
L 85.261245 103.398902 
L 86.107801 96.480323 
L 86.53108 95.584024 
L 86.954358 94.244151 
L 87.377637 86.636018 
L 87.800915 92.385371 
L 88.224193 86.003275 
L 88.647472 87.796067 
L 89.494029 80.040487 
L 89.917307 79.848944 
L 90.763864 78.481135 
L 91.187142 76.616242 
L 91.610421 73.107029 
L 92.033699 73.168038 
L 92.456978 73.651906 
L 92.880256 73.135207 
L 93.303534 68.664865 
L 93.726813 65.959699 
L 94.150091 67.178085 
L 94.57337 64.1023 
L 94.996648 63.344304 
L 95.419927 64.512741 
L 95.843205 62.184318 
L 96.266483 61.09584 
L 96.689762 57.070922 
L 97.11304 59.6864 
L 97.959597 57.155992 
L 98.382875 58.84532 
L 98.806154 55.075707 
L 99.229432 56.437573 
L 99.652711 57.398306 
L 100.075989 54.899613 
L 100.499268 59.24983 
L 100.922546 56.804077 
L 101.345824 56.856505 
L 101.769103 60.325468 
L 102.192381 53.568 
L 102.61566 57.89851 
L 103.038938 57.925661 
L 103.885495 56.502541 
L 104.308773 60.293665 
L 104.732052 57.829099 
L 105.15533 60.171809 
L 105.578609 60.729085 
L 106.001887 63.085679 
L 106.425165 64.097214 
L 106.848444 60.924034 
L 107.271722 66.654429 
L 107.695001 63.906495 
L 108.118279 63.667138 
L 108.541557 68.509224 
L 108.964836 67.716323 
L 109.388114 69.686294 
L 109.811393 74.40335 
L 110.234671 71.70999 
L 111.081228 74.333987 
L 111.927785 78.022236 
L 112.351063 78.709674 
L 112.774342 81.004761 
L 113.19762 86.039132 
L 113.620898 88.056597 
L 114.044177 86.909587 
L 114.467455 87.411796 
L 114.890734 94.933762 
L 115.314012 96.971097 
L 115.737291 97.578408 
L 116.160569 98.502367 
L 116.583847 97.941158 
L 117.007126 102.252619 
L 117.430404 104.681703 
L 117.853683 111.469421 
L 118.276961 107.823823 
L 119.123518 115.259965 
L 119.546796 117.696216 
L 120.393353 124.872678 
L 120.816632 124.734656 
L 121.23991 129.347549 
L 121.663188 129.593981 
L 122.509745 137.789704 
L 122.933024 143.717586 
L 123.356302 143.389096 
L 123.77958 142.178349 
L 124.202859 146.519141 
L 124.626137 152.822226 
L 125.049416 156.520933 
L 125.472694 155.242818 
L 125.895973 162.480356 
L 126.319251 160.532128 
L 127.165808 171.907491 
L 127.589086 172.441355 
L 128.012365 175.361152 
L 128.435643 176.882929 
L 128.858921 177.161493 
L 129.2822 184.489204 
L 130.128757 187.464761 
L 130.552035 190.052377 
L 130.975314 197.402015 
L 131.398592 201.11595 
L 131.82187 198.071452 
L 132.245149 204.173857 
L 133.091706 208.855832 
L 134.784819 220.473391 
L 135.208098 225.717261 
L 135.631376 224.840802 
L 136.054654 225.728048 
L 136.477933 225.547493 
L 137.32449 237.72063 
L 137.747768 237.548264 
L 138.171047 239.605195 
L 138.594325 246.192394 
L 139.017603 245.353913 
L 139.440882 248.178986 
L 139.86416 248.926874 
L 140.287439 253.256255 
L 140.710717 253.773978 
L 141.133995 255.526273 
L 141.557274 255.670014 
L 141.980552 263.048179 
L 142.403831 262.548731 
L 143.250388 266.179699 
L 143.673666 268.758237 
L 144.096944 270.035889 
L 144.520223 270.009267 
L 144.943501 271.333792 
L 145.36678 270.220466 
L 145.790058 273.704209 
L 146.213336 276.214686 
L 146.636615 281.298156 
L 147.059893 280.586477 
L 147.483172 283.794857 
L 147.90645 281.879944 
L 148.329729 282.217126 
L 148.753007 286.611261 
L 149.176285 285.713075 
L 149.599564 281.267856 
L 150.022842 288.610725 
L 150.446121 289.104078 
L 150.869399 287.830515 
L 151.292677 291.183827 
L 151.715956 291.447267 
L 152.139234 289.6677 
L 152.985791 292.315117 
L 153.40907 291.061185 
L 153.832348 292.259274 
L 154.255626 294.126736 
L 154.678905 289.204988 
L 155.102183 293.3377 
L 155.525462 289.86951 
L 155.94874 293.145476 
L 156.372018 290.508314 
L 156.795297 290.497989 
L 157.218575 290.105714 
L 157.641854 291.382011 
L 158.065132 291.403785 
L 158.488411 292.045124 
L 158.911689 291.414866 
L 159.334967 289.988355 
L 159.758246 291.570088 
L 160.181524 289.041043 
L 160.604803 288.015504 
L 161.028081 286.605094 
L 161.451359 286.828866 
L 161.874638 287.265817 
L 162.297916 281.412546 
L 162.721195 280.811741 
L 163.144473 280.455596 
L 164.414308 274.461984 
L 164.837587 272.302877 
L 165.260865 271.925246 
L 165.684144 271.303029 
L 166.107422 274.077866 
L 166.5307 267.203049 
L 166.953979 265.982788 
L 167.377257 266.474197 
L 168.223814 260.637833 
L 168.647093 259.517945 
L 169.070371 256.783799 
L 169.493649 254.788933 
L 169.916928 253.757268 
L 170.763485 246.082493 
L 171.186763 246.585196 
L 171.610041 242.927423 
L 172.03332 244.490378 
L 172.456598 237.33205 
L 173.303155 233.216529 
L 173.726434 227.124595 
L 174.149712 225.830582 
L 174.996269 220.690051 
L 175.419547 219.398794 
L 176.266104 215.220143 
L 177.535939 207.098115 
L 177.959218 201.22343 
L 178.382496 203.543669 
L 178.805775 195.527031 
L 179.229053 195.699826 
L 179.652331 191.920894 
L 180.07561 186.975899 
L 180.498888 184.671778 
L 180.922167 184.226906 
L 182.61528 170.740985 
L 183.461837 162.736223 
L 184.308394 163.180688 
L 184.731672 156.909395 
L 185.154951 152.857424 
L 185.578229 151.314258 
L 186.424786 146.603402 
L 187.271343 138.18843 
L 187.694621 139.357844 
L 188.1179 133.976726 
L 188.541178 133.099187 
L 188.964457 128.647069 
L 189.387735 128.748688 
L 190.234292 123.633933 
L 190.65757 119.118837 
L 191.080849 117.403524 
L 191.504127 114.026184 
L 192.350684 108.774993 
L 192.773962 107.944482 
L 193.197241 103.590708 
L 194.043798 100.192128 
L 194.467076 101.126274 
L 195.736911 89.730668 
L 196.16019 89.152962 
L 196.583468 84.470432 
L 197.006746 83.713467 
L 197.430025 83.28342 
L 197.853303 85.646035 
L 198.276582 79.25389 
L 198.69986 81.28075 
L 199.123139 81.01418 
L 199.546417 72.290104 
L 199.969695 74.162697 
L 200.392974 71.839323 
L 200.816252 66.888625 
L 201.239531 69.865141 
L 201.662809 68.673397 
L 202.086087 66.790474 
L 202.509366 66.675407 
L 202.932644 67.568918 
L 203.355923 61.159348 
L 203.779201 60.064436 
L 204.20248 61.827337 
L 204.625758 59.89106 
L 205.049036 62.489157 
L 205.472315 56.772012 
L 205.895593 58.499833 
L 206.318872 58.470317 
L 206.74215 60.355771 
L 207.165428 57.475348 
L 207.588707 59.155825 
L 208.435264 55.461009 
L 208.858542 56.111488 
L 209.281821 58.329886 
L 209.705099 58.223872 
L 210.128377 54.31751 
L 210.551656 56.086823 
L 210.974934 55.47781 
L 211.398213 56.640393 
L 211.821491 56.219936 
L 212.244769 57.478072 
L 212.668048 60.735657 
L 213.091326 61.683973 
L 213.514605 59.103977 
L 213.937883 61.527695 
L 214.78444 58.171546 
L 215.207718 58.796512 
L 215.630997 66.182653 
L 216.054275 68.268121 
L 216.477554 67.067403 
L 216.900832 70.971729 
L 217.32411 70.340207 
L 218.170667 70.744132 
L 218.593946 73.062948 
L 219.017224 72.839449 
L 219.440503 77.075257 
L 219.863781 77.401069 
L 220.287059 81.457109 
L 220.710338 80.787856 
L 221.133616 83.177972 
L 221.556895 83.95318 
L 221.980173 89.265156 
L 222.403451 87.946243 
L 222.82673 91.364767 
L 223.250008 93.203647 
L 223.673287 98.889778 
L 224.096565 95.692137 
L 224.943122 102.19973 
L 225.3664 103.313361 
L 225.789679 105.715627 
L 226.212957 109.261838 
L 226.636236 108.804752 
L 227.059514 116.14558 
L 227.482792 114.569281 
L 228.329349 122.273958 
L 228.752628 123.021896 
L 229.175906 128.60867 
L 229.599185 127.353091 
L 230.022463 132.233833 
L 230.445741 135.066474 
L 230.86902 139.240554 
L 231.715577 143.036935 
L 232.138855 142.45655 
L 232.562133 147.207674 
L 232.985412 153.328102 
L 233.40869 154.134182 
L 233.831969 156.872289 
L 234.255247 161.089375 
L 234.678526 161.498852 
L 235.101804 166.42892 
L 235.525082 166.204401 
L 236.794918 180.141892 
L 237.218196 180.252504 
L 237.641474 181.637836 
L 238.064753 185.291537 
L 238.488031 189.962331 
L 238.91131 190.403258 
L 239.334588 192.186999 
L 239.757867 197.774989 
L 240.181145 197.839979 
L 240.604423 207.094397 
L 241.027702 205.32796 
L 241.45098 206.221914 
L 241.874259 208.549971 
L 242.297537 215.186915 
L 243.144094 220.652778 
L 243.567372 221.196308 
L 243.990651 223.052054 
L 244.413929 228.823072 
L 244.837208 229.365586 
L 245.260486 234.825272 
L 245.683764 236.471387 
L 246.107043 239.209442 
L 246.530321 239.646585 
L 246.9536 244.612098 
L 247.376878 244.039881 
L 247.800156 247.227513 
L 248.223435 249.454268 
L 248.646713 249.869729 
L 249.069992 255.07733 
L 249.49327 252.513285 
L 249.916549 259.757218 
L 250.339827 259.226473 
L 250.763105 259.854851 
L 251.609662 265.243257 
L 252.032941 268.746923 
L 252.456219 269.027523 
L 252.879497 268.683296 
L 253.302776 272.03647 
L 253.726054 274.236658 
L 254.149333 278.031537 
L 254.572611 277.71182 
L 254.99589 278.151607 
L 255.419168 279.903339 
L 255.842446 280.912601 
L 256.689003 286.472581 
L 257.112282 283.348815 
L 257.53556 285.821895 
L 257.958838 285.151273 
L 259.228674 290.14607 
L 259.651952 293.600595 
L 260.075231 294.694615 
L 260.498509 290.849369 
L 260.921787 291.738616 
L 261.345066 291.607536 
L 261.768344 292.369903 
L 262.191623 290.200562 
L 262.614901 293.268395 
L 263.038179 295.347362 
L 263.461458 295.014257 
L 263.884736 292.499604 
L 264.308015 290.80407 
L 264.731293 291.314868 
L 265.154572 294.736934 
L 265.57785 291.416329 
L 266.001128 292.066318 
L 266.424407 292.436602 
L 266.847685 291.312692 
L 267.270964 292.057249 
L 267.694242 289.080072 
L 268.11752 288.282057 
L 268.540799 286.998196 
L 268.964077 289.935515 
L 269.387356 287.275892 
L 269.810634 282.23686 
L 270.233913 285.965069 
L 270.657191 280.689618 
L 271.080469 280.385159 
L 271.503748 276.953676 
L 271.927026 278.713331 
L 272.350305 277.392823 
L 273.196861 277.330049 
L 273.62014 275.996794 
L 274.043418 271.165468 
L 274.466697 272.017623 
L 274.889975 268.273294 
L 275.313254 267.5315 
L 275.736532 264.82749 
L 276.15981 263.64166 
L 276.583089 256.835976 
L 277.006367 259.413496 
L 277.429646 254.069205 
L 277.852924 255.545686 
L 278.276202 251.276843 
L 278.699481 248.610495 
L 279.122759 243.185334 
L 279.546038 246.98573 
L 279.969316 245.859107 
L 280.392595 239.15761 
L 281.239151 233.302897 
L 281.66243 234.584515 
L 282.085708 229.808105 
L 282.508987 229.485104 
L 282.932265 227.158436 
L 283.355543 222.388197 
L 283.778822 220.801358 
L 284.2021 216.561341 
L 284.625379 214.887719 
L 285.048657 211.334013 
L 285.471936 209.837489 
L 286.318492 204.176991 
L 286.741771 197.89226 
L 287.165049 194.50192 
L 287.588328 196.017803 
L 288.434884 186.596246 
L 288.858163 186.334156 
L 289.281441 179.594709 
L 289.70472 179.655527 
L 290.127998 178.609134 
L 290.551277 176.040898 
L 290.974555 170.213079 
L 291.397833 167.64408 
L 291.821112 167.314282 
L 292.24439 161.949502 
L 292.667669 161.849572 
L 293.090947 159.619628 
L 293.514225 156.638694 
L 294.360782 148.09754 
L 294.784061 146.253989 
L 295.630618 139.669488 
L 296.053896 137.727334 
L 296.477174 134.747591 
L 296.900453 130.137025 
L 297.323731 130.390678 
L 297.74701 129.316785 
L 298.170288 122.915335 
L 299.016845 119.894093 
L 299.440123 117.050843 
L 300.28668 109.842698 
L 300.709959 110.783798 
L 301.133237 106.825699 
L 301.556515 105.039256 
L 301.979794 105.250978 
L 302.403072 99.575367 
L 302.826351 98.241283 
L 303.249629 93.937169 
L 303.672907 96.528151 
L 304.096186 92.073376 
L 304.519464 90.609544 
L 304.942743 88.259281 
L 305.366021 84.229767 
L 305.7893 84.718579 
L 306.212578 81.815435 
L 307.059135 79.119011 
L 307.482413 78.524208 
L 307.905692 73.191217 
L 308.32897 74.70388 
L 308.752248 72.453282 
L 309.175527 74.527352 
L 309.598805 69.919447 
L 310.022084 68.187183 
L 310.445362 65.193591 
L 310.868641 65.439272 
L 311.291919 66.908639 
L 311.715197 63.812673 
L 312.138476 62.671748 
L 312.561754 63.380124 
L 312.985033 63.058455 
L 313.408311 60.44761 
L 313.831589 59.071955 
L 314.254868 60.053468 
L 314.678146 59.593035 
L 315.101425 56.742053 
L 315.524703 56.038589 
L 315.947982 55.676999 
L 316.37126 57.18997 
L 316.794538 57.452987 
L 317.217817 58.347831 
L 317.641095 60.640549 
L 318.064374 56.935205 
L 318.487652 55.055591 
L 318.91093 57.116262 
L 319.334209 56.54833 
L 319.757487 55.579051 
L 320.180766 55.097039 
L 320.604044 56.323816 
L 321.027323 54.025935 
L 321.450601 60.933588 
L 321.873879 62.024874 
L 322.297158 63.969948 
L 322.720436 62.112555 
L 323.143715 62.882172 
L 323.566993 62.788702 
L 323.990271 63.350345 
L 324.41355 65.166175 
L 325.260107 65.559182 
L 325.683385 63.908041 
L 326.106664 71.585392 
L 326.529942 68.953774 
L 326.95322 70.448052 
L 327.376499 73.992999 
L 327.799777 75.693536 
L 328.646334 81.88159 
L 329.069612 79.109809 
L 329.916169 85.110132 
L 330.339448 85.462395 
L 331.609283 94.453266 
L 332.032561 94.692516 
L 332.45584 96.555923 
L 332.879118 99.718765 
L 333.302397 101.300663 
L 333.725675 103.5103 
L 334.148953 107.676464 
L 334.572232 109.714501 
L 334.99551 114.081549 
L 335.418789 115.275528 
L 335.842067 115.886079 
L 336.265346 120.074684 
L 336.688624 119.240696 
L 337.111902 122.50827 
L 337.535181 126.863817 
L 337.958459 128.776674 
L 338.381738 130.048692 
L 339.228294 141.024549 
L 339.651573 142.845869 
L 340.074851 140.078785 
L 340.49813 146.146814 
L 340.921408 150.084687 
L 341.344686 148.908873 
L 341.767965 153.475718 
L 342.191243 154.875501 
L 342.614522 161.446876 
L 343.0378 162.100862 
L 343.461079 163.514761 
L 343.884357 168.644068 
L 344.307635 169.462013 
L 344.730914 174.843146 
L 345.154192 176.492475 
L 346.424027 187.403675 
L 346.847306 187.433053 
L 347.270584 192.589754 
L 347.693863 193.91812 
L 348.117141 196.702887 
L 348.54042 203.04055 
L 348.963698 203.464356 
L 349.386976 207.300863 
L 349.810255 208.486956 
L 350.233533 211.981427 
L 350.656812 213.78872 
L 351.08009 218.757847 
L 351.503368 219.53764 
L 351.926647 223.84416 
L 352.349925 224.366297 
L 353.196482 231.587145 
L 353.619761 229.796281 
L 354.043039 234.514386 
L 354.466317 235.180156 
L 354.889596 239.313555 
L 355.312874 239.014109 
L 355.736153 247.153772 
L 356.159431 245.137842 
L 357.005988 253.441515 
L 357.429266 254.096567 
L 357.852545 253.973935 
L 358.275823 258.715292 
L 358.699102 260.018206 
L 359.12238 259.960156 
L 359.545658 262.868224 
L 359.968937 268.288417 
L 360.392215 267.669419 
L 360.815494 267.614187 
L 361.238772 272.045835 
L 361.66205 274.456448 
L 362.085329 274.090405 
L 362.508607 275.876211 
L 362.931886 275.847536 
L 363.355164 277.898723 
L 363.778443 279.295235 
L 364.201721 282.423831 
L 364.624999 280.889906 
L 365.048278 281.534713 
L 365.471556 283.196126 
L 365.894835 285.510328 
L 366.318113 286.703478 
L 366.741391 290.364048 
L 367.16467 288.842093 
L 368.011227 289.616231 
L 368.434505 291.787816 
L 368.857784 295.488 
L 369.281062 290.726814 
L 369.70434 291.902722 
L 370.127619 290.132653 
L 370.550897 289.530335 
L 370.974176 294.413413 
L 371.397454 293.436125 
L 371.820732 292.853425 
L 372.244011 293.201691 
L 372.667289 290.382361 
L 373.090568 294.047819 
L 373.513846 291.077898 
L 373.937125 293.015363 
L 374.360403 289.389878 
L 374.783681 290.621928 
L 375.630238 289.19743 
L 376.053517 288.971703 
L 376.476795 287.276179 
L 376.900073 289.938549 
L 377.323352 289.174518 
L 377.74663 285.774291 
L 378.169909 283.924683 
L 378.593187 282.856764 
L 379.016466 281.121143 
L 379.439744 281.389607 
L 379.863022 280.205304 
L 380.286301 281.097333 
L 380.709579 277.594948 
L 381.132858 277.115263 
L 381.556136 275.411641 
L 381.979414 268.129707 
L 382.402693 269.648345 
L 382.825971 270.201108 
L 383.24925 266.201442 
L 383.672528 266.786484 
L 384.519085 263.815617 
L 384.942363 259.303165 
L 385.365642 258.196696 
L 386.212199 252.37035 
L 386.635477 250.661323 
L 387.058755 249.620599 
L 388.328591 245.045613 
L 388.751869 240.14067 
L 389.175148 233.926164 
L 389.598426 238.039829 
L 390.021704 233.371421 
L 390.444983 230.475169 
L 390.868261 230.545261 
L 391.29154 223.335968 
L 391.714818 224.896704 
L 392.138096 219.646311 
L 392.561375 216.088262 
L 392.984653 215.387223 
L 393.407932 214.222637 
L 394.254489 204.354183 
L 394.677767 201.068642 
L 395.524324 197.029962 
L 395.947602 200.809927 
L 396.370881 193.434623 
L 396.794159 188.791837 
L 397.217437 188.083542 
L 397.640716 181.088141 
L 398.063994 178.997102 
L 398.487273 178.637607 
L 398.487273 178.637607 
" style="fill:none;stroke:#ff7f0e;stroke-linecap:square;stroke-opacity:0.8;stroke-width:1.5;"/>
   </g>
   <g id="patch_3">
    <path d="M 57.6 307.584 
L 57.6 41.472 
" style="fill:none;stroke:#000000;stroke-linecap:square;stroke-linejoin:miter;stroke-width:2;"/>
   </g>
   <g id="patch_4">
    <path d="M 414.72 307.584 
L 414.72 41.472 
" style="fill:none;stroke:#000000;stroke-linecap:square;stroke-linejoin:miter;stroke-width:2;"/>
   </g>
   <g id="patch_5">
    <path d="M 57.6 307.584 
L 414.72 307.584 
" style="fill:none;stroke:#000000;stroke-linecap:square;stroke-linejoin:miter;stroke-width:2;"/>
   </g>
   <g id="patch_6">
    <path d="M 57.6 41.472 
L 414.72 41.472 
" style="fill:none;stroke:#000000;stroke-linecap:square;stroke-linejoin:miter;stroke-width:2;"/>
   </g>
  </g>
 </g>
 <defs>
  <clipPath id="p32c5e4fca8">
   <rect height="266.112" width="357.12" x="57.6" y="41.472"/>
  </clipPath>
 </defs>
</svg>
