<?xml version="1.0" encoding="utf-8" standalone="no"?>
<!DOCTYPE svg PUBLIC "-//W3C//DTD SVG 1.1//EN"
  "http://www.w3.org/Graphics/SVG/1.1/DTD/svg11.dtd">
<!-- Created with matplotlib (https://matplotlib.org/) -->
<svg height="345.6pt" version="1.1" viewBox="0 0 460.8 345.6" width="460.8pt" xmlns="http://www.w3.org/2000/svg" xmlns:xlink="http://www.w3.org/1999/xlink">
 <defs>
  <style type="text/css">
*{stroke-linecap:butt;stroke-linejoin:round;}
  </style>
 </defs>
 <g id="figure_1">
  <g id="patch_1">
   <path d="M 0 345.6 
L 460.8 345.6 
L 460.8 0 
L 0 0 
z
" style="fill:#ffffff;"/>
  </g>
  <g id="axes_1">
   <g id="patch_2">
    <path d="M 57.6 307.584 
L 414.72 307.584 
L 414.72 41.472 
L 57.6 41.472 
z
" style="fill:#ffffff;"/>
   </g>
   <g id="matplotlib.axis_1">
    <g id="xtick_1">
     <g id="line2d_1">
      <defs>
       <path d="M 0 0 
L 0 3.5 
" id="m75701dec0a" style="stroke:#000000;stroke-width:0.8;"/>
      </defs>
      <g>
       <use style="stroke:#000000;stroke-width:0.8;" x="73.832727" xlink:href="#m75701dec0a" y="307.584"/>
      </g>
     </g>
     <g id="text_1">
      <!-- 0.00 -->
      <defs>
       <path d="M 31.78125 66.40625 
Q 24.171875 66.40625 20.328125 58.90625 
Q 16.5 51.421875 16.5 36.375 
Q 16.5 21.390625 20.328125 13.890625 
Q 24.171875 6.390625 31.78125 6.390625 
Q 39.453125 6.390625 43.28125 13.890625 
Q 47.125 21.390625 47.125 36.375 
Q 47.125 51.421875 43.28125 58.90625 
Q 39.453125 66.40625 31.78125 66.40625 
z
M 31.78125 74.21875 
Q 44.046875 74.21875 50.515625 64.515625 
Q 56.984375 54.828125 56.984375 36.375 
Q 56.984375 17.96875 50.515625 8.265625 
Q 44.046875 -1.421875 31.78125 -1.421875 
Q 19.53125 -1.421875 13.0625 8.265625 
Q 6.59375 17.96875 6.59375 36.375 
Q 6.59375 54.828125 13.0625 64.515625 
Q 19.53125 74.21875 31.78125 74.21875 
z
" id="DejaVuSans-48"/>
       <path d="M 10.6875 12.40625 
L 21 12.40625 
L 21 0 
L 10.6875 0 
z
" id="DejaVuSans-46"/>
      </defs>
      <g transform="translate(62.699915 322.182437)scale(0.1 -0.1)">
       <use xlink:href="#DejaVuSans-48"/>
       <use x="63.623047" xlink:href="#DejaVuSans-46"/>
       <use x="95.410156" xlink:href="#DejaVuSans-48"/>
       <use x="159.033203" xlink:href="#DejaVuSans-48"/>
      </g>
     </g>
    </g>
    <g id="xtick_2">
     <g id="line2d_2">
      <g>
       <use style="stroke:#000000;stroke-width:0.8;" x="138.848292" xlink:href="#m75701dec0a" y="307.584"/>
      </g>
     </g>
     <g id="text_2">
      <!-- 0.01 -->
      <defs>
       <path d="M 12.40625 8.296875 
L 28.515625 8.296875 
L 28.515625 63.921875 
L 10.984375 60.40625 
L 10.984375 69.390625 
L 28.421875 72.90625 
L 38.28125 72.90625 
L 38.28125 8.296875 
L 54.390625 8.296875 
L 54.390625 0 
L 12.40625 0 
z
" id="DejaVuSans-49"/>
      </defs>
      <g transform="translate(127.71548 322.182437)scale(0.1 -0.1)">
       <use xlink:href="#DejaVuSans-48"/>
       <use x="63.623047" xlink:href="#DejaVuSans-46"/>
       <use x="95.410156" xlink:href="#DejaVuSans-48"/>
       <use x="159.033203" xlink:href="#DejaVuSans-49"/>
      </g>
     </g>
    </g>
    <g id="xtick_3">
     <g id="line2d_3">
      <g>
       <use style="stroke:#000000;stroke-width:0.8;" x="203.863857" xlink:href="#m75701dec0a" y="307.584"/>
      </g>
     </g>
     <g id="text_3">
      <!-- 0.02 -->
      <defs>
       <path d="M 19.1875 8.296875 
L 53.609375 8.296875 
L 53.609375 0 
L 7.328125 0 
L 7.328125 8.296875 
Q 12.9375 14.109375 22.625 23.890625 
Q 32.328125 33.6875 34.8125 36.53125 
Q 39.546875 41.84375 41.421875 45.53125 
Q 43.3125 49.21875 43.3125 52.78125 
Q 43.3125 58.59375 39.234375 62.25 
Q 35.15625 65.921875 28.609375 65.921875 
Q 23.96875 65.921875 18.8125 64.3125 
Q 13.671875 62.703125 7.8125 59.421875 
L 7.8125 69.390625 
Q 13.765625 71.78125 18.9375 73 
Q 24.125 74.21875 28.421875 74.21875 
Q 39.75 74.21875 46.484375 68.546875 
Q 53.21875 62.890625 53.21875 53.421875 
Q 53.21875 48.921875 51.53125 44.890625 
Q 49.859375 40.875 45.40625 35.40625 
Q 44.1875 33.984375 37.640625 27.21875 
Q 31.109375 20.453125 19.1875 8.296875 
z
" id="DejaVuSans-50"/>
      </defs>
      <g transform="translate(192.731044 322.182437)scale(0.1 -0.1)">
       <use xlink:href="#DejaVuSans-48"/>
       <use x="63.623047" xlink:href="#DejaVuSans-46"/>
       <use x="95.410156" xlink:href="#DejaVuSans-48"/>
       <use x="159.033203" xlink:href="#DejaVuSans-50"/>
      </g>
     </g>
    </g>
    <g id="xtick_4">
     <g id="line2d_4">
      <g>
       <use style="stroke:#000000;stroke-width:0.8;" x="268.879422" xlink:href="#m75701dec0a" y="307.584"/>
      </g>
     </g>
     <g id="text_4">
      <!-- 0.03 -->
      <defs>
       <path d="M 40.578125 39.3125 
Q 47.65625 37.796875 51.625 33 
Q 55.609375 28.21875 55.609375 21.1875 
Q 55.609375 10.40625 48.1875 4.484375 
Q 40.765625 -1.421875 27.09375 -1.421875 
Q 22.515625 -1.421875 17.65625 -0.515625 
Q 12.796875 0.390625 7.625 2.203125 
L 7.625 11.71875 
Q 11.71875 9.328125 16.59375 8.109375 
Q 21.484375 6.890625 26.8125 6.890625 
Q 36.078125 6.890625 40.9375 10.546875 
Q 45.796875 14.203125 45.796875 21.1875 
Q 45.796875 27.640625 41.28125 31.265625 
Q 36.765625 34.90625 28.71875 34.90625 
L 20.21875 34.90625 
L 20.21875 43.015625 
L 29.109375 43.015625 
Q 36.375 43.015625 40.234375 45.921875 
Q 44.09375 48.828125 44.09375 54.296875 
Q 44.09375 59.90625 40.109375 62.90625 
Q 36.140625 65.921875 28.71875 65.921875 
Q 24.65625 65.921875 20.015625 65.03125 
Q 15.375 64.15625 9.8125 62.3125 
L 9.8125 71.09375 
Q 15.4375 72.65625 20.34375 73.4375 
Q 25.25 74.21875 29.59375 74.21875 
Q 40.828125 74.21875 47.359375 69.109375 
Q 53.90625 64.015625 53.90625 55.328125 
Q 53.90625 49.265625 50.4375 45.09375 
Q 46.96875 40.921875 40.578125 39.3125 
z
" id="DejaVuSans-51"/>
      </defs>
      <g transform="translate(257.746609 322.182437)scale(0.1 -0.1)">
       <use xlink:href="#DejaVuSans-48"/>
       <use x="63.623047" xlink:href="#DejaVuSans-46"/>
       <use x="95.410156" xlink:href="#DejaVuSans-48"/>
       <use x="159.033203" xlink:href="#DejaVuSans-51"/>
      </g>
     </g>
    </g>
    <g id="xtick_5">
     <g id="line2d_5">
      <g>
       <use style="stroke:#000000;stroke-width:0.8;" x="333.894986" xlink:href="#m75701dec0a" y="307.584"/>
      </g>
     </g>
     <g id="text_5">
      <!-- 0.04 -->
      <defs>
       <path d="M 37.796875 64.3125 
L 12.890625 25.390625 
L 37.796875 25.390625 
z
M 35.203125 72.90625 
L 47.609375 72.90625 
L 47.609375 25.390625 
L 58.015625 25.390625 
L 58.015625 17.1875 
L 47.609375 17.1875 
L 47.609375 0 
L 37.796875 0 
L 37.796875 17.1875 
L 4.890625 17.1875 
L 4.890625 26.703125 
z
" id="DejaVuSans-52"/>
      </defs>
      <g transform="translate(322.762174 322.182437)scale(0.1 -0.1)">
       <use xlink:href="#DejaVuSans-48"/>
       <use x="63.623047" xlink:href="#DejaVuSans-46"/>
       <use x="95.410156" xlink:href="#DejaVuSans-48"/>
       <use x="159.033203" xlink:href="#DejaVuSans-52"/>
      </g>
     </g>
    </g>
    <g id="xtick_6">
     <g id="line2d_6">
      <g>
       <use style="stroke:#000000;stroke-width:0.8;" x="398.910551" xlink:href="#m75701dec0a" y="307.584"/>
      </g>
     </g>
     <g id="text_6">
      <!-- 0.05 -->
      <defs>
       <path d="M 10.796875 72.90625 
L 49.515625 72.90625 
L 49.515625 64.59375 
L 19.828125 64.59375 
L 19.828125 46.734375 
Q 21.96875 47.46875 24.109375 47.828125 
Q 26.265625 48.1875 28.421875 48.1875 
Q 40.625 48.1875 47.75 41.5 
Q 54.890625 34.8125 54.890625 23.390625 
Q 54.890625 11.625 47.5625 5.09375 
Q 40.234375 -1.421875 26.90625 -1.421875 
Q 22.3125 -1.421875 17.546875 -0.640625 
Q 12.796875 0.140625 7.71875 1.703125 
L 7.71875 11.625 
Q 12.109375 9.234375 16.796875 8.0625 
Q 21.484375 6.890625 26.703125 6.890625 
Q 35.15625 6.890625 40.078125 11.328125 
Q 45.015625 15.765625 45.015625 23.390625 
Q 45.015625 31 40.078125 35.4375 
Q 35.15625 39.890625 26.703125 39.890625 
Q 22.75 39.890625 18.8125 39.015625 
Q 14.890625 38.140625 10.796875 36.28125 
z
" id="DejaVuSans-53"/>
      </defs>
      <g transform="translate(387.777739 322.182437)scale(0.1 -0.1)">
       <use xlink:href="#DejaVuSans-48"/>
       <use x="63.623047" xlink:href="#DejaVuSans-46"/>
       <use x="95.410156" xlink:href="#DejaVuSans-48"/>
       <use x="159.033203" xlink:href="#DejaVuSans-53"/>
      </g>
     </g>
    </g>
   </g>
   <g id="matplotlib.axis_2">
    <g id="ytick_1">
     <g id="line2d_7">
      <defs>
       <path d="M 0 0 
L -3.5 0 
" id="m91c5f95f03" style="stroke:#000000;stroke-width:0.8;"/>
      </defs>
      <g>
       <use style="stroke:#000000;stroke-width:0.8;" x="57.6" xlink:href="#m91c5f95f03" y="280.489461"/>
      </g>
     </g>
     <g id="text_7">
      <!-- −3 -->
      <defs>
       <path d="M 10.59375 35.5 
L 73.1875 35.5 
L 73.1875 27.203125 
L 10.59375 27.203125 
z
" id="DejaVuSans-8722"/>
      </defs>
      <g transform="translate(35.857813 284.28868)scale(0.1 -0.1)">
       <use xlink:href="#DejaVuSans-8722"/>
       <use x="83.789062" xlink:href="#DejaVuSans-51"/>
      </g>
     </g>
    </g>
    <g id="ytick_2">
     <g id="line2d_8">
      <g>
       <use style="stroke:#000000;stroke-width:0.8;" x="57.6" xlink:href="#m91c5f95f03" y="245.123813"/>
      </g>
     </g>
     <g id="text_8">
      <!-- −2 -->
      <g transform="translate(35.857813 248.923032)scale(0.1 -0.1)">
       <use xlink:href="#DejaVuSans-8722"/>
       <use x="83.789062" xlink:href="#DejaVuSans-50"/>
      </g>
     </g>
    </g>
    <g id="ytick_3">
     <g id="line2d_9">
      <g>
       <use style="stroke:#000000;stroke-width:0.8;" x="57.6" xlink:href="#m91c5f95f03" y="209.758165"/>
      </g>
     </g>
     <g id="text_9">
      <!-- −1 -->
      <g transform="translate(35.857813 213.557384)scale(0.1 -0.1)">
       <use xlink:href="#DejaVuSans-8722"/>
       <use x="83.789062" xlink:href="#DejaVuSans-49"/>
      </g>
     </g>
    </g>
    <g id="ytick_4">
     <g id="line2d_10">
      <g>
       <use style="stroke:#000000;stroke-width:0.8;" x="57.6" xlink:href="#m91c5f95f03" y="174.392517"/>
      </g>
     </g>
     <g id="text_10">
      <!-- 0 -->
      <g transform="translate(44.2375 178.191735)scale(0.1 -0.1)">
       <use xlink:href="#DejaVuSans-48"/>
      </g>
     </g>
    </g>
    <g id="ytick_5">
     <g id="line2d_11">
      <g>
       <use style="stroke:#000000;stroke-width:0.8;" x="57.6" xlink:href="#m91c5f95f03" y="139.026869"/>
      </g>
     </g>
     <g id="text_11">
      <!-- 1 -->
      <g transform="translate(44.2375 142.826087)scale(0.1 -0.1)">
       <use xlink:href="#DejaVuSans-49"/>
      </g>
     </g>
    </g>
    <g id="ytick_6">
     <g id="line2d_12">
      <g>
       <use style="stroke:#000000;stroke-width:0.8;" x="57.6" xlink:href="#m91c5f95f03" y="103.66122"/>
      </g>
     </g>
     <g id="text_12">
      <!-- 2 -->
      <g transform="translate(44.2375 107.460439)scale(0.1 -0.1)">
       <use xlink:href="#DejaVuSans-50"/>
      </g>
     </g>
    </g>
    <g id="ytick_7">
     <g id="line2d_13">
      <g>
       <use style="stroke:#000000;stroke-width:0.8;" x="57.6" xlink:href="#m91c5f95f03" y="68.295572"/>
      </g>
     </g>
     <g id="text_13">
      <!-- 3 -->
      <g transform="translate(44.2375 72.094791)scale(0.1 -0.1)">
       <use xlink:href="#DejaVuSans-51"/>
      </g>
     </g>
    </g>
   </g>
   <g id="line2d_14">
    <path clip-path="url(#p01b312b5b3)" d="M 73.832727 174.392517 
L 74.679284 169.143748 
L 79.758625 134.998651 
L 81.875017 121.812039 
L 84.414688 106.814669 
L 87.377637 91.14731 
L 90.340586 77.860695 
L 93.726813 66.380964 
L 96.689762 59.724568 
L 97.11304 59.072606 
L 100.075989 56.226115 
L 100.499268 56.203657 
L 103.462216 57.283597 
L 104.308773 58.600102 
L 106.848444 62.84753 
L 110.234671 72.762854 
L 113.620898 86.604471 
L 117.430404 106.300777 
L 121.23991 129.187664 
L 125.049416 154.232437 
L 135.631376 225.011485 
L 137.747768 237.743617 
L 140.710717 254.015044 
L 143.673666 268.028779 
L 147.059893 280.48385 
L 150.022842 288.155467 
L 150.869399 289.424484 
L 153.40907 292.78111 
L 154.255626 292.862934 
L 156.795297 292.866637 
L 160.181524 288.35254 
L 163.144473 280.851149 
L 166.5307 268.448621 
L 168.223814 260.823149 
L 170.763485 247.840983 
L 173.303155 233.434871 
L 176.689382 212.114555 
L 180.498888 186.593885 
L 188.1179 135.083222 
L 191.080849 116.598881 
L 193.620519 101.952406 
L 197.006746 85.106288 
L 200.392974 71.70586 
L 203.355923 63.040216 
L 205.472315 59.429144 
L 206.74215 57.311758 
L 210.128377 56.15789 
L 213.091326 58.98424 
L 213.514605 59.550791 
L 216.900832 67.368979 
L 220.287059 79.299577 
L 223.673287 94.891512 
L 227.482792 116.135667 
L 231.292298 140.126643 
L 236.371639 174.432022 
L 241.45098 208.743857 
L 244.413929 227.610523 
L 247.376878 244.974246 
L 250.339827 260.341037 
L 253.726054 274.65339 
L 256.689003 284.255923 
L 260.075231 291.02664 
L 263.038179 293.196918 
L 263.461458 293.320381 
L 266.424407 291.571793 
L 266.847685 291.065563 
L 269.810634 285.490613 
L 271.080469 281.687948 
L 273.62014 273.502032 
L 275.313254 266.572637 
L 277.006367 258.781677 
L 279.122759 247.929882 
L 281.239151 235.807593 
L 283.778822 220.262816 
L 286.741771 200.955286 
L 298.170288 124.207492 
L 300.28668 111.523315 
L 303.672907 93.197826 
L 307.059135 78.007882 
L 310.022084 67.548676 
L 313.408311 59.694764 
L 316.37126 56.44894 
L 316.794538 56.266936 
L 319.757487 56.932248 
L 320.180766 57.383558 
L 323.143715 61.946213 
L 324.41355 65.375516 
L 326.529942 71.289704 
L 329.916169 84.637305 
L 333.725675 103.918316 
L 337.535181 126.517763 
L 341.767965 154.162453 
L 353.196482 230.41991 
L 357.005988 251.845381 
L 360.392215 267.875325 
L 363.355164 279.165411 
L 366.741391 288.082191 
L 369.70434 292.393801 
L 370.127619 292.634401 
L 373.090568 293.053717 
L 373.937125 292.159815 
L 376.476795 289.160252 
L 379.863022 280.838475 
L 381.979414 273.469025 
L 384.095807 264.71569 
L 386.212199 254.571601 
L 388.328591 243.092284 
L 390.021704 233.284707 
L 393.407932 212.146041 
L 398.487273 177.867106 
L 398.487273 177.867106 
" style="fill:none;stroke:#1f77b4;stroke-linecap:square;stroke-width:2;"/>
   </g>
   <g id="line2d_15">
    <path clip-path="url(#p01b312b5b3)" d="M 73.832727 176.602147 
L 74.256006 170.415108 
L 74.679284 169.772359 
L 75.102563 166.930512 
L 75.525841 162.310334 
L 76.372398 158.892377 
L 76.795676 155.470931 
L 77.218955 150.354045 
L 77.642233 148.792279 
L 78.065511 149.388222 
L 78.48879 142.882536 
L 78.912068 142.353167 
L 79.335347 136.732822 
L 80.181904 133.134009 
L 80.605182 129.715431 
L 81.02846 127.68358 
L 81.451739 122.78812 
L 82.298296 120.605209 
L 82.721574 116.85693 
L 83.144852 115.614954 
L 83.991409 107.419039 
L 84.414688 106.096535 
L 84.837966 103.801561 
L 85.261245 100.519085 
L 85.684523 99.344191 
L 86.107801 95.721653 
L 86.53108 95.64227 
L 86.954358 94.047544 
L 87.800915 89.963054 
L 88.224193 85.683588 
L 88.647472 86.357253 
L 89.07075 83.760215 
L 89.494029 78.479327 
L 89.917307 81.042503 
L 90.340586 77.244985 
L 90.763864 76.927719 
L 91.187142 74.158288 
L 91.610421 73.694055 
L 92.033699 71.097508 
L 92.456978 70.801968 
L 93.303534 67.022826 
L 93.726813 66.425736 
L 94.150091 64.991043 
L 94.57337 65.306075 
L 95.419927 61.275209 
L 95.843205 61.231173 
L 96.266483 57.159517 
L 96.689762 62.88691 
L 97.11304 61.321998 
L 97.536319 54.662008 
L 97.959597 62.071725 
L 98.382875 58.088591 
L 98.806154 58.233529 
L 99.229432 56.825131 
L 99.652711 57.233743 
L 100.075989 56.707798 
L 100.499268 55.229724 
L 100.922546 54.195369 
L 101.345824 56.016907 
L 101.769103 54.531125 
L 102.192381 56.968987 
L 102.61566 55.950509 
L 103.462216 58.879259 
L 103.885495 58.711278 
L 104.308773 56.136259 
L 104.732052 60.562217 
L 105.15533 59.063052 
L 105.578609 59.429194 
L 106.001887 63.510627 
L 106.425165 62.936575 
L 106.848444 60.359933 
L 107.271722 60.908798 
L 107.695001 63.287171 
L 108.118279 66.955513 
L 108.541557 69.258041 
L 108.964836 70.619955 
L 109.811393 70.978763 
L 110.234671 74.772037 
L 110.65795 74.315336 
L 111.081228 75.694915 
L 111.504506 76.368449 
L 111.927785 79.499463 
L 112.351063 80.560847 
L 112.774342 85.829405 
L 113.19762 82.815003 
L 113.620898 84.933421 
L 114.044177 90.495828 
L 114.467455 90.001716 
L 114.890734 93.086266 
L 115.314012 91.173218 
L 115.737291 95.389096 
L 116.583847 101.940542 
L 117.007126 102.961291 
L 117.430404 104.584862 
L 117.853683 111.542497 
L 118.276961 111.031775 
L 118.700239 111.138786 
L 119.546796 119.083085 
L 120.393353 123.556421 
L 120.816632 127.554041 
L 121.23991 128.763504 
L 121.663188 128.940023 
L 122.509745 140.008052 
L 122.933024 138.563384 
L 123.356302 144.721742 
L 123.77958 147.523844 
L 124.202859 148.877215 
L 124.626137 150.966318 
L 125.049416 153.955561 
L 125.472694 156.089325 
L 126.319251 166.387818 
L 126.742529 163.716791 
L 127.165808 168.474192 
L 127.589086 169.365669 
L 128.012365 176.393256 
L 128.435643 175.773814 
L 128.858921 184.616722 
L 129.2822 182.402275 
L 129.705478 187.902792 
L 130.128757 189.73959 
L 130.552035 191.047043 
L 130.975314 195.141059 
L 131.398592 196.484851 
L 132.668427 207.067808 
L 133.091706 208.402864 
L 133.514984 211.078132 
L 134.784819 221.409961 
L 135.208098 223.482112 
L 135.631376 226.153619 
L 136.477933 232.955267 
L 136.901211 233.32267 
L 137.747768 239.792265 
L 138.171047 238.956028 
L 139.017603 246.838964 
L 139.440882 248.249972 
L 139.86416 247.090108 
L 140.287439 251.05632 
L 140.710717 253.339715 
L 141.133995 253.546091 
L 141.557274 261.408048 
L 141.980552 259.348296 
L 142.403831 262.040516 
L 142.827109 262.399654 
L 143.250388 265.239212 
L 144.096944 268.806484 
L 144.520223 271.558457 
L 144.943501 272.396951 
L 145.36678 272.756038 
L 145.790058 276.438539 
L 146.213336 278.770698 
L 146.636615 278.825908 
L 147.059893 280.405474 
L 147.483172 283.663395 
L 147.90645 282.465939 
L 148.329729 283.180339 
L 148.753007 285.042515 
L 149.176285 286.378849 
L 149.599564 285.51188 
L 150.022842 289.757225 
L 150.446121 287.171548 
L 150.869399 288.928649 
L 151.292677 288.643403 
L 151.715956 292.720765 
L 152.562513 292.308605 
L 152.985791 289.978081 
L 153.40907 293.797811 
L 153.832348 292.536184 
L 154.255626 289.524762 
L 154.678905 292.790814 
L 155.102183 291.977566 
L 155.525462 293.157135 
L 155.94874 292.214149 
L 156.372018 292.739166 
L 156.795297 293.005505 
L 157.218575 292.926991 
L 157.641854 290.069964 
L 158.065132 295.441298 
L 158.488411 291.988269 
L 159.334967 289.21362 
L 159.758246 292.715969 
L 160.604803 284.677217 
L 161.028081 288.642853 
L 161.451359 285.333255 
L 161.874638 284.49283 
L 162.297916 282.173731 
L 162.721195 281.454874 
L 163.144473 281.612879 
L 163.567752 282.86091 
L 163.99103 278.757002 
L 164.414308 276.535208 
L 164.837587 272.897558 
L 165.260865 272.383179 
L 165.684144 272.778622 
L 166.5307 269.743129 
L 166.953979 269.96034 
L 167.377257 263.001907 
L 167.800536 262.258404 
L 168.223814 264.513495 
L 168.647093 257.493181 
L 169.070371 253.989049 
L 169.493649 258.46377 
L 169.916928 251.69509 
L 170.763485 248.391282 
L 171.186763 244.665884 
L 171.610041 243.698867 
L 172.456598 239.26353 
L 172.879877 233.316204 
L 173.303155 233.244231 
L 173.726434 230.894983 
L 174.149712 226.761041 
L 174.57299 225.956451 
L 174.996269 220.953144 
L 175.419547 220.363794 
L 175.842826 215.941785 
L 177.112661 210.217163 
L 177.535939 207.347063 
L 178.382496 198.699343 
L 178.805775 199.917048 
L 179.229053 197.451497 
L 179.652331 192.104641 
L 180.498888 186.99364 
L 180.922167 183.152405 
L 181.345445 181.665676 
L 181.768723 176.531271 
L 182.192002 173.679476 
L 182.61528 173.27041 
L 183.461837 166.08396 
L 183.885116 160.941123 
L 184.308394 161.413322 
L 184.731672 157.180993 
L 185.154951 155.68158 
L 185.578229 151.919244 
L 186.001508 150.784141 
L 186.424786 147.444176 
L 186.848064 142.454251 
L 187.694621 137.492224 
L 188.1179 137.072476 
L 188.541178 134.732224 
L 188.964457 131.337659 
L 189.811013 122.604244 
L 190.234292 123.724609 
L 190.65757 118.233945 
L 191.080849 115.738922 
L 191.927405 112.789885 
L 192.773962 103.702024 
L 193.197241 103.386272 
L 193.620519 102.024342 
L 194.043798 101.671971 
L 194.467076 95.701196 
L 194.890354 96.292757 
L 195.313633 94.833996 
L 195.736911 88.214061 
L 196.16019 88.179924 
L 196.583468 87.935223 
L 197.430025 82.39184 
L 197.853303 81.674956 
L 198.276582 77.342065 
L 198.69986 76.539111 
L 199.123139 76.302191 
L 199.546417 77.020205 
L 199.969695 71.821877 
L 200.392974 71.223057 
L 200.816252 70.073306 
L 201.239531 70.490849 
L 201.662809 70.034394 
L 202.086087 67.385698 
L 202.509366 66.217059 
L 203.355923 59.18215 
L 203.779201 63.460069 
L 204.625758 60.285395 
L 205.049036 61.422781 
L 205.472315 58.386963 
L 205.895593 58.72816 
L 206.74215 55.417174 
L 207.165428 59.142062 
L 207.588707 59.420623 
L 208.011985 58.252337 
L 208.435264 58.405902 
L 208.858542 58.005423 
L 209.281821 57.207384 
L 209.705099 57.0017 
L 210.128377 57.01489 
L 210.551656 54.117567 
L 210.974934 55.037939 
L 211.398213 59.727801 
L 211.821491 56.041334 
L 212.244769 55.82397 
L 212.668048 58.512395 
L 213.091326 55.759312 
L 213.514605 58.812685 
L 213.937883 58.931001 
L 214.361162 61.635343 
L 214.78444 66.131683 
L 215.207718 64.845517 
L 215.630997 62.553296 
L 216.054275 66.593009 
L 216.477554 62.694576 
L 216.900832 68.634325 
L 217.32411 67.939464 
L 217.747389 71.896291 
L 218.170667 72.32488 
L 218.593946 75.409741 
L 219.017224 74.490813 
L 219.440503 76.447629 
L 219.863781 76.840781 
L 220.287059 80.483696 
L 220.710338 82.85083 
L 221.133616 81.704439 
L 221.556895 86.222272 
L 221.980173 86.567149 
L 222.403451 90.547001 
L 222.82673 89.935058 
L 223.250008 92.297129 
L 223.673287 92.532513 
L 224.096565 98.168238 
L 224.519844 101.357461 
L 224.943122 100.726856 
L 225.789679 105.749589 
L 226.636236 114.701836 
L 227.059514 113.955208 
L 227.482792 115.879968 
L 228.329349 122.872016 
L 228.752628 124.55538 
L 229.175906 127.467557 
L 229.599185 128.49314 
L 230.445741 135.856722 
L 230.86902 136.763226 
L 231.292298 140.162638 
L 231.715577 145.472071 
L 232.138855 147.182698 
L 232.562133 150.860956 
L 232.985412 151.602226 
L 233.40869 158.471038 
L 233.831969 155.233833 
L 234.255247 159.356647 
L 234.678526 160.520626 
L 235.101804 168.301935 
L 235.525082 167.290405 
L 236.794918 175.635032 
L 237.218196 179.78536 
L 237.641474 180.82944 
L 238.064753 185.952661 
L 238.488031 186.437949 
L 239.757867 199.297761 
L 240.181145 199.401022 
L 240.604423 202.400869 
L 241.027702 206.849923 
L 241.45098 209.090519 
L 241.874259 212.091826 
L 242.297537 217.994158 
L 242.720815 212.285564 
L 243.144094 219.894724 
L 243.567372 223.755769 
L 243.990651 220.29215 
L 244.413929 225.441666 
L 245.260486 232.116687 
L 245.683764 238.314184 
L 246.107043 238.20588 
L 246.9536 243.458198 
L 247.800156 245.419448 
L 248.223435 252.017573 
L 248.646713 256.612392 
L 249.069992 255.98876 
L 249.49327 259.108848 
L 249.916549 258.522049 
L 250.763105 261.983465 
L 251.186384 263.525229 
L 251.609662 266.112578 
L 252.032941 267.384832 
L 252.456219 271.051396 
L 252.879497 273.029217 
L 253.302776 272.767774 
L 253.726054 277.800644 
L 254.149333 277.142714 
L 254.572611 277.980409 
L 254.99589 276.822805 
L 255.419168 277.657083 
L 255.842446 280.345035 
L 256.265725 284.087864 
L 256.689003 283.524998 
L 257.958838 288.136786 
L 258.382117 287.53124 
L 258.805395 290.311718 
L 259.228674 288.600198 
L 260.075231 292.496527 
L 260.498509 291.198944 
L 260.921787 291.917099 
L 261.345066 290.425771 
L 261.768344 291.550082 
L 262.191623 290.437733 
L 263.038179 292.726896 
L 263.461458 294.790639 
L 263.884736 292.451605 
L 264.308015 292.168381 
L 264.731293 293.509763 
L 265.154572 291.171745 
L 265.57785 290.863365 
L 266.001128 288.599108 
L 266.424407 294.158762 
L 266.847685 290.825132 
L 267.270964 289.394769 
L 267.694242 290.055986 
L 268.11752 286.683573 
L 268.540799 288.157423 
L 268.964077 288.698856 
L 269.387356 286.703672 
L 269.810634 287.160631 
L 270.233913 283.679084 
L 270.657191 281.619059 
L 271.080469 283.824811 
L 271.503748 280.766186 
L 271.927026 280.176664 
L 272.350305 279.784694 
L 273.196861 274.599121 
L 273.62014 274.94247 
L 274.043418 272.965188 
L 274.466697 272.409679 
L 274.889975 269.801993 
L 275.313254 263.210612 
L 275.736532 267.260434 
L 276.583089 258.899647 
L 277.006367 260.523346 
L 277.429646 256.333255 
L 277.852924 255.156538 
L 278.699481 251.139157 
L 279.122759 247.802491 
L 280.392595 241.738215 
L 280.815873 232.929146 
L 281.239151 235.803149 
L 281.66243 232.067289 
L 282.085708 233.472396 
L 282.508987 228.264027 
L 282.932265 227.695788 
L 283.355543 223.708095 
L 283.778822 217.558587 
L 284.2021 216.554749 
L 284.625379 212.069346 
L 285.048657 212.288129 
L 285.471936 207.622581 
L 286.741771 200.332174 
L 287.165049 196.0067 
L 287.588328 196.468523 
L 288.011606 190.042796 
L 288.434884 189.414711 
L 288.858163 183.915722 
L 289.281441 183.377726 
L 289.70472 179.759657 
L 290.127998 180.237194 
L 290.551277 178.689471 
L 290.974555 169.814993 
L 291.397833 171.702089 
L 291.821112 166.007339 
L 292.24439 164.435958 
L 292.667669 163.335748 
L 293.090947 155.424088 
L 293.937504 153.604936 
L 294.360782 150.01496 
L 294.784061 148.399254 
L 295.207339 144.282464 
L 295.630618 137.711265 
L 296.053896 139.415061 
L 296.477174 134.992574 
L 296.900453 132.24724 
L 297.323731 126.967788 
L 297.74701 127.243468 
L 298.593566 119.740206 
L 299.016845 118.562981 
L 299.440123 115.194124 
L 299.863402 115.608333 
L 300.28668 109.698666 
L 300.709959 109.621956 
L 301.133237 107.059332 
L 301.556515 105.350486 
L 301.979794 98.17776 
L 302.403072 98.378381 
L 302.826351 98.440394 
L 303.249629 93.840804 
L 303.672907 95.908211 
L 304.096186 90.088541 
L 304.519464 90.829705 
L 304.942743 84.854858 
L 305.366021 85.065055 
L 306.212578 79.384418 
L 306.635856 81.748584 
L 307.059135 73.17105 
L 307.905692 75.504477 
L 308.32897 72.35446 
L 308.752248 71.912513 
L 309.175527 73.193953 
L 309.598805 70.461826 
L 310.022084 65.028809 
L 310.445362 66.198851 
L 311.291919 64.581361 
L 311.715197 64.912158 
L 312.138476 61.502707 
L 312.561754 61.13784 
L 313.408311 58.90354 
L 313.831589 61.287306 
L 314.254868 59.174905 
L 315.101425 58.189288 
L 315.524703 58.558997 
L 315.947982 54.708025 
L 316.37126 55.101875 
L 316.794538 57.677283 
L 317.217817 56.645751 
L 317.641095 58.216467 
L 318.064374 57.784321 
L 318.487652 53.589882 
L 318.91093 58.435183 
L 319.757487 53.568 
L 320.180766 57.054662 
L 320.604044 56.187505 
L 321.027323 58.909325 
L 321.450601 59.046672 
L 322.297158 62.997085 
L 322.720436 59.862162 
L 323.143715 61.573555 
L 323.566993 62.249526 
L 323.990271 62.241978 
L 324.41355 64.86707 
L 324.836828 68.800794 
L 325.260107 68.375865 
L 325.683385 68.437493 
L 326.106664 66.923586 
L 326.529942 69.826825 
L 326.95322 74.662233 
L 327.376499 76.120775 
L 327.799777 79.055781 
L 328.223056 77.645401 
L 328.646334 78.058973 
L 329.069612 80.447082 
L 329.492891 83.701941 
L 330.339448 88.033778 
L 330.762726 88.702405 
L 331.186005 89.586561 
L 331.609283 92.761417 
L 332.032561 94.502543 
L 332.45584 94.319327 
L 332.879118 101.360923 
L 333.302397 104.855543 
L 333.725675 105.698993 
L 334.148953 105.492067 
L 334.572232 106.130578 
L 334.99551 110.241233 
L 336.688624 122.74796 
L 337.111902 122.765908 
L 337.535181 126.427531 
L 337.958459 128.731389 
L 338.381738 129.742878 
L 338.805016 135.075441 
L 340.074851 141.831007 
L 340.49813 146.847768 
L 340.921408 146.845638 
L 341.344686 152.369488 
L 341.767965 153.260834 
L 342.191243 157.725584 
L 342.614522 159.166284 
L 343.461079 167.823886 
L 343.884357 165.843878 
L 344.730914 175.828094 
L 345.154192 177.190058 
L 345.577471 176.630177 
L 346.000749 183.889007 
L 346.424027 185.76521 
L 346.847306 188.273462 
L 347.270584 189.54486 
L 348.117141 198.055551 
L 348.54042 198.146835 
L 349.386976 207.241928 
L 349.810255 210.937465 
L 350.233533 210.827215 
L 351.08009 215.649979 
L 351.926647 226.712878 
L 352.349925 225.13266 
L 352.773204 224.252812 
L 353.196482 232.874592 
L 353.619761 232.700404 
L 354.043039 238.05449 
L 354.466317 234.898629 
L 355.312874 243.894736 
L 355.736153 244.319604 
L 357.005988 251.816413 
L 357.429266 251.925631 
L 358.275823 261.88051 
L 358.699102 258.885296 
L 359.12238 263.649495 
L 359.545658 265.800066 
L 359.968937 266.663455 
L 360.392215 269.24564 
L 360.815494 267.964895 
L 361.238772 268.226764 
L 362.085329 276.408184 
L 362.508607 276.413775 
L 362.931886 280.201527 
L 363.355164 277.850252 
L 364.201721 281.245556 
L 364.624999 280.311225 
L 365.048278 281.130262 
L 365.471556 284.168502 
L 365.894835 284.490701 
L 366.318113 291.028829 
L 366.741391 288.274783 
L 367.587948 285.576637 
L 368.011227 287.811897 
L 368.434505 289.064038 
L 368.857784 289.51415 
L 369.281062 289.754988 
L 369.70434 292.574511 
L 370.127619 292.276372 
L 370.550897 290.673989 
L 370.974176 292.570726 
L 371.397454 291.995577 
L 371.820732 292.574392 
L 372.244011 295.488 
L 372.667289 294.246045 
L 373.090568 289.156511 
L 373.513846 291.391113 
L 373.937125 292.604009 
L 374.360403 292.485344 
L 374.783681 290.434251 
L 375.20696 290.460664 
L 375.630238 290.838816 
L 376.053517 290.237407 
L 376.476795 290.495816 
L 376.900073 288.442706 
L 377.323352 288.287433 
L 377.74663 285.186945 
L 378.169909 284.945599 
L 378.593187 285.935404 
L 379.016466 284.815144 
L 379.439744 280.441324 
L 379.863022 279.957092 
L 380.286301 279.725979 
L 380.709579 276.811093 
L 381.132858 279.288038 
L 381.556136 275.012897 
L 381.979414 274.326714 
L 382.402693 268.955482 
L 382.825971 270.445028 
L 383.24925 270.860361 
L 383.672528 265.545926 
L 384.095807 265.37335 
L 384.942363 260.116186 
L 385.365642 259.018129 
L 385.78892 254.838485 
L 386.212199 252.1758 
L 386.635477 251.105054 
L 387.058755 251.113246 
L 387.482034 249.611772 
L 387.905312 245.883235 
L 388.751869 242.547282 
L 389.175148 236.927376 
L 389.598426 235.637556 
L 390.444983 231.549936 
L 390.868261 224.650747 
L 391.29154 227.711725 
L 391.714818 219.571868 
L 392.138096 222.25515 
L 392.561375 216.343679 
L 392.984653 213.840783 
L 393.407932 212.843871 
L 393.83121 207.957019 
L 394.254489 208.450527 
L 395.101045 198.324809 
L 395.524324 197.259004 
L 395.947602 195.300947 
L 396.794159 189.471917 
L 397.217437 186.640818 
L 397.640716 181.623025 
L 398.487273 177.025229 
L 398.487273 177.025229 
" style="fill:none;stroke:#ff7f0e;stroke-linecap:square;stroke-opacity:0.8;stroke-width:1.5;"/>
   </g>
   <g id="patch_3">
    <path d="M 57.6 307.584 
L 57.6 41.472 
" style="fill:none;stroke:#000000;stroke-linecap:square;stroke-linejoin:miter;stroke-width:0.8;"/>
   </g>
   <g id="patch_4">
    <path d="M 414.72 307.584 
L 414.72 41.472 
" style="fill:none;stroke:#000000;stroke-linecap:square;stroke-linejoin:miter;stroke-width:0.8;"/>
   </g>
   <g id="patch_5">
    <path d="M 57.6 307.584 
L 414.72 307.584 
" style="fill:none;stroke:#000000;stroke-linecap:square;stroke-linejoin:miter;stroke-width:0.8;"/>
   </g>
   <g id="patch_6">
    <path d="M 57.6 41.472 
L 414.72 41.472 
" style="fill:none;stroke:#000000;stroke-linecap:square;stroke-linejoin:miter;stroke-width:0.8;"/>
   </g>
  </g>
 </g>
 <defs>
  <clipPath id="p01b312b5b3">
   <rect height="266.112" width="357.12" x="57.6" y="41.472"/>
  </clipPath>
 </defs>
</svg>
