<?xml version="1.0" encoding="utf-8" standalone="no"?>
<!DOCTYPE svg PUBLIC "-//W3C//DTD SVG 1.1//EN"
  "http://www.w3.org/Graphics/SVG/1.1/DTD/svg11.dtd">
<!-- Created with matplotlib (https://matplotlib.org/) -->
<svg height="345.6pt" version="1.1" viewBox="0 0 460.8 345.6" width="460.8pt" xmlns="http://www.w3.org/2000/svg" xmlns:xlink="http://www.w3.org/1999/xlink">
 <defs>
  <style type="text/css">
*{stroke-linecap:butt;stroke-linejoin:round;}
  </style>
 </defs>
 <g id="figure_1">
  <g id="patch_1">
   <path d="M 0 345.6 
L 460.8 345.6 
L 460.8 0 
L 0 0 
z
" style="fill:#ffffff;"/>
  </g>
  <g id="axes_1">
   <g id="patch_2">
    <path d="M 57.6 307.584 
L 414.72 307.584 
L 414.72 41.472 
L 57.6 41.472 
z
" style="fill:#ffffff;"/>
   </g>
   <g id="matplotlib.axis_1">
    <g id="xtick_1">
     <g id="line2d_1">
      <defs>
       <path d="M 0 0 
L 0 3.5 
" id="mbf155b9cae" style="stroke:#000000;stroke-width:0.8;"/>
      </defs>
      <g>
       <use style="stroke:#000000;stroke-width:0.8;" x="73.832727" xlink:href="#mbf155b9cae" y="307.584"/>
      </g>
     </g>
     <g id="text_1">
      <!-- 0.00 -->
      <defs>
       <path d="M 31.78125 66.40625 
Q 24.171875 66.40625 20.328125 58.90625 
Q 16.5 51.421875 16.5 36.375 
Q 16.5 21.390625 20.328125 13.890625 
Q 24.171875 6.390625 31.78125 6.390625 
Q 39.453125 6.390625 43.28125 13.890625 
Q 47.125 21.390625 47.125 36.375 
Q 47.125 51.421875 43.28125 58.90625 
Q 39.453125 66.40625 31.78125 66.40625 
z
M 31.78125 74.21875 
Q 44.046875 74.21875 50.515625 64.515625 
Q 56.984375 54.828125 56.984375 36.375 
Q 56.984375 17.96875 50.515625 8.265625 
Q 44.046875 -1.421875 31.78125 -1.421875 
Q 19.53125 -1.421875 13.0625 8.265625 
Q 6.59375 17.96875 6.59375 36.375 
Q 6.59375 54.828125 13.0625 64.515625 
Q 19.53125 74.21875 31.78125 74.21875 
z
" id="DejaVuSans-48"/>
       <path d="M 10.6875 12.40625 
L 21 12.40625 
L 21 0 
L 10.6875 0 
z
" id="DejaVuSans-46"/>
      </defs>
      <g transform="translate(62.699915 322.182437)scale(0.1 -0.1)">
       <use xlink:href="#DejaVuSans-48"/>
       <use x="63.623047" xlink:href="#DejaVuSans-46"/>
       <use x="95.410156" xlink:href="#DejaVuSans-48"/>
       <use x="159.033203" xlink:href="#DejaVuSans-48"/>
      </g>
     </g>
    </g>
    <g id="xtick_2">
     <g id="line2d_2">
      <g>
       <use style="stroke:#000000;stroke-width:0.8;" x="138.848292" xlink:href="#mbf155b9cae" y="307.584"/>
      </g>
     </g>
     <g id="text_2">
      <!-- 0.01 -->
      <defs>
       <path d="M 12.40625 8.296875 
L 28.515625 8.296875 
L 28.515625 63.921875 
L 10.984375 60.40625 
L 10.984375 69.390625 
L 28.421875 72.90625 
L 38.28125 72.90625 
L 38.28125 8.296875 
L 54.390625 8.296875 
L 54.390625 0 
L 12.40625 0 
z
" id="DejaVuSans-49"/>
      </defs>
      <g transform="translate(127.71548 322.182437)scale(0.1 -0.1)">
       <use xlink:href="#DejaVuSans-48"/>
       <use x="63.623047" xlink:href="#DejaVuSans-46"/>
       <use x="95.410156" xlink:href="#DejaVuSans-48"/>
       <use x="159.033203" xlink:href="#DejaVuSans-49"/>
      </g>
     </g>
    </g>
    <g id="xtick_3">
     <g id="line2d_3">
      <g>
       <use style="stroke:#000000;stroke-width:0.8;" x="203.863857" xlink:href="#mbf155b9cae" y="307.584"/>
      </g>
     </g>
     <g id="text_3">
      <!-- 0.02 -->
      <defs>
       <path d="M 19.1875 8.296875 
L 53.609375 8.296875 
L 53.609375 0 
L 7.328125 0 
L 7.328125 8.296875 
Q 12.9375 14.109375 22.625 23.890625 
Q 32.328125 33.6875 34.8125 36.53125 
Q 39.546875 41.84375 41.421875 45.53125 
Q 43.3125 49.21875 43.3125 52.78125 
Q 43.3125 58.59375 39.234375 62.25 
Q 35.15625 65.921875 28.609375 65.921875 
Q 23.96875 65.921875 18.8125 64.3125 
Q 13.671875 62.703125 7.8125 59.421875 
L 7.8125 69.390625 
Q 13.765625 71.78125 18.9375 73 
Q 24.125 74.21875 28.421875 74.21875 
Q 39.75 74.21875 46.484375 68.546875 
Q 53.21875 62.890625 53.21875 53.421875 
Q 53.21875 48.921875 51.53125 44.890625 
Q 49.859375 40.875 45.40625 35.40625 
Q 44.1875 33.984375 37.640625 27.21875 
Q 31.109375 20.453125 19.1875 8.296875 
z
" id="DejaVuSans-50"/>
      </defs>
      <g transform="translate(192.731044 322.182437)scale(0.1 -0.1)">
       <use xlink:href="#DejaVuSans-48"/>
       <use x="63.623047" xlink:href="#DejaVuSans-46"/>
       <use x="95.410156" xlink:href="#DejaVuSans-48"/>
       <use x="159.033203" xlink:href="#DejaVuSans-50"/>
      </g>
     </g>
    </g>
    <g id="xtick_4">
     <g id="line2d_4">
      <g>
       <use style="stroke:#000000;stroke-width:0.8;" x="268.879422" xlink:href="#mbf155b9cae" y="307.584"/>
      </g>
     </g>
     <g id="text_4">
      <!-- 0.03 -->
      <defs>
       <path d="M 40.578125 39.3125 
Q 47.65625 37.796875 51.625 33 
Q 55.609375 28.21875 55.609375 21.1875 
Q 55.609375 10.40625 48.1875 4.484375 
Q 40.765625 -1.421875 27.09375 -1.421875 
Q 22.515625 -1.421875 17.65625 -0.515625 
Q 12.796875 0.390625 7.625 2.203125 
L 7.625 11.71875 
Q 11.71875 9.328125 16.59375 8.109375 
Q 21.484375 6.890625 26.8125 6.890625 
Q 36.078125 6.890625 40.9375 10.546875 
Q 45.796875 14.203125 45.796875 21.1875 
Q 45.796875 27.640625 41.28125 31.265625 
Q 36.765625 34.90625 28.71875 34.90625 
L 20.21875 34.90625 
L 20.21875 43.015625 
L 29.109375 43.015625 
Q 36.375 43.015625 40.234375 45.921875 
Q 44.09375 48.828125 44.09375 54.296875 
Q 44.09375 59.90625 40.109375 62.90625 
Q 36.140625 65.921875 28.71875 65.921875 
Q 24.65625 65.921875 20.015625 65.03125 
Q 15.375 64.15625 9.8125 62.3125 
L 9.8125 71.09375 
Q 15.4375 72.65625 20.34375 73.4375 
Q 25.25 74.21875 29.59375 74.21875 
Q 40.828125 74.21875 47.359375 69.109375 
Q 53.90625 64.015625 53.90625 55.328125 
Q 53.90625 49.265625 50.4375 45.09375 
Q 46.96875 40.921875 40.578125 39.3125 
z
" id="DejaVuSans-51"/>
      </defs>
      <g transform="translate(257.746609 322.182437)scale(0.1 -0.1)">
       <use xlink:href="#DejaVuSans-48"/>
       <use x="63.623047" xlink:href="#DejaVuSans-46"/>
       <use x="95.410156" xlink:href="#DejaVuSans-48"/>
       <use x="159.033203" xlink:href="#DejaVuSans-51"/>
      </g>
     </g>
    </g>
    <g id="xtick_5">
     <g id="line2d_5">
      <g>
       <use style="stroke:#000000;stroke-width:0.8;" x="333.894986" xlink:href="#mbf155b9cae" y="307.584"/>
      </g>
     </g>
     <g id="text_5">
      <!-- 0.04 -->
      <defs>
       <path d="M 37.796875 64.3125 
L 12.890625 25.390625 
L 37.796875 25.390625 
z
M 35.203125 72.90625 
L 47.609375 72.90625 
L 47.609375 25.390625 
L 58.015625 25.390625 
L 58.015625 17.1875 
L 47.609375 17.1875 
L 47.609375 0 
L 37.796875 0 
L 37.796875 17.1875 
L 4.890625 17.1875 
L 4.890625 26.703125 
z
" id="DejaVuSans-52"/>
      </defs>
      <g transform="translate(322.762174 322.182437)scale(0.1 -0.1)">
       <use xlink:href="#DejaVuSans-48"/>
       <use x="63.623047" xlink:href="#DejaVuSans-46"/>
       <use x="95.410156" xlink:href="#DejaVuSans-48"/>
       <use x="159.033203" xlink:href="#DejaVuSans-52"/>
      </g>
     </g>
    </g>
    <g id="xtick_6">
     <g id="line2d_6">
      <g>
       <use style="stroke:#000000;stroke-width:0.8;" x="398.910551" xlink:href="#mbf155b9cae" y="307.584"/>
      </g>
     </g>
     <g id="text_6">
      <!-- 0.05 -->
      <defs>
       <path d="M 10.796875 72.90625 
L 49.515625 72.90625 
L 49.515625 64.59375 
L 19.828125 64.59375 
L 19.828125 46.734375 
Q 21.96875 47.46875 24.109375 47.828125 
Q 26.265625 48.1875 28.421875 48.1875 
Q 40.625 48.1875 47.75 41.5 
Q 54.890625 34.8125 54.890625 23.390625 
Q 54.890625 11.625 47.5625 5.09375 
Q 40.234375 -1.421875 26.90625 -1.421875 
Q 22.3125 -1.421875 17.546875 -0.640625 
Q 12.796875 0.140625 7.71875 1.703125 
L 7.71875 11.625 
Q 12.109375 9.234375 16.796875 8.0625 
Q 21.484375 6.890625 26.703125 6.890625 
Q 35.15625 6.890625 40.078125 11.328125 
Q 45.015625 15.765625 45.015625 23.390625 
Q 45.015625 31 40.078125 35.4375 
Q 35.15625 39.890625 26.703125 39.890625 
Q 22.75 39.890625 18.8125 39.015625 
Q 14.890625 38.140625 10.796875 36.28125 
z
" id="DejaVuSans-53"/>
      </defs>
      <g transform="translate(387.777739 322.182437)scale(0.1 -0.1)">
       <use xlink:href="#DejaVuSans-48"/>
       <use x="63.623047" xlink:href="#DejaVuSans-46"/>
       <use x="95.410156" xlink:href="#DejaVuSans-48"/>
       <use x="159.033203" xlink:href="#DejaVuSans-53"/>
      </g>
     </g>
    </g>
   </g>
   <g id="matplotlib.axis_2">
    <g id="ytick_1">
     <g id="line2d_7">
      <defs>
       <path d="M 0 0 
L -3.5 0 
" id="mcdcae7611e" style="stroke:#000000;stroke-width:0.8;"/>
      </defs>
      <g>
       <use style="stroke:#000000;stroke-width:0.8;" x="57.6" xlink:href="#mcdcae7611e" y="279.740928"/>
      </g>
     </g>
     <g id="text_7">
      <!-- −300 -->
      <defs>
       <path d="M 10.59375 35.5 
L 73.1875 35.5 
L 73.1875 27.203125 
L 10.59375 27.203125 
z
" id="DejaVuSans-8722"/>
      </defs>
      <g transform="translate(23.132812 283.540146)scale(0.1 -0.1)">
       <use xlink:href="#DejaVuSans-8722"/>
       <use x="83.789062" xlink:href="#DejaVuSans-51"/>
       <use x="147.412109" xlink:href="#DejaVuSans-48"/>
       <use x="211.035156" xlink:href="#DejaVuSans-48"/>
      </g>
     </g>
    </g>
    <g id="ytick_2">
     <g id="line2d_8">
      <g>
       <use style="stroke:#000000;stroke-width:0.8;" x="57.6" xlink:href="#mcdcae7611e" y="244.409807"/>
      </g>
     </g>
     <g id="text_8">
      <!-- −200 -->
      <g transform="translate(23.132812 248.209026)scale(0.1 -0.1)">
       <use xlink:href="#DejaVuSans-8722"/>
       <use x="83.789062" xlink:href="#DejaVuSans-50"/>
       <use x="147.412109" xlink:href="#DejaVuSans-48"/>
       <use x="211.035156" xlink:href="#DejaVuSans-48"/>
      </g>
     </g>
    </g>
    <g id="ytick_3">
     <g id="line2d_9">
      <g>
       <use style="stroke:#000000;stroke-width:0.8;" x="57.6" xlink:href="#mcdcae7611e" y="209.078686"/>
      </g>
     </g>
     <g id="text_9">
      <!-- −100 -->
      <g transform="translate(23.132812 212.877905)scale(0.1 -0.1)">
       <use xlink:href="#DejaVuSans-8722"/>
       <use x="83.789062" xlink:href="#DejaVuSans-49"/>
       <use x="147.412109" xlink:href="#DejaVuSans-48"/>
       <use x="211.035156" xlink:href="#DejaVuSans-48"/>
      </g>
     </g>
    </g>
    <g id="ytick_4">
     <g id="line2d_10">
      <g>
       <use style="stroke:#000000;stroke-width:0.8;" x="57.6" xlink:href="#mcdcae7611e" y="173.747566"/>
      </g>
     </g>
     <g id="text_10">
      <!-- 0 -->
      <g transform="translate(44.2375 177.546784)scale(0.1 -0.1)">
       <use xlink:href="#DejaVuSans-48"/>
      </g>
     </g>
    </g>
    <g id="ytick_5">
     <g id="line2d_11">
      <g>
       <use style="stroke:#000000;stroke-width:0.8;" x="57.6" xlink:href="#mcdcae7611e" y="138.416445"/>
      </g>
     </g>
     <g id="text_11">
      <!-- 100 -->
      <g transform="translate(31.5125 142.215664)scale(0.1 -0.1)">
       <use xlink:href="#DejaVuSans-49"/>
       <use x="63.623047" xlink:href="#DejaVuSans-48"/>
       <use x="127.246094" xlink:href="#DejaVuSans-48"/>
      </g>
     </g>
    </g>
    <g id="ytick_6">
     <g id="line2d_12">
      <g>
       <use style="stroke:#000000;stroke-width:0.8;" x="57.6" xlink:href="#mcdcae7611e" y="103.085324"/>
      </g>
     </g>
     <g id="text_12">
      <!-- 200 -->
      <g transform="translate(31.5125 106.884543)scale(0.1 -0.1)">
       <use xlink:href="#DejaVuSans-50"/>
       <use x="63.623047" xlink:href="#DejaVuSans-48"/>
       <use x="127.246094" xlink:href="#DejaVuSans-48"/>
      </g>
     </g>
    </g>
    <g id="ytick_7">
     <g id="line2d_13">
      <g>
       <use style="stroke:#000000;stroke-width:0.8;" x="57.6" xlink:href="#mcdcae7611e" y="67.754204"/>
      </g>
     </g>
     <g id="text_13">
      <!-- 300 -->
      <g transform="translate(31.5125 71.553422)scale(0.1 -0.1)">
       <use xlink:href="#DejaVuSans-51"/>
       <use x="63.623047" xlink:href="#DejaVuSans-48"/>
       <use x="127.246094" xlink:href="#DejaVuSans-48"/>
      </g>
     </g>
    </g>
   </g>
   <g id="line2d_14">
    <path clip-path="url(#p36e71d9b04)" d="M 73.832727 173.747566 
L 79.335347 136.130686 
L 82.298296 117.217483 
L 84.837966 102.311168 
L 86.954358 91.057824 
L 89.07075 81.048269 
L 90.763864 74.038018 
L 92.456978 67.98807 
L 93.726813 64.116222 
L 94.996648 60.838505 
L 96.266483 58.17268 
L 97.536319 56.133195 
L 98.382875 55.127105 
L 99.229432 54.406795 
L 100.075989 53.974001 
L 100.922546 53.829766 
L 101.769103 53.974437 
L 102.61566 54.407665 
L 103.462216 55.128407 
L 104.308773 56.134927 
L 105.15533 57.424799 
L 106.425165 59.88391 
L 107.695001 62.960088 
L 108.964836 66.63666 
L 110.234671 70.893704 
L 111.927785 77.432403 
L 113.620898 84.898714 
L 115.737291 95.425713 
L 117.853683 107.130802 
L 120.393353 122.482995 
L 123.356302 141.771777 
L 128.012365 173.756441 
L 133.514984 211.372873 
L 136.477933 230.285476 
L 139.017603 245.191092 
L 141.133995 256.443735 
L 143.250388 266.452492 
L 144.943501 273.462044 
L 146.636615 279.511245 
L 147.90645 283.382505 
L 149.176285 286.659616 
L 150.446121 289.324818 
L 151.715956 291.363667 
L 152.562513 292.369328 
L 153.40907 293.089206 
L 154.255626 293.521565 
L 155.102183 293.665365 
L 155.94874 293.520259 
L 156.795297 293.086596 
L 157.641854 292.365421 
L 158.488411 291.358472 
L 159.334967 290.068175 
L 160.604803 287.608436 
L 161.874638 284.531646 
L 163.144473 280.85448 
L 164.414308 276.596864 
L 166.107422 270.05744 
L 167.800536 262.590456 
L 169.916928 252.062697 
L 172.03332 240.356949 
L 174.57299 225.004113 
L 177.535939 205.7148 
L 182.192002 173.729815 
L 187.694621 136.113831 
L 190.65757 117.201829 
L 193.197241 102.296911 
L 195.313633 91.044969 
L 197.430025 81.037009 
L 199.123139 74.028158 
L 200.816252 67.979703 
L 202.086087 64.109031 
L 203.355923 60.832526 
L 204.625758 58.167947 
L 205.895593 56.129734 
L 206.74215 55.124502 
L 207.588707 54.405057 
L 208.435264 53.973132 
L 209.281821 53.829768 
L 210.128377 53.97531 
L 210.974934 54.409407 
L 211.821491 55.131014 
L 212.668048 56.138392 
L 213.514605 57.429114 
L 214.78444 59.88948 
L 216.054275 62.966883 
L 217.32411 66.644643 
L 218.593946 70.902831 
L 220.287059 77.442979 
L 221.980173 84.910637 
L 224.096565 95.439156 
L 226.212957 107.145562 
L 228.752628 122.499042 
L 231.715577 141.788886 
L 236.371639 173.774192 
L 241.874259 211.389727 
L 244.837208 230.301129 
L 247.376878 245.205348 
L 249.49327 256.456589 
L 251.609662 266.463751 
L 253.302776 273.471903 
L 254.99589 279.51961 
L 256.265725 283.389696 
L 257.53556 286.665593 
L 258.805395 289.329549 
L 260.075231 291.367127 
L 260.921787 292.37193 
L 261.768344 293.090942 
L 262.614901 293.522433 
L 263.461458 293.665362 
L 264.308015 293.519384 
L 265.154572 293.084853 
L 266.001128 292.362813 
L 266.847685 291.355006 
L 267.694242 290.063859 
L 268.964077 287.602865 
L 270.233913 284.52485 
L 271.503748 280.846496 
L 272.773583 276.587735 
L 274.466697 270.046863 
L 276.15981 262.578533 
L 278.276202 252.049253 
L 280.392595 240.342188 
L 282.932265 224.988065 
L 285.895214 205.697691 
L 290.551277 173.712064 
L 296.053896 136.096977 
L 299.016845 117.186176 
L 301.556515 102.282656 
L 303.672907 91.032116 
L 305.7893 81.025752 
L 307.482413 74.018299 
L 309.175527 67.97134 
L 310.445362 64.101841 
L 311.715197 60.82655 
L 312.985033 58.163217 
L 314.254868 56.126275 
L 315.101425 55.121902 
L 315.947982 54.403322 
L 316.794538 53.972266 
L 317.641095 53.829772 
L 318.487652 53.976185 
L 319.334209 54.411151 
L 320.180766 55.133623 
L 321.027323 56.141859 
L 321.873879 57.433432 
L 323.143715 59.895053 
L 324.41355 62.97368 
L 325.683385 66.652629 
L 326.95322 70.911961 
L 328.646334 77.453557 
L 330.339448 84.922561 
L 332.45584 95.452601 
L 334.572232 107.160325 
L 337.111902 122.515091 
L 340.074851 141.805995 
L 344.730914 173.791943 
L 350.233533 211.406581 
L 353.196482 230.316782 
L 355.736153 245.219603 
L 357.852545 256.469442 
L 359.968937 266.475008 
L 361.66205 273.48176 
L 363.355164 279.527973 
L 364.624999 283.396884 
L 365.894835 286.671568 
L 367.16467 289.334278 
L 368.434505 291.370584 
L 369.281062 292.374528 
L 370.127619 293.092676 
L 370.974176 293.523298 
L 371.820732 293.665356 
L 372.667289 293.518507 
L 373.513846 293.083107 
L 374.360403 292.360203 
L 375.20696 291.351537 
L 376.053517 290.05954 
L 377.323352 287.597291 
L 378.593187 284.518052 
L 379.863022 280.838509 
L 381.132858 276.578604 
L 382.825971 270.036284 
L 384.519085 262.566607 
L 386.635477 252.035808 
L 388.751869 240.327425 
L 391.29154 224.972015 
L 394.254489 205.680581 
L 398.487273 176.637328 
L 398.487273 176.637328 
" style="fill:none;stroke:#1f77b4;stroke-linecap:square;stroke-width:1.5;"/>
   </g>
   <g id="line2d_15">
    <path clip-path="url(#p36e71d9b04)" d="M 73.832727 173.747566 
L 74.679284 168.415261 
L 79.758625 134.307592 
L 81.875017 121.138303 
L 84.414688 106.162045 
L 87.377637 90.519567 
L 90.340586 77.257404 
L 93.726813 65.803987 
L 96.689762 59.168532 
L 97.11304 58.519326 
L 100.075989 55.690765 
L 100.499268 55.670512 
L 103.462216 56.76473 
L 104.308773 58.084224 
L 106.848444 62.340297 
L 110.234671 72.261891 
L 113.620898 86.104224 
L 117.430404 105.794415 
L 121.23991 128.668626 
L 125.049416 153.694677 
L 135.208098 221.736443 
L 137.747768 237.112824 
L 140.710717 253.359376 
L 143.673666 267.348463 
L 147.059893 279.776724 
L 150.022842 287.426719 
L 150.869399 288.690243 
L 153.40907 292.030721 
L 154.255626 292.108092 
L 156.795297 292.098639 
L 160.181524 287.571708 
L 163.144473 280.063304 
L 166.5307 267.65792 
L 168.223814 260.033192 
L 170.763485 247.054788 
L 173.303155 232.655172 
L 176.689382 211.348476 
L 180.498888 185.848211 
L 188.1179 134.392267 
L 191.080849 115.932122 
L 193.620519 101.306908 
L 197.006746 84.489126 
L 200.392974 71.115949 
L 203.355923 62.472566 
L 205.049036 59.583503 
L 206.74215 56.766628 
L 210.128377 55.631373 
L 213.091326 58.470184 
L 213.514605 59.038323 
L 216.900832 66.865464 
L 220.287059 78.799546 
L 223.673287 94.3894 
L 227.482792 115.624455 
L 231.292298 139.599941 
L 236.371639 173.876451 
L 241.45098 208.15095 
L 244.413929 226.993791 
L 247.376878 244.332822 
L 250.339827 259.67474 
L 253.726054 273.959467 
L 256.689003 283.539203 
L 260.075231 290.286624 
L 263.038179 292.439554 
L 263.461458 292.560717 
L 266.424407 290.798535 
L 266.847685 290.290637 
L 269.810634 284.706326 
L 271.080469 280.901427 
L 273.62014 272.711824 
L 275.313254 265.782071 
L 277.006367 257.992121 
L 279.122759 247.14351 
L 281.239151 235.026883 
L 283.778822 219.491188 
L 286.741771 200.197494 
L 298.170288 123.530166 
L 300.28668 110.863589 
L 303.672907 92.566558 
L 307.059135 77.404521 
L 310.022084 66.968566 
L 313.408311 59.138735 
L 316.37126 55.911194 
L 316.794538 55.731543 
L 319.757487 56.411545 
L 320.180766 56.864578 
L 323.143715 61.43776 
L 324.41355 64.869791 
L 326.529942 70.788286 
L 329.916169 84.137332 
L 333.725675 103.412998 
L 337.535181 126.000422 
L 341.767965 153.625022 
L 353.196482 229.799779 
L 357.005988 251.19328 
L 360.392215 267.195086 
L 363.355164 278.461512 
L 366.741391 287.353499 
L 369.70434 291.645958 
L 370.127619 291.88415 
L 373.090568 292.287723 
L 373.937125 291.39035 
L 376.476795 288.380739 
L 379.863022 280.050641 
L 381.979414 272.678856 
L 384.095807 263.925222 
L 386.212199 253.783074 
L 388.328591 242.308122 
L 390.021704 232.505344 
L 393.407932 211.37985 
L 398.487273 177.129409 
L 398.487273 177.129409 
" style="fill:none;stroke:#ff7f0e;stroke-linecap:square;stroke-width:2;"/>
   </g>
   <g id="line2d_16">
    <path clip-path="url(#p36e71d9b04)" d="M 73.832727 174.596598 
L 74.256006 171.280008 
L 74.679284 170.56037 
L 75.102563 166.099509 
L 75.525841 164.526275 
L 75.949119 159.809907 
L 76.372398 157.842144 
L 76.795676 153.505035 
L 77.218955 147.684507 
L 78.065511 145.41645 
L 78.48879 140.883901 
L 78.912068 141.95663 
L 79.335347 136.019037 
L 79.758625 137.358576 
L 80.181904 130.679888 
L 81.02846 125.991015 
L 81.451739 124.076805 
L 81.875017 122.677716 
L 82.298296 118.230908 
L 82.721574 116.717309 
L 83.144852 113.684138 
L 83.568131 109.19871 
L 83.991409 110.160651 
L 84.837966 103.383752 
L 85.261245 104.305101 
L 85.684523 101.415848 
L 86.107801 95.405163 
L 86.53108 93.477813 
L 86.954358 92.657345 
L 87.377637 90.105971 
L 87.800915 89.554021 
L 88.224193 90.924375 
L 88.647472 83.729491 
L 89.07075 81.282556 
L 89.494029 76.49093 
L 89.917307 79.203137 
L 90.340586 80.137718 
L 90.763864 73.987763 
L 91.187142 75.767727 
L 91.610421 73.70295 
L 92.033699 72.460573 
L 92.456978 68.109758 
L 92.880256 71.008249 
L 93.303534 69.244505 
L 93.726813 64.649706 
L 94.150091 61.603184 
L 94.996648 64.841763 
L 95.419927 64.337959 
L 95.843205 62.046775 
L 96.266483 61.311238 
L 96.689762 59.902317 
L 97.11304 60.877165 
L 97.536319 57.874935 
L 97.959597 58.208269 
L 98.382875 55.658862 
L 98.806154 59.77165 
L 99.229432 54.421613 
L 99.652711 56.860093 
L 100.075989 56.318233 
L 100.499268 54.461868 
L 100.922546 55.05804 
L 101.345824 56.282329 
L 101.769103 54.100685 
L 102.192381 54.360578 
L 102.61566 56.502222 
L 103.038938 57.475252 
L 103.885495 55.360994 
L 104.308773 61.454708 
L 104.732052 60.292585 
L 105.15533 60.129297 
L 105.578609 59.20206 
L 106.001887 62.037439 
L 106.848444 61.866327 
L 107.271722 64.426651 
L 107.695001 65.636161 
L 108.118279 67.243268 
L 108.541557 69.795935 
L 108.964836 69.74252 
L 109.388114 68.096683 
L 109.811393 72.748582 
L 110.234671 72.245066 
L 110.65795 75.175573 
L 111.081228 75.641845 
L 111.504506 79.581897 
L 112.351063 80.616013 
L 112.774342 78.700012 
L 113.19762 85.301903 
L 113.620898 86.783459 
L 114.044177 88.936059 
L 114.467455 89.619118 
L 114.890734 90.012722 
L 116.160569 100.929054 
L 117.007126 102.622886 
L 117.430404 105.257584 
L 117.853683 107.147149 
L 118.276961 110.585543 
L 118.700239 116.71208 
L 119.123518 115.980963 
L 119.546796 114.30263 
L 119.970075 118.061332 
L 120.393353 124.326851 
L 120.816632 124.82751 
L 121.663188 133.789261 
L 122.086467 135.214245 
L 122.509745 135.328431 
L 122.933024 140.710955 
L 123.77958 146.792854 
L 124.202859 147.778035 
L 125.472694 156.187568 
L 125.895973 162.312978 
L 126.319251 163.991611 
L 126.742529 164.793145 
L 127.165808 172.217309 
L 127.589086 168.99754 
L 128.012365 174.689006 
L 128.435643 177.650634 
L 128.858921 181.824281 
L 129.2822 182.158787 
L 129.705478 184.86979 
L 130.128757 184.440271 
L 130.552035 190.291825 
L 130.975314 194.541847 
L 131.398592 200.935667 
L 131.82187 198.557935 
L 132.245149 203.760093 
L 132.668427 205.201999 
L 133.091706 209.694651 
L 133.514984 210.141966 
L 133.938262 213.838999 
L 134.361541 219.479549 
L 134.784819 219.733428 
L 135.208098 220.439919 
L 135.631376 224.714024 
L 136.054654 225.709903 
L 136.477933 227.626754 
L 136.901211 233.525047 
L 137.32449 232.819252 
L 138.594325 243.379749 
L 139.017603 242.603242 
L 139.440882 248.610945 
L 139.86416 247.277247 
L 140.287439 248.707644 
L 140.710717 253.304027 
L 141.133995 253.993636 
L 141.557274 256.340284 
L 141.980552 260.915179 
L 142.403831 263.236455 
L 142.827109 261.13122 
L 143.250388 264.69707 
L 143.673666 265.365517 
L 144.096944 266.566118 
L 144.520223 270.031648 
L 144.943501 272.311463 
L 145.36678 271.90974 
L 145.790058 275.755492 
L 146.213336 276.190095 
L 146.636615 277.166635 
L 147.059893 280.095754 
L 147.90645 282.895706 
L 148.329729 283.459888 
L 148.753007 281.505859 
L 149.176285 284.612195 
L 149.599564 286.77772 
L 150.022842 287.754803 
L 150.446121 286.873426 
L 150.869399 289.875164 
L 151.292677 289.465313 
L 151.715956 290.122912 
L 152.562513 292.642281 
L 152.985791 292.186555 
L 153.40907 292.92675 
L 153.832348 294.716056 
L 154.678905 291.897873 
L 155.102183 292.749801 
L 155.525462 295.488 
L 155.94874 288.304334 
L 156.372018 294.025435 
L 156.795297 289.78563 
L 157.218575 294.33815 
L 157.641854 289.722412 
L 158.065132 289.952259 
L 158.488411 288.416617 
L 159.334967 288.538108 
L 159.758246 286.609564 
L 160.604803 287.410294 
L 161.028081 284.172284 
L 161.451359 285.20054 
L 161.874638 281.532653 
L 162.297916 284.292092 
L 162.721195 282.478007 
L 163.144473 282.208544 
L 163.99103 277.179747 
L 164.414308 272.995807 
L 164.837587 273.631009 
L 165.260865 271.540272 
L 165.684144 270.585604 
L 166.107422 270.952713 
L 166.953979 265.762921 
L 167.377257 263.892969 
L 167.800536 259.99767 
L 168.223814 262.48385 
L 168.647093 260.227532 
L 169.070371 254.254221 
L 169.493649 254.604773 
L 169.916928 253.032671 
L 170.763485 244.152055 
L 171.186763 242.50264 
L 171.610041 242.582192 
L 172.03332 238.882455 
L 172.456598 238.264401 
L 173.303155 230.24892 
L 173.726434 230.195118 
L 174.149712 224.712277 
L 174.57299 227.120299 
L 174.996269 220.963266 
L 175.419547 220.152668 
L 176.266104 213.779552 
L 176.689382 211.447795 
L 177.112661 207.480444 
L 177.535939 206.205404 
L 178.382496 198.818917 
L 178.805775 197.390342 
L 179.229053 193.504047 
L 179.652331 191.242957 
L 180.07561 187.318823 
L 180.498888 185.991472 
L 180.922167 182.057356 
L 181.345445 179.718663 
L 181.768723 176.376202 
L 182.192002 174.740469 
L 182.61528 169.543675 
L 183.038559 168.409533 
L 183.461837 164.838377 
L 183.885116 164.866047 
L 184.308394 161.593623 
L 184.731672 155.439723 
L 185.154951 154.436836 
L 186.001508 148.426016 
L 186.424786 147.017995 
L 186.848064 142.67807 
L 187.694621 137.595252 
L 188.1179 134.59507 
L 188.541178 130.78471 
L 188.964457 130.660854 
L 189.387735 128.964573 
L 189.811013 122.540371 
L 191.080849 116.111555 
L 191.504127 115.662842 
L 192.350684 106.432481 
L 192.773962 104.87196 
L 193.197241 103.791566 
L 193.620519 104.241687 
L 194.043798 98.266516 
L 194.467076 96.46209 
L 194.890354 95.474989 
L 195.313633 89.47873 
L 195.736911 90.347674 
L 196.16019 87.635668 
L 196.583468 86.647915 
L 197.006746 83.604908 
L 197.430025 82.078682 
L 197.853303 81.967823 
L 198.276582 78.440188 
L 198.69986 78.340223 
L 199.123139 76.000024 
L 199.546417 77.355852 
L 199.969695 74.375441 
L 200.392974 69.756386 
L 200.816252 67.026592 
L 201.239531 67.57875 
L 201.662809 71.179128 
L 202.086087 66.257815 
L 202.509366 66.126773 
L 202.932644 64.865352 
L 203.355923 61.417349 
L 204.20248 63.669651 
L 204.625758 63.001289 
L 205.049036 63.555184 
L 205.472315 57.302604 
L 205.895593 56.87782 
L 206.318872 59.56446 
L 206.74215 58.534048 
L 207.165428 56.963107 
L 207.588707 57.295068 
L 208.011985 58.353063 
L 208.435264 59.098774 
L 208.858542 54.389318 
L 209.281821 55.851489 
L 209.705099 54.2637 
L 210.128377 53.787266 
L 210.974934 55.038609 
L 211.398213 56.290526 
L 211.821491 55.112233 
L 212.668048 59.399491 
L 213.091326 58.513016 
L 213.937883 59.596921 
L 214.78444 62.064999 
L 215.207718 61.432311 
L 215.630997 66.010174 
L 216.054275 65.304029 
L 216.477554 66.291376 
L 216.900832 63.359355 
L 217.32411 67.18111 
L 217.747389 67.149117 
L 218.170667 73.111339 
L 218.593946 71.353458 
L 219.017224 73.381582 
L 219.440503 77.247318 
L 219.863781 76.267484 
L 220.287059 76.300433 
L 220.710338 84.368522 
L 221.133616 81.537363 
L 221.556895 86.204249 
L 221.980173 89.209823 
L 222.403451 86.280574 
L 222.82673 90.221027 
L 223.673287 91.760012 
L 224.096565 98.442768 
L 224.943122 103.006655 
L 225.3664 109.167695 
L 225.789679 108.444999 
L 226.212957 109.997784 
L 226.636236 110.047882 
L 227.059514 110.386097 
L 227.482792 116.252061 
L 227.906071 118.682662 
L 228.329349 118.947443 
L 228.752628 120.897247 
L 229.175906 125.75451 
L 229.599185 125.75464 
L 230.022463 132.724452 
L 230.445741 133.958152 
L 230.86902 138.345742 
L 231.292298 138.373229 
L 231.715577 145.1571 
L 232.138855 147.760434 
L 232.562133 146.14021 
L 232.985412 155.701974 
L 233.40869 152.53121 
L 233.831969 155.226511 
L 234.255247 160.766701 
L 234.678526 158.842481 
L 235.101804 166.823507 
L 235.525082 170.109259 
L 235.948361 170.044379 
L 236.371639 171.423542 
L 236.794918 176.331463 
L 237.641474 183.733992 
L 238.064753 182.454626 
L 238.488031 188.237975 
L 238.91131 192.132025 
L 239.334588 194.097576 
L 240.604423 201.545493 
L 241.45098 208.882619 
L 241.874259 213.790053 
L 242.297537 216.013148 
L 242.720815 214.609742 
L 243.567372 223.972219 
L 243.990651 224.179172 
L 244.413929 228.082509 
L 244.837208 228.733048 
L 245.683764 238.106845 
L 246.107043 235.692133 
L 246.530321 237.948798 
L 246.9536 243.698184 
L 247.376878 245.553332 
L 247.800156 245.043672 
L 248.223435 249.54226 
L 248.646713 250.316383 
L 249.069992 252.870379 
L 249.49327 254.61343 
L 249.916549 257.812149 
L 250.763105 259.24962 
L 251.186384 266.193456 
L 251.609662 265.005872 
L 252.032941 268.972333 
L 252.456219 269.011321 
L 252.879497 270.635363 
L 253.302776 275.263569 
L 253.726054 272.875513 
L 254.149333 275.883917 
L 254.572611 276.330672 
L 254.99589 277.329826 
L 255.419168 280.046326 
L 255.842446 281.013998 
L 256.265725 278.605545 
L 256.689003 280.409686 
L 257.112282 282.744832 
L 257.53556 285.71782 
L 257.958838 284.585905 
L 258.382117 286.607289 
L 258.805395 287.963921 
L 259.228674 286.256487 
L 259.651952 288.44162 
L 260.075231 288.401221 
L 260.498509 291.455056 
L 260.921787 290.600462 
L 261.345066 291.312553 
L 261.768344 293.204077 
L 262.614901 290.660542 
L 263.461458 293.155101 
L 263.884736 292.899034 
L 264.308015 294.161905 
L 264.731293 290.995558 
L 265.154572 289.304843 
L 266.001128 291.703498 
L 266.424407 288.772174 
L 266.847685 291.536088 
L 267.270964 288.822857 
L 267.694242 291.09996 
L 268.11752 285.384025 
L 268.540799 289.780704 
L 268.964077 288.43501 
L 269.387356 284.973185 
L 269.810634 284.584151 
L 270.233913 281.194036 
L 270.657191 285.949408 
L 271.080469 279.271697 
L 271.503748 281.047354 
L 271.927026 279.527457 
L 272.350305 275.520356 
L 272.773583 273.609797 
L 273.196861 274.600605 
L 273.62014 273.438131 
L 274.043418 269.680904 
L 274.466697 271.167733 
L 274.889975 266.845279 
L 275.313254 265.491515 
L 275.736532 263.597484 
L 276.15981 263.740595 
L 276.583089 258.756506 
L 277.006367 255.612287 
L 277.429646 255.227128 
L 277.852924 253.053698 
L 278.276202 252.125945 
L 278.699481 249.314465 
L 279.122759 247.912041 
L 279.546038 243.572468 
L 279.969316 243.67762 
L 280.392595 238.86877 
L 280.815873 239.027382 
L 281.239151 236.874004 
L 281.66243 233.054268 
L 282.085708 227.719435 
L 282.508987 227.214951 
L 282.932265 224.048945 
L 283.355543 223.605846 
L 283.778822 218.018528 
L 284.2021 218.21879 
L 284.625379 213.840987 
L 285.048657 211.932384 
L 285.471936 207.315417 
L 286.318492 201.387847 
L 286.741771 200.483479 
L 287.165049 196.711815 
L 287.588328 195.739103 
L 288.011606 189.644344 
L 288.434884 188.862728 
L 288.858163 184.862828 
L 289.281441 182.558897 
L 289.70472 178.184229 
L 290.127998 178.79543 
L 290.974555 169.005327 
L 291.397833 168.862374 
L 291.821112 167.763463 
L 292.24439 159.992403 
L 292.667669 159.309139 
L 293.090947 154.725748 
L 293.514225 155.042388 
L 293.937504 149.565884 
L 294.360782 150.345403 
L 294.784061 144.932565 
L 295.207339 142.295797 
L 295.630618 140.602589 
L 296.477174 133.139796 
L 296.900453 130.197091 
L 297.323731 128.382117 
L 297.74701 124.585233 
L 298.170288 124.544766 
L 298.593566 119.181467 
L 299.016845 120.672884 
L 299.440123 117.322966 
L 299.863402 111.723817 
L 300.28668 111.027051 
L 300.709959 108.684362 
L 301.133237 103.66924 
L 301.556515 105.693553 
L 301.979794 99.890956 
L 302.403072 102.698659 
L 302.826351 96.783829 
L 303.249629 93.790176 
L 303.672907 93.754179 
L 304.096186 90.46068 
L 304.519464 88.772216 
L 304.942743 85.476122 
L 305.366021 83.711193 
L 306.212578 82.290563 
L 306.635856 78.560476 
L 307.059135 78.01148 
L 307.905692 73.275966 
L 308.32897 74.61716 
L 308.752248 70.07808 
L 309.175527 72.380744 
L 309.598805 66.368563 
L 310.022084 67.637297 
L 310.445362 67.803196 
L 310.868641 61.917732 
L 311.291919 66.064942 
L 311.715197 66.167138 
L 312.138476 63.166031 
L 312.561754 63.295447 
L 312.985033 58.221066 
L 313.408311 58.862207 
L 313.831589 61.122253 
L 314.254868 56.395447 
L 314.678146 57.691983 
L 315.101425 55.632488 
L 315.524703 57.345208 
L 315.947982 57.537415 
L 316.37126 55.500448 
L 316.794538 55.801727 
L 317.217817 53.568 
L 317.641095 56.029432 
L 318.064374 55.566691 
L 318.487652 56.233262 
L 318.91093 54.712889 
L 319.334209 57.909445 
L 319.757487 55.464562 
L 320.180766 57.509547 
L 320.604044 57.400494 
L 321.450601 59.270992 
L 321.873879 59.606945 
L 322.297158 60.902567 
L 322.720436 63.787723 
L 323.143715 57.86229 
L 323.566993 62.047413 
L 323.990271 62.703706 
L 324.41355 67.153307 
L 324.836828 64.716838 
L 325.260107 69.507182 
L 325.683385 69.442402 
L 326.106664 68.111555 
L 326.529942 71.874231 
L 326.95322 71.266075 
L 327.376499 74.793833 
L 327.799777 77.018782 
L 328.223056 75.348665 
L 328.646334 77.235249 
L 329.069612 80.444489 
L 329.492891 82.594658 
L 329.916169 83.923462 
L 330.339448 88.770985 
L 330.762726 87.869625 
L 331.186005 92.176913 
L 331.609283 93.101849 
L 332.032561 95.499639 
L 332.45584 95.79382 
L 332.879118 101.273518 
L 333.302397 102.301845 
L 333.725675 101.858099 
L 334.99551 112.218456 
L 335.418789 110.617925 
L 336.265346 120.196291 
L 336.688624 120.866855 
L 337.111902 122.355136 
L 337.535181 127.168801 
L 337.958459 127.397298 
L 338.381738 129.248676 
L 338.805016 132.107454 
L 339.228294 138.09312 
L 339.651573 136.644672 
L 340.074851 142.465553 
L 340.921408 147.933374 
L 341.344686 152.405955 
L 341.767965 154.255086 
L 342.191243 157.927602 
L 342.614522 156.322673 
L 343.0378 165.110493 
L 343.884357 168.216332 
L 344.307635 171.312591 
L 344.730914 173.250313 
L 345.154192 174.380415 
L 345.577471 177.635676 
L 346.000749 181.789699 
L 346.424027 187.181482 
L 346.847306 188.19963 
L 347.270584 188.627027 
L 347.693863 194.329354 
L 348.117141 196.756099 
L 348.54042 199.891548 
L 348.963698 205.441616 
L 349.386976 206.365053 
L 349.810255 209.452188 
L 350.233533 208.215885 
L 350.656812 212.092423 
L 351.08009 219.935679 
L 351.926647 218.536388 
L 352.773204 228.375905 
L 353.196482 232.520164 
L 353.619761 233.456211 
L 354.043039 233.101396 
L 354.466317 235.47927 
L 354.889596 242.131747 
L 355.312874 240.260445 
L 355.736153 245.032016 
L 356.159431 247.637174 
L 356.582709 249.227773 
L 357.005988 250.158582 
L 357.429266 251.867885 
L 357.852545 252.591457 
L 358.275823 257.748422 
L 358.699102 259.870762 
L 359.12238 258.876654 
L 359.545658 264.719562 
L 360.392215 269.382467 
L 360.815494 268.565795 
L 361.238772 268.5836 
L 361.66205 270.526164 
L 362.085329 275.670218 
L 362.508607 276.163725 
L 362.931886 279.020742 
L 363.355164 280.922028 
L 363.778443 278.03717 
L 364.201721 283.616135 
L 364.624999 282.745716 
L 365.048278 283.751001 
L 365.471556 285.825823 
L 365.894835 285.972209 
L 366.318113 286.529737 
L 366.741391 286.340537 
L 367.16467 289.62158 
L 367.587948 288.192902 
L 368.011227 291.547634 
L 368.434505 288.403749 
L 368.857784 290.669261 
L 369.281062 294.145529 
L 369.70434 291.946138 
L 370.127619 294.966222 
L 370.550897 291.92388 
L 370.974176 292.591288 
L 371.397454 289.809138 
L 371.820732 290.731139 
L 372.244011 290.818368 
L 372.667289 292.736888 
L 373.090568 291.388014 
L 373.513846 294.279231 
L 374.360403 290.156341 
L 374.783681 288.867459 
L 375.20696 289.881786 
L 375.630238 290.017083 
L 376.053517 289.626658 
L 376.476795 289.517329 
L 376.900073 289.221412 
L 377.323352 284.062559 
L 377.74663 282.549503 
L 378.169909 282.764909 
L 378.593187 285.384849 
L 379.016466 279.326258 
L 379.439744 281.126723 
L 379.863022 280.857919 
L 380.709579 274.049664 
L 381.132858 276.109966 
L 381.556136 270.575685 
L 381.979414 270.8027 
L 382.402693 270.852193 
L 382.825971 267.581246 
L 383.24925 267.000367 
L 383.672528 267.301481 
L 384.095807 265.446487 
L 384.519085 261.372154 
L 384.942363 262.060845 
L 385.365642 257.327291 
L 385.78892 258.299324 
L 386.212199 252.918383 
L 386.635477 255.15871 
L 387.482034 246.696832 
L 387.905312 245.945289 
L 388.328591 240.254073 
L 388.751869 239.02299 
L 389.175148 235.511965 
L 389.598426 234.204137 
L 390.021704 231.048068 
L 390.444983 232.41543 
L 390.868261 226.351358 
L 391.29154 225.211651 
L 391.714818 222.370522 
L 392.138096 218.361509 
L 392.561375 217.83477 
L 392.984653 212.099466 
L 393.407932 211.483128 
L 393.83121 208.601132 
L 394.254489 208.213088 
L 395.524324 197.416813 
L 395.947602 196.901998 
L 396.370881 193.234596 
L 396.794159 191.767255 
L 397.217437 186.402631 
L 397.640716 185.39939 
L 398.063994 179.464014 
L 398.487273 177.58823 
L 398.487273 177.58823 
" style="fill:none;stroke:#2ca02c;stroke-linecap:square;stroke-opacity:0.8;stroke-width:1.5;"/>
   </g>
   <g id="patch_3">
    <path d="M 57.6 307.584 
L 57.6 41.472 
" style="fill:none;stroke:#000000;stroke-linecap:square;stroke-linejoin:miter;stroke-width:0.8;"/>
   </g>
   <g id="patch_4">
    <path d="M 414.72 307.584 
L 414.72 41.472 
" style="fill:none;stroke:#000000;stroke-linecap:square;stroke-linejoin:miter;stroke-width:0.8;"/>
   </g>
   <g id="patch_5">
    <path d="M 57.6 307.584 
L 414.72 307.584 
" style="fill:none;stroke:#000000;stroke-linecap:square;stroke-linejoin:miter;stroke-width:0.8;"/>
   </g>
   <g id="patch_6">
    <path d="M 57.6 41.472 
L 414.72 41.472 
" style="fill:none;stroke:#000000;stroke-linecap:square;stroke-linejoin:miter;stroke-width:0.8;"/>
   </g>
  </g>
 </g>
 <defs>
  <clipPath id="p36e71d9b04">
   <rect height="266.112" width="357.12" x="57.6" y="41.472"/>
  </clipPath>
 </defs>
</svg>
