<?xml version="1.0" encoding="utf-8" standalone="no"?>
<!DOCTYPE svg PUBLIC "-//W3C//DTD SVG 1.1//EN"
  "http://www.w3.org/Graphics/SVG/1.1/DTD/svg11.dtd">
<!-- Created with matplotlib (https://matplotlib.org/) -->
<svg height="345.6pt" version="1.1" viewBox="0 0 460.8 345.6" width="460.8pt" xmlns="http://www.w3.org/2000/svg" xmlns:xlink="http://www.w3.org/1999/xlink">
 <defs>
  <style type="text/css">
*{stroke-linecap:butt;stroke-linejoin:round;}
  </style>
 </defs>
 <g id="figure_1">
  <g id="patch_1">
   <path d="M 0 345.6 
L 460.8 345.6 
L 460.8 0 
L 0 0 
z
" style="fill:#ffffff;"/>
  </g>
  <g id="axes_1">
   <g id="patch_2">
    <path d="M 57.6 307.584 
L 414.72 307.584 
L 414.72 41.472 
L 57.6 41.472 
z
" style="fill:#ffffff;"/>
   </g>
   <g id="matplotlib.axis_1">
    <g id="xtick_1">
     <g id="line2d_1">
      <defs>
       <path d="M 0 0 
L 0 3.5 
" id="m62a65851ca" style="stroke:#000000;stroke-width:0.8;"/>
      </defs>
      <g>
       <use style="stroke:#000000;stroke-width:0.8;" x="73.832727" xlink:href="#m62a65851ca" y="307.584"/>
      </g>
     </g>
     <g id="text_1">
      <!-- 0.00 -->
      <defs>
       <path d="M 31.78125 66.40625 
Q 24.171875 66.40625 20.328125 58.90625 
Q 16.5 51.421875 16.5 36.375 
Q 16.5 21.390625 20.328125 13.890625 
Q 24.171875 6.390625 31.78125 6.390625 
Q 39.453125 6.390625 43.28125 13.890625 
Q 47.125 21.390625 47.125 36.375 
Q 47.125 51.421875 43.28125 58.90625 
Q 39.453125 66.40625 31.78125 66.40625 
z
M 31.78125 74.21875 
Q 44.046875 74.21875 50.515625 64.515625 
Q 56.984375 54.828125 56.984375 36.375 
Q 56.984375 17.96875 50.515625 8.265625 
Q 44.046875 -1.421875 31.78125 -1.421875 
Q 19.53125 -1.421875 13.0625 8.265625 
Q 6.59375 17.96875 6.59375 36.375 
Q 6.59375 54.828125 13.0625 64.515625 
Q 19.53125 74.21875 31.78125 74.21875 
z
" id="DejaVuSans-48"/>
       <path d="M 10.6875 12.40625 
L 21 12.40625 
L 21 0 
L 10.6875 0 
z
" id="DejaVuSans-46"/>
      </defs>
      <g transform="translate(53.793665 328.261187)scale(0.18 -0.18)">
       <use xlink:href="#DejaVuSans-48"/>
       <use x="63.623047" xlink:href="#DejaVuSans-46"/>
       <use x="95.410156" xlink:href="#DejaVuSans-48"/>
       <use x="159.033203" xlink:href="#DejaVuSans-48"/>
      </g>
     </g>
    </g>
    <g id="xtick_2">
     <g id="line2d_2">
      <g>
       <use style="stroke:#000000;stroke-width:0.8;" x="138.848292" xlink:href="#m62a65851ca" y="307.584"/>
      </g>
     </g>
     <g id="text_2">
      <!-- 0.01 -->
      <defs>
       <path d="M 12.40625 8.296875 
L 28.515625 8.296875 
L 28.515625 63.921875 
L 10.984375 60.40625 
L 10.984375 69.390625 
L 28.421875 72.90625 
L 38.28125 72.90625 
L 38.28125 8.296875 
L 54.390625 8.296875 
L 54.390625 0 
L 12.40625 0 
z
" id="DejaVuSans-49"/>
      </defs>
      <g transform="translate(118.80923 328.261187)scale(0.18 -0.18)">
       <use xlink:href="#DejaVuSans-48"/>
       <use x="63.623047" xlink:href="#DejaVuSans-46"/>
       <use x="95.410156" xlink:href="#DejaVuSans-48"/>
       <use x="159.033203" xlink:href="#DejaVuSans-49"/>
      </g>
     </g>
    </g>
    <g id="xtick_3">
     <g id="line2d_3">
      <g>
       <use style="stroke:#000000;stroke-width:0.8;" x="203.863857" xlink:href="#m62a65851ca" y="307.584"/>
      </g>
     </g>
     <g id="text_3">
      <!-- 0.02 -->
      <defs>
       <path d="M 19.1875 8.296875 
L 53.609375 8.296875 
L 53.609375 0 
L 7.328125 0 
L 7.328125 8.296875 
Q 12.9375 14.109375 22.625 23.890625 
Q 32.328125 33.6875 34.8125 36.53125 
Q 39.546875 41.84375 41.421875 45.53125 
Q 43.3125 49.21875 43.3125 52.78125 
Q 43.3125 58.59375 39.234375 62.25 
Q 35.15625 65.921875 28.609375 65.921875 
Q 23.96875 65.921875 18.8125 64.3125 
Q 13.671875 62.703125 7.8125 59.421875 
L 7.8125 69.390625 
Q 13.765625 71.78125 18.9375 73 
Q 24.125 74.21875 28.421875 74.21875 
Q 39.75 74.21875 46.484375 68.546875 
Q 53.21875 62.890625 53.21875 53.421875 
Q 53.21875 48.921875 51.53125 44.890625 
Q 49.859375 40.875 45.40625 35.40625 
Q 44.1875 33.984375 37.640625 27.21875 
Q 31.109375 20.453125 19.1875 8.296875 
z
" id="DejaVuSans-50"/>
      </defs>
      <g transform="translate(183.824794 328.261187)scale(0.18 -0.18)">
       <use xlink:href="#DejaVuSans-48"/>
       <use x="63.623047" xlink:href="#DejaVuSans-46"/>
       <use x="95.410156" xlink:href="#DejaVuSans-48"/>
       <use x="159.033203" xlink:href="#DejaVuSans-50"/>
      </g>
     </g>
    </g>
    <g id="xtick_4">
     <g id="line2d_4">
      <g>
       <use style="stroke:#000000;stroke-width:0.8;" x="268.879422" xlink:href="#m62a65851ca" y="307.584"/>
      </g>
     </g>
     <g id="text_4">
      <!-- 0.03 -->
      <defs>
       <path d="M 40.578125 39.3125 
Q 47.65625 37.796875 51.625 33 
Q 55.609375 28.21875 55.609375 21.1875 
Q 55.609375 10.40625 48.1875 4.484375 
Q 40.765625 -1.421875 27.09375 -1.421875 
Q 22.515625 -1.421875 17.65625 -0.515625 
Q 12.796875 0.390625 7.625 2.203125 
L 7.625 11.71875 
Q 11.71875 9.328125 16.59375 8.109375 
Q 21.484375 6.890625 26.8125 6.890625 
Q 36.078125 6.890625 40.9375 10.546875 
Q 45.796875 14.203125 45.796875 21.1875 
Q 45.796875 27.640625 41.28125 31.265625 
Q 36.765625 34.90625 28.71875 34.90625 
L 20.21875 34.90625 
L 20.21875 43.015625 
L 29.109375 43.015625 
Q 36.375 43.015625 40.234375 45.921875 
Q 44.09375 48.828125 44.09375 54.296875 
Q 44.09375 59.90625 40.109375 62.90625 
Q 36.140625 65.921875 28.71875 65.921875 
Q 24.65625 65.921875 20.015625 65.03125 
Q 15.375 64.15625 9.8125 62.3125 
L 9.8125 71.09375 
Q 15.4375 72.65625 20.34375 73.4375 
Q 25.25 74.21875 29.59375 74.21875 
Q 40.828125 74.21875 47.359375 69.109375 
Q 53.90625 64.015625 53.90625 55.328125 
Q 53.90625 49.265625 50.4375 45.09375 
Q 46.96875 40.921875 40.578125 39.3125 
z
" id="DejaVuSans-51"/>
      </defs>
      <g transform="translate(248.840359 328.261187)scale(0.18 -0.18)">
       <use xlink:href="#DejaVuSans-48"/>
       <use x="63.623047" xlink:href="#DejaVuSans-46"/>
       <use x="95.410156" xlink:href="#DejaVuSans-48"/>
       <use x="159.033203" xlink:href="#DejaVuSans-51"/>
      </g>
     </g>
    </g>
    <g id="xtick_5">
     <g id="line2d_5">
      <g>
       <use style="stroke:#000000;stroke-width:0.8;" x="333.894986" xlink:href="#m62a65851ca" y="307.584"/>
      </g>
     </g>
     <g id="text_5">
      <!-- 0.04 -->
      <defs>
       <path d="M 37.796875 64.3125 
L 12.890625 25.390625 
L 37.796875 25.390625 
z
M 35.203125 72.90625 
L 47.609375 72.90625 
L 47.609375 25.390625 
L 58.015625 25.390625 
L 58.015625 17.1875 
L 47.609375 17.1875 
L 47.609375 0 
L 37.796875 0 
L 37.796875 17.1875 
L 4.890625 17.1875 
L 4.890625 26.703125 
z
" id="DejaVuSans-52"/>
      </defs>
      <g transform="translate(313.855924 328.261187)scale(0.18 -0.18)">
       <use xlink:href="#DejaVuSans-48"/>
       <use x="63.623047" xlink:href="#DejaVuSans-46"/>
       <use x="95.410156" xlink:href="#DejaVuSans-48"/>
       <use x="159.033203" xlink:href="#DejaVuSans-52"/>
      </g>
     </g>
    </g>
    <g id="xtick_6">
     <g id="line2d_6">
      <g>
       <use style="stroke:#000000;stroke-width:0.8;" x="398.910551" xlink:href="#m62a65851ca" y="307.584"/>
      </g>
     </g>
     <g id="text_6">
      <!-- 0.05 -->
      <defs>
       <path d="M 10.796875 72.90625 
L 49.515625 72.90625 
L 49.515625 64.59375 
L 19.828125 64.59375 
L 19.828125 46.734375 
Q 21.96875 47.46875 24.109375 47.828125 
Q 26.265625 48.1875 28.421875 48.1875 
Q 40.625 48.1875 47.75 41.5 
Q 54.890625 34.8125 54.890625 23.390625 
Q 54.890625 11.625 47.5625 5.09375 
Q 40.234375 -1.421875 26.90625 -1.421875 
Q 22.3125 -1.421875 17.546875 -0.640625 
Q 12.796875 0.140625 7.71875 1.703125 
L 7.71875 11.625 
Q 12.109375 9.234375 16.796875 8.0625 
Q 21.484375 6.890625 26.703125 6.890625 
Q 35.15625 6.890625 40.078125 11.328125 
Q 45.015625 15.765625 45.015625 23.390625 
Q 45.015625 31 40.078125 35.4375 
Q 35.15625 39.890625 26.703125 39.890625 
Q 22.75 39.890625 18.8125 39.015625 
Q 14.890625 38.140625 10.796875 36.28125 
z
" id="DejaVuSans-53"/>
      </defs>
      <g transform="translate(378.871489 328.261187)scale(0.18 -0.18)">
       <use xlink:href="#DejaVuSans-48"/>
       <use x="63.623047" xlink:href="#DejaVuSans-46"/>
       <use x="95.410156" xlink:href="#DejaVuSans-48"/>
       <use x="159.033203" xlink:href="#DejaVuSans-53"/>
      </g>
     </g>
    </g>
   </g>
   <g id="matplotlib.axis_2">
    <g id="ytick_1">
     <g id="line2d_7">
      <defs>
       <path d="M 0 0 
L -3.5 0 
" id="mce92b46053" style="stroke:#000000;stroke-width:0.8;"/>
      </defs>
      <g>
       <use style="stroke:#000000;stroke-width:0.8;" x="57.6" xlink:href="#mce92b46053" y="244.510391"/>
      </g>
     </g>
     <g id="text_7">
      <!-- −200 -->
      <defs>
       <path d="M 10.59375 35.5 
L 73.1875 35.5 
L 73.1875 27.203125 
L 10.59375 27.203125 
z
" id="DejaVuSans-8722"/>
      </defs>
      <g transform="translate(1.159063 251.348985)scale(0.18 -0.18)">
       <use xlink:href="#DejaVuSans-8722"/>
       <use x="83.789062" xlink:href="#DejaVuSans-50"/>
       <use x="147.412109" xlink:href="#DejaVuSans-48"/>
       <use x="211.035156" xlink:href="#DejaVuSans-48"/>
      </g>
     </g>
    </g>
    <g id="ytick_2">
     <g id="line2d_8">
      <g>
       <use style="stroke:#000000;stroke-width:0.8;" x="57.6" xlink:href="#mce92b46053" y="173.928804"/>
      </g>
     </g>
     <g id="text_8">
      <!-- 0 -->
      <g transform="translate(39.1475 180.767398)scale(0.18 -0.18)">
       <use xlink:href="#DejaVuSans-48"/>
      </g>
     </g>
    </g>
    <g id="ytick_3">
     <g id="line2d_9">
      <g>
       <use style="stroke:#000000;stroke-width:0.8;" x="57.6" xlink:href="#mce92b46053" y="103.347218"/>
      </g>
     </g>
     <g id="text_9">
      <!-- 200 -->
      <g transform="translate(16.2425 110.185812)scale(0.18 -0.18)">
       <use xlink:href="#DejaVuSans-50"/>
       <use x="63.623047" xlink:href="#DejaVuSans-48"/>
       <use x="127.246094" xlink:href="#DejaVuSans-48"/>
      </g>
     </g>
    </g>
   </g>
   <g id="line2d_10">
    <path clip-path="url(#p0f5066a114)" d="M 73.832727 173.928804 
L 79.335347 136.354861 
L 82.298296 117.463246 
L 84.837966 102.573945 
L 86.954358 91.333446 
L 89.07075 81.335316 
L 90.763864 74.333067 
L 92.456978 68.290024 
L 93.726813 64.422596 
L 94.996648 61.14862 
L 96.266483 58.485838 
L 97.536319 56.448681 
L 98.382875 55.443739 
L 99.229432 54.724251 
L 100.075989 54.291951 
L 100.922546 54.14788 
L 101.769103 54.292386 
L 102.61566 54.72512 
L 103.462216 55.44504 
L 104.308773 56.45041 
L 105.15533 57.73881 
L 106.425165 60.195115 
L 107.695001 63.267781 
L 108.964836 66.940157 
L 110.234671 71.192341 
L 111.927785 77.723578 
L 113.620898 85.181366 
L 115.737291 95.69635 
L 117.853683 107.388078 
L 120.393353 122.722748 
L 123.356302 141.989514 
L 128.012365 173.93767 
L 133.514984 211.511166 
L 136.477933 230.402181 
L 139.017603 245.290784 
L 141.133995 256.530583 
L 143.250388 266.527916 
L 144.943501 273.529467 
L 146.636615 279.571764 
L 147.90645 283.438605 
L 149.176285 286.711975 
L 150.446121 289.374135 
L 151.715956 291.410657 
L 152.562513 292.41517 
L 153.40907 293.134226 
L 154.255626 293.566092 
L 155.102183 293.709728 
L 155.94874 293.564787 
L 156.795297 293.131619 
L 157.641854 292.411268 
L 158.488411 291.405468 
L 159.334967 290.116644 
L 160.604803 287.659713 
L 161.874638 284.586435 
L 163.144473 280.913465 
L 164.414308 276.660709 
L 166.107422 270.12875 
L 167.800536 262.670288 
L 169.916928 252.154546 
L 172.03332 240.462159 
L 174.57299 225.126847 
L 177.535939 205.859551 
L 182.192002 173.911074 
L 187.694621 136.338025 
L 190.65757 117.44761 
L 193.197241 102.559704 
L 195.313633 91.320606 
L 197.430025 81.324069 
L 199.123139 74.323218 
L 200.816252 68.281667 
L 202.086087 64.415412 
L 203.355923 61.142648 
L 204.625758 58.48111 
L 205.895593 56.445223 
L 206.74215 55.441139 
L 207.588707 54.722515 
L 208.435264 54.291083 
L 209.281821 54.147882 
L 210.128377 54.293258 
L 210.974934 54.72686 
L 211.821491 55.447643 
L 212.668048 56.453871 
L 213.514605 57.74312 
L 214.78444 60.200678 
L 216.054275 63.274568 
L 217.32411 66.948131 
L 218.593946 71.201459 
L 220.287059 77.734141 
L 221.980173 85.193275 
L 224.096565 95.709777 
L 226.212957 107.402822 
L 228.752628 122.738777 
L 231.715577 142.006603 
L 236.371639 173.955401 
L 241.874259 211.528001 
L 244.837208 230.417817 
L 247.376878 245.305024 
L 249.49327 256.543423 
L 251.609662 266.539162 
L 253.302776 273.539315 
L 254.99589 279.580119 
L 256.265725 283.445787 
L 257.53556 286.717946 
L 258.805395 289.378861 
L 260.075231 291.414113 
L 260.921787 292.417769 
L 261.768344 293.135961 
L 262.614901 293.566959 
L 263.461458 293.709724 
L 264.308015 293.563914 
L 265.154572 293.129878 
L 266.001128 292.408663 
L 266.847685 291.402006 
L 267.694242 290.112333 
L 268.964077 287.654148 
L 270.233913 284.579646 
L 271.503748 280.90549 
L 272.773583 276.651591 
L 274.466697 270.118185 
L 276.15981 262.658379 
L 278.276202 252.141117 
L 280.392595 240.447415 
L 282.932265 225.110817 
L 285.895214 205.842461 
L 290.551277 173.893343 
L 296.053896 136.321191 
L 299.016845 117.431975 
L 301.556515 102.545465 
L 303.672907 91.307767 
L 305.7893 81.312824 
L 307.482413 74.313371 
L 309.175527 68.273313 
L 310.445362 64.408231 
L 311.715197 61.136679 
L 312.985033 58.476386 
L 314.254868 56.441769 
L 315.101425 55.438542 
L 315.947982 54.720782 
L 316.794538 54.290218 
L 317.641095 54.147887 
L 318.487652 54.294133 
L 319.334209 54.728602 
L 320.180766 55.450249 
L 321.027323 56.457335 
L 321.873879 57.747433 
L 323.143715 60.206245 
L 324.41355 63.281358 
L 325.683385 66.956107 
L 326.95322 71.210578 
L 328.646334 77.744708 
L 330.339448 85.205186 
L 332.45584 95.723206 
L 334.572232 107.417567 
L 337.111902 122.754808 
L 340.074851 142.023693 
L 344.730914 173.973131 
L 350.233533 211.544835 
L 353.196482 230.433451 
L 355.736153 245.319262 
L 357.852545 256.55626 
L 359.968937 266.550406 
L 361.66205 273.549161 
L 363.355164 279.588472 
L 364.624999 283.452967 
L 365.894835 286.723914 
L 367.16467 289.383584 
L 368.434505 291.417567 
L 369.281062 292.420365 
L 370.127619 293.137693 
L 370.974176 293.567823 
L 371.820732 293.709719 
L 372.667289 293.563038 
L 373.513846 293.128134 
L 374.360403 292.406055 
L 375.20696 291.398541 
L 376.053517 290.108019 
L 377.323352 287.64858 
L 378.593187 284.572855 
L 379.863022 280.897513 
L 381.132858 276.64247 
L 382.825971 270.107618 
L 384.519085 262.646467 
L 386.635477 252.127687 
L 388.751869 240.432669 
L 391.29154 225.094786 
L 394.254489 205.825371 
L 398.487273 176.815268 
L 398.487273 176.815268 
" style="fill:none;stroke:#1f77b4;stroke-linecap:square;stroke-width:1.5;"/>
   </g>
   <g id="line2d_11">
    <path clip-path="url(#p0f5066a114)" d="M 73.832727 173.928804 
L 74.679284 168.602586 
L 79.758625 134.533848 
L 81.875017 121.379591 
L 84.414688 106.420427 
L 87.377637 90.795804 
L 90.340586 77.548778 
L 93.726813 66.108434 
L 96.689762 59.480553 
L 97.11304 58.832088 
L 100.075989 56.006756 
L 100.499268 55.986526 
L 103.462216 57.079495 
L 104.308773 58.397483 
L 106.848444 62.648698 
L 110.234671 72.558967 
L 113.620898 86.3855 
L 117.430404 106.053216 
L 121.23991 128.901318 
L 125.049416 153.898805 
L 135.208098 221.862907 
L 137.747768 237.221736 
L 140.710717 253.449744 
L 143.673666 267.422864 
L 147.059893 279.836939 
L 150.022842 287.478203 
L 150.869399 288.740284 
L 153.40907 292.07695 
L 154.255626 292.154232 
L 156.795297 292.14479 
L 160.181524 287.623026 
L 163.144473 280.123192 
L 166.5307 267.731968 
L 168.223814 260.115943 
L 170.763485 247.152353 
L 173.303155 232.769173 
L 176.689382 211.486796 
L 180.498888 186.015638 
L 188.1179 134.618427 
L 191.080849 116.179353 
L 193.620519 101.570832 
L 197.006746 84.772246 
L 200.392974 71.414333 
L 203.355923 62.780815 
L 205.049036 59.89505 
L 206.74215 57.08139 
L 210.128377 55.947431 
L 213.091326 58.783002 
L 213.514605 59.350492 
L 216.900832 67.1687 
L 220.287059 79.08916 
L 223.673287 94.66122 
L 227.482792 115.872036 
L 231.292298 139.820156 
L 236.371639 174.057543 
L 241.45098 208.292921 
L 244.413929 227.114253 
L 247.376878 244.433494 
L 250.339827 259.757901 
L 253.726054 274.026323 
L 256.689003 283.595124 
L 260.075231 290.334843 
L 263.038179 292.485316 
L 263.461458 292.606341 
L 266.424407 290.84617 
L 266.847685 290.338852 
L 269.810634 284.760915 
L 271.080469 280.960359 
L 273.62014 272.780103 
L 275.313254 265.85826 
L 277.006367 258.077201 
L 279.122759 247.240974 
L 281.239151 235.138176 
L 283.778822 219.620215 
L 286.741771 200.348542 
L 298.170288 123.768723 
L 300.28668 111.116604 
L 303.672907 92.840458 
L 307.059135 77.695727 
L 310.022084 67.271684 
L 313.408311 59.45079 
L 316.37126 56.226933 
L 316.794538 56.047487 
L 319.757487 56.726713 
L 320.180766 57.179229 
L 323.143715 61.747191 
L 324.41355 65.175304 
L 326.529942 71.087044 
L 329.916169 84.420853 
L 333.725675 103.674517 
L 337.535181 126.23616 
L 341.767965 153.829229 
L 353.196482 229.917039 
L 357.005988 251.286121 
L 360.392215 267.269662 
L 363.355164 278.523229 
L 366.741391 287.405067 
L 369.70434 291.692626 
L 370.127619 291.930546 
L 373.090568 292.333658 
L 373.937125 291.43731 
L 376.476795 288.431134 
L 379.863022 280.110544 
L 381.979414 272.747174 
L 384.095807 264.003531 
L 386.212199 253.87296 
L 388.328591 242.411105 
L 390.021704 232.619516 
L 393.407932 211.518135 
L 398.487273 177.306788 
L 398.487273 177.306788 
" style="fill:none;stroke:#ff7f0e;stroke-linecap:square;stroke-width:2;"/>
   </g>
   <g id="line2d_12">
    <path clip-path="url(#p0f5066a114)" d="M 73.832727 172.201928 
L 74.256006 172.249829 
L 74.679284 168.823624 
L 75.102563 166.616459 
L 75.525841 165.004448 
L 75.949119 158.624874 
L 76.372398 156.89671 
L 76.795676 154.349197 
L 77.218955 149.939406 
L 77.642233 149.515789 
L 78.912068 139.525075 
L 79.335347 138.925493 
L 79.758625 133.866906 
L 80.181904 132.991165 
L 80.605182 128.919357 
L 81.02846 128.019481 
L 81.451739 121.593106 
L 81.875017 121.457077 
L 82.298296 118.042791 
L 82.721574 116.208427 
L 83.568131 108.814773 
L 83.991409 108.417279 
L 84.414688 102.178632 
L 84.837966 106.381716 
L 85.684523 99.007971 
L 86.53108 94.685382 
L 86.954358 94.687899 
L 87.377637 89.504191 
L 87.800915 91.206047 
L 88.647472 85.441678 
L 89.07075 84.481501 
L 89.494029 80.981708 
L 89.917307 81.774564 
L 90.340586 74.465317 
L 90.763864 79.161999 
L 91.187142 75.667353 
L 91.610421 74.16448 
L 92.456978 66.974883 
L 92.880256 67.910661 
L 93.303534 67.178708 
L 94.150091 64.645172 
L 94.57337 67.231452 
L 94.996648 61.91526 
L 95.419927 60.972762 
L 95.843205 61.189279 
L 96.689762 59.703207 
L 97.11304 60.997185 
L 97.536319 57.905771 
L 97.959597 58.523118 
L 98.382875 61.573021 
L 98.806154 58.700094 
L 99.229432 58.465262 
L 99.652711 55.971984 
L 100.075989 55.392495 
L 100.499268 56.665883 
L 100.922546 59.170396 
L 101.345824 58.610947 
L 101.769103 56.439588 
L 102.192381 56.938842 
L 102.61566 58.99851 
L 103.038938 58.027415 
L 103.462216 59.015649 
L 103.885495 57.993793 
L 104.732052 58.994331 
L 105.15533 60.625664 
L 105.578609 63.440521 
L 106.001887 62.271204 
L 106.425165 60.247852 
L 106.848444 61.754529 
L 107.271722 60.593196 
L 107.695001 62.543097 
L 108.118279 65.525551 
L 108.541557 65.878585 
L 108.964836 70.037951 
L 109.388114 71.290581 
L 109.811393 69.246962 
L 110.234671 71.846811 
L 110.65795 76.043814 
L 111.081228 75.263778 
L 111.504506 77.084739 
L 111.927785 81.971165 
L 112.351063 79.904694 
L 112.774342 80.911935 
L 113.19762 83.206805 
L 113.620898 87.580744 
L 114.044177 89.999357 
L 114.467455 91.357499 
L 114.890734 95.454329 
L 115.314012 96.058165 
L 115.737291 95.031355 
L 116.160569 102.327131 
L 116.583847 99.783788 
L 117.430404 107.529862 
L 117.853683 106.482227 
L 118.276961 114.432276 
L 118.700239 112.892272 
L 119.546796 117.913643 
L 119.970075 121.619953 
L 120.816632 124.240931 
L 121.663188 130.309767 
L 122.086467 136.409477 
L 122.509745 137.282921 
L 122.933024 141.341661 
L 123.356302 142.697459 
L 124.202859 150.31705 
L 124.626137 149.124725 
L 125.049416 153.888021 
L 125.472694 157.083531 
L 125.895973 162.110585 
L 126.319251 162.390739 
L 127.165808 168.535312 
L 127.589086 170.530691 
L 128.012365 174.545978 
L 128.435643 176.706156 
L 128.858921 182.025445 
L 129.2822 183.22118 
L 129.705478 187.095133 
L 130.128757 188.173298 
L 130.552035 192.210368 
L 130.975314 192.601527 
L 131.398592 197.156571 
L 131.82187 199.899006 
L 132.245149 204.198982 
L 133.091706 208.118893 
L 133.514984 212.312603 
L 133.938262 212.901991 
L 134.361541 215.469722 
L 134.784819 215.525409 
L 135.208098 227.407226 
L 135.631376 225.114021 
L 136.054654 229.325166 
L 136.477933 230.585605 
L 136.901211 234.908464 
L 137.32449 237.899493 
L 137.747768 236.218085 
L 138.171047 240.173642 
L 138.594325 245.716755 
L 139.017603 241.810889 
L 139.440882 245.858356 
L 139.86416 254.214026 
L 140.287439 250.788825 
L 140.710717 253.145189 
L 141.133995 257.532698 
L 141.557274 253.300261 
L 141.980552 260.38272 
L 142.403831 263.998948 
L 143.673666 267.852609 
L 144.096944 268.54688 
L 144.520223 270.80656 
L 144.943501 276.068759 
L 145.36678 271.496375 
L 146.213336 277.002002 
L 146.636615 276.72087 
L 147.059893 280.016218 
L 147.483172 281.018375 
L 147.90645 280.617061 
L 148.329729 283.226053 
L 148.753007 283.338565 
L 149.176285 286.772576 
L 149.599564 284.710527 
L 150.022842 289.024559 
L 150.446121 290.305363 
L 150.869399 289.243976 
L 151.292677 290.470832 
L 151.715956 291.103917 
L 152.562513 290.59811 
L 152.985791 292.589599 
L 153.40907 293.102044 
L 153.832348 292.666626 
L 154.255626 292.81532 
L 154.678905 292.19177 
L 155.102183 293.670394 
L 155.525462 292.940864 
L 155.94874 295.488 
L 156.372018 291.719238 
L 156.795297 289.715315 
L 157.218575 292.61138 
L 157.641854 290.953445 
L 158.065132 292.864211 
L 158.488411 289.827372 
L 158.911689 288.085977 
L 159.334967 291.270279 
L 159.758246 291.443222 
L 160.181524 289.235975 
L 160.604803 288.313229 
L 161.028081 283.194853 
L 161.451359 283.959445 
L 161.874638 281.397334 
L 162.297916 280.23574 
L 162.721195 281.418812 
L 163.567752 279.654613 
L 164.414308 274.25185 
L 164.837587 275.280885 
L 165.260865 273.324569 
L 165.684144 270.023582 
L 166.107422 268.691849 
L 166.5307 268.900202 
L 166.953979 265.875378 
L 167.377257 266.647376 
L 167.800536 261.693158 
L 168.223814 258.252222 
L 168.647093 257.7039 
L 169.070371 255.953353 
L 169.493649 255.693304 
L 169.916928 252.207352 
L 170.340206 246.503088 
L 170.763485 244.481072 
L 171.186763 245.606851 
L 171.610041 244.537266 
L 172.03332 238.207807 
L 172.456598 238.199993 
L 172.879877 234.969575 
L 173.303155 234.924865 
L 173.726434 232.226112 
L 174.149712 226.613752 
L 174.996269 220.354823 
L 175.842826 217.6607 
L 177.112661 206.081286 
L 177.535939 205.261263 
L 177.959218 204.686999 
L 178.805775 195.059064 
L 179.229053 195.709807 
L 179.652331 191.54778 
L 180.07561 189.001028 
L 181.345445 178.014716 
L 181.768723 179.333621 
L 182.192002 173.10742 
L 183.038559 167.608445 
L 183.461837 161.941604 
L 183.885116 161.937081 
L 185.154951 154.358199 
L 185.578229 152.235788 
L 186.001508 147.418915 
L 186.424786 146.215132 
L 186.848064 144.527918 
L 187.271343 141.759101 
L 187.694621 136.744553 
L 188.1179 135.291004 
L 188.541178 136.162759 
L 188.964457 127.054208 
L 189.387735 126.74968 
L 189.811013 125.358923 
L 190.234292 122.952337 
L 190.65757 118.1812 
L 191.080849 114.743264 
L 191.504127 115.781345 
L 191.927405 110.783476 
L 192.350684 110.47222 
L 192.773962 105.130597 
L 193.197241 104.924093 
L 193.620519 101.846393 
L 194.043798 102.439391 
L 194.890354 95.811638 
L 195.313633 94.864907 
L 196.16019 86.755999 
L 196.583468 87.457121 
L 197.006746 80.623742 
L 197.430025 80.194231 
L 197.853303 80.804956 
L 198.276582 79.948072 
L 198.69986 76.305426 
L 199.123139 74.401501 
L 199.546417 74.863918 
L 199.969695 70.640611 
L 200.816252 73.857562 
L 201.239531 68.308531 
L 201.662809 66.947699 
L 202.086087 67.506765 
L 203.355923 60.326491 
L 203.779201 64.556044 
L 204.20248 63.466726 
L 204.625758 59.794773 
L 205.049036 57.406599 
L 205.472315 58.738527 
L 205.895593 62.325823 
L 206.318872 56.865366 
L 206.74215 54.896541 
L 207.165428 55.749355 
L 207.588707 57.06956 
L 208.011985 57.345424 
L 208.435264 54.601192 
L 208.858542 57.429453 
L 209.281821 58.867725 
L 209.705099 57.425771 
L 210.128377 57.403513 
L 210.551656 53.848807 
L 210.974934 57.319987 
L 211.398213 55.343512 
L 211.821491 55.524721 
L 212.244769 60.507222 
L 212.668048 57.939726 
L 213.091326 62.359516 
L 213.514605 61.849508 
L 213.937883 59.071372 
L 214.361162 61.317463 
L 214.78444 60.269418 
L 215.207718 63.936804 
L 215.630997 62.909612 
L 216.054275 64.733266 
L 216.477554 64.516764 
L 216.900832 68.522281 
L 217.32411 69.296564 
L 217.747389 67.183944 
L 218.170667 72.129571 
L 218.593946 74.089104 
L 219.440503 76.925766 
L 219.863781 75.254461 
L 220.287059 80.034767 
L 221.133616 84.339704 
L 221.556895 82.156493 
L 221.980173 88.948506 
L 222.403451 87.512917 
L 222.82673 92.044175 
L 223.250008 95.342118 
L 223.673287 95.445894 
L 224.096565 99.977162 
L 224.519844 96.480851 
L 224.943122 102.317833 
L 225.3664 104.613177 
L 226.212957 107.674788 
L 226.636236 111.389601 
L 227.059514 112.184727 
L 227.482792 114.32314 
L 227.906071 115.531685 
L 228.329349 120.670517 
L 228.752628 121.53232 
L 229.175906 126.391184 
L 229.599185 128.602166 
L 230.022463 133.072308 
L 230.445741 134.975917 
L 232.138855 146.400225 
L 232.562133 146.839654 
L 232.985412 152.358599 
L 233.40869 151.681714 
L 234.678526 160.581608 
L 235.101804 166.686671 
L 235.525082 168.270105 
L 235.948361 168.832822 
L 236.371639 176.571393 
L 236.794918 174.644349 
L 237.218196 182.30122 
L 237.641474 185.051625 
L 238.064753 183.482116 
L 239.334588 195.478562 
L 240.604423 203.251994 
L 241.027702 207.189653 
L 241.45098 205.271182 
L 241.874259 211.136529 
L 242.297537 211.943413 
L 242.720815 216.781073 
L 243.144094 218.634082 
L 243.567372 223.047871 
L 243.990651 221.827934 
L 244.837208 231.015355 
L 245.260486 230.825937 
L 245.683764 234.080815 
L 246.107043 240.369648 
L 246.530321 242.38879 
L 246.9536 242.56785 
L 247.376878 244.164727 
L 247.800156 250.096412 
L 248.223435 252.238332 
L 248.646713 249.966239 
L 249.069992 252.796287 
L 249.49327 254.559682 
L 249.916549 258.605405 
L 250.339827 258.16023 
L 251.186384 263.333373 
L 251.609662 262.206953 
L 252.032941 267.338476 
L 252.456219 269.123337 
L 252.879497 272.414087 
L 253.726054 269.892947 
L 254.149333 274.776814 
L 254.572611 275.975323 
L 254.99589 279.007542 
L 255.419168 279.274662 
L 255.842446 282.306598 
L 256.265725 284.081299 
L 256.689003 284.266557 
L 257.112282 284.683925 
L 257.958838 287.174824 
L 258.382117 286.46523 
L 258.805395 286.516752 
L 259.228674 287.816806 
L 259.651952 292.031064 
L 260.075231 291.133967 
L 260.498509 290.957381 
L 260.921787 294.540092 
L 261.345066 291.286345 
L 261.768344 291.78926 
L 262.191623 291.412122 
L 262.614901 293.774045 
L 263.038179 291.949442 
L 263.461458 292.210216 
L 263.884736 293.08271 
L 264.731293 288.412191 
L 265.154572 292.408164 
L 265.57785 291.875025 
L 266.001128 290.19001 
L 266.424407 292.285333 
L 266.847685 292.596675 
L 267.270964 290.790263 
L 267.694242 290.763873 
L 268.11752 289.577725 
L 268.540799 284.936263 
L 268.964077 284.297956 
L 269.387356 286.925076 
L 269.810634 286.93316 
L 270.233913 282.018753 
L 270.657191 281.391151 
L 271.080469 279.422517 
L 271.503748 279.331511 
L 271.927026 276.361756 
L 272.350305 276.688882 
L 272.773583 276.648745 
L 273.196861 275.993304 
L 273.62014 274.326559 
L 274.043418 273.364792 
L 274.466697 270.887779 
L 274.889975 269.700672 
L 275.736532 262.047864 
L 276.15981 265.65744 
L 276.583089 261.05077 
L 277.006367 258.587659 
L 277.429646 253.940777 
L 277.852924 255.237057 
L 278.276202 253.221796 
L 278.699481 248.797038 
L 279.122759 247.317099 
L 279.546038 242.899696 
L 279.969316 244.22744 
L 280.392595 239.493487 
L 280.815873 238.224214 
L 281.239151 234.531267 
L 281.66243 233.183016 
L 282.085708 232.212264 
L 282.932265 223.411823 
L 283.355543 222.951059 
L 283.778822 221.221037 
L 284.2021 217.139317 
L 284.625379 211.695995 
L 285.048657 210.762409 
L 285.471936 209.524646 
L 285.895214 206.361983 
L 286.318492 204.383425 
L 286.741771 201.346981 
L 287.165049 197.082071 
L 287.588328 195.050999 
L 288.434884 187.032316 
L 288.858163 186.255358 
L 289.281441 182.810675 
L 289.70472 181.47085 
L 290.127998 175.715852 
L 290.551277 175.620506 
L 291.397833 169.282441 
L 291.821112 167.001312 
L 292.24439 161.376627 
L 292.667669 160.166449 
L 293.090947 156.278509 
L 293.514225 154.643699 
L 293.937504 151.595886 
L 294.360782 146.686676 
L 294.784061 143.966097 
L 295.207339 143.885572 
L 295.630618 141.021175 
L 296.053896 136.174703 
L 296.477174 135.311211 
L 297.323731 129.695453 
L 297.74701 123.625586 
L 298.170288 123.799775 
L 298.593566 122.617932 
L 299.016845 118.453186 
L 299.440123 119.135778 
L 299.863402 112.851726 
L 300.28668 111.667097 
L 300.709959 104.913438 
L 301.133237 106.727347 
L 301.556515 105.088806 
L 302.403072 99.623869 
L 302.826351 97.019547 
L 303.249629 91.552831 
L 303.672907 95.116763 
L 304.096186 90.134274 
L 304.519464 87.124945 
L 304.942743 86.507725 
L 305.366021 83.274249 
L 305.7893 83.0048 
L 306.212578 81.379926 
L 306.635856 77.85068 
L 307.059135 75.999051 
L 307.482413 78.80264 
L 308.32897 70.119371 
L 309.175527 71.097088 
L 309.598805 67.557396 
L 310.022084 70.885427 
L 310.445362 66.172076 
L 310.868641 63.166837 
L 311.291919 63.671235 
L 311.715197 65.285314 
L 312.138476 56.481635 
L 312.561754 58.182744 
L 312.985033 56.330875 
L 313.408311 58.518434 
L 313.831589 59.581919 
L 314.678146 56.38295 
L 315.101425 58.729703 
L 315.524703 58.399129 
L 315.947982 55.80884 
L 316.37126 54.46664 
L 316.794538 56.080797 
L 317.217817 59.632289 
L 317.641095 57.805976 
L 318.064374 53.568 
L 318.487652 57.804683 
L 318.91093 56.045247 
L 319.334209 55.528868 
L 319.757487 56.757054 
L 320.180766 55.856654 
L 320.604044 58.148598 
L 321.027323 57.695496 
L 321.873879 58.005174 
L 322.297158 63.30202 
L 322.720436 58.702118 
L 323.143715 60.912528 
L 323.566993 65.029435 
L 323.990271 63.41147 
L 324.41355 63.305772 
L 324.836828 67.497378 
L 325.260107 68.287603 
L 325.683385 68.391601 
L 326.106664 69.448325 
L 326.529942 70.174477 
L 326.95322 72.771675 
L 327.376499 71.559765 
L 327.799777 77.941007 
L 328.223056 77.566992 
L 328.646334 80.750004 
L 329.069612 79.911267 
L 329.492891 85.060523 
L 329.916169 84.082581 
L 330.339448 84.337107 
L 330.762726 90.610242 
L 331.186005 93.079544 
L 331.609283 92.522105 
L 332.032561 94.271832 
L 332.879118 100.6816 
L 333.302397 102.008023 
L 333.725675 106.748058 
L 334.148953 106.007024 
L 334.572232 110.582343 
L 334.99551 112.094737 
L 335.418789 109.852856 
L 335.842067 117.31195 
L 336.265346 117.081168 
L 336.688624 122.248012 
L 337.535181 124.590215 
L 338.381738 131.87561 
L 339.228294 136.832533 
L 340.49813 146.543636 
L 340.921408 147.228526 
L 341.767965 153.86568 
L 342.191243 155.852914 
L 342.614522 162.363883 
L 343.0378 166.302673 
L 343.461079 167.917259 
L 343.884357 168.513382 
L 344.307635 170.212033 
L 344.730914 174.205065 
L 345.154192 176.42008 
L 345.577471 179.629201 
L 346.000749 184.132036 
L 346.424027 186.500771 
L 346.847306 187.205565 
L 347.693863 192.702265 
L 348.117141 194.961261 
L 348.54042 200.745969 
L 348.963698 200.740515 
L 349.386976 208.593863 
L 349.810255 206.534806 
L 350.233533 209.46168 
L 350.656812 213.973433 
L 351.08009 214.769396 
L 351.503368 218.459815 
L 351.926647 223.427153 
L 352.349925 225.930101 
L 352.773204 225.404331 
L 353.196482 233.295397 
L 353.619761 230.253231 
L 354.043039 235.787283 
L 354.466317 238.844925 
L 354.889596 239.678033 
L 355.312874 243.108116 
L 355.736153 247.642228 
L 356.159431 248.091581 
L 356.582709 248.161886 
L 357.005988 249.579645 
L 357.429266 253.276073 
L 357.852545 260.017579 
L 358.275823 257.791401 
L 358.699102 258.234837 
L 359.545658 264.041185 
L 359.968937 267.723168 
L 360.392215 266.932795 
L 360.815494 267.303756 
L 361.238772 274.024556 
L 361.66205 273.41663 
L 362.085329 271.44591 
L 362.508607 275.514155 
L 362.931886 277.563511 
L 363.355164 278.765053 
L 363.778443 280.453096 
L 364.201721 279.428789 
L 365.048278 286.126938 
L 365.471556 281.104428 
L 365.894835 285.575333 
L 366.318113 286.161663 
L 366.741391 288.076682 
L 367.16467 283.652858 
L 367.587948 291.210168 
L 368.011227 287.822471 
L 368.434505 289.449345 
L 368.857784 288.108328 
L 369.281062 292.093433 
L 369.70434 289.67165 
L 370.550897 293.253425 
L 370.974176 292.281862 
L 371.397454 290.863715 
L 371.820732 294.252419 
L 372.244011 292.721869 
L 372.667289 292.398991 
L 373.090568 292.62002 
L 373.513846 288.537455 
L 373.937125 292.388009 
L 374.360403 294.115661 
L 374.783681 290.597921 
L 375.20696 292.121279 
L 375.630238 287.645425 
L 376.053517 289.38943 
L 376.476795 287.716954 
L 376.900073 287.900169 
L 377.323352 286.543377 
L 377.74663 287.074556 
L 378.169909 282.442163 
L 378.593187 284.440389 
L 379.016466 281.019229 
L 379.439744 282.253203 
L 379.863022 282.37078 
L 380.709579 275.345054 
L 381.132858 273.305728 
L 381.556136 273.620372 
L 381.979414 269.946289 
L 382.402693 272.718402 
L 382.825971 268.606297 
L 383.24925 268.763835 
L 383.672528 267.207071 
L 384.095807 266.787136 
L 384.942363 259.179031 
L 385.365642 258.737335 
L 385.78892 252.590951 
L 386.212199 253.933428 
L 386.635477 251.014947 
L 387.058755 249.865969 
L 387.905312 244.536048 
L 388.328591 243.248239 
L 388.751869 240.749961 
L 389.175148 240.787417 
L 389.598426 234.547229 
L 390.021704 234.56444 
L 390.444983 229.096875 
L 390.868261 229.678571 
L 391.29154 224.963664 
L 391.714818 226.451533 
L 392.138096 220.197873 
L 392.561375 215.968378 
L 392.984653 216.201544 
L 393.407932 212.381038 
L 393.83121 210.047284 
L 394.677767 202.362948 
L 396.370881 191.676862 
L 396.794159 187.216823 
L 397.217437 185.322794 
L 397.640716 184.97597 
L 398.487273 173.130829 
L 398.487273 173.130829 
" style="fill:none;stroke:#2ca02c;stroke-linecap:square;stroke-opacity:0.8;stroke-width:1.5;"/>
   </g>
   <g id="patch_3">
    <path d="M 57.6 307.584 
L 57.6 41.472 
" style="fill:none;stroke:#000000;stroke-linecap:square;stroke-linejoin:miter;stroke-width:2;"/>
   </g>
   <g id="patch_4">
    <path d="M 414.72 307.584 
L 414.72 41.472 
" style="fill:none;stroke:#000000;stroke-linecap:square;stroke-linejoin:miter;stroke-width:2;"/>
   </g>
   <g id="patch_5">
    <path d="M 57.6 307.584 
L 414.72 307.584 
" style="fill:none;stroke:#000000;stroke-linecap:square;stroke-linejoin:miter;stroke-width:2;"/>
   </g>
   <g id="patch_6">
    <path d="M 57.6 41.472 
L 414.72 41.472 
" style="fill:none;stroke:#000000;stroke-linecap:square;stroke-linejoin:miter;stroke-width:2;"/>
   </g>
  </g>
 </g>
 <defs>
  <clipPath id="p0f5066a114">
   <rect height="266.112" width="357.12" x="57.6" y="41.472"/>
  </clipPath>
 </defs>
</svg>
