<?xml version="1.0" encoding="utf-8" standalone="no"?>
<!DOCTYPE svg PUBLIC "-//W3C//DTD SVG 1.1//EN"
  "http://www.w3.org/Graphics/SVG/1.1/DTD/svg11.dtd">
<!-- Created with matplotlib (https://matplotlib.org/) -->
<svg height="345.6pt" version="1.1" viewBox="0 0 460.8 345.6" width="460.8pt" xmlns="http://www.w3.org/2000/svg" xmlns:xlink="http://www.w3.org/1999/xlink">
 <metadata>
  <rdf:RDF xmlns:cc="http://creativecommons.org/ns#" xmlns:dc="http://purl.org/dc/elements/1.1/" xmlns:rdf="http://www.w3.org/1999/02/22-rdf-syntax-ns#">
   <cc:Work>
    <dc:type rdf:resource="http://purl.org/dc/dcmitype/StillImage"/>
    <dc:date>2020-10-17T10:10:37.760545</dc:date>
    <dc:format>image/svg+xml</dc:format>
    <dc:creator>
     <cc:Agent>
      <dc:title>Matplotlib v3.3.1, https://matplotlib.org/</dc:title>
     </cc:Agent>
    </dc:creator>
   </cc:Work>
  </rdf:RDF>
 </metadata>
 <defs>
  <style type="text/css">*{stroke-linecap:butt;stroke-linejoin:round;}</style>
 </defs>
 <g id="figure_1">
  <g id="patch_1">
   <path d="M 0 345.6 
L 460.8 345.6 
L 460.8 0 
L 0 0 
z
" style="fill:#ffffff;"/>
  </g>
  <g id="axes_1">
   <g id="patch_2">
    <path d="M 57.6 307.584 
L 414.72 307.584 
L 414.72 41.472 
L 57.6 41.472 
z
" style="fill:#ffffff;"/>
   </g>
   <g id="matplotlib.axis_1">
    <g id="xtick_1">
     <g id="line2d_1">
      <defs>
       <path d="M 0 0 
L 0 3.5 
" id="m107be3ea26" style="stroke:#000000;stroke-width:0.8;"/>
      </defs>
      <g>
       <use style="stroke:#000000;stroke-width:0.8;" x="73.832727" xlink:href="#m107be3ea26" y="307.584"/>
      </g>
     </g>
     <g id="text_1">
      <!-- 0.00 -->
      <g transform="translate(62.699915 322.182437)scale(0.1 -0.1)">
       <defs>
        <path d="M 31.78125 66.40625 
Q 24.171875 66.40625 20.328125 58.90625 
Q 16.5 51.421875 16.5 36.375 
Q 16.5 21.390625 20.328125 13.890625 
Q 24.171875 6.390625 31.78125 6.390625 
Q 39.453125 6.390625 43.28125 13.890625 
Q 47.125 21.390625 47.125 36.375 
Q 47.125 51.421875 43.28125 58.90625 
Q 39.453125 66.40625 31.78125 66.40625 
z
M 31.78125 74.21875 
Q 44.046875 74.21875 50.515625 64.515625 
Q 56.984375 54.828125 56.984375 36.375 
Q 56.984375 17.96875 50.515625 8.265625 
Q 44.046875 -1.421875 31.78125 -1.421875 
Q 19.53125 -1.421875 13.0625 8.265625 
Q 6.59375 17.96875 6.59375 36.375 
Q 6.59375 54.828125 13.0625 64.515625 
Q 19.53125 74.21875 31.78125 74.21875 
z
" id="DejaVuSans-48"/>
        <path d="M 10.6875 12.40625 
L 21 12.40625 
L 21 0 
L 10.6875 0 
z
" id="DejaVuSans-46"/>
       </defs>
       <use xlink:href="#DejaVuSans-48"/>
       <use x="63.623047" xlink:href="#DejaVuSans-46"/>
       <use x="95.410156" xlink:href="#DejaVuSans-48"/>
       <use x="159.033203" xlink:href="#DejaVuSans-48"/>
      </g>
     </g>
    </g>
    <g id="xtick_2">
     <g id="line2d_2">
      <g>
       <use style="stroke:#000000;stroke-width:0.8;" x="138.848292" xlink:href="#m107be3ea26" y="307.584"/>
      </g>
     </g>
     <g id="text_2">
      <!-- 0.01 -->
      <g transform="translate(127.71548 322.182437)scale(0.1 -0.1)">
       <defs>
        <path d="M 12.40625 8.296875 
L 28.515625 8.296875 
L 28.515625 63.921875 
L 10.984375 60.40625 
L 10.984375 69.390625 
L 28.421875 72.90625 
L 38.28125 72.90625 
L 38.28125 8.296875 
L 54.390625 8.296875 
L 54.390625 0 
L 12.40625 0 
z
" id="DejaVuSans-49"/>
       </defs>
       <use xlink:href="#DejaVuSans-48"/>
       <use x="63.623047" xlink:href="#DejaVuSans-46"/>
       <use x="95.410156" xlink:href="#DejaVuSans-48"/>
       <use x="159.033203" xlink:href="#DejaVuSans-49"/>
      </g>
     </g>
    </g>
    <g id="xtick_3">
     <g id="line2d_3">
      <g>
       <use style="stroke:#000000;stroke-width:0.8;" x="203.863857" xlink:href="#m107be3ea26" y="307.584"/>
      </g>
     </g>
     <g id="text_3">
      <!-- 0.02 -->
      <g transform="translate(192.731044 322.182437)scale(0.1 -0.1)">
       <defs>
        <path d="M 19.1875 8.296875 
L 53.609375 8.296875 
L 53.609375 0 
L 7.328125 0 
L 7.328125 8.296875 
Q 12.9375 14.109375 22.625 23.890625 
Q 32.328125 33.6875 34.8125 36.53125 
Q 39.546875 41.84375 41.421875 45.53125 
Q 43.3125 49.21875 43.3125 52.78125 
Q 43.3125 58.59375 39.234375 62.25 
Q 35.15625 65.921875 28.609375 65.921875 
Q 23.96875 65.921875 18.8125 64.3125 
Q 13.671875 62.703125 7.8125 59.421875 
L 7.8125 69.390625 
Q 13.765625 71.78125 18.9375 73 
Q 24.125 74.21875 28.421875 74.21875 
Q 39.75 74.21875 46.484375 68.546875 
Q 53.21875 62.890625 53.21875 53.421875 
Q 53.21875 48.921875 51.53125 44.890625 
Q 49.859375 40.875 45.40625 35.40625 
Q 44.1875 33.984375 37.640625 27.21875 
Q 31.109375 20.453125 19.1875 8.296875 
z
" id="DejaVuSans-50"/>
       </defs>
       <use xlink:href="#DejaVuSans-48"/>
       <use x="63.623047" xlink:href="#DejaVuSans-46"/>
       <use x="95.410156" xlink:href="#DejaVuSans-48"/>
       <use x="159.033203" xlink:href="#DejaVuSans-50"/>
      </g>
     </g>
    </g>
    <g id="xtick_4">
     <g id="line2d_4">
      <g>
       <use style="stroke:#000000;stroke-width:0.8;" x="268.879422" xlink:href="#m107be3ea26" y="307.584"/>
      </g>
     </g>
     <g id="text_4">
      <!-- 0.03 -->
      <g transform="translate(257.746609 322.182437)scale(0.1 -0.1)">
       <defs>
        <path d="M 40.578125 39.3125 
Q 47.65625 37.796875 51.625 33 
Q 55.609375 28.21875 55.609375 21.1875 
Q 55.609375 10.40625 48.1875 4.484375 
Q 40.765625 -1.421875 27.09375 -1.421875 
Q 22.515625 -1.421875 17.65625 -0.515625 
Q 12.796875 0.390625 7.625 2.203125 
L 7.625 11.71875 
Q 11.71875 9.328125 16.59375 8.109375 
Q 21.484375 6.890625 26.8125 6.890625 
Q 36.078125 6.890625 40.9375 10.546875 
Q 45.796875 14.203125 45.796875 21.1875 
Q 45.796875 27.640625 41.28125 31.265625 
Q 36.765625 34.90625 28.71875 34.90625 
L 20.21875 34.90625 
L 20.21875 43.015625 
L 29.109375 43.015625 
Q 36.375 43.015625 40.234375 45.921875 
Q 44.09375 48.828125 44.09375 54.296875 
Q 44.09375 59.90625 40.109375 62.90625 
Q 36.140625 65.921875 28.71875 65.921875 
Q 24.65625 65.921875 20.015625 65.03125 
Q 15.375 64.15625 9.8125 62.3125 
L 9.8125 71.09375 
Q 15.4375 72.65625 20.34375 73.4375 
Q 25.25 74.21875 29.59375 74.21875 
Q 40.828125 74.21875 47.359375 69.109375 
Q 53.90625 64.015625 53.90625 55.328125 
Q 53.90625 49.265625 50.4375 45.09375 
Q 46.96875 40.921875 40.578125 39.3125 
z
" id="DejaVuSans-51"/>
       </defs>
       <use xlink:href="#DejaVuSans-48"/>
       <use x="63.623047" xlink:href="#DejaVuSans-46"/>
       <use x="95.410156" xlink:href="#DejaVuSans-48"/>
       <use x="159.033203" xlink:href="#DejaVuSans-51"/>
      </g>
     </g>
    </g>
    <g id="xtick_5">
     <g id="line2d_5">
      <g>
       <use style="stroke:#000000;stroke-width:0.8;" x="333.894986" xlink:href="#m107be3ea26" y="307.584"/>
      </g>
     </g>
     <g id="text_5">
      <!-- 0.04 -->
      <g transform="translate(322.762174 322.182437)scale(0.1 -0.1)">
       <defs>
        <path d="M 37.796875 64.3125 
L 12.890625 25.390625 
L 37.796875 25.390625 
z
M 35.203125 72.90625 
L 47.609375 72.90625 
L 47.609375 25.390625 
L 58.015625 25.390625 
L 58.015625 17.1875 
L 47.609375 17.1875 
L 47.609375 0 
L 37.796875 0 
L 37.796875 17.1875 
L 4.890625 17.1875 
L 4.890625 26.703125 
z
" id="DejaVuSans-52"/>
       </defs>
       <use xlink:href="#DejaVuSans-48"/>
       <use x="63.623047" xlink:href="#DejaVuSans-46"/>
       <use x="95.410156" xlink:href="#DejaVuSans-48"/>
       <use x="159.033203" xlink:href="#DejaVuSans-52"/>
      </g>
     </g>
    </g>
    <g id="xtick_6">
     <g id="line2d_6">
      <g>
       <use style="stroke:#000000;stroke-width:0.8;" x="398.910551" xlink:href="#m107be3ea26" y="307.584"/>
      </g>
     </g>
     <g id="text_6">
      <!-- 0.05 -->
      <g transform="translate(387.777739 322.182437)scale(0.1 -0.1)">
       <defs>
        <path d="M 10.796875 72.90625 
L 49.515625 72.90625 
L 49.515625 64.59375 
L 19.828125 64.59375 
L 19.828125 46.734375 
Q 21.96875 47.46875 24.109375 47.828125 
Q 26.265625 48.1875 28.421875 48.1875 
Q 40.625 48.1875 47.75 41.5 
Q 54.890625 34.8125 54.890625 23.390625 
Q 54.890625 11.625 47.5625 5.09375 
Q 40.234375 -1.421875 26.90625 -1.421875 
Q 22.3125 -1.421875 17.546875 -0.640625 
Q 12.796875 0.140625 7.71875 1.703125 
L 7.71875 11.625 
Q 12.109375 9.234375 16.796875 8.0625 
Q 21.484375 6.890625 26.703125 6.890625 
Q 35.15625 6.890625 40.078125 11.328125 
Q 45.015625 15.765625 45.015625 23.390625 
Q 45.015625 31 40.078125 35.4375 
Q 35.15625 39.890625 26.703125 39.890625 
Q 22.75 39.890625 18.8125 39.015625 
Q 14.890625 38.140625 10.796875 36.28125 
z
" id="DejaVuSans-53"/>
       </defs>
       <use xlink:href="#DejaVuSans-48"/>
       <use x="63.623047" xlink:href="#DejaVuSans-46"/>
       <use x="95.410156" xlink:href="#DejaVuSans-48"/>
       <use x="159.033203" xlink:href="#DejaVuSans-53"/>
      </g>
     </g>
    </g>
   </g>
   <g id="matplotlib.axis_2">
    <g id="ytick_1">
     <g id="line2d_7">
      <defs>
       <path d="M 0 0 
L -3.5 0 
" id="m74a89a615d" style="stroke:#000000;stroke-width:0.8;"/>
      </defs>
      <g>
       <use style="stroke:#000000;stroke-width:0.8;" x="57.6" xlink:href="#m74a89a615d" y="279.621533"/>
      </g>
     </g>
     <g id="text_7">
      <!-- −3 -->
      <g transform="translate(35.857813 283.420752)scale(0.1 -0.1)">
       <defs>
        <path d="M 10.59375 35.5 
L 73.1875 35.5 
L 73.1875 27.203125 
L 10.59375 27.203125 
z
" id="DejaVuSans-8722"/>
       </defs>
       <use xlink:href="#DejaVuSans-8722"/>
       <use x="83.789062" xlink:href="#DejaVuSans-51"/>
      </g>
     </g>
    </g>
    <g id="ytick_2">
     <g id="line2d_8">
      <g>
       <use style="stroke:#000000;stroke-width:0.8;" x="57.6" xlink:href="#m74a89a615d" y="244.619112"/>
      </g>
     </g>
     <g id="text_8">
      <!-- −2 -->
      <g transform="translate(35.857813 248.41833)scale(0.1 -0.1)">
       <use xlink:href="#DejaVuSans-8722"/>
       <use x="83.789062" xlink:href="#DejaVuSans-50"/>
      </g>
     </g>
    </g>
    <g id="ytick_3">
     <g id="line2d_9">
      <g>
       <use style="stroke:#000000;stroke-width:0.8;" x="57.6" xlink:href="#m74a89a615d" y="209.616691"/>
      </g>
     </g>
     <g id="text_9">
      <!-- −1 -->
      <g transform="translate(35.857813 213.415909)scale(0.1 -0.1)">
       <use xlink:href="#DejaVuSans-8722"/>
       <use x="83.789062" xlink:href="#DejaVuSans-49"/>
      </g>
     </g>
    </g>
    <g id="ytick_4">
     <g id="line2d_10">
      <g>
       <use style="stroke:#000000;stroke-width:0.8;" x="57.6" xlink:href="#m74a89a615d" y="174.614269"/>
      </g>
     </g>
     <g id="text_10">
      <!-- 0 -->
      <g transform="translate(44.2375 178.413488)scale(0.1 -0.1)">
       <use xlink:href="#DejaVuSans-48"/>
      </g>
     </g>
    </g>
    <g id="ytick_5">
     <g id="line2d_11">
      <g>
       <use style="stroke:#000000;stroke-width:0.8;" x="57.6" xlink:href="#m74a89a615d" y="139.611848"/>
      </g>
     </g>
     <g id="text_11">
      <!-- 1 -->
      <g transform="translate(44.2375 143.411067)scale(0.1 -0.1)">
       <use xlink:href="#DejaVuSans-49"/>
      </g>
     </g>
    </g>
    <g id="ytick_6">
     <g id="line2d_12">
      <g>
       <use style="stroke:#000000;stroke-width:0.8;" x="57.6" xlink:href="#m74a89a615d" y="104.609427"/>
      </g>
     </g>
     <g id="text_12">
      <!-- 2 -->
      <g transform="translate(44.2375 108.408646)scale(0.1 -0.1)">
       <use xlink:href="#DejaVuSans-50"/>
      </g>
     </g>
    </g>
    <g id="ytick_7">
     <g id="line2d_13">
      <g>
       <use style="stroke:#000000;stroke-width:0.8;" x="57.6" xlink:href="#m74a89a615d" y="69.607006"/>
      </g>
     </g>
     <g id="text_13">
      <!-- 3 -->
      <g transform="translate(44.2375 73.406225)scale(0.1 -0.1)">
       <use xlink:href="#DejaVuSans-51"/>
      </g>
     </g>
    </g>
   </g>
   <g id="line2d_14">
    <path clip-path="url(#p066878beee)" d="M 73.832727 174.614269 
L 74.679284 169.419352 
L 79.758625 135.586792 
L 82.721574 117.246909 
L 85.261245 102.850032 
L 87.377637 92.039666 
L 89.07075 84.267663 
L 90.763864 77.39123 
L 92.456978 71.423462 
L 94.150091 66.489927 
L 95.419927 63.45877 
L 96.689762 61.030171 
L 97.536319 59.754339 
L 98.382875 58.743217 
L 99.229432 58.029703 
L 100.075989 57.601556 
L 100.922546 57.443175 
L 101.769103 57.554916 
L 102.61566 57.982401 
L 103.462216 58.680235 
L 104.308773 59.645366 
L 105.578609 61.628903 
L 106.848444 64.224784 
L 108.118279 67.41902 
L 109.388114 71.194419 
L 110.65795 75.53066 
L 112.351063 82.139349 
L 114.467455 91.657172 
L 116.583847 102.436932 
L 118.700239 114.30202 
L 121.23991 129.720834 
L 124.626137 151.744919 
L 136.054654 227.503728 
L 138.594325 242.350139 
L 140.710717 253.61651 
L 142.827109 263.70283 
L 144.520223 270.819982 
L 146.213336 277.007861 
L 147.90645 282.212716 
L 149.176285 285.445629 
L 150.446121 288.081256 
L 151.715956 290.105346 
L 152.985791 291.493178 
L 153.832348 292.063951 
L 154.678905 292.351529 
L 155.525462 292.369086 
L 156.372018 292.115321 
L 157.218575 291.545968 
L 158.065132 290.708553 
L 158.911689 289.604863 
L 160.181524 287.41496 
L 161.451359 284.617039 
L 162.721195 281.22618 
L 163.99103 277.26064 
L 165.260865 272.741752 
L 166.953979 265.907666 
L 168.647093 258.184356 
L 170.763485 247.409575 
L 173.303155 233.049044 
L 175.842826 217.446718 
L 179.229053 195.262498 
L 189.387735 127.551083 
L 192.350684 109.860068 
L 194.890354 96.212587 
L 197.006746 86.121834 
L 198.69986 79.022167 
L 200.392974 72.822826 
L 202.086087 67.624567 
L 203.355923 64.397398 
L 204.625758 61.767789 
L 205.472315 60.348589 
L 206.318872 59.197689 
L 207.165428 58.354553 
L 208.011985 57.779531 
L 208.858542 57.473822 
L 209.705099 57.458375 
L 210.551656 57.74023 
L 211.398213 58.291488 
L 212.244769 59.110983 
L 213.514605 60.889429 
L 214.78444 63.284137 
L 216.054275 66.282175 
L 217.32411 69.86738 
L 218.593946 74.020431 
L 220.287059 80.386999 
L 221.980173 87.697308 
L 223.673287 95.821359 
L 225.789679 107.056456 
L 228.329349 121.857324 
L 231.292298 140.563956 
L 235.525082 168.888957 
L 242.297537 214.249643 
L 245.260486 232.589865 
L 247.800156 246.983518 
L 249.916549 257.796299 
L 251.609662 265.570367 
L 253.302776 272.446006 
L 254.99589 278.403652 
L 256.265725 282.220323 
L 257.53556 285.450586 
L 258.805395 288.074567 
L 260.075231 290.086514 
L 260.921787 291.096307 
L 261.768344 291.799863 
L 262.614901 292.234595 
L 263.461458 292.399575 
L 264.308015 292.271388 
L 265.154572 291.848955 
L 266.001128 291.157679 
L 266.847685 290.199031 
L 268.11752 288.213013 
L 269.387356 285.614695 
L 270.657191 282.418112 
L 271.927026 278.640504 
L 273.62014 272.750205 
L 275.313254 265.901641 
L 277.006367 258.177149 
L 279.122759 247.404701 
L 281.239151 235.531796 
L 283.778822 220.117339 
L 287.165049 198.091909 
L 298.170288 124.913412 
L 301.133237 107.483724 
L 303.249629 96.214497 
L 305.366021 86.124584 
L 307.059135 79.016106 
L 308.752248 72.816768 
L 310.445362 67.621652 
L 311.715197 64.39088 
L 312.985033 61.757478 
L 314.254868 59.735653 
L 315.101425 58.746971 
L 315.947982 58.025437 
L 316.794538 57.572597 
L 317.641095 57.431522 
L 318.487652 57.566027 
L 319.334209 57.97035 
L 320.180766 58.653204 
L 321.027323 59.640814 
L 321.873879 60.893345 
L 322.720436 62.408135 
L 323.990271 65.208265 
L 325.260107 68.601233 
L 326.529942 72.568746 
L 328.223056 78.705619 
L 329.916169 85.785457 
L 332.032561 95.818638 
L 334.148953 107.043229 
L 336.688624 121.854331 
L 339.651573 140.557944 
L 343.884357 168.884628 
L 350.656812 214.242707 
L 353.619761 232.586872 
L 356.159431 246.985899 
L 358.275823 257.7944 
L 359.968937 265.559233 
L 361.66205 272.44166 
L 363.355164 278.401729 
L 365.048278 283.341421 
L 366.318113 286.373991 
L 367.587948 288.804072 
L 368.434505 290.075247 
L 369.281062 291.081641 
L 370.127619 291.807594 
L 370.974176 292.230985 
L 371.820732 292.384585 
L 372.667289 292.268066 
L 373.513846 291.853095 
L 374.360403 291.150508 
L 375.20696 290.18067 
L 376.053517 288.945643 
L 377.323352 286.548431 
L 378.593187 283.547947 
L 379.863022 279.96041 
L 381.556136 274.311174 
L 383.24925 267.693149 
L 384.942363 260.181772 
L 387.058755 249.635716 
L 389.175148 237.979589 
L 391.714818 222.761909 
L 395.101045 200.906492 
L 398.487273 178.053166 
L 398.487273 178.053166 
" style="fill:none;stroke:#1f77b4;stroke-linecap:square;stroke-width:2;"/>
   </g>
   <g id="line2d_15">
    <path clip-path="url(#p066878beee)" d="M 73.832727 176.45878 
L 74.256006 168.520775 
L 74.679284 172.643172 
L 75.102563 168.694459 
L 75.525841 162.096968 
L 75.949119 164.905424 
L 76.795676 152.864585 
L 77.218955 154.189627 
L 77.642233 146.585838 
L 78.065511 149.184463 
L 78.912068 141.666054 
L 79.758625 135.859197 
L 80.181904 133.788726 
L 80.605182 129.659894 
L 81.451739 124.639994 
L 81.875017 123.602675 
L 82.298296 118.582089 
L 82.721574 118.84927 
L 83.144852 114.570871 
L 83.568131 111.616838 
L 83.991409 111.234575 
L 84.414688 107.094492 
L 84.837966 106.215462 
L 85.684523 100.880748 
L 86.107801 99.05974 
L 86.53108 98.600584 
L 86.954358 93.061881 
L 87.377637 92.258916 
L 88.224193 88.804658 
L 88.647472 86.59804 
L 89.07075 85.672334 
L 89.494029 83.37557 
L 89.917307 81.851804 
L 90.340586 75.023657 
L 90.763864 78.415462 
L 91.610421 71.635156 
L 92.033699 73.619667 
L 92.456978 68.766752 
L 92.880256 70.010217 
L 93.303534 69.998113 
L 93.726813 66.271647 
L 94.150091 66.511938 
L 94.57337 66.997055 
L 94.996648 67.024976 
L 95.419927 64.876028 
L 95.843205 64.597571 
L 96.266483 63.208863 
L 96.689762 61.382171 
L 97.11304 58.677845 
L 97.536319 57.578659 
L 97.959597 61.196294 
L 98.382875 56.789854 
L 99.229432 60.590569 
L 99.652711 57.797294 
L 100.075989 57.352525 
L 100.499268 53.568 
L 100.922546 57.71178 
L 101.345824 57.459703 
L 101.769103 58.148796 
L 102.192381 56.701966 
L 102.61566 58.622004 
L 103.038938 59.8265 
L 103.462216 55.369799 
L 103.885495 58.585098 
L 104.308773 62.651764 
L 104.732052 60.021246 
L 105.15533 62.344848 
L 105.578609 58.921457 
L 106.001887 64.730025 
L 106.425165 64.585653 
L 106.848444 63.554769 
L 107.271722 65.954997 
L 107.695001 66.020911 
L 108.118279 63.737097 
L 108.541557 70.217691 
L 108.964836 70.575724 
L 109.388114 72.633533 
L 109.811393 69.801721 
L 110.234671 71.97972 
L 110.65795 78.074499 
L 111.081228 73.682696 
L 111.504506 79.059198 
L 111.927785 81.964387 
L 112.351063 82.857906 
L 112.774342 85.162935 
L 113.19762 84.669052 
L 113.620898 90.162559 
L 114.044177 88.786296 
L 114.467455 89.804147 
L 114.890734 96.969107 
L 115.314012 97.844248 
L 115.737291 96.754757 
L 117.007126 104.155026 
L 117.430404 109.900058 
L 117.853683 107.104064 
L 118.700239 116.504201 
L 119.123518 115.030459 
L 119.546796 117.945841 
L 119.970075 119.773181 
L 120.393353 125.071698 
L 120.816632 124.323587 
L 121.663188 133.560052 
L 122.086467 135.937118 
L 122.509745 140.202596 
L 122.933024 136.952615 
L 124.202859 149.884627 
L 124.626137 151.108218 
L 125.472694 157.17643 
L 125.895973 160.163671 
L 126.742529 164.269153 
L 127.165808 167.769695 
L 128.012365 176.988548 
L 128.435643 178.678408 
L 128.858921 179.717757 
L 129.2822 182.781194 
L 129.705478 188.949376 
L 130.552035 191.459143 
L 130.975314 196.03618 
L 131.398592 197.730053 
L 131.82187 202.169055 
L 132.245149 203.345925 
L 132.668427 206.37951 
L 133.091706 211.181702 
L 133.514984 210.538578 
L 133.938262 211.884411 
L 134.361541 216.88862 
L 134.784819 217.809529 
L 135.208098 225.785603 
L 135.631376 220.285084 
L 136.054654 227.915877 
L 136.477933 230.443965 
L 136.901211 231.606733 
L 137.32449 233.994154 
L 137.747768 235.445811 
L 138.171047 242.239838 
L 138.594325 241.157271 
L 139.017603 246.728165 
L 139.440882 247.029899 
L 139.86416 252.335716 
L 140.287439 256.041184 
L 140.710717 254.252028 
L 141.133995 254.687535 
L 141.557274 257.461074 
L 141.980552 257.952571 
L 142.403831 265.502375 
L 142.827109 265.009943 
L 143.250388 265.801297 
L 144.096944 271.323031 
L 144.520223 272.14685 
L 144.943501 275.812524 
L 145.36678 275.973817 
L 145.790058 277.176074 
L 146.213336 274.571013 
L 146.636615 279.775636 
L 147.059893 277.947146 
L 147.90645 284.139482 
L 148.329729 283.198985 
L 148.753007 286.076072 
L 149.176285 286.306505 
L 149.599564 284.638696 
L 150.022842 285.185568 
L 150.869399 291.975664 
L 151.292677 288.92453 
L 152.139234 293.14519 
L 152.562513 294.601778 
L 152.985791 293.643138 
L 153.40907 291.655447 
L 153.832348 291.686059 
L 154.255626 293.937468 
L 154.678905 294.707912 
L 155.102183 294.192256 
L 155.525462 293.012017 
L 155.94874 292.9344 
L 156.372018 293.428027 
L 156.795297 290.923902 
L 157.218575 291.203733 
L 157.641854 292.084857 
L 158.065132 289.122351 
L 158.488411 289.511659 
L 158.911689 288.749887 
L 159.334967 289.163469 
L 159.758246 288.303554 
L 160.181524 285.844324 
L 160.604803 287.57322 
L 161.028081 285.632232 
L 161.451359 285.612463 
L 161.874638 282.271236 
L 162.297916 282.874984 
L 162.721195 284.181682 
L 163.567752 277.9526 
L 163.99103 277.5586 
L 164.414308 276.622604 
L 164.837587 273.889339 
L 165.260865 273.326505 
L 166.107422 270.046688 
L 166.5307 266.628627 
L 166.953979 267.206444 
L 167.377257 258.458403 
L 167.800536 259.957646 
L 168.223814 262.652873 
L 168.647093 260.725694 
L 169.070371 257.528886 
L 169.493649 253.400498 
L 169.916928 251.41321 
L 170.340206 247.402354 
L 170.763485 247.062422 
L 171.186763 248.622214 
L 171.610041 243.782821 
L 172.456598 237.617363 
L 172.879877 238.869243 
L 173.303155 230.870581 
L 173.726434 230.039272 
L 174.149712 228.895061 
L 174.996269 222.338348 
L 175.419547 218.297047 
L 175.842826 218.625251 
L 176.266104 211.468021 
L 176.689382 212.832048 
L 177.112661 208.66719 
L 177.535939 206.776128 
L 177.959218 201.903813 
L 178.382496 200.98214 
L 178.805775 196.431754 
L 179.229053 193.571964 
L 180.07561 189.805215 
L 181.768723 176.916629 
L 182.192002 176.158906 
L 182.61528 173.032649 
L 183.038559 167.532275 
L 183.461837 164.174685 
L 183.885116 163.415656 
L 184.308394 161.781147 
L 184.731672 160.833418 
L 185.154951 154.484686 
L 185.578229 154.268845 
L 186.001508 152.635919 
L 186.848064 142.023175 
L 187.271343 142.33182 
L 187.694621 137.987771 
L 188.1179 137.913711 
L 188.541178 133.613752 
L 188.964457 127.667118 
L 189.387735 131.36176 
L 189.811013 126.622198 
L 190.234292 123.212196 
L 190.65757 123.604448 
L 191.080849 116.42664 
L 191.504127 112.663613 
L 191.927405 111.877925 
L 192.773962 106.86406 
L 193.197241 106.32412 
L 193.620519 103.652672 
L 194.043798 98.763553 
L 194.467076 96.134046 
L 194.890354 97.486278 
L 195.313633 95.417683 
L 196.16019 88.156727 
L 196.583468 89.703363 
L 197.006746 83.838734 
L 197.430025 84.293068 
L 197.853303 84.097329 
L 198.276582 80.653666 
L 198.69986 80.610462 
L 199.123139 77.578425 
L 199.546417 77.421236 
L 199.969695 74.167446 
L 200.392974 73.363014 
L 200.816252 69.76653 
L 201.239531 72.366845 
L 201.662809 69.624771 
L 202.086087 68.366939 
L 202.509366 66.396689 
L 202.932644 65.335252 
L 203.779201 62.104704 
L 204.20248 63.246029 
L 204.625758 61.542681 
L 205.049036 61.929618 
L 205.472315 63.65427 
L 205.895593 60.207284 
L 206.318872 55.682298 
L 206.74215 61.216746 
L 207.165428 60.781484 
L 207.588707 61.678976 
L 208.011985 54.991022 
L 208.435264 56.363287 
L 208.858542 57.297796 
L 209.281821 59.560226 
L 209.705099 56.373222 
L 210.128377 56.036016 
L 210.551656 57.091827 
L 210.974934 56.379569 
L 211.398213 61.414867 
L 211.821491 57.72856 
L 212.244769 63.065801 
L 212.668048 56.826504 
L 213.514605 62.862764 
L 213.937883 62.058823 
L 214.361162 63.917383 
L 214.78444 62.621863 
L 215.207718 63.818637 
L 216.054275 66.834799 
L 216.477554 65.913606 
L 216.900832 69.891014 
L 217.32411 71.077278 
L 217.747389 70.907789 
L 218.170667 72.128768 
L 218.593946 71.228544 
L 219.017224 74.190989 
L 219.440503 75.311227 
L 219.863781 79.462553 
L 220.287059 79.893471 
L 220.710338 83.536455 
L 221.133616 83.436425 
L 221.556895 86.160713 
L 221.980173 87.861775 
L 222.403451 88.676979 
L 222.82673 92.220329 
L 223.250008 93.398104 
L 223.673287 98.490875 
L 224.096565 96.903642 
L 224.943122 105.019446 
L 225.3664 105.316922 
L 225.789679 106.350739 
L 226.212957 109.842301 
L 226.636236 111.236858 
L 227.059514 111.194823 
L 227.482792 118.926513 
L 228.752628 122.45011 
L 229.175906 124.719746 
L 229.599185 132.523723 
L 230.022463 131.998701 
L 231.292298 140.54649 
L 231.715577 141.484926 
L 232.138855 144.444251 
L 232.562133 149.615826 
L 232.985412 148.279372 
L 233.40869 155.152837 
L 233.831969 153.826614 
L 234.255247 158.731424 
L 234.678526 165.354817 
L 235.101804 165.078087 
L 235.948361 172.47948 
L 236.371639 176.275661 
L 236.794918 175.989892 
L 237.218196 179.177101 
L 237.641474 183.449296 
L 238.064753 184.081435 
L 238.488031 189.502168 
L 238.91131 188.127708 
L 239.334588 194.560281 
L 239.757867 196.144146 
L 240.181145 201.878617 
L 240.604423 201.411173 
L 241.027702 205.844215 
L 241.45098 211.496246 
L 241.874259 208.979902 
L 242.297537 212.103109 
L 243.144094 219.588647 
L 243.567372 220.925597 
L 243.990651 223.287744 
L 244.413929 227.585279 
L 244.837208 230.026148 
L 245.260486 233.826272 
L 245.683764 233.907177 
L 246.107043 235.355819 
L 247.376878 245.989833 
L 247.800156 246.692233 
L 248.223435 248.369916 
L 248.646713 250.812633 
L 249.069992 254.830293 
L 249.49327 253.072935 
L 249.916549 255.771966 
L 250.339827 259.530992 
L 251.186384 263.527935 
L 251.609662 264.312923 
L 252.032941 271.155599 
L 252.456219 268.981475 
L 252.879497 265.707311 
L 253.302776 271.332031 
L 253.726054 273.234171 
L 254.149333 273.027193 
L 254.572611 275.582903 
L 254.99589 275.907227 
L 255.419168 279.955421 
L 256.265725 285.601586 
L 256.689003 281.218097 
L 257.112282 282.745839 
L 257.53556 286.990104 
L 258.382117 285.467017 
L 258.805395 288.136207 
L 259.651952 291.15292 
L 260.075231 288.111487 
L 260.498509 289.865547 
L 260.921787 290.196211 
L 261.345066 291.138539 
L 261.768344 293.737209 
L 262.191623 292.684273 
L 262.614901 293.330506 
L 263.038179 292.778173 
L 263.461458 291.652382 
L 263.884736 291.030855 
L 264.308015 291.666436 
L 264.731293 291.633175 
L 265.154572 288.472479 
L 265.57785 292.771937 
L 266.001128 291.651855 
L 266.424407 289.174666 
L 266.847685 288.551263 
L 267.270964 290.069024 
L 267.694242 289.501342 
L 268.11752 290.359686 
L 268.540799 285.737319 
L 268.964077 286.993042 
L 269.387356 282.889934 
L 269.810634 285.771156 
L 270.233913 282.856815 
L 270.657191 283.164398 
L 271.080469 283.833601 
L 271.927026 275.715758 
L 272.350305 275.67376 
L 273.196861 272.683716 
L 273.62014 272.559077 
L 274.043418 267.665292 
L 274.466697 271.729269 
L 274.889975 270.159119 
L 275.313254 262.538486 
L 275.736532 262.631608 
L 276.15981 263.618313 
L 276.583089 259.526163 
L 277.006367 258.087162 
L 277.852924 253.27365 
L 278.276202 252.009174 
L 278.699481 251.774503 
L 279.122759 245.84457 
L 279.546038 246.994323 
L 279.969316 240.709085 
L 280.392595 237.560167 
L 280.815873 238.110996 
L 281.239151 238.220737 
L 281.66243 232.048723 
L 282.085708 231.573004 
L 282.508987 230.92219 
L 282.932265 222.936394 
L 283.355543 220.447429 
L 283.778822 221.00682 
L 284.2021 219.671356 
L 284.625379 212.380538 
L 285.048657 212.022004 
L 285.471936 205.732621 
L 285.895214 204.538177 
L 286.318492 205.350664 
L 287.165049 197.110668 
L 287.588328 199.333768 
L 288.011606 188.870861 
L 288.434884 191.220891 
L 290.127998 176.645719 
L 290.551277 176.022325 
L 291.397833 167.435275 
L 291.821112 165.952011 
L 292.24439 166.172895 
L 292.667669 160.868213 
L 293.090947 158.969526 
L 293.514225 153.90597 
L 293.937504 153.227317 
L 294.784061 147.632829 
L 295.207339 143.985967 
L 295.630618 142.214436 
L 296.053896 138.157925 
L 296.900453 135.103365 
L 297.323731 126.403062 
L 297.74701 128.297789 
L 298.170288 123.734941 
L 299.016845 119.248439 
L 299.440123 117.232296 
L 299.863402 116.145517 
L 300.709959 110.355685 
L 301.133237 109.010441 
L 301.556515 104.86758 
L 301.979794 102.408505 
L 302.403072 99.021841 
L 303.249629 95.195648 
L 303.672907 90.266102 
L 304.096186 92.243025 
L 304.519464 91.998962 
L 304.942743 90.783493 
L 305.7893 83.149754 
L 306.635856 81.468761 
L 307.482413 77.502564 
L 307.905692 74.119759 
L 308.32897 75.115533 
L 308.752248 72.771046 
L 309.175527 73.992338 
L 309.598805 67.937779 
L 310.445362 68.328091 
L 310.868641 68.149474 
L 311.291919 68.635451 
L 311.715197 64.049302 
L 312.138476 63.891659 
L 312.561754 62.921853 
L 312.985033 62.679453 
L 313.408311 58.364241 
L 313.831589 61.930024 
L 314.254868 62.208234 
L 314.678146 55.245128 
L 315.101425 59.760727 
L 315.524703 57.506382 
L 315.947982 61.24146 
L 316.37126 61.289947 
L 316.794538 55.137588 
L 317.217817 56.260752 
L 317.641095 59.782831 
L 318.064374 57.774763 
L 318.487652 57.878579 
L 318.91093 54.502731 
L 319.334209 61.769431 
L 319.757487 54.373364 
L 320.180766 58.378936 
L 320.604044 59.297426 
L 321.027323 56.071253 
L 321.450601 62.536934 
L 321.873879 60.721785 
L 322.297158 64.225427 
L 322.720436 62.528594 
L 323.143715 62.204069 
L 323.566993 62.741637 
L 323.990271 66.727095 
L 324.41355 67.157668 
L 324.836828 66.261232 
L 325.260107 68.749297 
L 325.683385 68.323263 
L 326.106664 69.362898 
L 326.529942 71.398636 
L 326.95322 70.807056 
L 327.376499 75.093657 
L 327.799777 76.881997 
L 328.223056 77.591659 
L 328.646334 79.460464 
L 329.069612 83.584592 
L 329.492891 85.3733 
L 329.916169 85.066301 
L 330.762726 89.276782 
L 331.186005 93.85677 
L 331.609283 94.140875 
L 332.032561 94.042542 
L 332.45584 98.198162 
L 332.879118 98.732302 
L 333.302397 102.985321 
L 333.725675 104.80373 
L 334.148953 108.672648 
L 334.572232 109.84757 
L 334.99551 107.955584 
L 335.418789 115.503608 
L 335.842067 114.072981 
L 336.265346 118.205665 
L 336.688624 123.991707 
L 337.111902 123.766601 
L 337.535181 125.914602 
L 337.958459 129.767927 
L 338.381738 135.174991 
L 338.805016 133.795332 
L 339.228294 139.369534 
L 339.651573 142.915869 
L 340.074851 143.130654 
L 340.49813 141.945873 
L 341.767965 157.367351 
L 343.0378 162.763846 
L 343.461079 167.671317 
L 343.884357 168.572035 
L 344.307635 174.003683 
L 344.730914 177.579389 
L 345.154192 178.382589 
L 345.577471 179.925124 
L 346.000749 182.499209 
L 346.424027 186.542047 
L 346.847306 188.13981 
L 347.270584 191.669998 
L 347.693863 193.903829 
L 348.117141 199.975854 
L 348.54042 201.107931 
L 348.963698 203.073093 
L 349.386976 205.998488 
L 349.810255 212.070864 
L 350.233533 212.789963 
L 350.656812 210.545637 
L 351.08009 216.462069 
L 351.503368 217.227117 
L 351.926647 221.540778 
L 352.349925 224.475105 
L 352.773204 224.403793 
L 353.196482 231.713326 
L 353.619761 232.031378 
L 354.043039 234.747144 
L 354.466317 238.415661 
L 354.889596 238.625218 
L 355.312874 238.671717 
L 356.159431 247.828027 
L 356.582709 248.336233 
L 357.005988 253.75674 
L 357.429266 254.955778 
L 357.852545 255.596789 
L 358.275823 256.540441 
L 358.699102 259.233565 
L 359.12238 259.322767 
L 359.545658 261.244903 
L 359.968937 265.806004 
L 360.392215 266.049367 
L 360.815494 268.395048 
L 361.238772 271.569829 
L 361.66205 270.827351 
L 362.085329 276.092479 
L 362.508607 276.001967 
L 362.931886 276.86148 
L 363.355164 277.326747 
L 363.778443 279.258127 
L 364.201721 280.080364 
L 364.624999 283.575436 
L 365.048278 283.140309 
L 365.471556 283.72619 
L 365.894835 284.802585 
L 366.318113 286.490549 
L 366.741391 288.961414 
L 367.16467 290.625576 
L 367.587948 288.445226 
L 368.011227 291.965125 
L 368.434505 285.315978 
L 368.857784 290.230408 
L 369.281062 292.651848 
L 369.70434 290.000978 
L 370.127619 291.143024 
L 370.550897 291.879551 
L 370.974176 293.854726 
L 371.397454 287.636863 
L 371.820732 295.356582 
L 372.244011 290.021997 
L 372.667289 292.227805 
L 373.090568 290.258211 
L 373.513846 295.488 
L 373.937125 293.729027 
L 374.360403 290.514445 
L 374.783681 290.644029 
L 375.20696 287.367356 
L 375.630238 292.616922 
L 376.053517 286.630857 
L 376.476795 288.166401 
L 376.900073 287.155316 
L 377.323352 287.160709 
L 377.74663 286.76736 
L 378.593187 282.840171 
L 379.016466 281.964011 
L 379.439744 282.859759 
L 380.709579 276.850111 
L 381.132858 276.149329 
L 381.556136 272.627148 
L 381.979414 273.723255 
L 382.825971 266.618947 
L 383.24925 264.646698 
L 383.672528 266.063288 
L 384.095807 263.993313 
L 384.519085 262.675039 
L 384.942363 259.314827 
L 385.365642 259.618843 
L 385.78892 255.765345 
L 386.212199 257.28409 
L 387.482034 245.701964 
L 387.905312 243.857808 
L 388.328591 245.274177 
L 388.751869 239.353553 
L 389.175148 237.50615 
L 389.598426 235.107377 
L 390.021704 230.430543 
L 390.444983 228.845326 
L 390.868261 229.039693 
L 391.29154 225.409815 
L 391.714818 226.718268 
L 392.138096 215.26235 
L 392.561375 218.342153 
L 393.407932 210.754734 
L 393.83121 209.773655 
L 394.254489 205.868655 
L 394.677767 205.120143 
L 395.101045 201.447944 
L 395.947602 197.128826 
L 396.370881 190.72928 
L 396.794159 188.521343 
L 397.217437 187.583853 
L 397.640716 181.110196 
L 398.063994 183.186617 
L 398.487273 178.854223 
L 398.487273 178.854223 
" style="fill:none;stroke:#ff7f0e;stroke-linecap:square;stroke-opacity:0.8;stroke-width:1.5;"/>
   </g>
   <g id="patch_3">
    <path d="M 57.6 307.584 
L 57.6 41.472 
" style="fill:none;stroke:#000000;stroke-linecap:square;stroke-linejoin:miter;stroke-width:0.8;"/>
   </g>
   <g id="patch_4">
    <path d="M 414.72 307.584 
L 414.72 41.472 
" style="fill:none;stroke:#000000;stroke-linecap:square;stroke-linejoin:miter;stroke-width:0.8;"/>
   </g>
   <g id="patch_5">
    <path d="M 57.6 307.584 
L 414.72 307.584 
" style="fill:none;stroke:#000000;stroke-linecap:square;stroke-linejoin:miter;stroke-width:0.8;"/>
   </g>
   <g id="patch_6">
    <path d="M 57.6 41.472 
L 414.72 41.472 
" style="fill:none;stroke:#000000;stroke-linecap:square;stroke-linejoin:miter;stroke-width:0.8;"/>
   </g>
  </g>
 </g>
 <defs>
  <clipPath id="p066878beee">
   <rect height="266.112" width="357.12" x="57.6" y="41.472"/>
  </clipPath>
 </defs>
</svg>
