<?xml version="1.0" encoding="utf-8" standalone="no"?>
<!DOCTYPE svg PUBLIC "-//W3C//DTD SVG 1.1//EN"
  "http://www.w3.org/Graphics/SVG/1.1/DTD/svg11.dtd">
<!-- Created with matplotlib (https://matplotlib.org/) -->
<svg height="345.6pt" version="1.1" viewBox="0 0 460.8 345.6" width="460.8pt" xmlns="http://www.w3.org/2000/svg" xmlns:xlink="http://www.w3.org/1999/xlink">
 <metadata>
  <rdf:RDF xmlns:cc="http://creativecommons.org/ns#" xmlns:dc="http://purl.org/dc/elements/1.1/" xmlns:rdf="http://www.w3.org/1999/02/22-rdf-syntax-ns#">
   <cc:Work>
    <dc:type rdf:resource="http://purl.org/dc/dcmitype/StillImage"/>
    <dc:date>2020-10-17T10:10:37.484716</dc:date>
    <dc:format>image/svg+xml</dc:format>
    <dc:creator>
     <cc:Agent>
      <dc:title>Matplotlib v3.3.1, https://matplotlib.org/</dc:title>
     </cc:Agent>
    </dc:creator>
   </cc:Work>
  </rdf:RDF>
 </metadata>
 <defs>
  <style type="text/css">*{stroke-linecap:butt;stroke-linejoin:round;}</style>
 </defs>
 <g id="figure_1">
  <g id="patch_1">
   <path d="M 0 345.6 
L 460.8 345.6 
L 460.8 0 
L 0 0 
z
" style="fill:#ffffff;"/>
  </g>
  <g id="axes_1">
   <g id="patch_2">
    <path d="M 57.6 307.584 
L 414.72 307.584 
L 414.72 41.472 
L 57.6 41.472 
z
" style="fill:#ffffff;"/>
   </g>
   <g id="matplotlib.axis_1">
    <g id="xtick_1">
     <g id="line2d_1">
      <defs>
       <path d="M 0 0 
L 0 3.5 
" id="m89c284254d" style="stroke:#000000;stroke-width:0.8;"/>
      </defs>
      <g>
       <use style="stroke:#000000;stroke-width:0.8;" x="73.832727" xlink:href="#m89c284254d" y="307.584"/>
      </g>
     </g>
     <g id="text_1">
      <!-- 0.00 -->
      <g transform="translate(62.699915 322.182437)scale(0.1 -0.1)">
       <defs>
        <path d="M 31.78125 66.40625 
Q 24.171875 66.40625 20.328125 58.90625 
Q 16.5 51.421875 16.5 36.375 
Q 16.5 21.390625 20.328125 13.890625 
Q 24.171875 6.390625 31.78125 6.390625 
Q 39.453125 6.390625 43.28125 13.890625 
Q 47.125 21.390625 47.125 36.375 
Q 47.125 51.421875 43.28125 58.90625 
Q 39.453125 66.40625 31.78125 66.40625 
z
M 31.78125 74.21875 
Q 44.046875 74.21875 50.515625 64.515625 
Q 56.984375 54.828125 56.984375 36.375 
Q 56.984375 17.96875 50.515625 8.265625 
Q 44.046875 -1.421875 31.78125 -1.421875 
Q 19.53125 -1.421875 13.0625 8.265625 
Q 6.59375 17.96875 6.59375 36.375 
Q 6.59375 54.828125 13.0625 64.515625 
Q 19.53125 74.21875 31.78125 74.21875 
z
" id="DejaVuSans-48"/>
        <path d="M 10.6875 12.40625 
L 21 12.40625 
L 21 0 
L 10.6875 0 
z
" id="DejaVuSans-46"/>
       </defs>
       <use xlink:href="#DejaVuSans-48"/>
       <use x="63.623047" xlink:href="#DejaVuSans-46"/>
       <use x="95.410156" xlink:href="#DejaVuSans-48"/>
       <use x="159.033203" xlink:href="#DejaVuSans-48"/>
      </g>
     </g>
    </g>
    <g id="xtick_2">
     <g id="line2d_2">
      <g>
       <use style="stroke:#000000;stroke-width:0.8;" x="138.848292" xlink:href="#m89c284254d" y="307.584"/>
      </g>
     </g>
     <g id="text_2">
      <!-- 0.01 -->
      <g transform="translate(127.71548 322.182437)scale(0.1 -0.1)">
       <defs>
        <path d="M 12.40625 8.296875 
L 28.515625 8.296875 
L 28.515625 63.921875 
L 10.984375 60.40625 
L 10.984375 69.390625 
L 28.421875 72.90625 
L 38.28125 72.90625 
L 38.28125 8.296875 
L 54.390625 8.296875 
L 54.390625 0 
L 12.40625 0 
z
" id="DejaVuSans-49"/>
       </defs>
       <use xlink:href="#DejaVuSans-48"/>
       <use x="63.623047" xlink:href="#DejaVuSans-46"/>
       <use x="95.410156" xlink:href="#DejaVuSans-48"/>
       <use x="159.033203" xlink:href="#DejaVuSans-49"/>
      </g>
     </g>
    </g>
    <g id="xtick_3">
     <g id="line2d_3">
      <g>
       <use style="stroke:#000000;stroke-width:0.8;" x="203.863857" xlink:href="#m89c284254d" y="307.584"/>
      </g>
     </g>
     <g id="text_3">
      <!-- 0.02 -->
      <g transform="translate(192.731044 322.182437)scale(0.1 -0.1)">
       <defs>
        <path d="M 19.1875 8.296875 
L 53.609375 8.296875 
L 53.609375 0 
L 7.328125 0 
L 7.328125 8.296875 
Q 12.9375 14.109375 22.625 23.890625 
Q 32.328125 33.6875 34.8125 36.53125 
Q 39.546875 41.84375 41.421875 45.53125 
Q 43.3125 49.21875 43.3125 52.78125 
Q 43.3125 58.59375 39.234375 62.25 
Q 35.15625 65.921875 28.609375 65.921875 
Q 23.96875 65.921875 18.8125 64.3125 
Q 13.671875 62.703125 7.8125 59.421875 
L 7.8125 69.390625 
Q 13.765625 71.78125 18.9375 73 
Q 24.125 74.21875 28.421875 74.21875 
Q 39.75 74.21875 46.484375 68.546875 
Q 53.21875 62.890625 53.21875 53.421875 
Q 53.21875 48.921875 51.53125 44.890625 
Q 49.859375 40.875 45.40625 35.40625 
Q 44.1875 33.984375 37.640625 27.21875 
Q 31.109375 20.453125 19.1875 8.296875 
z
" id="DejaVuSans-50"/>
       </defs>
       <use xlink:href="#DejaVuSans-48"/>
       <use x="63.623047" xlink:href="#DejaVuSans-46"/>
       <use x="95.410156" xlink:href="#DejaVuSans-48"/>
       <use x="159.033203" xlink:href="#DejaVuSans-50"/>
      </g>
     </g>
    </g>
    <g id="xtick_4">
     <g id="line2d_4">
      <g>
       <use style="stroke:#000000;stroke-width:0.8;" x="268.879422" xlink:href="#m89c284254d" y="307.584"/>
      </g>
     </g>
     <g id="text_4">
      <!-- 0.03 -->
      <g transform="translate(257.746609 322.182437)scale(0.1 -0.1)">
       <defs>
        <path d="M 40.578125 39.3125 
Q 47.65625 37.796875 51.625 33 
Q 55.609375 28.21875 55.609375 21.1875 
Q 55.609375 10.40625 48.1875 4.484375 
Q 40.765625 -1.421875 27.09375 -1.421875 
Q 22.515625 -1.421875 17.65625 -0.515625 
Q 12.796875 0.390625 7.625 2.203125 
L 7.625 11.71875 
Q 11.71875 9.328125 16.59375 8.109375 
Q 21.484375 6.890625 26.8125 6.890625 
Q 36.078125 6.890625 40.9375 10.546875 
Q 45.796875 14.203125 45.796875 21.1875 
Q 45.796875 27.640625 41.28125 31.265625 
Q 36.765625 34.90625 28.71875 34.90625 
L 20.21875 34.90625 
L 20.21875 43.015625 
L 29.109375 43.015625 
Q 36.375 43.015625 40.234375 45.921875 
Q 44.09375 48.828125 44.09375 54.296875 
Q 44.09375 59.90625 40.109375 62.90625 
Q 36.140625 65.921875 28.71875 65.921875 
Q 24.65625 65.921875 20.015625 65.03125 
Q 15.375 64.15625 9.8125 62.3125 
L 9.8125 71.09375 
Q 15.4375 72.65625 20.34375 73.4375 
Q 25.25 74.21875 29.59375 74.21875 
Q 40.828125 74.21875 47.359375 69.109375 
Q 53.90625 64.015625 53.90625 55.328125 
Q 53.90625 49.265625 50.4375 45.09375 
Q 46.96875 40.921875 40.578125 39.3125 
z
" id="DejaVuSans-51"/>
       </defs>
       <use xlink:href="#DejaVuSans-48"/>
       <use x="63.623047" xlink:href="#DejaVuSans-46"/>
       <use x="95.410156" xlink:href="#DejaVuSans-48"/>
       <use x="159.033203" xlink:href="#DejaVuSans-51"/>
      </g>
     </g>
    </g>
    <g id="xtick_5">
     <g id="line2d_5">
      <g>
       <use style="stroke:#000000;stroke-width:0.8;" x="333.894986" xlink:href="#m89c284254d" y="307.584"/>
      </g>
     </g>
     <g id="text_5">
      <!-- 0.04 -->
      <g transform="translate(322.762174 322.182437)scale(0.1 -0.1)">
       <defs>
        <path d="M 37.796875 64.3125 
L 12.890625 25.390625 
L 37.796875 25.390625 
z
M 35.203125 72.90625 
L 47.609375 72.90625 
L 47.609375 25.390625 
L 58.015625 25.390625 
L 58.015625 17.1875 
L 47.609375 17.1875 
L 47.609375 0 
L 37.796875 0 
L 37.796875 17.1875 
L 4.890625 17.1875 
L 4.890625 26.703125 
z
" id="DejaVuSans-52"/>
       </defs>
       <use xlink:href="#DejaVuSans-48"/>
       <use x="63.623047" xlink:href="#DejaVuSans-46"/>
       <use x="95.410156" xlink:href="#DejaVuSans-48"/>
       <use x="159.033203" xlink:href="#DejaVuSans-52"/>
      </g>
     </g>
    </g>
    <g id="xtick_6">
     <g id="line2d_6">
      <g>
       <use style="stroke:#000000;stroke-width:0.8;" x="398.910551" xlink:href="#m89c284254d" y="307.584"/>
      </g>
     </g>
     <g id="text_6">
      <!-- 0.05 -->
      <g transform="translate(387.777739 322.182437)scale(0.1 -0.1)">
       <defs>
        <path d="M 10.796875 72.90625 
L 49.515625 72.90625 
L 49.515625 64.59375 
L 19.828125 64.59375 
L 19.828125 46.734375 
Q 21.96875 47.46875 24.109375 47.828125 
Q 26.265625 48.1875 28.421875 48.1875 
Q 40.625 48.1875 47.75 41.5 
Q 54.890625 34.8125 54.890625 23.390625 
Q 54.890625 11.625 47.5625 5.09375 
Q 40.234375 -1.421875 26.90625 -1.421875 
Q 22.3125 -1.421875 17.546875 -0.640625 
Q 12.796875 0.140625 7.71875 1.703125 
L 7.71875 11.625 
Q 12.109375 9.234375 16.796875 8.0625 
Q 21.484375 6.890625 26.703125 6.890625 
Q 35.15625 6.890625 40.078125 11.328125 
Q 45.015625 15.765625 45.015625 23.390625 
Q 45.015625 31 40.078125 35.4375 
Q 35.15625 39.890625 26.703125 39.890625 
Q 22.75 39.890625 18.8125 39.015625 
Q 14.890625 38.140625 10.796875 36.28125 
z
" id="DejaVuSans-53"/>
       </defs>
       <use xlink:href="#DejaVuSans-48"/>
       <use x="63.623047" xlink:href="#DejaVuSans-46"/>
       <use x="95.410156" xlink:href="#DejaVuSans-48"/>
       <use x="159.033203" xlink:href="#DejaVuSans-53"/>
      </g>
     </g>
    </g>
   </g>
   <g id="matplotlib.axis_2">
    <g id="ytick_1">
     <g id="line2d_7">
      <defs>
       <path d="M 0 0 
L -3.5 0 
" id="m70e6bf5c90" style="stroke:#000000;stroke-width:0.8;"/>
      </defs>
      <g>
       <use style="stroke:#000000;stroke-width:0.8;" x="57.6" xlink:href="#m70e6bf5c90" y="306.735118"/>
      </g>
     </g>
     <g id="text_7">
      <!-- −2.5 -->
      <g transform="translate(26.317187 310.534337)scale(0.1 -0.1)">
       <defs>
        <path d="M 10.59375 35.5 
L 73.1875 35.5 
L 73.1875 27.203125 
L 10.59375 27.203125 
z
" id="DejaVuSans-8722"/>
       </defs>
       <use xlink:href="#DejaVuSans-8722"/>
       <use x="83.789062" xlink:href="#DejaVuSans-50"/>
       <use x="147.412109" xlink:href="#DejaVuSans-46"/>
       <use x="179.199219" xlink:href="#DejaVuSans-53"/>
      </g>
     </g>
    </g>
    <g id="ytick_2">
     <g id="line2d_8">
      <g>
       <use style="stroke:#000000;stroke-width:0.8;" x="57.6" xlink:href="#m70e6bf5c90" y="276.804021"/>
      </g>
     </g>
     <g id="text_8">
      <!-- 0.0 -->
      <g transform="translate(34.696875 280.60324)scale(0.1 -0.1)">
       <use xlink:href="#DejaVuSans-48"/>
       <use x="63.623047" xlink:href="#DejaVuSans-46"/>
       <use x="95.410156" xlink:href="#DejaVuSans-48"/>
      </g>
     </g>
    </g>
    <g id="ytick_3">
     <g id="line2d_9">
      <g>
       <use style="stroke:#000000;stroke-width:0.8;" x="57.6" xlink:href="#m70e6bf5c90" y="246.872924"/>
      </g>
     </g>
     <g id="text_9">
      <!-- 2.5 -->
      <g transform="translate(34.696875 250.672143)scale(0.1 -0.1)">
       <use xlink:href="#DejaVuSans-50"/>
       <use x="63.623047" xlink:href="#DejaVuSans-46"/>
       <use x="95.410156" xlink:href="#DejaVuSans-53"/>
      </g>
     </g>
    </g>
    <g id="ytick_4">
     <g id="line2d_10">
      <g>
       <use style="stroke:#000000;stroke-width:0.8;" x="57.6" xlink:href="#m70e6bf5c90" y="216.941827"/>
      </g>
     </g>
     <g id="text_10">
      <!-- 5.0 -->
      <g transform="translate(34.696875 220.741046)scale(0.1 -0.1)">
       <use xlink:href="#DejaVuSans-53"/>
       <use x="63.623047" xlink:href="#DejaVuSans-46"/>
       <use x="95.410156" xlink:href="#DejaVuSans-48"/>
      </g>
     </g>
    </g>
    <g id="ytick_5">
     <g id="line2d_11">
      <g>
       <use style="stroke:#000000;stroke-width:0.8;" x="57.6" xlink:href="#m70e6bf5c90" y="187.01073"/>
      </g>
     </g>
     <g id="text_11">
      <!-- 7.5 -->
      <g transform="translate(34.696875 190.809949)scale(0.1 -0.1)">
       <defs>
        <path d="M 8.203125 72.90625 
L 55.078125 72.90625 
L 55.078125 68.703125 
L 28.609375 0 
L 18.3125 0 
L 43.21875 64.59375 
L 8.203125 64.59375 
z
" id="DejaVuSans-55"/>
       </defs>
       <use xlink:href="#DejaVuSans-55"/>
       <use x="63.623047" xlink:href="#DejaVuSans-46"/>
       <use x="95.410156" xlink:href="#DejaVuSans-53"/>
      </g>
     </g>
    </g>
    <g id="ytick_6">
     <g id="line2d_12">
      <g>
       <use style="stroke:#000000;stroke-width:0.8;" x="57.6" xlink:href="#m70e6bf5c90" y="157.079633"/>
      </g>
     </g>
     <g id="text_12">
      <!-- 10.0 -->
      <g transform="translate(28.334375 160.878852)scale(0.1 -0.1)">
       <use xlink:href="#DejaVuSans-49"/>
       <use x="63.623047" xlink:href="#DejaVuSans-48"/>
       <use x="127.246094" xlink:href="#DejaVuSans-46"/>
       <use x="159.033203" xlink:href="#DejaVuSans-48"/>
      </g>
     </g>
    </g>
    <g id="ytick_7">
     <g id="line2d_13">
      <g>
       <use style="stroke:#000000;stroke-width:0.8;" x="57.6" xlink:href="#m70e6bf5c90" y="127.148537"/>
      </g>
     </g>
     <g id="text_13">
      <!-- 12.5 -->
      <g transform="translate(28.334375 130.947755)scale(0.1 -0.1)">
       <use xlink:href="#DejaVuSans-49"/>
       <use x="63.623047" xlink:href="#DejaVuSans-50"/>
       <use x="127.246094" xlink:href="#DejaVuSans-46"/>
       <use x="159.033203" xlink:href="#DejaVuSans-53"/>
      </g>
     </g>
    </g>
    <g id="ytick_8">
     <g id="line2d_14">
      <g>
       <use style="stroke:#000000;stroke-width:0.8;" x="57.6" xlink:href="#m70e6bf5c90" y="97.21744"/>
      </g>
     </g>
     <g id="text_14">
      <!-- 15.0 -->
      <g transform="translate(28.334375 101.016659)scale(0.1 -0.1)">
       <use xlink:href="#DejaVuSans-49"/>
       <use x="63.623047" xlink:href="#DejaVuSans-53"/>
       <use x="127.246094" xlink:href="#DejaVuSans-46"/>
       <use x="159.033203" xlink:href="#DejaVuSans-48"/>
      </g>
     </g>
    </g>
    <g id="ytick_9">
     <g id="line2d_15">
      <g>
       <use style="stroke:#000000;stroke-width:0.8;" x="57.6" xlink:href="#m70e6bf5c90" y="67.286343"/>
      </g>
     </g>
     <g id="text_15">
      <!-- 17.5 -->
      <g transform="translate(28.334375 71.085562)scale(0.1 -0.1)">
       <use xlink:href="#DejaVuSans-49"/>
       <use x="63.623047" xlink:href="#DejaVuSans-55"/>
       <use x="127.246094" xlink:href="#DejaVuSans-46"/>
       <use x="159.033203" xlink:href="#DejaVuSans-53"/>
      </g>
     </g>
    </g>
   </g>
   <g id="line2d_16">
    <path clip-path="url(#pd96feb18a3)" d="M 73.832727 276.804021 
L 74.679284 274.705629 
L 75.949119 270.821744 
L 77.642233 264.800288 
L 79.335347 257.869706 
L 81.02846 250.092059 
L 83.144852 239.313092 
L 85.684523 225.013063 
L 88.647472 206.867654 
L 92.456978 182.050065 
L 100.075989 131.980302 
L 103.038938 114.010658 
L 105.578609 99.929697 
L 107.695001 89.345299 
L 109.811393 79.990697 
L 111.504506 73.499085 
L 113.19762 67.926253 
L 114.467455 64.394995 
L 115.737291 61.444117 
L 117.007126 59.096075 
L 118.276961 57.353332 
L 119.123518 56.520221 
L 119.970075 55.986803 
L 120.816632 55.718018 
L 121.663188 55.714474 
L 122.509745 56.001002 
L 123.356302 56.573932 
L 124.202859 57.410178 
L 125.049416 58.508003 
L 126.319251 60.691169 
L 127.589086 63.471287 
L 128.858921 66.833477 
L 130.128757 70.759709 
L 131.82187 76.825812 
L 133.514984 83.817867 
L 135.631376 93.718882 
L 137.747768 104.788355 
L 140.287439 119.387881 
L 143.250388 137.815731 
L 147.483172 165.713613 
L 154.255626 210.36828 
L 157.218575 228.425259 
L 159.758246 242.598872 
L 161.874638 253.238766 
L 163.567752 260.883146 
L 165.260865 267.660375 
L 166.953979 273.534157 
L 168.223814 277.291567 
L 169.493649 280.470674 
L 170.763485 283.066636 
L 172.03332 285.061525 
L 172.879877 286.037308 
L 173.726434 286.757884 
L 174.57299 287.19554 
L 175.419547 287.354883 
L 176.266104 287.235674 
L 177.112661 286.83759 
L 177.959218 286.165922 
L 178.805775 285.21916 
L 179.652331 283.996871 
L 180.922167 281.656937 
L 182.192002 278.729088 
L 183.461837 275.215302 
L 184.731672 271.149366 
L 186.424786 264.89273 
L 188.1179 257.743863 
L 190.234292 247.654912 
L 192.350684 236.437637 
L 194.890354 221.710385 
L 198.276582 200.473757 
L 204.20248 161.218018 
L 208.858542 131.063466 
L 211.821491 113.309049 
L 214.361162 99.451988 
L 216.477554 89.112451 
L 218.170667 81.728828 
L 219.863781 75.231719 
L 221.133616 70.964229 
L 222.403451 67.246364 
L 223.673287 64.098281 
L 224.943122 61.537068 
L 226.212957 59.59167 
L 227.482792 58.258941 
L 228.329349 57.705429 
L 229.175906 57.447578 
L 230.022463 57.454983 
L 230.86902 57.727665 
L 231.715577 58.295217 
L 232.562133 59.142329 
L 233.40869 60.250865 
L 234.678526 62.429749 
L 235.948361 65.205709 
L 237.218196 68.563905 
L 238.488031 72.486389 
L 239.757867 76.952179 
L 241.45098 83.713156 
L 243.567372 93.359373 
L 245.683764 104.218812 
L 248.223435 118.589526 
L 251.186384 136.835494 
L 254.99589 161.774559 
L 262.614901 212.086865 
L 265.57785 230.152973 
L 268.11752 244.316967 
L 270.233913 254.968452 
L 272.350305 264.379789 
L 274.043418 270.944845 
L 275.736532 276.568334 
L 277.006367 280.130663 
L 278.276202 283.120613 
L 279.546038 285.517597 
L 280.815873 287.302066 
L 281.66243 288.144689 
L 282.508987 288.731741 
L 283.355543 289.024911 
L 284.2021 289.049111 
L 285.048657 288.785937 
L 285.895214 288.2531 
L 286.741771 287.43865 
L 287.588328 286.354219 
L 288.858163 284.220735 
L 290.127998 281.482969 
L 291.397833 278.162342 
L 292.667669 274.277477 
L 294.360782 268.258971 
L 296.053896 261.32391 
L 297.74701 253.539759 
L 299.863402 242.753196 
L 302.403072 228.46036 
L 305.366021 210.317808 
L 309.598805 182.681255 
L 316.794538 135.417133 
L 319.757487 117.458817 
L 322.297158 103.368794 
L 324.41355 92.793436 
L 326.106664 85.192761 
L 327.799777 78.477574 
L 329.492891 72.656026 
L 331.186005 67.845056 
L 332.45584 64.897265 
L 333.725675 62.541577 
L 334.572232 61.306213 
L 335.418789 60.33091 
L 336.265346 59.654511 
L 337.111902 59.251893 
L 337.958459 59.11428 
L 338.805016 59.247052 
L 339.651573 59.686408 
L 340.49813 60.389775 
L 341.344686 61.355671 
L 342.614522 63.333974 
L 343.884357 65.913557 
L 345.154192 69.080608 
L 346.424027 72.81818 
L 347.693863 77.106266 
L 349.386976 83.631884 
L 351.503368 93.03014 
L 353.619761 103.661481 
L 355.736153 115.35753 
L 358.275823 130.551593 
L 361.66205 152.244867 
L 373.090568 226.825766 
L 375.630238 241.437536 
L 377.74663 252.527438 
L 379.863022 262.456936 
L 381.556136 269.470079 
L 383.24925 275.565793 
L 384.519085 279.506241 
L 385.78892 282.88301 
L 387.058755 285.657837 
L 388.328591 287.851831 
L 389.175148 288.97825 
L 390.021704 289.843411 
L 390.868261 290.415822 
L 391.714818 290.718154 
L 392.561375 290.732157 
L 393.407932 290.476922 
L 394.254489 289.937675 
L 395.101045 289.12745 
L 395.947602 288.040281 
L 396.794159 286.68306 
L 398.063994 284.148121 
L 398.487273 283.167498 
L 398.487273 283.167498 
" style="fill:none;stroke:#1f77b4;stroke-linecap:square;stroke-width:2;"/>
   </g>
   <g id="line2d_17">
    <path clip-path="url(#pd96feb18a3)" d="M 73.832727 273.957725 
L 74.256006 275.042293 
L 74.679284 275.288909 
L 75.102563 273.649899 
L 75.525841 270.539683 
L 76.372398 268.28866 
L 76.795676 263.359102 
L 77.218955 266.19486 
L 77.642233 263.384978 
L 78.065511 266.141544 
L 78.48879 259.671351 
L 78.912068 258.98786 
L 79.335347 262.773145 
L 79.758625 252.223687 
L 80.181904 250.653755 
L 80.605182 252.009382 
L 81.02846 250.092308 
L 81.451739 252.517159 
L 81.875017 247.674039 
L 82.298296 240.950332 
L 82.721574 241.438693 
L 83.144852 238.687395 
L 83.568131 239.400665 
L 83.991409 230.693647 
L 84.414688 227.677709 
L 84.837966 230.35748 
L 85.261245 226.837198 
L 85.684523 220.23067 
L 86.107801 220.773916 
L 86.53108 219.397774 
L 86.954358 213.832114 
L 87.377637 216.274064 
L 87.800915 213.137023 
L 88.224193 205.993779 
L 88.647472 202.673225 
L 89.07075 203.631745 
L 89.494029 205.380154 
L 89.917307 196.453109 
L 90.340586 199.777013 
L 90.763864 193.222182 
L 91.187142 191.624004 
L 91.610421 189.030792 
L 92.033699 181.355202 
L 92.456978 183.307133 
L 92.880256 180.651361 
L 93.303534 176.560138 
L 93.726813 170.283167 
L 94.150091 171.644471 
L 94.57337 170.757199 
L 94.996648 165.298804 
L 95.419927 165.504202 
L 95.843205 155.160252 
L 96.266483 156.891002 
L 96.689762 154.801259 
L 97.11304 155.272036 
L 97.536319 145.548773 
L 97.959597 143.71634 
L 98.382875 141.296147 
L 98.806154 140.071714 
L 99.229432 135.843115 
L 99.652711 135.128748 
L 100.075989 131.912295 
L 100.499268 131.033583 
L 101.345824 122.908727 
L 101.769103 124.78976 
L 102.192381 121.761666 
L 102.61566 115.738662 
L 103.462216 108.736739 
L 103.885495 109.29337 
L 104.308773 108.052555 
L 104.732052 109.053816 
L 105.15533 101.770255 
L 105.578609 102.099353 
L 106.001887 99.458152 
L 106.425165 91.655271 
L 106.848444 96.644006 
L 107.695001 87.890988 
L 108.118279 87.878856 
L 108.541557 84.727436 
L 108.964836 86.083211 
L 109.388114 84.704605 
L 109.811393 76.088205 
L 110.234671 82.561233 
L 110.65795 78.527987 
L 111.081228 80.048714 
L 111.927785 69.958943 
L 112.351063 71.62623 
L 112.774342 67.431407 
L 113.19762 64.527833 
L 113.620898 65.536043 
L 114.044177 59.852621 
L 114.467455 66.764225 
L 115.314012 55.677494 
L 115.737291 64.517041 
L 116.160569 62.82267 
L 116.583847 54.428657 
L 117.007126 55.778004 
L 117.430404 57.969469 
L 117.853683 57.096613 
L 118.276961 60.989818 
L 118.700239 56.847553 
L 119.123518 61.955642 
L 119.546796 58.492785 
L 120.393353 54.723761 
L 120.816632 54.969508 
L 121.23991 57.612428 
L 121.663188 54.72711 
L 122.086467 54.616553 
L 122.933024 60.843285 
L 123.356302 62.057225 
L 123.77958 56.091738 
L 124.202859 54.500885 
L 124.626137 58.289285 
L 125.049416 59.018185 
L 125.472694 61.37641 
L 125.895973 62.104314 
L 126.319251 62.4952 
L 126.742529 61.035574 
L 127.165808 63.784903 
L 127.589086 65.195906 
L 128.012365 69.466191 
L 128.435643 62.423191 
L 128.858921 69.05464 
L 129.2822 71.505289 
L 129.705478 70.095711 
L 130.128757 69.708385 
L 130.552035 74.600852 
L 130.975314 76.259386 
L 131.398592 74.237167 
L 131.82187 77.303047 
L 132.245149 83.849851 
L 132.668427 77.995495 
L 133.091706 83.989403 
L 133.514984 85.055476 
L 133.938262 86.684466 
L 134.361541 89.88024 
L 134.784819 89.001115 
L 135.208098 94.539497 
L 135.631376 91.440873 
L 136.054654 98.044411 
L 136.477933 96.963236 
L 136.901211 102.113688 
L 137.32449 105.264646 
L 138.171047 105.194334 
L 139.017603 110.217785 
L 139.86416 117.854366 
L 140.287439 122.187918 
L 140.710717 122.295882 
L 141.133995 125.215272 
L 141.557274 135.403898 
L 141.980552 129.860097 
L 142.403831 132.771311 
L 142.827109 138.768209 
L 143.250388 136.806601 
L 143.673666 136.015898 
L 144.096944 141.843983 
L 144.520223 145.093384 
L 144.943501 150.6806 
L 145.36678 151.028825 
L 145.790058 158.32597 
L 146.213336 150.892303 
L 146.636615 163.307612 
L 147.059893 160.255558 
L 148.329729 168.085864 
L 148.753007 176.046343 
L 149.176285 179.358326 
L 149.599564 178.769085 
L 150.022842 183.746346 
L 150.446121 187.200992 
L 150.869399 187.878077 
L 151.292677 191.92734 
L 151.715956 189.050528 
L 152.139234 198.360287 
L 152.562513 195.91544 
L 153.40907 206.772528 
L 153.832348 207.382058 
L 154.255626 212.468217 
L 154.678905 219.021858 
L 155.102183 213.971701 
L 155.525462 218.988282 
L 155.94874 218.827683 
L 156.372018 222.117773 
L 156.795297 226.665905 
L 157.218575 234.863967 
L 157.641854 224.830582 
L 158.065132 236.60916 
L 158.488411 235.483912 
L 158.911689 240.136148 
L 159.334967 239.9179 
L 159.758246 247.851307 
L 160.181524 240.710336 
L 160.604803 248.589524 
L 161.028081 252.343986 
L 161.451359 254.016971 
L 161.874638 254.169066 
L 162.297916 256.481909 
L 162.721195 259.863244 
L 163.144473 259.722781 
L 163.567752 257.845329 
L 163.99103 262.375969 
L 164.414308 265.307411 
L 164.837587 263.311042 
L 165.260865 269.437833 
L 165.684144 268.193626 
L 166.107422 271.159884 
L 166.5307 271.591525 
L 166.953979 268.198876 
L 167.377257 271.640239 
L 167.800536 276.655261 
L 168.223814 277.80759 
L 168.647093 280.97079 
L 169.070371 279.013141 
L 169.493649 283.792353 
L 169.916928 279.629052 
L 170.340206 282.201249 
L 170.763485 282.799646 
L 171.186763 285.650831 
L 171.610041 282.874683 
L 172.03332 286.223868 
L 172.456598 284.557835 
L 172.879877 288.843137 
L 173.726434 286.232082 
L 174.149712 280.420435 
L 174.57299 286.997392 
L 174.996269 283.397694 
L 175.419547 286.417565 
L 175.842826 292.711476 
L 176.266104 283.239572 
L 176.689382 291.662503 
L 177.112661 289.686378 
L 177.959218 283.821414 
L 178.382496 282.101031 
L 179.229053 288.448611 
L 179.652331 284.029981 
L 180.07561 285.568754 
L 180.922167 283.284609 
L 181.345445 279.316156 
L 181.768723 279.184001 
L 182.192002 279.185899 
L 183.038559 276.578571 
L 183.461837 273.153363 
L 183.885116 270.659013 
L 184.308394 275.179467 
L 184.731672 273.177352 
L 185.154951 264.479518 
L 185.578229 268.546352 
L 186.424786 263.989294 
L 186.848064 267.075421 
L 187.271343 259.703895 
L 187.694621 255.983127 
L 188.1179 257.43271 
L 188.541178 254.911647 
L 188.964457 251.425227 
L 189.387735 254.248121 
L 190.234292 245.784167 
L 190.65757 244.342497 
L 191.080849 244.603214 
L 191.504127 240.317893 
L 191.927405 237.788056 
L 192.350684 236.484661 
L 192.773962 234.509229 
L 193.197241 234.763621 
L 193.620519 232.861251 
L 194.467076 219.986551 
L 194.890354 223.296726 
L 195.313633 221.642691 
L 195.736911 215.788031 
L 197.006746 202.600967 
L 197.430025 205.513913 
L 197.853303 201.947113 
L 198.276582 196.378705 
L 198.69986 197.633642 
L 199.123139 193.938344 
L 199.546417 200.128276 
L 199.969695 189.373438 
L 200.392974 187.757485 
L 200.816252 181.809164 
L 201.239531 178.791263 
L 201.662809 178.455711 
L 202.086087 172.032921 
L 202.509366 175.092066 
L 203.355923 169.008962 
L 203.779201 161.352073 
L 204.20248 158.978651 
L 204.625758 163.506555 
L 205.049036 154.459985 
L 205.472315 150.443045 
L 205.895593 151.468728 
L 206.318872 147.73187 
L 206.74215 147.390227 
L 207.165428 139.436281 
L 207.588707 141.804258 
L 208.011985 136.907923 
L 208.435264 129.724833 
L 208.858542 130.076738 
L 209.281821 126.86767 
L 209.705099 126.365706 
L 210.128377 127.802348 
L 210.551656 120.88171 
L 210.974934 116.988472 
L 211.821491 111.475899 
L 212.244769 112.564267 
L 212.668048 108.770523 
L 213.091326 102.95853 
L 213.514605 105.476154 
L 213.937883 98.26113 
L 214.361162 97.546662 
L 214.78444 95.822074 
L 215.207718 96.693467 
L 215.630997 93.32244 
L 216.477554 89.114405 
L 216.900832 85.275617 
L 217.32411 86.404055 
L 217.747389 83.882919 
L 218.170667 85.221527 
L 218.593946 87.491601 
L 219.017224 76.170348 
L 219.440503 73.329687 
L 220.287059 74.238013 
L 221.133616 73.177604 
L 221.980173 62.390129 
L 222.403451 68.664282 
L 222.82673 68.944907 
L 223.250008 67.997059 
L 223.673287 66.624939 
L 224.096565 58.756286 
L 224.519844 64.202724 
L 224.943122 59.471321 
L 225.3664 57.626356 
L 225.789679 57.701539 
L 226.212957 56.279672 
L 226.636236 62.557657 
L 227.059514 60.802555 
L 227.482792 55.1714 
L 227.906071 57.218646 
L 228.329349 57.657394 
L 228.752628 53.568 
L 229.175906 56.544289 
L 229.599185 58.221339 
L 230.022463 60.52492 
L 230.445741 56.262486 
L 230.86902 57.031094 
L 231.292298 54.926701 
L 231.715577 60.46994 
L 232.138855 60.915907 
L 232.562133 59.254797 
L 232.985412 61.857774 
L 233.40869 62.873923 
L 233.831969 61.186242 
L 234.255247 65.871304 
L 234.678526 63.157776 
L 235.101804 62.833078 
L 235.525082 65.917727 
L 235.948361 65.525533 
L 236.371639 69.682731 
L 236.794918 70.532544 
L 237.218196 62.706696 
L 237.641474 67.454688 
L 238.064753 76.984139 
L 238.488031 73.918666 
L 238.91131 71.979188 
L 239.334588 73.220605 
L 239.757867 76.555306 
L 240.181145 74.165357 
L 241.45098 83.700442 
L 241.874259 83.373698 
L 242.297537 87.725496 
L 242.720815 80.399259 
L 243.144094 88.948941 
L 243.567372 93.847321 
L 243.990651 93.54106 
L 244.413929 98.600166 
L 244.837208 96.49442 
L 245.260486 106.383176 
L 245.683764 100.759044 
L 246.530321 112.935229 
L 246.9536 110.230402 
L 247.376878 114.948083 
L 247.800156 115.290544 
L 248.223435 117.369958 
L 249.069992 124.511023 
L 249.49327 127.181566 
L 249.916549 128.570003 
L 250.339827 128.878667 
L 250.763105 135.268877 
L 251.186384 136.490983 
L 251.609662 135.978047 
L 252.032941 144.103257 
L 252.456219 142.819147 
L 252.879497 149.98541 
L 253.302776 145.229992 
L 254.149333 159.724563 
L 254.572611 159.677302 
L 254.99589 161.081325 
L 255.419168 164.379311 
L 255.842446 173.347914 
L 256.265725 172.187067 
L 256.689003 170.342156 
L 257.112282 176.840973 
L 257.53556 177.648671 
L 257.958838 182.904493 
L 258.382117 185.49851 
L 258.805395 186.766626 
L 259.651952 193.266425 
L 260.075231 197.808943 
L 260.498509 195.188049 
L 260.921787 198.340722 
L 261.345066 205.583455 
L 261.768344 203.917288 
L 262.191623 209.179814 
L 262.614901 212.787052 
L 263.038179 213.331169 
L 263.461458 214.465745 
L 263.884736 218.713893 
L 264.308015 224.654552 
L 264.731293 226.838986 
L 265.154572 221.248602 
L 266.001128 238.807551 
L 266.424407 239.556156 
L 266.847685 236.242058 
L 267.270964 240.657992 
L 267.694242 243.666409 
L 268.11752 245.863099 
L 268.540799 246.425566 
L 268.964077 254.923574 
L 269.387356 251.744912 
L 269.810634 250.862915 
L 270.233913 254.76716 
L 270.657191 255.617626 
L 271.080469 253.631959 
L 271.503748 261.572156 
L 271.927026 261.643219 
L 272.350305 263.425635 
L 272.773583 266.640185 
L 273.196861 264.503438 
L 273.62014 267.175594 
L 274.043418 272.742786 
L 274.466697 273.159869 
L 274.889975 270.652452 
L 275.736532 276.961241 
L 276.15981 277.526016 
L 276.583089 279.543279 
L 277.006367 279.896812 
L 277.429646 283.853725 
L 277.852924 280.523329 
L 278.276202 284.25909 
L 278.699481 285.373025 
L 279.122759 280.694374 
L 279.546038 284.224552 
L 279.969316 285.94508 
L 280.392595 292.48294 
L 280.815873 285.415798 
L 281.239151 284.905194 
L 281.66243 282.73473 
L 282.085708 289.95525 
L 282.508987 288.65212 
L 282.932265 290.429079 
L 283.355543 285.517825 
L 283.778822 288.987886 
L 284.2021 290.256793 
L 284.625379 291.022443 
L 285.048657 290.517449 
L 285.471936 286.55181 
L 285.895214 286.163226 
L 286.318492 289.139815 
L 286.741771 288.639214 
L 287.165049 290.523224 
L 287.588328 284.100298 
L 288.011606 284.121634 
L 288.434884 284.628726 
L 288.858163 284.300571 
L 289.281441 284.241945 
L 289.70472 280.75573 
L 290.127998 284.260851 
L 291.821112 274.35622 
L 292.24439 274.972315 
L 293.090947 271.361522 
L 293.514225 275.139411 
L 293.937504 269.66921 
L 294.360782 267.249465 
L 294.784061 262.466565 
L 295.207339 267.3796 
L 295.630618 259.982011 
L 296.053896 260.286528 
L 296.900453 252.727479 
L 297.323731 256.474598 
L 297.74701 256.350563 
L 298.170288 251.543419 
L 298.593566 254.020799 
L 299.016845 247.073895 
L 299.440123 244.534418 
L 299.863402 243.988418 
L 300.709959 238.390483 
L 301.556515 234.016474 
L 301.979794 233.568381 
L 302.403072 226.96313 
L 302.826351 228.094308 
L 303.249629 222.431038 
L 303.672907 220.538944 
L 304.096186 221.068265 
L 304.519464 210.311178 
L 304.942743 216.171073 
L 305.366021 206.901026 
L 305.7893 209.159621 
L 306.212578 206.02368 
L 306.635856 204.056948 
L 307.059135 202.837151 
L 307.482413 193.663473 
L 307.905692 196.353149 
L 308.32897 192.326765 
L 308.752248 191.474276 
L 309.175527 184.812185 
L 309.598805 180.727874 
L 310.022084 179.722069 
L 310.445362 178.426899 
L 310.868641 172.302643 
L 311.291919 172.121552 
L 311.715197 165.38305 
L 312.138476 168.890759 
L 312.561754 161.196783 
L 312.985033 163.718997 
L 313.408311 154.082156 
L 313.831589 155.948796 
L 315.101425 144.424163 
L 315.524703 142.627968 
L 315.947982 138.108014 
L 316.37126 138.063142 
L 316.794538 134.739651 
L 317.217817 133.650237 
L 317.641095 128.684954 
L 318.064374 129.116871 
L 318.487652 124.049124 
L 318.91093 122.510114 
L 319.334209 118.549476 
L 319.757487 117.862676 
L 320.180766 112.633828 
L 320.604044 113.868359 
L 321.450601 110.636084 
L 321.873879 102.935716 
L 322.297158 105.518496 
L 322.720436 103.528954 
L 324.41355 88.706607 
L 324.836828 87.59147 
L 325.260107 89.487182 
L 325.683385 89.186169 
L 326.106664 86.688156 
L 326.529942 82.365945 
L 326.95322 81.529261 
L 327.376499 75.599708 
L 327.799777 79.186311 
L 328.223056 73.022553 
L 328.646334 75.742195 
L 329.069612 74.907083 
L 330.762726 66.735022 
L 331.186005 68.443603 
L 331.609283 66.752575 
L 332.032561 67.860935 
L 332.45584 65.364128 
L 332.879118 58.905343 
L 333.302397 59.240712 
L 333.725675 62.059497 
L 334.148953 61.159725 
L 334.572232 61.226959 
L 334.99551 65.522455 
L 335.418789 58.728583 
L 335.842067 57.280234 
L 336.688624 64.216901 
L 337.111902 61.211739 
L 337.535181 64.653684 
L 337.958459 60.860303 
L 338.381738 61.606703 
L 338.805016 58.192296 
L 339.228294 57.263917 
L 340.074851 59.809096 
L 340.49813 58.876229 
L 340.921408 57.272073 
L 341.344686 63.10912 
L 341.767965 62.078092 
L 342.191243 62.032843 
L 342.614522 59.509755 
L 343.0378 67.9835 
L 343.461079 63.104317 
L 343.884357 68.417552 
L 344.307635 64.972247 
L 344.730914 64.571324 
L 345.154192 69.876247 
L 345.577471 73.407409 
L 346.000749 74.939083 
L 346.424027 68.869143 
L 346.847306 78.473928 
L 347.270584 79.991674 
L 347.693863 74.235018 
L 348.117141 83.251067 
L 348.54042 81.091507 
L 349.810255 83.918735 
L 350.233533 86.498152 
L 350.656812 87.956184 
L 351.503368 92.134465 
L 351.926647 98.902668 
L 352.349925 96.745096 
L 353.196482 99.287684 
L 353.619761 104.664384 
L 354.043039 106.233909 
L 354.466317 109.722075 
L 354.889596 109.356044 
L 355.312874 115.253095 
L 355.736153 115.935797 
L 356.159431 118.237901 
L 356.582709 121.473725 
L 357.005988 119.299685 
L 357.429266 123.842564 
L 357.852545 132.871996 
L 358.275823 133.109718 
L 358.699102 132.542962 
L 359.545658 140.716212 
L 359.968937 136.806725 
L 360.392215 139.667513 
L 360.815494 152.430071 
L 361.238772 148.176376 
L 361.66205 152.161537 
L 362.085329 153.006496 
L 362.508607 157.350052 
L 362.931886 155.722175 
L 364.201721 173.248037 
L 364.624999 171.798238 
L 365.048278 168.40069 
L 365.471556 177.420033 
L 365.894835 181.692066 
L 366.318113 183.443874 
L 367.587948 190.284967 
L 368.011227 195.781576 
L 368.434505 192.977804 
L 368.857784 199.315919 
L 369.281062 202.850488 
L 369.70434 204.401396 
L 370.127619 205.501298 
L 370.550897 207.988663 
L 370.974176 213.334694 
L 371.820732 220.61366 
L 372.244011 220.565033 
L 372.667289 223.872052 
L 373.090568 223.08869 
L 373.513846 226.937022 
L 373.937125 228.769189 
L 374.360403 233.980852 
L 374.783681 241.697267 
L 375.20696 238.56431 
L 375.630238 238.045944 
L 376.053517 237.110197 
L 376.476795 245.789352 
L 376.900073 249.205011 
L 377.323352 250.347153 
L 377.74663 256.471928 
L 378.169909 257.174931 
L 379.439744 261.497536 
L 379.863022 268.691087 
L 380.286301 262.352403 
L 380.709579 263.98222 
L 381.979414 270.096098 
L 382.402693 270.223251 
L 382.825971 272.915436 
L 383.24925 279.493662 
L 383.672528 277.872488 
L 384.095807 277.137285 
L 384.942363 276.421163 
L 385.365642 288.186013 
L 385.78892 282.175814 
L 386.212199 284.766615 
L 386.635477 281.152635 
L 387.482034 290.543528 
L 388.328591 283.922378 
L 388.751869 290.587307 
L 389.175148 291.276054 
L 389.598426 285.257279 
L 390.021704 284.827719 
L 390.444983 295.488 
L 390.868261 291.136578 
L 391.29154 293.097711 
L 391.714818 293.077361 
L 392.138096 289.647056 
L 392.561375 289.731745 
L 392.984653 287.311032 
L 393.407932 289.864375 
L 393.83121 285.65699 
L 394.254489 292.752199 
L 394.677767 286.88413 
L 395.101045 289.510758 
L 395.524324 289.953758 
L 395.947602 287.661177 
L 396.370881 286.628013 
L 396.794159 288.258918 
L 397.217437 283.943872 
L 397.640716 284.362729 
L 398.063994 283.346655 
L 398.487273 283.518274 
L 398.487273 283.518274 
" style="fill:none;stroke:#ff7f0e;stroke-linecap:square;stroke-opacity:0.8;stroke-width:1.5;"/>
   </g>
   <g id="patch_3">
    <path d="M 57.6 307.584 
L 57.6 41.472 
" style="fill:none;stroke:#000000;stroke-linecap:square;stroke-linejoin:miter;stroke-width:0.8;"/>
   </g>
   <g id="patch_4">
    <path d="M 414.72 307.584 
L 414.72 41.472 
" style="fill:none;stroke:#000000;stroke-linecap:square;stroke-linejoin:miter;stroke-width:0.8;"/>
   </g>
   <g id="patch_5">
    <path d="M 57.6 307.584 
L 414.72 307.584 
" style="fill:none;stroke:#000000;stroke-linecap:square;stroke-linejoin:miter;stroke-width:0.8;"/>
   </g>
   <g id="patch_6">
    <path d="M 57.6 41.472 
L 414.72 41.472 
" style="fill:none;stroke:#000000;stroke-linecap:square;stroke-linejoin:miter;stroke-width:0.8;"/>
   </g>
  </g>
 </g>
 <defs>
  <clipPath id="pd96feb18a3">
   <rect height="266.112" width="357.12" x="57.6" y="41.472"/>
  </clipPath>
 </defs>
</svg>
