<?xml version="1.0" encoding="utf-8" standalone="no"?>
<!DOCTYPE svg PUBLIC "-//W3C//DTD SVG 1.1//EN"
  "http://www.w3.org/Graphics/SVG/1.1/DTD/svg11.dtd">
<!-- Created with matplotlib (https://matplotlib.org/) -->
<svg height="345.6pt" version="1.1" viewBox="0 0 460.8 345.6" width="460.8pt" xmlns="http://www.w3.org/2000/svg" xmlns:xlink="http://www.w3.org/1999/xlink">
 <metadata>
  <rdf:RDF xmlns:cc="http://creativecommons.org/ns#" xmlns:dc="http://purl.org/dc/elements/1.1/" xmlns:rdf="http://www.w3.org/1999/02/22-rdf-syntax-ns#">
   <cc:Work>
    <dc:type rdf:resource="http://purl.org/dc/dcmitype/StillImage"/>
    <dc:date>2020-10-17T10:10:37.626631</dc:date>
    <dc:format>image/svg+xml</dc:format>
    <dc:creator>
     <cc:Agent>
      <dc:title>Matplotlib v3.3.1, https://matplotlib.org/</dc:title>
     </cc:Agent>
    </dc:creator>
   </cc:Work>
  </rdf:RDF>
 </metadata>
 <defs>
  <style type="text/css">*{stroke-linecap:butt;stroke-linejoin:round;}</style>
 </defs>
 <g id="figure_1">
  <g id="patch_1">
   <path d="M 0 345.6 
L 460.8 345.6 
L 460.8 0 
L 0 0 
z
" style="fill:#ffffff;"/>
  </g>
  <g id="axes_1">
   <g id="patch_2">
    <path d="M 57.6 307.584 
L 414.72 307.584 
L 414.72 41.472 
L 57.6 41.472 
z
" style="fill:#ffffff;"/>
   </g>
   <g id="matplotlib.axis_1">
    <g id="xtick_1">
     <g id="line2d_1">
      <defs>
       <path d="M 0 0 
L 0 3.5 
" id="m4d4c20a08e" style="stroke:#000000;stroke-width:0.8;"/>
      </defs>
      <g>
       <use style="stroke:#000000;stroke-width:0.8;" x="73.832727" xlink:href="#m4d4c20a08e" y="307.584"/>
      </g>
     </g>
     <g id="text_1">
      <!-- 0.00 -->
      <g transform="translate(62.699915 322.182437)scale(0.1 -0.1)">
       <defs>
        <path d="M 31.78125 66.40625 
Q 24.171875 66.40625 20.328125 58.90625 
Q 16.5 51.421875 16.5 36.375 
Q 16.5 21.390625 20.328125 13.890625 
Q 24.171875 6.390625 31.78125 6.390625 
Q 39.453125 6.390625 43.28125 13.890625 
Q 47.125 21.390625 47.125 36.375 
Q 47.125 51.421875 43.28125 58.90625 
Q 39.453125 66.40625 31.78125 66.40625 
z
M 31.78125 74.21875 
Q 44.046875 74.21875 50.515625 64.515625 
Q 56.984375 54.828125 56.984375 36.375 
Q 56.984375 17.96875 50.515625 8.265625 
Q 44.046875 -1.421875 31.78125 -1.421875 
Q 19.53125 -1.421875 13.0625 8.265625 
Q 6.59375 17.96875 6.59375 36.375 
Q 6.59375 54.828125 13.0625 64.515625 
Q 19.53125 74.21875 31.78125 74.21875 
z
" id="DejaVuSans-48"/>
        <path d="M 10.6875 12.40625 
L 21 12.40625 
L 21 0 
L 10.6875 0 
z
" id="DejaVuSans-46"/>
       </defs>
       <use xlink:href="#DejaVuSans-48"/>
       <use x="63.623047" xlink:href="#DejaVuSans-46"/>
       <use x="95.410156" xlink:href="#DejaVuSans-48"/>
       <use x="159.033203" xlink:href="#DejaVuSans-48"/>
      </g>
     </g>
    </g>
    <g id="xtick_2">
     <g id="line2d_2">
      <g>
       <use style="stroke:#000000;stroke-width:0.8;" x="138.848292" xlink:href="#m4d4c20a08e" y="307.584"/>
      </g>
     </g>
     <g id="text_2">
      <!-- 0.01 -->
      <g transform="translate(127.71548 322.182437)scale(0.1 -0.1)">
       <defs>
        <path d="M 12.40625 8.296875 
L 28.515625 8.296875 
L 28.515625 63.921875 
L 10.984375 60.40625 
L 10.984375 69.390625 
L 28.421875 72.90625 
L 38.28125 72.90625 
L 38.28125 8.296875 
L 54.390625 8.296875 
L 54.390625 0 
L 12.40625 0 
z
" id="DejaVuSans-49"/>
       </defs>
       <use xlink:href="#DejaVuSans-48"/>
       <use x="63.623047" xlink:href="#DejaVuSans-46"/>
       <use x="95.410156" xlink:href="#DejaVuSans-48"/>
       <use x="159.033203" xlink:href="#DejaVuSans-49"/>
      </g>
     </g>
    </g>
    <g id="xtick_3">
     <g id="line2d_3">
      <g>
       <use style="stroke:#000000;stroke-width:0.8;" x="203.863857" xlink:href="#m4d4c20a08e" y="307.584"/>
      </g>
     </g>
     <g id="text_3">
      <!-- 0.02 -->
      <g transform="translate(192.731044 322.182437)scale(0.1 -0.1)">
       <defs>
        <path d="M 19.1875 8.296875 
L 53.609375 8.296875 
L 53.609375 0 
L 7.328125 0 
L 7.328125 8.296875 
Q 12.9375 14.109375 22.625 23.890625 
Q 32.328125 33.6875 34.8125 36.53125 
Q 39.546875 41.84375 41.421875 45.53125 
Q 43.3125 49.21875 43.3125 52.78125 
Q 43.3125 58.59375 39.234375 62.25 
Q 35.15625 65.921875 28.609375 65.921875 
Q 23.96875 65.921875 18.8125 64.3125 
Q 13.671875 62.703125 7.8125 59.421875 
L 7.8125 69.390625 
Q 13.765625 71.78125 18.9375 73 
Q 24.125 74.21875 28.421875 74.21875 
Q 39.75 74.21875 46.484375 68.546875 
Q 53.21875 62.890625 53.21875 53.421875 
Q 53.21875 48.921875 51.53125 44.890625 
Q 49.859375 40.875 45.40625 35.40625 
Q 44.1875 33.984375 37.640625 27.21875 
Q 31.109375 20.453125 19.1875 8.296875 
z
" id="DejaVuSans-50"/>
       </defs>
       <use xlink:href="#DejaVuSans-48"/>
       <use x="63.623047" xlink:href="#DejaVuSans-46"/>
       <use x="95.410156" xlink:href="#DejaVuSans-48"/>
       <use x="159.033203" xlink:href="#DejaVuSans-50"/>
      </g>
     </g>
    </g>
    <g id="xtick_4">
     <g id="line2d_4">
      <g>
       <use style="stroke:#000000;stroke-width:0.8;" x="268.879422" xlink:href="#m4d4c20a08e" y="307.584"/>
      </g>
     </g>
     <g id="text_4">
      <!-- 0.03 -->
      <g transform="translate(257.746609 322.182437)scale(0.1 -0.1)">
       <defs>
        <path d="M 40.578125 39.3125 
Q 47.65625 37.796875 51.625 33 
Q 55.609375 28.21875 55.609375 21.1875 
Q 55.609375 10.40625 48.1875 4.484375 
Q 40.765625 -1.421875 27.09375 -1.421875 
Q 22.515625 -1.421875 17.65625 -0.515625 
Q 12.796875 0.390625 7.625 2.203125 
L 7.625 11.71875 
Q 11.71875 9.328125 16.59375 8.109375 
Q 21.484375 6.890625 26.8125 6.890625 
Q 36.078125 6.890625 40.9375 10.546875 
Q 45.796875 14.203125 45.796875 21.1875 
Q 45.796875 27.640625 41.28125 31.265625 
Q 36.765625 34.90625 28.71875 34.90625 
L 20.21875 34.90625 
L 20.21875 43.015625 
L 29.109375 43.015625 
Q 36.375 43.015625 40.234375 45.921875 
Q 44.09375 48.828125 44.09375 54.296875 
Q 44.09375 59.90625 40.109375 62.90625 
Q 36.140625 65.921875 28.71875 65.921875 
Q 24.65625 65.921875 20.015625 65.03125 
Q 15.375 64.15625 9.8125 62.3125 
L 9.8125 71.09375 
Q 15.4375 72.65625 20.34375 73.4375 
Q 25.25 74.21875 29.59375 74.21875 
Q 40.828125 74.21875 47.359375 69.109375 
Q 53.90625 64.015625 53.90625 55.328125 
Q 53.90625 49.265625 50.4375 45.09375 
Q 46.96875 40.921875 40.578125 39.3125 
z
" id="DejaVuSans-51"/>
       </defs>
       <use xlink:href="#DejaVuSans-48"/>
       <use x="63.623047" xlink:href="#DejaVuSans-46"/>
       <use x="95.410156" xlink:href="#DejaVuSans-48"/>
       <use x="159.033203" xlink:href="#DejaVuSans-51"/>
      </g>
     </g>
    </g>
    <g id="xtick_5">
     <g id="line2d_5">
      <g>
       <use style="stroke:#000000;stroke-width:0.8;" x="333.894986" xlink:href="#m4d4c20a08e" y="307.584"/>
      </g>
     </g>
     <g id="text_5">
      <!-- 0.04 -->
      <g transform="translate(322.762174 322.182437)scale(0.1 -0.1)">
       <defs>
        <path d="M 37.796875 64.3125 
L 12.890625 25.390625 
L 37.796875 25.390625 
z
M 35.203125 72.90625 
L 47.609375 72.90625 
L 47.609375 25.390625 
L 58.015625 25.390625 
L 58.015625 17.1875 
L 47.609375 17.1875 
L 47.609375 0 
L 37.796875 0 
L 37.796875 17.1875 
L 4.890625 17.1875 
L 4.890625 26.703125 
z
" id="DejaVuSans-52"/>
       </defs>
       <use xlink:href="#DejaVuSans-48"/>
       <use x="63.623047" xlink:href="#DejaVuSans-46"/>
       <use x="95.410156" xlink:href="#DejaVuSans-48"/>
       <use x="159.033203" xlink:href="#DejaVuSans-52"/>
      </g>
     </g>
    </g>
    <g id="xtick_6">
     <g id="line2d_6">
      <g>
       <use style="stroke:#000000;stroke-width:0.8;" x="398.910551" xlink:href="#m4d4c20a08e" y="307.584"/>
      </g>
     </g>
     <g id="text_6">
      <!-- 0.05 -->
      <g transform="translate(387.777739 322.182437)scale(0.1 -0.1)">
       <defs>
        <path d="M 10.796875 72.90625 
L 49.515625 72.90625 
L 49.515625 64.59375 
L 19.828125 64.59375 
L 19.828125 46.734375 
Q 21.96875 47.46875 24.109375 47.828125 
Q 26.265625 48.1875 28.421875 48.1875 
Q 40.625 48.1875 47.75 41.5 
Q 54.890625 34.8125 54.890625 23.390625 
Q 54.890625 11.625 47.5625 5.09375 
Q 40.234375 -1.421875 26.90625 -1.421875 
Q 22.3125 -1.421875 17.546875 -0.640625 
Q 12.796875 0.140625 7.71875 1.703125 
L 7.71875 11.625 
Q 12.109375 9.234375 16.796875 8.0625 
Q 21.484375 6.890625 26.703125 6.890625 
Q 35.15625 6.890625 40.078125 11.328125 
Q 45.015625 15.765625 45.015625 23.390625 
Q 45.015625 31 40.078125 35.4375 
Q 35.15625 39.890625 26.703125 39.890625 
Q 22.75 39.890625 18.8125 39.015625 
Q 14.890625 38.140625 10.796875 36.28125 
z
" id="DejaVuSans-53"/>
       </defs>
       <use xlink:href="#DejaVuSans-48"/>
       <use x="63.623047" xlink:href="#DejaVuSans-46"/>
       <use x="95.410156" xlink:href="#DejaVuSans-48"/>
       <use x="159.033203" xlink:href="#DejaVuSans-53"/>
      </g>
     </g>
    </g>
   </g>
   <g id="matplotlib.axis_2">
    <g id="ytick_1">
     <g id="line2d_7">
      <defs>
       <path d="M 0 0 
L -3.5 0 
" id="m6c463c95b9" style="stroke:#000000;stroke-width:0.8;"/>
      </defs>
      <g>
       <use style="stroke:#000000;stroke-width:0.8;" x="57.6" xlink:href="#m6c463c95b9" y="279.772701"/>
      </g>
     </g>
     <g id="text_7">
      <!-- −300 -->
      <g transform="translate(23.132812 283.57192)scale(0.1 -0.1)">
       <defs>
        <path d="M 10.59375 35.5 
L 73.1875 35.5 
L 73.1875 27.203125 
L 10.59375 27.203125 
z
" id="DejaVuSans-8722"/>
       </defs>
       <use xlink:href="#DejaVuSans-8722"/>
       <use x="83.789062" xlink:href="#DejaVuSans-51"/>
       <use x="147.412109" xlink:href="#DejaVuSans-48"/>
       <use x="211.035156" xlink:href="#DejaVuSans-48"/>
      </g>
     </g>
    </g>
    <g id="ytick_2">
     <g id="line2d_8">
      <g>
       <use style="stroke:#000000;stroke-width:0.8;" x="57.6" xlink:href="#m6c463c95b9" y="244.578663"/>
      </g>
     </g>
     <g id="text_8">
      <!-- −200 -->
      <g transform="translate(23.132812 248.377882)scale(0.1 -0.1)">
       <use xlink:href="#DejaVuSans-8722"/>
       <use x="83.789062" xlink:href="#DejaVuSans-50"/>
       <use x="147.412109" xlink:href="#DejaVuSans-48"/>
       <use x="211.035156" xlink:href="#DejaVuSans-48"/>
      </g>
     </g>
    </g>
    <g id="ytick_3">
     <g id="line2d_9">
      <g>
       <use style="stroke:#000000;stroke-width:0.8;" x="57.6" xlink:href="#m6c463c95b9" y="209.384624"/>
      </g>
     </g>
     <g id="text_9">
      <!-- −100 -->
      <g transform="translate(23.132812 213.183843)scale(0.1 -0.1)">
       <use xlink:href="#DejaVuSans-8722"/>
       <use x="83.789062" xlink:href="#DejaVuSans-49"/>
       <use x="147.412109" xlink:href="#DejaVuSans-48"/>
       <use x="211.035156" xlink:href="#DejaVuSans-48"/>
      </g>
     </g>
    </g>
    <g id="ytick_4">
     <g id="line2d_10">
      <g>
       <use style="stroke:#000000;stroke-width:0.8;" x="57.6" xlink:href="#m6c463c95b9" y="174.190586"/>
      </g>
     </g>
     <g id="text_10">
      <!-- 0 -->
      <g transform="translate(44.2375 177.989805)scale(0.1 -0.1)">
       <use xlink:href="#DejaVuSans-48"/>
      </g>
     </g>
    </g>
    <g id="ytick_5">
     <g id="line2d_11">
      <g>
       <use style="stroke:#000000;stroke-width:0.8;" x="57.6" xlink:href="#m6c463c95b9" y="138.996548"/>
      </g>
     </g>
     <g id="text_11">
      <!-- 100 -->
      <g transform="translate(31.5125 142.795767)scale(0.1 -0.1)">
       <use xlink:href="#DejaVuSans-49"/>
       <use x="63.623047" xlink:href="#DejaVuSans-48"/>
       <use x="127.246094" xlink:href="#DejaVuSans-48"/>
      </g>
     </g>
    </g>
    <g id="ytick_6">
     <g id="line2d_12">
      <g>
       <use style="stroke:#000000;stroke-width:0.8;" x="57.6" xlink:href="#m6c463c95b9" y="103.802509"/>
      </g>
     </g>
     <g id="text_12">
      <!-- 200 -->
      <g transform="translate(31.5125 107.601728)scale(0.1 -0.1)">
       <use xlink:href="#DejaVuSans-50"/>
       <use x="63.623047" xlink:href="#DejaVuSans-48"/>
       <use x="127.246094" xlink:href="#DejaVuSans-48"/>
      </g>
     </g>
    </g>
    <g id="ytick_7">
     <g id="line2d_13">
      <g>
       <use style="stroke:#000000;stroke-width:0.8;" x="57.6" xlink:href="#m6c463c95b9" y="68.608471"/>
      </g>
     </g>
     <g id="text_13">
      <!-- 300 -->
      <g transform="translate(31.5125 72.40769)scale(0.1 -0.1)">
       <use xlink:href="#DejaVuSans-51"/>
       <use x="63.623047" xlink:href="#DejaVuSans-48"/>
       <use x="127.246094" xlink:href="#DejaVuSans-48"/>
      </g>
     </g>
    </g>
   </g>
   <g id="line2d_14">
    <path clip-path="url(#p6d2ab3014d)" d="M 73.832727 174.190586 
L 79.335347 136.719657 
L 82.298296 117.879836 
L 84.837966 103.031356 
L 86.954358 91.821675 
L 89.07075 81.850956 
L 90.763864 74.867905 
L 92.456978 68.84143 
L 93.726813 64.984605 
L 94.996648 61.719605 
L 96.266483 59.064123 
L 97.536319 57.032551 
L 98.382875 56.030364 
L 99.229432 55.312849 
L 100.075989 54.881735 
L 100.922546 54.738059 
L 101.769103 54.882168 
L 102.61566 55.313716 
L 103.462216 56.031662 
L 104.308773 57.034276 
L 105.15533 58.319143 
L 106.425165 60.768714 
L 107.695001 63.832956 
L 108.964836 67.495264 
L 110.234671 71.73579 
L 111.927785 78.24912 
L 113.620898 85.686462 
L 115.737291 96.172617 
L 117.853683 107.832291 
L 120.393353 123.124918 
L 123.356302 142.338862 
L 128.012365 174.199427 
L 133.514984 211.66991 
L 136.477933 230.509133 
L 139.017603 245.356917 
L 141.133995 256.5659 
L 143.250388 266.535824 
L 144.943501 273.518179 
L 146.636615 279.54391 
L 147.90645 283.40015 
L 149.176285 286.664546 
L 150.446121 289.319407 
L 151.715956 291.350345 
L 152.562513 292.352104 
L 153.40907 293.069189 
L 154.255626 293.499871 
L 155.102183 293.643113 
L 155.94874 293.498569 
L 156.795297 293.066589 
L 157.641854 292.348213 
L 158.488411 291.345171 
L 159.334967 290.05988 
L 160.604803 287.609685 
L 161.874638 284.544832 
L 163.144473 280.881933 
L 164.414308 276.640836 
L 166.107422 270.126785 
L 167.800536 262.688772 
L 169.916928 252.20186 
L 172.03332 240.54153 
L 174.57299 225.248262 
L 177.535939 206.033789 
L 182.192002 174.172904 
L 187.694621 136.702868 
L 190.65757 117.864243 
L 193.197241 103.017155 
L 195.313633 91.80887 
L 197.430025 81.83974 
L 199.123139 74.858083 
L 200.816252 68.833096 
L 202.086087 64.977441 
L 203.355923 61.713649 
L 204.625758 59.059409 
L 205.895593 57.029103 
L 206.74215 56.027772 
L 207.588707 55.311118 
L 208.435264 54.880869 
L 209.281821 54.738061 
L 210.128377 54.883038 
L 210.974934 55.315451 
L 211.821491 56.034258 
L 212.668048 57.037728 
L 213.514605 58.323442 
L 214.78444 60.774262 
L 216.054275 63.839724 
L 217.32411 67.503216 
L 218.593946 71.744882 
L 220.287059 78.259655 
L 221.980173 85.698338 
L 224.096565 96.186008 
L 226.212957 107.846994 
L 228.752628 123.140904 
L 231.715577 142.355904 
L 236.371639 174.217109 
L 241.874259 211.686699 
L 244.837208 230.524726 
L 247.376878 245.371118 
L 249.49327 256.578705 
L 251.609662 266.547039 
L 253.302776 273.528 
L 254.99589 279.552242 
L 256.265725 283.407312 
L 257.53556 286.670499 
L 258.805395 289.32412 
L 260.075231 291.353792 
L 260.921787 292.354696 
L 261.768344 293.070919 
L 262.614901 293.500735 
L 263.461458 293.643109 
L 264.308015 293.497698 
L 265.154572 293.064853 
L 266.001128 292.345615 
L 266.847685 291.341718 
L 267.694242 290.05558 
L 268.964077 287.604135 
L 270.233913 284.538063 
L 271.503748 280.87398 
L 272.773583 276.631743 
L 274.466697 270.116249 
L 276.15981 262.676895 
L 278.276202 252.188469 
L 280.392595 240.526826 
L 282.932265 225.232276 
L 285.895214 206.016747 
L 290.551277 174.155222 
L 296.053896 136.686079 
L 299.016845 117.848651 
L 301.556515 103.002955 
L 303.672907 91.796066 
L 305.7893 81.828526 
L 307.482413 74.848262 
L 309.175527 68.824765 
L 310.445362 64.97028 
L 311.715197 61.707697 
L 312.985033 59.054697 
L 314.254868 57.025658 
L 315.101425 56.025182 
L 315.947982 55.309389 
L 316.794538 54.880006 
L 317.641095 54.738066 
L 318.487652 54.88391 
L 319.334209 55.317189 
L 320.180766 56.036857 
L 321.027323 57.041182 
L 321.873879 58.327743 
L 323.143715 60.779813 
L 324.41355 63.846495 
L 325.683385 67.51117 
L 326.95322 71.753977 
L 328.646334 78.270192 
L 330.339448 85.710216 
L 332.45584 96.1994 
L 334.572232 107.861699 
L 337.111902 123.15689 
L 340.074851 142.372947 
L 344.730914 174.234791 
L 350.233533 211.703487 
L 353.196482 230.540317 
L 355.736153 245.385317 
L 357.852545 256.591507 
L 359.968937 266.558252 
L 361.66205 273.537819 
L 363.355164 279.560573 
L 364.624999 283.414473 
L 365.894835 286.676451 
L 367.16467 289.32883 
L 368.434505 291.357236 
L 369.281062 292.357285 
L 370.127619 293.072646 
L 370.974176 293.501597 
L 371.820732 293.643103 
L 372.667289 293.496825 
L 373.513846 293.063114 
L 374.360403 292.343014 
L 375.20696 291.338262 
L 376.053517 290.051278 
L 377.323352 287.598583 
L 378.593187 284.53129 
L 379.863022 280.866024 
L 381.132858 276.622647 
L 382.825971 270.105711 
L 384.519085 262.665016 
L 386.635477 252.175075 
L 388.751869 240.51212 
L 391.29154 225.216288 
L 394.254489 205.999704 
L 398.487273 177.069136 
L 398.487273 177.069136 
" style="fill:none;stroke:#1f77b4;stroke-linecap:square;stroke-width:1.5;"/>
   </g>
   <g id="line2d_15">
    <path clip-path="url(#p6d2ab3014d)" d="M 73.832727 174.190586 
L 74.679284 168.878208 
L 79.758625 134.865132 
L 82.721574 116.43101 
L 85.261245 101.962426 
L 87.377637 91.099988 
L 89.07075 83.291819 
L 90.763864 76.384683 
L 92.456978 70.391672 
L 94.150091 65.438975 
L 95.419927 62.397335 
L 96.689762 59.961709 
L 97.536319 58.683142 
L 98.382875 57.670783 
L 99.229432 56.95769 
L 100.075989 56.53155 
L 100.922546 56.376671 
L 101.769103 56.493401 
L 102.61566 56.927589 
L 103.462216 57.633586 
L 104.308773 58.608328 
L 105.578609 60.609118 
L 106.848444 63.225487 
L 108.118279 66.443337 
L 109.388114 70.245335 
L 110.65795 74.611035 
L 112.351063 81.263128 
L 114.467455 90.841361 
L 116.583847 101.687482 
L 118.700239 113.623842 
L 121.23991 129.133139 
L 124.626137 151.28312 
L 136.054654 227.449751 
L 138.594325 242.370881 
L 140.710717 253.692232 
L 142.827109 263.826074 
L 144.520223 270.975382 
L 146.213336 277.189821 
L 147.90645 282.415429 
L 149.176285 285.659985 
L 150.446121 288.30383 
L 151.715956 290.332644 
L 152.985791 291.721619 
L 153.832348 292.291161 
L 154.678905 292.575956 
L 155.525462 292.589237 
L 156.372018 292.329715 
L 157.218575 291.752889 
L 158.065132 290.906549 
L 158.911689 289.792517 
L 160.181524 287.584264 
L 161.451359 284.764795 
L 162.721195 281.349311 
L 163.99103 277.356193 
L 165.260865 272.806931 
L 166.953979 265.928319 
L 168.647093 258.156164 
L 170.763485 247.315033 
L 173.303155 232.868451 
L 175.842826 217.174914 
L 179.229053 194.864332 
L 189.387735 126.787785 
L 192.350684 109.007072 
L 194.890354 95.292789 
L 197.006746 85.154487 
L 198.69986 78.022768 
L 200.392974 71.796802 
L 202.086087 66.577834 
L 203.355923 63.339043 
L 204.625758 60.701262 
L 205.472315 59.278514 
L 206.318872 58.125582 
L 207.165428 57.282156 
L 208.011985 56.708322 
L 208.858542 56.405309 
L 209.705099 56.39415 
L 210.551656 56.681912 
L 211.398213 57.240548 
L 212.244769 58.068853 
L 213.514605 59.863472 
L 214.78444 62.277619 
L 216.054275 65.298251 
L 217.32411 68.909081 
L 218.593946 73.090664 
L 220.287059 79.499431 
L 221.980173 86.856592 
L 223.673287 95.031405 
L 225.789679 106.334955 
L 228.329349 121.223766 
L 231.292298 140.038692 
L 235.525082 168.522825 
L 242.297537 214.127267 
L 245.260486 232.561732 
L 247.800156 247.027071 
L 249.916549 257.891937 
L 251.609662 265.702189 
L 253.302776 272.608513 
L 254.99589 278.591365 
L 256.265725 282.423082 
L 257.53556 285.664979 
L 258.805395 288.297093 
L 260.075231 290.313697 
L 260.921787 291.324724 
L 261.768344 292.027801 
L 262.614901 292.460557 
L 263.461458 292.622074 
L 264.308015 292.488815 
L 265.154572 292.059713 
L 266.001128 291.360308 
L 266.847685 290.392082 
L 268.11752 288.38879 
L 269.387356 285.769971 
L 270.657191 282.549763 
L 271.927026 278.745537 
L 273.62014 272.815422 
L 275.313254 265.922261 
L 277.006367 258.148922 
L 279.122759 247.310135 
L 281.239151 235.365926 
L 283.778822 219.860998 
L 287.165049 197.709664 
L 298.170288 124.13654 
L 301.133237 106.61894 
L 303.249629 95.294713 
L 305.366021 85.157255 
L 307.059135 78.016679 
L 308.752248 71.790707 
L 310.445362 66.574907 
L 311.715197 63.332488 
L 312.985033 60.690887 
L 314.254868 58.664352 
L 315.101425 57.674551 
L 315.947982 56.953397 
L 316.794538 56.502435 
L 317.641095 56.364953 
L 318.487652 56.504568 
L 319.334209 56.915476 
L 320.180766 57.606413 
L 321.027323 58.603747 
L 321.873879 59.867418 
L 322.720436 61.394727 
L 323.990271 64.216415 
L 325.260107 67.634027 
L 326.529942 71.629127 
L 328.223056 77.807057 
L 329.916169 84.932618 
L 332.032561 95.028661 
L 334.148953 106.321668 
L 336.688624 121.220753 
L 339.651573 140.032648 
L 343.884357 168.518463 
L 350.656812 214.12029 
L 353.619761 232.558728 
L 356.159431 247.029473 
L 358.275823 257.890033 
L 359.968937 265.690992 
L 361.66205 272.604152 
L 363.355164 278.589423 
L 365.048278 283.548308 
L 366.318113 286.59137 
L 367.587948 289.028487 
L 368.434505 290.302374 
L 369.281062 291.309982 
L 370.127619 292.03558 
L 370.974176 292.456934 
L 371.820732 292.607007 
L 372.667289 292.485472 
L 373.513846 292.063877 
L 374.360403 291.35309 
L 375.20696 290.373627 
L 376.053517 289.127549 
L 377.323352 286.710891 
L 378.593187 283.687806 
L 379.863022 280.074623 
L 381.556136 274.386788 
L 383.24925 267.725311 
L 384.942363 260.166104 
L 387.058755 249.554765 
L 389.175148 237.828294 
L 391.714818 222.520934 
L 395.101045 200.540143 
L 398.487273 177.559303 
L 398.487273 177.559303 
" style="fill:none;stroke:#ff7f0e;stroke-linecap:square;stroke-width:2;"/>
   </g>
   <g id="line2d_16">
    <path clip-path="url(#p6d2ab3014d)" d="M 73.832727 172.928405 
L 74.256006 170.849721 
L 74.679284 169.790694 
L 75.102563 163.92541 
L 75.525841 163.924481 
L 75.949119 159.744791 
L 76.372398 157.700897 
L 76.795676 152.20755 
L 77.218955 150.973823 
L 77.642233 145.740592 
L 78.065511 146.132701 
L 78.48879 142.571826 
L 78.912068 137.768167 
L 79.335347 137.394471 
L 79.758625 136.08628 
L 80.181904 131.95276 
L 80.605182 131.171502 
L 81.02846 125.261869 
L 81.451739 124.911129 
L 81.875017 120.430422 
L 82.298296 119.720987 
L 82.721574 114.666319 
L 83.144852 114.258704 
L 83.568131 112.882537 
L 83.991409 106.865348 
L 84.414688 104.235709 
L 84.837966 105.805674 
L 85.261245 101.460034 
L 85.684523 102.62321 
L 86.107801 94.840719 
L 86.53108 99.099121 
L 86.954358 94.834625 
L 87.377637 91.982407 
L 87.800915 89.893451 
L 88.224193 86.148546 
L 88.647472 86.809027 
L 89.07075 80.639874 
L 89.494029 79.683276 
L 89.917307 79.197304 
L 90.340586 79.079164 
L 90.763864 74.971206 
L 91.187142 72.892525 
L 92.033699 73.341905 
L 92.456978 69.552986 
L 92.880256 70.146234 
L 93.303534 68.011223 
L 93.726813 68.860676 
L 94.150091 64.517375 
L 94.57337 63.008382 
L 94.996648 63.861607 
L 95.419927 60.053775 
L 95.843205 62.4256 
L 96.266483 62.955633 
L 96.689762 58.658133 
L 97.11304 60.260753 
L 97.536319 56.099849 
L 97.959597 58.953141 
L 98.382875 56.902544 
L 98.806154 55.496873 
L 99.229432 58.172773 
L 99.652711 56.299406 
L 100.075989 55.063052 
L 100.499268 54.720356 
L 100.922546 53.888844 
L 101.345824 53.568 
L 101.769103 56.883051 
L 102.192381 57.902366 
L 102.61566 56.83398 
L 103.038938 57.40086 
L 103.462216 58.463955 
L 103.885495 58.638864 
L 104.308773 58.071776 
L 104.732052 59.881764 
L 105.578609 60.773451 
L 106.001887 60.492871 
L 106.425165 61.748475 
L 106.848444 64.838131 
L 107.271722 63.815129 
L 107.695001 65.023425 
L 108.118279 63.844254 
L 108.541557 66.615184 
L 108.964836 68.423151 
L 109.388114 68.461285 
L 109.811393 70.468474 
L 110.234671 70.87608 
L 110.65795 74.178051 
L 111.081228 74.954323 
L 111.927785 82.062051 
L 112.774342 84.091541 
L 113.19762 84.458363 
L 113.620898 85.953401 
L 114.044177 91.567745 
L 114.467455 88.801682 
L 115.737291 98.080211 
L 116.160569 97.328162 
L 116.583847 100.170657 
L 117.007126 100.905086 
L 117.430404 108.855145 
L 117.853683 108.311558 
L 118.276961 109.968425 
L 118.700239 112.7835 
L 119.123518 117.649468 
L 119.546796 117.937674 
L 119.970075 124.1546 
L 120.393353 123.725783 
L 121.23991 131.075687 
L 121.663188 130.774966 
L 122.509745 138.932075 
L 122.933024 138.726535 
L 123.356302 141.93909 
L 123.77958 150.00517 
L 124.202859 145.298399 
L 125.049416 155.157393 
L 125.472694 155.941762 
L 126.319251 162.289661 
L 126.742529 164.44435 
L 127.589086 174.615007 
L 128.012365 174.380136 
L 128.435643 176.827392 
L 128.858921 180.966305 
L 129.2822 179.551717 
L 129.705478 185.469772 
L 130.128757 183.838723 
L 130.975314 196.482938 
L 131.398592 197.626035 
L 131.82187 197.950678 
L 132.245149 204.104898 
L 132.668427 206.056524 
L 133.091706 210.94236 
L 133.514984 213.003117 
L 133.938262 217.344047 
L 134.361541 218.438909 
L 134.784819 218.152184 
L 135.208098 224.448409 
L 135.631376 222.366931 
L 136.054654 226.169033 
L 136.477933 231.566606 
L 136.901211 232.220648 
L 137.32449 234.299666 
L 137.747768 242.129944 
L 138.171047 240.668199 
L 138.594325 240.0451 
L 139.017603 247.29253 
L 139.440882 247.914045 
L 140.287439 251.360025 
L 140.710717 256.873793 
L 141.133995 256.068772 
L 141.557274 258.856639 
L 142.403831 263.206199 
L 142.827109 266.374497 
L 143.250388 265.305751 
L 144.096944 268.625941 
L 144.520223 274.89272 
L 144.943501 272.30215 
L 145.36678 275.930247 
L 145.790058 276.14498 
L 146.213336 275.165299 
L 146.636615 279.03235 
L 147.059893 281.233516 
L 147.483172 278.291359 
L 147.90645 282.381788 
L 148.329729 284.200101 
L 148.753007 284.215246 
L 149.599564 289.165666 
L 150.022842 287.767947 
L 150.446121 289.249566 
L 150.869399 286.363401 
L 151.292677 287.157708 
L 152.139234 292.961166 
L 152.562513 290.426859 
L 152.985791 293.625159 
L 153.40907 290.252653 
L 153.832348 288.426111 
L 154.255626 292.578048 
L 154.678905 292.358411 
L 155.102183 292.563377 
L 155.525462 295.431354 
L 155.94874 294.333754 
L 156.372018 292.059515 
L 156.795297 293.58614 
L 157.641854 291.082493 
L 158.065132 290.764116 
L 158.488411 288.530128 
L 158.911689 291.102817 
L 159.334967 291.982497 
L 159.758246 286.614002 
L 160.181524 288.619965 
L 160.604803 285.917878 
L 161.028081 284.462131 
L 161.451359 288.460094 
L 161.874638 288.04952 
L 162.297916 284.735762 
L 162.721195 278.360204 
L 163.144473 279.342125 
L 164.837587 273.247643 
L 165.260865 273.35952 
L 165.684144 274.192486 
L 166.107422 270.209456 
L 166.5307 269.105891 
L 166.953979 264.701322 
L 167.377257 264.327823 
L 167.800536 266.382395 
L 168.223814 259.826683 
L 168.647093 258.846855 
L 169.070371 258.212056 
L 169.493649 255.575399 
L 169.916928 250.57443 
L 170.340206 249.125181 
L 171.610041 238.904064 
L 172.03332 240.420012 
L 172.879877 236.804269 
L 173.726434 228.458721 
L 174.149712 225.84108 
L 174.57299 225.40196 
L 174.996269 222.133542 
L 175.419547 221.530784 
L 175.842826 214.219022 
L 176.266104 213.893988 
L 177.112661 207.661185 
L 177.535939 206.523212 
L 178.382496 197.859128 
L 178.805775 199.596836 
L 179.229053 196.57343 
L 179.652331 189.963836 
L 180.07561 186.716579 
L 180.498888 187.689944 
L 180.922167 182.675467 
L 181.345445 183.791148 
L 181.768723 178.435485 
L 182.192002 177.242899 
L 182.61528 169.413732 
L 183.038559 169.328452 
L 183.461837 162.82236 
L 183.885116 164.644157 
L 184.308394 157.767983 
L 184.731672 157.97537 
L 185.154951 156.952639 
L 185.578229 152.549095 
L 186.001508 149.709976 
L 186.424786 145.229944 
L 186.848064 146.511944 
L 187.271343 143.793528 
L 188.1179 134.78973 
L 188.541178 128.952739 
L 188.964457 129.790194 
L 189.387735 128.444887 
L 189.811013 123.673355 
L 190.234292 121.567029 
L 190.65757 121.76383 
L 191.080849 113.905922 
L 191.504127 111.052922 
L 191.927405 111.926965 
L 192.350684 107.379334 
L 192.773962 107.714 
L 193.620519 103.038696 
L 194.043798 99.452512 
L 194.467076 99.172766 
L 194.890354 93.90778 
L 195.313633 95.220499 
L 195.736911 90.109462 
L 196.16019 87.710239 
L 196.583468 86.284046 
L 197.006746 86.418104 
L 197.430025 84.678076 
L 197.853303 80.134502 
L 198.276582 82.473442 
L 198.69986 77.57841 
L 199.123139 75.933935 
L 199.546417 72.788991 
L 199.969695 76.348194 
L 200.392974 72.965733 
L 200.816252 72.542934 
L 201.662809 66.441578 
L 202.086087 66.367455 
L 202.509366 67.080757 
L 202.932644 63.377341 
L 203.355923 61.979909 
L 203.779201 65.239158 
L 204.20248 61.962817 
L 204.625758 63.107658 
L 205.049036 56.624884 
L 205.472315 60.358971 
L 206.318872 56.938295 
L 206.74215 57.166696 
L 207.165428 58.874331 
L 207.588707 56.659565 
L 208.011985 56.873135 
L 208.435264 55.207043 
L 208.858542 56.399385 
L 209.281821 58.253069 
L 209.705099 56.610486 
L 210.128377 57.844309 
L 210.551656 55.880079 
L 210.974934 57.966922 
L 211.398213 58.044474 
L 211.821491 57.931987 
L 212.244769 57.280313 
L 212.668048 59.704936 
L 213.091326 58.893252 
L 213.937883 59.931409 
L 214.361162 59.899422 
L 214.78444 63.718149 
L 215.207718 65.411001 
L 216.054275 65.553402 
L 216.900832 69.356157 
L 217.32411 68.021746 
L 217.747389 67.693064 
L 218.170667 73.486059 
L 218.593946 73.681719 
L 219.017224 70.636979 
L 219.440503 75.792858 
L 220.287059 79.194365 
L 220.710338 81.820075 
L 221.133616 81.14951 
L 221.556895 86.060675 
L 221.980173 87.005939 
L 222.403451 88.274954 
L 222.82673 88.095479 
L 223.250008 94.660094 
L 223.673287 96.452833 
L 224.096565 95.626438 
L 224.943122 103.171153 
L 225.3664 103.216239 
L 225.789679 107.574863 
L 226.212957 106.031333 
L 226.636236 109.465781 
L 227.059514 115.331737 
L 227.906071 117.13748 
L 228.329349 123.294566 
L 228.752628 122.346837 
L 229.175906 125.226729 
L 229.599185 132.843964 
L 230.022463 131.617843 
L 230.445741 135.608323 
L 230.86902 135.06536 
L 231.292298 138.482783 
L 231.715577 144.358494 
L 232.562133 147.818696 
L 232.985412 153.386189 
L 233.40869 154.480667 
L 233.831969 157.673726 
L 234.255247 159.759384 
L 234.678526 164.548805 
L 235.525082 169.521774 
L 235.948361 172.464153 
L 236.371639 173.934601 
L 236.794918 178.891419 
L 237.218196 178.042856 
L 238.488031 189.249075 
L 238.91131 190.347916 
L 239.334588 192.813171 
L 239.757867 198.836374 
L 240.181145 201.040828 
L 240.604423 204.64158 
L 241.027702 204.299135 
L 241.45098 207.110748 
L 241.874259 212.513809 
L 242.297537 214.973081 
L 242.720815 214.849291 
L 243.144094 217.244137 
L 243.567372 223.394568 
L 243.990651 222.19868 
L 244.413929 230.165947 
L 244.837208 230.904718 
L 245.260486 234.829288 
L 245.683764 233.931488 
L 246.107043 238.979581 
L 246.530321 239.645526 
L 246.9536 244.445794 
L 247.376878 245.410641 
L 247.800156 249.700301 
L 248.223435 251.752738 
L 248.646713 250.281826 
L 249.069992 255.651757 
L 249.49327 254.301177 
L 250.339827 261.610937 
L 250.763105 261.589046 
L 251.186384 260.609701 
L 251.609662 267.656949 
L 252.032941 267.087722 
L 252.456219 269.154254 
L 252.879497 270.565131 
L 253.302776 274.644439 
L 253.726054 275.338353 
L 254.149333 276.750817 
L 254.572611 275.197538 
L 254.99589 280.553702 
L 255.419168 279.568917 
L 255.842446 281.701766 
L 256.265725 280.221827 
L 256.689003 286.127498 
L 257.112282 282.040778 
L 257.53556 282.58598 
L 257.958838 286.472003 
L 258.382117 286.720503 
L 258.805395 285.697183 
L 259.228674 289.741352 
L 259.651952 288.170445 
L 260.075231 291.714735 
L 260.498509 291.284611 
L 260.921787 289.143445 
L 261.345066 292.560715 
L 261.768344 290.013419 
L 262.191623 292.786548 
L 262.614901 291.78427 
L 263.038179 289.433273 
L 263.461458 292.316788 
L 263.884736 293.378231 
L 264.308015 292.116994 
L 264.731293 294.407229 
L 265.57785 289.93153 
L 266.001128 295.488 
L 266.424407 289.161758 
L 266.847685 292.750376 
L 267.270964 290.112846 
L 267.694242 285.971253 
L 268.11752 286.89856 
L 268.540799 287.328358 
L 268.964077 288.431174 
L 269.387356 287.475696 
L 269.810634 282.532598 
L 270.233913 285.403729 
L 270.657191 280.386426 
L 271.080469 278.588819 
L 271.503748 279.048082 
L 271.927026 276.469143 
L 272.350305 279.621136 
L 272.773583 278.994739 
L 273.196861 270.54171 
L 273.62014 272.040502 
L 274.043418 267.800611 
L 274.466697 271.279715 
L 274.889975 270.498129 
L 275.736532 264.675079 
L 276.15981 262.738654 
L 276.583089 261.451912 
L 277.006367 257.277907 
L 277.852924 254.661607 
L 278.276202 254.065992 
L 278.699481 249.215167 
L 279.122759 248.501844 
L 279.546038 246.249269 
L 279.969316 241.905349 
L 280.392595 242.303236 
L 280.815873 240.202702 
L 281.239151 233.792146 
L 281.66243 234.283233 
L 282.508987 228.59654 
L 282.932265 224.887192 
L 283.355543 224.013411 
L 283.778822 219.541816 
L 284.2021 219.13087 
L 284.625379 215.189297 
L 285.048657 209.854954 
L 285.471936 207.538185 
L 285.895214 204.333481 
L 286.318492 205.463253 
L 286.741771 199.366206 
L 287.165049 197.184165 
L 287.588328 195.825441 
L 288.011606 193.570272 
L 288.858163 186.760786 
L 289.281441 183.459435 
L 289.70472 178.319947 
L 290.127998 176.525237 
L 290.551277 175.525393 
L 290.974555 173.169169 
L 291.397833 166.880232 
L 291.821112 166.944055 
L 292.24439 164.824556 
L 292.667669 157.738093 
L 293.090947 160.263665 
L 293.937504 153.004025 
L 294.360782 150.931371 
L 294.784061 146.54063 
L 295.207339 144.227477 
L 295.630618 144.449961 
L 296.053896 136.907133 
L 297.323731 127.446626 
L 297.74701 122.675941 
L 298.170288 124.389122 
L 298.593566 119.384753 
L 299.016845 119.565929 
L 299.440123 115.77618 
L 299.863402 116.147366 
L 300.28668 113.4043 
L 300.709959 111.953587 
L 301.133237 104.2184 
L 301.556515 105.285784 
L 301.979794 97.670166 
L 302.403072 99.075171 
L 302.826351 98.791353 
L 303.249629 95.192783 
L 303.672907 94.02272 
L 304.096186 87.681116 
L 304.519464 88.433801 
L 304.942743 85.518752 
L 305.366021 86.005415 
L 305.7893 84.51484 
L 306.212578 81.206817 
L 306.635856 79.788838 
L 307.059135 77.416819 
L 307.482413 78.270747 
L 307.905692 70.928221 
L 308.32897 74.93685 
L 308.752248 74.363459 
L 309.598805 69.639766 
L 310.022084 68.573724 
L 310.868641 64.857372 
L 311.291919 65.888526 
L 311.715197 63.575662 
L 312.138476 63.415407 
L 312.561754 62.638122 
L 313.408311 60.510928 
L 313.831589 62.090968 
L 314.254868 60.117143 
L 314.678146 60.620347 
L 315.101425 59.59522 
L 315.524703 57.380645 
L 315.947982 57.965397 
L 316.37126 55.263902 
L 316.794538 57.4354 
L 317.217817 54.996617 
L 318.064374 58.127629 
L 318.487652 58.915672 
L 318.91093 56.150672 
L 319.334209 58.23253 
L 319.757487 54.967844 
L 320.180766 58.263027 
L 320.604044 56.687528 
L 321.027323 58.744471 
L 321.450601 59.25651 
L 321.873879 60.453591 
L 322.297158 58.961021 
L 322.720436 59.471715 
L 323.143715 64.251017 
L 323.566993 62.18519 
L 323.990271 64.797339 
L 324.41355 66.446791 
L 325.260107 66.771034 
L 326.529942 72.468518 
L 326.95322 72.255631 
L 327.376499 75.272906 
L 327.799777 77.446376 
L 328.223056 75.418695 
L 328.646334 81.934124 
L 329.069612 82.023668 
L 329.492891 82.983347 
L 329.916169 86.825609 
L 330.339448 87.984273 
L 330.762726 86.254215 
L 331.609283 94.80716 
L 332.032561 92.857361 
L 332.45584 98.995198 
L 332.879118 97.438708 
L 333.302397 99.902656 
L 333.725675 106.21143 
L 334.572232 109.555948 
L 334.99551 112.674496 
L 335.418789 113.331412 
L 335.842067 115.484796 
L 336.265346 120.90688 
L 336.688624 119.073594 
L 337.111902 124.871903 
L 337.535181 125.215584 
L 337.958459 128.62385 
L 338.381738 129.940545 
L 338.805016 134.740407 
L 339.228294 136.560664 
L 340.074851 143.661588 
L 340.49813 147.549513 
L 340.921408 148.806569 
L 341.344686 150.980427 
L 342.191243 157.802681 
L 343.0378 162.226969 
L 343.461079 166.612094 
L 343.884357 167.980788 
L 344.307635 172.724116 
L 344.730914 173.246187 
L 345.154192 175.211991 
L 345.577471 177.763287 
L 346.000749 184.824927 
L 346.424027 186.805919 
L 346.847306 189.478654 
L 347.270584 189.853194 
L 347.693863 191.108154 
L 348.117141 199.972716 
L 348.54042 201.112155 
L 348.963698 205.445847 
L 349.810255 207.052174 
L 351.503368 220.750768 
L 351.926647 222.167857 
L 352.349925 224.219297 
L 352.773204 227.133159 
L 353.196482 233.278155 
L 353.619761 232.190523 
L 354.043039 232.873677 
L 354.466317 234.502054 
L 354.889596 236.741584 
L 355.312874 245.219357 
L 355.736153 244.872553 
L 356.159431 246.545943 
L 356.582709 249.361919 
L 357.005988 248.15045 
L 357.429266 254.065719 
L 357.852545 255.885562 
L 358.275823 261.64465 
L 358.699102 260.243759 
L 359.968937 265.344779 
L 360.392215 268.723451 
L 362.085329 274.685655 
L 362.508607 275.660625 
L 362.931886 275.881686 
L 363.355164 279.429517 
L 363.778443 278.558169 
L 364.201721 285.544119 
L 364.624999 281.691958 
L 365.048278 283.065076 
L 365.471556 281.694623 
L 365.894835 284.749334 
L 366.318113 286.390563 
L 366.741391 285.598368 
L 367.16467 286.953922 
L 367.587948 286.837301 
L 368.011227 293.372628 
L 368.857784 289.554157 
L 369.281062 292.681034 
L 369.70434 292.704045 
L 370.127619 290.040042 
L 370.550897 290.09942 
L 370.974176 291.380168 
L 371.397454 294.788172 
L 371.820732 294.748314 
L 372.244011 290.455473 
L 372.667289 293.257886 
L 373.090568 292.634444 
L 373.513846 293.118781 
L 373.937125 293.224704 
L 374.360403 291.311835 
L 374.783681 291.185348 
L 375.20696 290.93506 
L 375.630238 290.371262 
L 376.053517 292.420108 
L 376.476795 286.917166 
L 376.900073 285.341897 
L 377.323352 284.974188 
L 377.74663 287.093982 
L 378.169909 286.515675 
L 378.593187 285.594484 
L 379.439744 281.864849 
L 379.863022 282.763813 
L 380.286301 277.859882 
L 380.709579 278.447062 
L 381.132858 275.573296 
L 381.556136 274.288769 
L 381.979414 272.185593 
L 382.402693 273.068687 
L 382.825971 269.987284 
L 383.672528 268.200189 
L 384.095807 262.576653 
L 384.942363 258.807675 
L 385.365642 258.432491 
L 385.78892 256.81547 
L 386.212199 256.562319 
L 386.635477 251.643853 
L 387.058755 248.118622 
L 387.482034 249.154603 
L 387.905312 243.121752 
L 388.328591 244.646549 
L 388.751869 243.112192 
L 389.598426 232.851997 
L 390.021704 230.71652 
L 390.444983 230.117211 
L 390.868261 229.861173 
L 391.714818 220.897127 
L 392.138096 220.420067 
L 392.561375 215.983549 
L 392.984653 213.723589 
L 393.407932 209.48006 
L 393.83121 207.625394 
L 394.677767 205.490241 
L 395.101045 202.579141 
L 395.524324 197.274608 
L 395.947602 193.68199 
L 396.370881 197.175044 
L 397.217437 182.390283 
L 397.640716 183.438085 
L 398.063994 181.884813 
L 398.487273 177.709472 
L 398.487273 177.709472 
" style="fill:none;stroke:#2ca02c;stroke-linecap:square;stroke-opacity:0.8;stroke-width:1.5;"/>
   </g>
   <g id="patch_3">
    <path d="M 57.6 307.584 
L 57.6 41.472 
" style="fill:none;stroke:#000000;stroke-linecap:square;stroke-linejoin:miter;stroke-width:0.8;"/>
   </g>
   <g id="patch_4">
    <path d="M 414.72 307.584 
L 414.72 41.472 
" style="fill:none;stroke:#000000;stroke-linecap:square;stroke-linejoin:miter;stroke-width:0.8;"/>
   </g>
   <g id="patch_5">
    <path d="M 57.6 307.584 
L 414.72 307.584 
" style="fill:none;stroke:#000000;stroke-linecap:square;stroke-linejoin:miter;stroke-width:0.8;"/>
   </g>
   <g id="patch_6">
    <path d="M 57.6 41.472 
L 414.72 41.472 
" style="fill:none;stroke:#000000;stroke-linecap:square;stroke-linejoin:miter;stroke-width:0.8;"/>
   </g>
  </g>
 </g>
 <defs>
  <clipPath id="p6d2ab3014d">
   <rect height="266.112" width="357.12" x="57.6" y="41.472"/>
  </clipPath>
 </defs>
</svg>
