<?xml version="1.0" encoding="utf-8" standalone="no"?>
<!DOCTYPE svg PUBLIC "-//W3C//DTD SVG 1.1//EN"
  "http://www.w3.org/Graphics/SVG/1.1/DTD/svg11.dtd">
<!-- Created with matplotlib (https://matplotlib.org/) -->
<svg height="345.6pt" version="1.1" viewBox="0 0 460.8 345.6" width="460.8pt" xmlns="http://www.w3.org/2000/svg" xmlns:xlink="http://www.w3.org/1999/xlink">
 <defs>
  <style type="text/css">
*{stroke-linecap:butt;stroke-linejoin:round;}
  </style>
 </defs>
 <g id="figure_1">
  <g id="patch_1">
   <path d="M 0 345.6 
L 460.8 345.6 
L 460.8 0 
L 0 0 
z
" style="fill:#ffffff;"/>
  </g>
  <g id="axes_1">
   <g id="patch_2">
    <path d="M 57.6 307.584 
L 414.72 307.584 
L 414.72 41.472 
L 57.6 41.472 
z
" style="fill:#ffffff;"/>
   </g>
   <g id="matplotlib.axis_1">
    <g id="xtick_1">
     <g id="line2d_1">
      <defs>
       <path d="M 0 0 
L 0 3.5 
" id="m203e0eeef7" style="stroke:#000000;stroke-width:0.8;"/>
      </defs>
      <g>
       <use style="stroke:#000000;stroke-width:0.8;" x="73.832727" xlink:href="#m203e0eeef7" y="307.584"/>
      </g>
     </g>
     <g id="text_1">
      <!-- 0.00 -->
      <defs>
       <path d="M 31.78125 66.40625 
Q 24.171875 66.40625 20.328125 58.90625 
Q 16.5 51.421875 16.5 36.375 
Q 16.5 21.390625 20.328125 13.890625 
Q 24.171875 6.390625 31.78125 6.390625 
Q 39.453125 6.390625 43.28125 13.890625 
Q 47.125 21.390625 47.125 36.375 
Q 47.125 51.421875 43.28125 58.90625 
Q 39.453125 66.40625 31.78125 66.40625 
z
M 31.78125 74.21875 
Q 44.046875 74.21875 50.515625 64.515625 
Q 56.984375 54.828125 56.984375 36.375 
Q 56.984375 17.96875 50.515625 8.265625 
Q 44.046875 -1.421875 31.78125 -1.421875 
Q 19.53125 -1.421875 13.0625 8.265625 
Q 6.59375 17.96875 6.59375 36.375 
Q 6.59375 54.828125 13.0625 64.515625 
Q 19.53125 74.21875 31.78125 74.21875 
z
" id="DejaVuSans-48"/>
       <path d="M 10.6875 12.40625 
L 21 12.40625 
L 21 0 
L 10.6875 0 
z
" id="DejaVuSans-46"/>
      </defs>
      <g transform="translate(53.793665 328.261187)scale(0.18 -0.18)">
       <use xlink:href="#DejaVuSans-48"/>
       <use x="63.623047" xlink:href="#DejaVuSans-46"/>
       <use x="95.410156" xlink:href="#DejaVuSans-48"/>
       <use x="159.033203" xlink:href="#DejaVuSans-48"/>
      </g>
     </g>
    </g>
    <g id="xtick_2">
     <g id="line2d_2">
      <g>
       <use style="stroke:#000000;stroke-width:0.8;" x="138.848292" xlink:href="#m203e0eeef7" y="307.584"/>
      </g>
     </g>
     <g id="text_2">
      <!-- 0.01 -->
      <defs>
       <path d="M 12.40625 8.296875 
L 28.515625 8.296875 
L 28.515625 63.921875 
L 10.984375 60.40625 
L 10.984375 69.390625 
L 28.421875 72.90625 
L 38.28125 72.90625 
L 38.28125 8.296875 
L 54.390625 8.296875 
L 54.390625 0 
L 12.40625 0 
z
" id="DejaVuSans-49"/>
      </defs>
      <g transform="translate(118.80923 328.261187)scale(0.18 -0.18)">
       <use xlink:href="#DejaVuSans-48"/>
       <use x="63.623047" xlink:href="#DejaVuSans-46"/>
       <use x="95.410156" xlink:href="#DejaVuSans-48"/>
       <use x="159.033203" xlink:href="#DejaVuSans-49"/>
      </g>
     </g>
    </g>
    <g id="xtick_3">
     <g id="line2d_3">
      <g>
       <use style="stroke:#000000;stroke-width:0.8;" x="203.863857" xlink:href="#m203e0eeef7" y="307.584"/>
      </g>
     </g>
     <g id="text_3">
      <!-- 0.02 -->
      <defs>
       <path d="M 19.1875 8.296875 
L 53.609375 8.296875 
L 53.609375 0 
L 7.328125 0 
L 7.328125 8.296875 
Q 12.9375 14.109375 22.625 23.890625 
Q 32.328125 33.6875 34.8125 36.53125 
Q 39.546875 41.84375 41.421875 45.53125 
Q 43.3125 49.21875 43.3125 52.78125 
Q 43.3125 58.59375 39.234375 62.25 
Q 35.15625 65.921875 28.609375 65.921875 
Q 23.96875 65.921875 18.8125 64.3125 
Q 13.671875 62.703125 7.8125 59.421875 
L 7.8125 69.390625 
Q 13.765625 71.78125 18.9375 73 
Q 24.125 74.21875 28.421875 74.21875 
Q 39.75 74.21875 46.484375 68.546875 
Q 53.21875 62.890625 53.21875 53.421875 
Q 53.21875 48.921875 51.53125 44.890625 
Q 49.859375 40.875 45.40625 35.40625 
Q 44.1875 33.984375 37.640625 27.21875 
Q 31.109375 20.453125 19.1875 8.296875 
z
" id="DejaVuSans-50"/>
      </defs>
      <g transform="translate(183.824794 328.261187)scale(0.18 -0.18)">
       <use xlink:href="#DejaVuSans-48"/>
       <use x="63.623047" xlink:href="#DejaVuSans-46"/>
       <use x="95.410156" xlink:href="#DejaVuSans-48"/>
       <use x="159.033203" xlink:href="#DejaVuSans-50"/>
      </g>
     </g>
    </g>
    <g id="xtick_4">
     <g id="line2d_4">
      <g>
       <use style="stroke:#000000;stroke-width:0.8;" x="268.879422" xlink:href="#m203e0eeef7" y="307.584"/>
      </g>
     </g>
     <g id="text_4">
      <!-- 0.03 -->
      <defs>
       <path d="M 40.578125 39.3125 
Q 47.65625 37.796875 51.625 33 
Q 55.609375 28.21875 55.609375 21.1875 
Q 55.609375 10.40625 48.1875 4.484375 
Q 40.765625 -1.421875 27.09375 -1.421875 
Q 22.515625 -1.421875 17.65625 -0.515625 
Q 12.796875 0.390625 7.625 2.203125 
L 7.625 11.71875 
Q 11.71875 9.328125 16.59375 8.109375 
Q 21.484375 6.890625 26.8125 6.890625 
Q 36.078125 6.890625 40.9375 10.546875 
Q 45.796875 14.203125 45.796875 21.1875 
Q 45.796875 27.640625 41.28125 31.265625 
Q 36.765625 34.90625 28.71875 34.90625 
L 20.21875 34.90625 
L 20.21875 43.015625 
L 29.109375 43.015625 
Q 36.375 43.015625 40.234375 45.921875 
Q 44.09375 48.828125 44.09375 54.296875 
Q 44.09375 59.90625 40.109375 62.90625 
Q 36.140625 65.921875 28.71875 65.921875 
Q 24.65625 65.921875 20.015625 65.03125 
Q 15.375 64.15625 9.8125 62.3125 
L 9.8125 71.09375 
Q 15.4375 72.65625 20.34375 73.4375 
Q 25.25 74.21875 29.59375 74.21875 
Q 40.828125 74.21875 47.359375 69.109375 
Q 53.90625 64.015625 53.90625 55.328125 
Q 53.90625 49.265625 50.4375 45.09375 
Q 46.96875 40.921875 40.578125 39.3125 
z
" id="DejaVuSans-51"/>
      </defs>
      <g transform="translate(248.840359 328.261187)scale(0.18 -0.18)">
       <use xlink:href="#DejaVuSans-48"/>
       <use x="63.623047" xlink:href="#DejaVuSans-46"/>
       <use x="95.410156" xlink:href="#DejaVuSans-48"/>
       <use x="159.033203" xlink:href="#DejaVuSans-51"/>
      </g>
     </g>
    </g>
    <g id="xtick_5">
     <g id="line2d_5">
      <g>
       <use style="stroke:#000000;stroke-width:0.8;" x="333.894986" xlink:href="#m203e0eeef7" y="307.584"/>
      </g>
     </g>
     <g id="text_5">
      <!-- 0.04 -->
      <defs>
       <path d="M 37.796875 64.3125 
L 12.890625 25.390625 
L 37.796875 25.390625 
z
M 35.203125 72.90625 
L 47.609375 72.90625 
L 47.609375 25.390625 
L 58.015625 25.390625 
L 58.015625 17.1875 
L 47.609375 17.1875 
L 47.609375 0 
L 37.796875 0 
L 37.796875 17.1875 
L 4.890625 17.1875 
L 4.890625 26.703125 
z
" id="DejaVuSans-52"/>
      </defs>
      <g transform="translate(313.855924 328.261187)scale(0.18 -0.18)">
       <use xlink:href="#DejaVuSans-48"/>
       <use x="63.623047" xlink:href="#DejaVuSans-46"/>
       <use x="95.410156" xlink:href="#DejaVuSans-48"/>
       <use x="159.033203" xlink:href="#DejaVuSans-52"/>
      </g>
     </g>
    </g>
    <g id="xtick_6">
     <g id="line2d_6">
      <g>
       <use style="stroke:#000000;stroke-width:0.8;" x="398.910551" xlink:href="#m203e0eeef7" y="307.584"/>
      </g>
     </g>
     <g id="text_6">
      <!-- 0.05 -->
      <defs>
       <path d="M 10.796875 72.90625 
L 49.515625 72.90625 
L 49.515625 64.59375 
L 19.828125 64.59375 
L 19.828125 46.734375 
Q 21.96875 47.46875 24.109375 47.828125 
Q 26.265625 48.1875 28.421875 48.1875 
Q 40.625 48.1875 47.75 41.5 
Q 54.890625 34.8125 54.890625 23.390625 
Q 54.890625 11.625 47.5625 5.09375 
Q 40.234375 -1.421875 26.90625 -1.421875 
Q 22.3125 -1.421875 17.546875 -0.640625 
Q 12.796875 0.140625 7.71875 1.703125 
L 7.71875 11.625 
Q 12.109375 9.234375 16.796875 8.0625 
Q 21.484375 6.890625 26.703125 6.890625 
Q 35.15625 6.890625 40.078125 11.328125 
Q 45.015625 15.765625 45.015625 23.390625 
Q 45.015625 31 40.078125 35.4375 
Q 35.15625 39.890625 26.703125 39.890625 
Q 22.75 39.890625 18.8125 39.015625 
Q 14.890625 38.140625 10.796875 36.28125 
z
" id="DejaVuSans-53"/>
      </defs>
      <g transform="translate(378.871489 328.261187)scale(0.18 -0.18)">
       <use xlink:href="#DejaVuSans-48"/>
       <use x="63.623047" xlink:href="#DejaVuSans-46"/>
       <use x="95.410156" xlink:href="#DejaVuSans-48"/>
       <use x="159.033203" xlink:href="#DejaVuSans-53"/>
      </g>
     </g>
    </g>
   </g>
   <g id="matplotlib.axis_2">
    <g id="ytick_1">
     <g id="line2d_7">
      <defs>
       <path d="M 0 0 
L -3.5 0 
" id="m7a756e08e1" style="stroke:#000000;stroke-width:0.8;"/>
      </defs>
      <g>
       <use style="stroke:#000000;stroke-width:0.8;" x="57.6" xlink:href="#m7a756e08e1" y="244.960244"/>
      </g>
     </g>
     <g id="text_7">
      <!-- −2000 -->
      <defs>
       <path d="M 10.59375 35.5 
L 73.1875 35.5 
L 73.1875 27.203125 
L 10.59375 27.203125 
z
" id="DejaVuSans-8722"/>
      </defs>
      <g transform="translate(-10.293437 251.798838)scale(0.18 -0.18)">
       <use xlink:href="#DejaVuSans-8722"/>
       <use x="83.789062" xlink:href="#DejaVuSans-50"/>
       <use x="147.412109" xlink:href="#DejaVuSans-48"/>
       <use x="211.035156" xlink:href="#DejaVuSans-48"/>
       <use x="274.658203" xlink:href="#DejaVuSans-48"/>
      </g>
     </g>
    </g>
    <g id="ytick_2">
     <g id="line2d_8">
      <g>
       <use style="stroke:#000000;stroke-width:0.8;" x="57.6" xlink:href="#m7a756e08e1" y="175.417284"/>
      </g>
     </g>
     <g id="text_8">
      <!-- 0 -->
      <g transform="translate(39.1475 182.255877)scale(0.18 -0.18)">
       <use xlink:href="#DejaVuSans-48"/>
      </g>
     </g>
    </g>
    <g id="ytick_3">
     <g id="line2d_9">
      <g>
       <use style="stroke:#000000;stroke-width:0.8;" x="57.6" xlink:href="#m7a756e08e1" y="105.874323"/>
      </g>
     </g>
     <g id="text_9">
      <!-- 2000 -->
      <g transform="translate(4.79 112.712916)scale(0.18 -0.18)">
       <use xlink:href="#DejaVuSans-50"/>
       <use x="63.623047" xlink:href="#DejaVuSans-48"/>
       <use x="127.246094" xlink:href="#DejaVuSans-48"/>
       <use x="190.869141" xlink:href="#DejaVuSans-48"/>
      </g>
     </g>
    </g>
   </g>
   <g id="line2d_10">
    <path clip-path="url(#pe261030d38)" d="M 73.832727 175.417284 
L 79.335347 138.39625 
L 82.298296 119.78263 
L 84.837966 105.112428 
L 86.954358 94.037336 
L 89.07075 84.186332 
L 90.763864 77.287122 
L 92.456978 71.333004 
L 93.726813 67.522486 
L 94.996648 64.296687 
L 96.266483 61.673089 
L 97.536319 59.665909 
L 98.382875 58.675755 
L 99.229432 57.966855 
L 100.075989 57.540916 
L 100.922546 57.398966 
L 101.769103 57.541345 
L 102.61566 57.967711 
L 103.462216 58.677037 
L 104.308773 59.667613 
L 105.15533 60.937054 
L 106.425165 63.357213 
L 107.695001 66.384664 
L 108.964836 70.003001 
L 110.234671 74.192613 
L 111.927785 80.62774 
L 113.620898 87.975786 
L 115.737291 98.336039 
L 117.853683 109.85572 
L 120.393353 124.964736 
L 123.356302 143.947988 
L 128.012365 175.426018 
L 133.514984 212.446611 
L 136.477933 231.05964 
L 139.017603 245.729154 
L 141.133995 256.803557 
L 143.250388 266.653776 
L 144.943501 273.552298 
L 146.636615 279.50568 
L 147.90645 283.31562 
L 149.176285 286.540822 
L 150.446121 289.163807 
L 151.715956 291.170362 
L 152.562513 292.160093 
L 153.40907 292.868568 
L 154.255626 293.294079 
L 155.102183 293.435601 
L 155.94874 293.292793 
L 156.795297 292.865999 
L 157.641854 292.156248 
L 158.488411 291.165249 
L 159.334967 289.89539 
L 160.604803 287.474613 
L 161.874638 284.446559 
L 163.144473 280.827638 
L 164.414308 276.637463 
L 166.107422 270.201623 
L 167.800536 262.852914 
L 169.916928 252.491913 
L 172.03332 240.971584 
L 174.57299 225.861934 
L 177.535939 206.878161 
L 182.192002 175.399814 
L 187.694621 138.379662 
L 190.65757 119.767224 
L 193.197241 105.098398 
L 195.313633 94.024685 
L 197.430025 84.17525 
L 199.123139 77.277418 
L 200.816252 71.32477 
L 202.086087 67.515408 
L 203.355923 64.290803 
L 204.625758 61.668431 
L 205.895593 59.662503 
L 206.74215 58.673193 
L 207.588707 57.965144 
L 208.435264 57.540061 
L 209.281821 57.398968 
L 210.128377 57.542204 
L 210.974934 57.969425 
L 211.821491 58.679602 
L 212.668048 59.671023 
L 213.514605 60.941301 
L 214.78444 63.362695 
L 216.054275 66.391352 
L 217.32411 70.010857 
L 218.593946 74.201596 
L 220.287059 80.638149 
L 221.980173 87.98752 
L 224.096565 98.349269 
L 226.212957 109.870247 
L 228.752628 124.98053 
L 231.715577 143.964825 
L 236.371639 175.443488 
L 241.874259 212.463198 
L 244.837208 231.075046 
L 247.376878 245.743184 
L 249.49327 256.816207 
L 251.609662 266.664857 
L 253.302776 273.562001 
L 254.99589 279.513913 
L 256.265725 283.322697 
L 257.53556 286.546704 
L 258.805395 289.168464 
L 260.075231 291.173767 
L 260.921787 292.162653 
L 261.768344 292.870277 
L 262.614901 293.294933 
L 263.461458 293.435598 
L 264.308015 293.291932 
L 265.154572 292.864284 
L 266.001128 292.153681 
L 266.847685 291.161838 
L 267.694242 289.891142 
L 268.964077 287.46913 
L 270.233913 284.439871 
L 271.503748 280.819781 
L 272.773583 276.628479 
L 274.466697 270.191213 
L 276.15981 262.84118 
L 278.276202 252.478683 
L 280.392595 240.957056 
L 282.932265 225.84614 
L 285.895214 206.861323 
L 290.551277 175.382344 
L 296.053896 138.363075 
L 299.016845 119.751819 
L 301.556515 105.084368 
L 303.672907 94.012035 
L 305.7893 84.164171 
L 307.482413 77.267716 
L 309.175527 71.316539 
L 310.445362 67.508333 
L 311.715197 64.284922 
L 312.985033 61.663776 
L 314.254868 59.659099 
L 315.101425 58.670635 
L 315.947982 57.963436 
L 316.794538 57.539208 
L 317.641095 57.398972 
L 318.487652 57.543066 
L 319.334209 57.971142 
L 320.180766 58.68217 
L 321.027323 59.674436 
L 321.873879 60.94555 
L 323.143715 63.368179 
L 324.41355 66.398041 
L 325.683385 70.018716 
L 326.95322 74.210581 
L 328.646334 80.64856 
L 330.339448 87.999255 
L 332.45584 98.3625 
L 334.572232 109.884775 
L 337.111902 124.996325 
L 340.074851 143.981664 
L 344.730914 175.460958 
L 350.233533 212.479785 
L 353.196482 231.090451 
L 355.736153 245.757213 
L 357.852545 256.828856 
L 359.968937 266.675935 
L 361.66205 273.571702 
L 363.355164 279.522143 
L 364.624999 283.329771 
L 365.894835 286.552585 
L 367.16467 289.173118 
L 368.434505 291.177169 
L 369.281062 292.165211 
L 370.127619 292.871984 
L 370.974176 293.295784 
L 371.820732 293.435592 
L 372.667289 293.291069 
L 373.513846 292.862565 
L 374.360403 292.151112 
L 375.20696 291.158424 
L 376.053517 289.886892 
L 377.323352 287.463644 
L 378.593187 284.43318 
L 379.863022 280.811921 
L 381.132858 276.619492 
L 382.825971 270.180801 
L 384.519085 262.829443 
L 386.635477 252.46545 
L 388.751869 240.942527 
L 391.29154 225.830345 
L 394.254489 206.844484 
L 398.487273 178.261272 
L 398.487273 178.261272 
" style="fill:none;stroke:#1f77b4;stroke-linecap:square;stroke-width:1.5;"/>
   </g>
   <g id="line2d_11">
    <path clip-path="url(#pe261030d38)" d="M 73.832727 175.417284 
L 79.335347 138.446362 
L 81.875017 122.602102 
L 84.414688 107.71247 
L 87.377637 92.165977 
L 90.340586 78.991751 
L 93.726813 67.62445 
L 96.689762 61.049974 
L 97.11304 60.408117 
L 100.075989 57.623173 
L 100.499268 57.607291 
L 103.462216 58.726088 
L 104.308773 60.047433 
L 106.848444 64.307532 
L 110.234671 74.211388 
L 113.620898 88.013253 
L 117.430404 107.631998 
L 121.23991 130.412325 
L 125.472694 158.17154 
L 135.208098 223.021809 
L 137.747768 238.310903 
L 140.710717 254.459917 
L 143.673666 268.358763 
L 147.059893 280.697299 
L 150.022842 288.282163 
L 150.869399 289.531207 
L 153.40907 292.830263 
L 154.255626 292.898776 
L 156.795297 292.863891 
L 160.181524 288.325893 
L 163.144473 280.826761 
L 166.5307 268.45364 
L 168.223814 260.853557 
L 170.763485 247.921958 
L 173.303155 233.57879 
L 176.689382 212.363392 
L 180.498888 186.980358 
L 188.1179 135.787322 
L 191.080849 117.430389 
L 193.620519 102.891024 
L 197.006746 86.179548 
L 200.392974 72.900098 
L 203.355923 64.326363 
L 205.049036 61.468104 
L 206.74215 58.681705 
L 210.128377 57.586268 
L 213.091326 60.440834 
L 213.514605 61.010367 
L 216.900832 68.831304 
L 220.287059 80.73614 
L 223.673287 96.274791 
L 227.482792 117.427885 
L 231.292298 141.30068 
L 236.371639 175.417275 
L 241.45098 209.515397 
L 244.413929 228.254854 
L 247.376878 245.493382 
L 250.339827 260.740513 
L 253.726054 274.928357 
L 256.689003 284.434801 
L 260.075231 291.116567 
L 263.038179 293.229356 
L 263.461458 293.345698 
L 266.424407 291.562558 
L 266.847685 291.053005 
L 269.810634 285.467542 
L 271.080469 281.669903 
L 273.62014 273.498094 
L 275.313254 266.58875 
L 277.006367 258.824483 
L 279.122759 248.015069 
L 281.239151 235.946308 
L 283.778822 220.475539 
L 286.741771 201.267426 
L 298.170288 124.989748 
L 300.28668 112.395928 
L 303.672907 94.209927 
L 307.059135 79.148329 
L 310.022084 68.789416 
L 313.408311 61.030321 
L 316.37126 57.848262 
L 316.794538 57.673751 
L 319.757487 58.380389 
L 320.180766 58.835414 
L 323.143715 63.415365 
L 324.41355 66.842333 
L 326.529942 72.751318 
L 329.916169 86.062856 
L 333.725675 105.269803 
L 337.535181 127.765489 
L 341.767965 155.267386 
L 352.773204 228.388308 
L 354.043039 235.866355 
L 357.005988 252.317254 
L 360.392215 268.215931 
L 363.355164 279.402288 
L 366.741391 288.219244 
L 369.70434 292.461543 
L 370.127619 292.69435 
L 373.090568 293.066218 
L 373.937125 292.164882 
L 376.476795 289.144953 
L 379.863022 280.82408 
L 381.979414 273.470239 
L 384.095807 264.742678 
L 386.212199 254.63517 
L 388.328591 243.203618 
L 390.021704 233.439988 
L 393.407932 212.404355 
L 398.487273 178.313487 
L 398.487273 178.313487 
" style="fill:none;stroke:#ff7f0e;stroke-linecap:square;stroke-width:2;"/>
   </g>
   <g id="line2d_12">
    <path clip-path="url(#pe261030d38)" d="M 73.832727 174.837886 
L 74.256006 173.031151 
L 75.102563 165.206349 
L 75.525841 165.334199 
L 76.372398 155.825658 
L 76.795676 154.486136 
L 77.218955 148.262525 
L 77.642233 149.989921 
L 78.065511 147.840899 
L 78.48879 143.848379 
L 78.912068 141.714864 
L 79.335347 142.022433 
L 79.758625 139.416883 
L 80.181904 129.24962 
L 80.605182 129.557759 
L 81.02846 129.152812 
L 81.451739 127.389109 
L 81.875017 120.922726 
L 82.298296 126.131464 
L 82.721574 116.378882 
L 83.144852 116.594578 
L 83.568131 114.548677 
L 83.991409 108.199626 
L 84.414688 109.559123 
L 84.837966 103.727762 
L 85.261245 100.870026 
L 85.684523 99.791506 
L 86.107801 101.196981 
L 86.53108 93.883084 
L 86.954358 93.751498 
L 87.377637 91.592577 
L 87.800915 90.9578 
L 88.647472 85.735192 
L 89.494029 82.262103 
L 89.917307 83.324257 
L 90.340586 80.766972 
L 90.763864 77.206865 
L 91.187142 75.727479 
L 91.610421 71.927177 
L 92.033699 72.45081 
L 92.456978 70.735811 
L 92.880256 71.269532 
L 93.303534 66.430461 
L 93.726813 67.102364 
L 94.150091 67.462107 
L 94.57337 65.624989 
L 94.996648 65.958555 
L 95.419927 64.477724 
L 96.266483 63.650874 
L 97.11304 60.80951 
L 97.536319 58.0419 
L 97.959597 61.004876 
L 98.382875 59.338011 
L 98.806154 59.149074 
L 99.229432 60.59216 
L 99.652711 58.158714 
L 100.075989 56.41841 
L 100.922546 60.072483 
L 101.345824 60.158577 
L 101.769103 55.625141 
L 102.192381 58.188614 
L 102.61566 58.013154 
L 103.038938 58.411884 
L 103.462216 61.096472 
L 103.885495 60.475376 
L 104.732052 58.11973 
L 105.578609 62.831583 
L 106.001887 62.256449 
L 106.848444 64.458915 
L 107.271722 63.440996 
L 107.695001 67.400954 
L 108.118279 67.138554 
L 108.541557 71.852183 
L 108.964836 68.129221 
L 109.388114 71.816052 
L 109.811393 71.914153 
L 110.234671 74.180852 
L 110.65795 73.978522 
L 111.081228 75.329122 
L 111.504506 78.994896 
L 111.927785 79.587159 
L 112.351063 84.860284 
L 112.774342 85.216518 
L 113.19762 86.584682 
L 113.620898 89.29006 
L 114.044177 89.352945 
L 114.467455 91.380513 
L 114.890734 91.612347 
L 115.314012 98.24129 
L 115.737291 97.04096 
L 116.160569 99.263962 
L 116.583847 105.621813 
L 117.007126 106.764324 
L 117.430404 107.062911 
L 117.853683 112.71114 
L 118.276961 112.841235 
L 118.700239 116.239784 
L 119.123518 117.422966 
L 119.546796 119.192742 
L 120.393353 126.03966 
L 120.816632 126.574508 
L 121.23991 131.039083 
L 121.663188 131.648409 
L 122.086467 136.009682 
L 122.509745 137.28794 
L 122.933024 140.051496 
L 123.356302 144.561744 
L 123.77958 145.538554 
L 124.202859 147.449401 
L 124.626137 152.638859 
L 125.472694 157.772026 
L 125.895973 163.181799 
L 126.319251 163.171788 
L 127.165808 169.626162 
L 127.589086 169.305248 
L 128.012365 174.134598 
L 128.435643 176.563975 
L 128.858921 182.346545 
L 129.705478 187.429216 
L 130.128757 188.599878 
L 130.552035 194.389495 
L 130.975314 193.689919 
L 131.398592 199.908044 
L 131.82187 200.389396 
L 133.514984 211.160426 
L 133.938262 217.286316 
L 134.361541 218.279128 
L 134.784819 219.970483 
L 135.208098 219.879077 
L 135.631376 226.739761 
L 136.054654 226.121326 
L 136.477933 226.576553 
L 136.901211 232.749811 
L 137.32449 236.023653 
L 137.747768 236.609148 
L 138.171047 239.463613 
L 138.594325 247.15866 
L 139.017603 245.937561 
L 139.86416 249.997492 
L 140.287439 251.805876 
L 141.133995 257.251834 
L 141.557274 263.09739 
L 142.403831 259.992812 
L 142.827109 265.289078 
L 143.250388 266.409401 
L 143.673666 270.294544 
L 144.096944 270.802137 
L 144.520223 272.648276 
L 144.943501 273.750636 
L 145.36678 272.662638 
L 145.790058 278.799769 
L 146.213336 275.084169 
L 146.636615 278.159256 
L 147.059893 282.967692 
L 147.483172 281.630282 
L 147.90645 282.266024 
L 148.329729 280.850151 
L 149.599564 288.877504 
L 150.022842 288.238403 
L 150.446121 288.900678 
L 150.869399 287.014537 
L 151.292677 288.976882 
L 151.715956 290.267205 
L 152.139234 288.070181 
L 152.562513 294.09774 
L 152.985791 292.645708 
L 153.40907 294.661893 
L 153.832348 294.167694 
L 154.255626 295.488 
L 154.678905 290.293975 
L 155.102183 295.156636 
L 155.525462 294.572323 
L 155.94874 292.749367 
L 156.372018 294.991068 
L 156.795297 290.070283 
L 157.218575 293.077069 
L 157.641854 293.127786 
L 158.065132 292.457414 
L 158.488411 291.001278 
L 158.911689 292.634978 
L 159.334967 290.205379 
L 159.758246 286.177456 
L 160.181524 288.690289 
L 160.604803 289.170482 
L 161.028081 288.05351 
L 161.451359 285.908814 
L 161.874638 284.653231 
L 162.297916 284.165984 
L 162.721195 283.327408 
L 163.144473 280.680478 
L 163.567752 279.691405 
L 163.99103 277.321169 
L 164.414308 277.159988 
L 164.837587 273.977916 
L 165.260865 275.619499 
L 166.107422 268.22456 
L 166.5307 269.458907 
L 166.953979 269.559899 
L 167.377257 264.493819 
L 167.800536 261.790676 
L 168.223814 260.325408 
L 168.647093 260.460076 
L 169.070371 255.386694 
L 169.493649 255.129319 
L 169.916928 253.913364 
L 170.340206 254.021567 
L 170.763485 251.0237 
L 171.186763 248.942561 
L 171.610041 244.961232 
L 172.03332 242.808653 
L 172.456598 238.599559 
L 172.879877 237.570176 
L 173.303155 233.908505 
L 173.726434 227.019693 
L 174.149712 228.728208 
L 174.57299 225.950094 
L 175.419547 219.048991 
L 175.842826 218.950349 
L 176.266104 210.730014 
L 176.689382 215.863303 
L 177.112661 209.724837 
L 177.535939 207.55802 
L 177.959218 202.771168 
L 178.805775 199.125635 
L 179.229053 192.909251 
L 179.652331 196.550534 
L 180.07561 189.392449 
L 180.498888 188.989483 
L 180.922167 183.075322 
L 181.345445 183.07198 
L 181.768723 177.905769 
L 182.192002 176.514995 
L 183.038559 170.253261 
L 183.461837 169.544432 
L 183.885116 162.916475 
L 184.308394 161.194202 
L 184.731672 155.531482 
L 185.154951 153.141143 
L 186.424786 149.604295 
L 187.271343 142.501805 
L 187.694621 140.065164 
L 188.541178 131.470535 
L 188.964457 127.969014 
L 189.387735 127.370393 
L 189.811013 121.038012 
L 190.234292 124.600652 
L 190.65757 119.322029 
L 191.504127 113.521367 
L 191.927405 113.789019 
L 192.350684 113.297418 
L 192.773962 107.015857 
L 193.197241 106.315997 
L 193.620519 103.747518 
L 194.043798 99.565925 
L 194.467076 99.889768 
L 194.890354 94.256372 
L 195.313633 94.521107 
L 195.736911 94.099051 
L 196.16019 91.999786 
L 196.583468 89.176739 
L 197.006746 87.547536 
L 197.430025 86.822025 
L 197.853303 82.151207 
L 198.276582 80.560141 
L 198.69986 81.557993 
L 199.123139 80.673528 
L 199.546417 76.550045 
L 199.969695 74.8733 
L 200.392974 72.152729 
L 200.816252 73.99931 
L 201.239531 71.235696 
L 201.662809 69.337721 
L 202.086087 65.14964 
L 202.509366 66.821414 
L 202.932644 65.127245 
L 203.355923 64.792066 
L 203.779201 65.729963 
L 204.20248 62.678106 
L 204.625758 63.768441 
L 205.049036 62.110791 
L 205.472315 62.450055 
L 205.895593 59.959571 
L 206.318872 59.310628 
L 206.74215 56.769473 
L 207.588707 60.899779 
L 208.435264 57.623238 
L 208.858542 57.047568 
L 209.281821 55.996609 
L 209.705099 59.628907 
L 210.128377 56.242349 
L 210.551656 55.328521 
L 210.974934 61.699099 
L 211.398213 59.075008 
L 211.821491 59.237147 
L 212.668048 56.42522 
L 213.091326 59.869526 
L 213.514605 64.825778 
L 213.937883 60.709665 
L 214.361162 64.88483 
L 214.78444 62.910455 
L 215.207718 63.991397 
L 216.054275 68.408365 
L 216.477554 67.992739 
L 216.900832 69.085948 
L 217.32411 71.064549 
L 217.747389 73.69077 
L 218.170667 71.038434 
L 218.593946 76.124722 
L 219.017224 79.076877 
L 219.440503 80.273976 
L 219.863781 78.345619 
L 220.287059 78.788371 
L 220.710338 83.231839 
L 221.133616 82.967259 
L 221.980173 89.618887 
L 222.403451 89.954304 
L 222.82673 91.713556 
L 223.250008 89.829263 
L 223.673287 97.552995 
L 224.096565 99.683933 
L 224.519844 99.714252 
L 224.943122 102.659521 
L 225.3664 104.589884 
L 225.789679 107.14899 
L 226.212957 110.881409 
L 226.636236 110.575463 
L 227.059514 116.158413 
L 227.482792 117.519396 
L 227.906071 122.814148 
L 228.329349 125.521706 
L 228.752628 125.441772 
L 229.175906 129.684566 
L 229.599185 128.482362 
L 230.022463 137.1468 
L 230.445741 136.11028 
L 230.86902 139.738763 
L 231.292298 141.226764 
L 232.138855 146.692916 
L 232.562133 149.498776 
L 233.40869 157.576432 
L 233.831969 156.785397 
L 234.255247 162.463648 
L 234.678526 162.448761 
L 235.525082 168.39459 
L 235.948361 170.649755 
L 236.371639 174.202718 
L 236.794918 180.396821 
L 237.218196 181.462776 
L 237.641474 183.891301 
L 238.064753 187.739715 
L 238.488031 188.654237 
L 238.91131 192.939747 
L 239.334588 200.045716 
L 239.757867 200.046138 
L 240.181145 199.806112 
L 240.604423 204.420119 
L 241.027702 205.082288 
L 242.297537 218.54233 
L 242.720815 215.859689 
L 243.567372 225.688039 
L 243.990651 220.917267 
L 244.413929 228.507171 
L 244.837208 229.700844 
L 245.260486 233.584886 
L 245.683764 238.636234 
L 246.107043 238.763812 
L 246.530321 244.303459 
L 246.9536 243.581796 
L 247.376878 245.253359 
L 247.800156 249.395708 
L 248.223435 249.302286 
L 249.069992 256.30422 
L 249.49327 257.801119 
L 249.916549 260.473648 
L 250.339827 260.320651 
L 250.763105 262.110977 
L 251.186384 264.623629 
L 251.609662 263.61034 
L 252.032941 267.552681 
L 252.456219 269.759272 
L 252.879497 269.649856 
L 253.302776 274.239349 
L 253.726054 273.55791 
L 254.149333 271.371021 
L 254.572611 279.22666 
L 254.99589 278.464372 
L 255.419168 277.993447 
L 255.842446 285.787612 
L 256.265725 284.27452 
L 256.689003 285.154982 
L 257.112282 285.75213 
L 257.53556 283.720936 
L 257.958838 288.081292 
L 258.382117 286.409135 
L 258.805395 285.688423 
L 259.228674 293.795946 
L 259.651952 290.396142 
L 260.498509 293.172977 
L 260.921787 291.756293 
L 261.345066 292.671054 
L 261.768344 292.683118 
L 262.191623 293.120148 
L 262.614901 292.803808 
L 263.038179 295.123887 
L 263.461458 293.256462 
L 263.884736 294.691826 
L 264.308015 292.656159 
L 264.731293 293.069071 
L 265.154572 290.392659 
L 265.57785 292.262227 
L 266.001128 293.09437 
L 266.424407 289.514409 
L 266.847685 290.969517 
L 267.270964 290.136781 
L 267.694242 288.349619 
L 268.11752 288.980954 
L 268.964077 285.639059 
L 269.387356 287.536958 
L 269.810634 282.213336 
L 270.233913 281.612408 
L 270.657191 283.954473 
L 271.080469 280.794891 
L 271.503748 280.841134 
L 271.927026 279.828877 
L 272.350305 276.613904 
L 272.773583 276.479934 
L 273.62014 271.890496 
L 274.043418 270.189022 
L 274.466697 269.851252 
L 274.889975 266.408856 
L 275.313254 267.274 
L 276.15981 262.885117 
L 276.583089 262.509297 
L 277.006367 255.476638 
L 277.429646 256.812799 
L 277.852924 255.201514 
L 278.276202 252.227846 
L 278.699481 251.41548 
L 279.122759 249.720839 
L 280.392595 237.441868 
L 280.815873 239.418026 
L 281.66243 230.745735 
L 282.085708 229.866877 
L 282.508987 230.35155 
L 282.932265 224.490127 
L 283.355543 226.523838 
L 283.778822 220.793109 
L 284.2021 217.179675 
L 284.625379 214.997883 
L 285.471936 208.829474 
L 285.895214 210.555002 
L 286.318492 201.800519 
L 289.281441 185.920709 
L 289.70472 179.977766 
L 290.127998 179.603271 
L 290.551277 177.610786 
L 290.974555 170.813921 
L 291.397833 172.45458 
L 291.821112 167.264128 
L 292.24439 163.998524 
L 292.667669 163.166352 
L 293.090947 160.147431 
L 293.514225 154.283938 
L 293.937504 154.277013 
L 294.360782 147.947066 
L 294.784061 146.288826 
L 295.207339 145.854585 
L 295.630618 139.496448 
L 296.053896 137.673824 
L 296.477174 134.827458 
L 296.900453 134.862589 
L 297.74701 126.097532 
L 298.170288 127.03766 
L 298.593566 121.237954 
L 299.016845 118.881622 
L 299.440123 118.316667 
L 299.863402 111.933481 
L 300.28668 109.42024 
L 300.709959 108.132771 
L 301.556515 106.040964 
L 301.979794 102.690865 
L 302.403072 98.385772 
L 302.826351 95.505169 
L 303.249629 93.600054 
L 303.672907 95.715884 
L 304.096186 92.858673 
L 304.519464 91.03406 
L 304.942743 86.599644 
L 305.366021 86.551286 
L 305.7893 81.554734 
L 306.212578 84.826993 
L 306.635856 82.669868 
L 307.059135 79.730784 
L 307.905692 75.12657 
L 308.32897 77.759475 
L 308.752248 72.334351 
L 309.175527 70.708792 
L 309.598805 68.549406 
L 310.022084 70.217256 
L 310.445362 66.119485 
L 310.868641 68.878191 
L 311.291919 66.176229 
L 311.715197 61.728431 
L 312.561754 63.296611 
L 312.985033 60.297255 
L 313.831589 61.483838 
L 314.254868 62.769217 
L 314.678146 58.872993 
L 315.101425 59.110219 
L 315.524703 60.200762 
L 315.947982 53.568 
L 316.37126 60.906782 
L 317.217817 57.28757 
L 317.641095 56.954228 
L 318.064374 57.201247 
L 318.487652 55.079335 
L 319.334209 60.280146 
L 319.757487 57.279658 
L 320.180766 56.499965 
L 320.604044 61.940683 
L 321.027323 58.622357 
L 321.450601 62.441883 
L 322.297158 62.13291 
L 322.720436 59.638488 
L 323.143715 63.69055 
L 323.566993 64.415154 
L 323.990271 67.302027 
L 324.41355 65.58373 
L 324.836828 69.348565 
L 325.260107 68.174352 
L 325.683385 72.792402 
L 326.106664 68.821465 
L 326.529942 70.256525 
L 326.95322 74.909433 
L 327.376499 76.658855 
L 327.799777 76.975343 
L 328.223056 80.563185 
L 328.646334 81.356661 
L 329.069612 86.588418 
L 329.492891 84.36398 
L 329.916169 85.621212 
L 330.339448 87.851366 
L 330.762726 92.123036 
L 331.186005 92.994132 
L 331.609283 96.123467 
L 332.032561 96.947717 
L 332.45584 98.757974 
L 332.879118 103.014803 
L 333.302397 99.809793 
L 334.148953 110.097542 
L 334.572232 112.128364 
L 334.99551 111.839586 
L 335.418789 113.378818 
L 335.842067 115.344102 
L 336.265346 116.358705 
L 336.688624 122.72082 
L 337.111902 123.591262 
L 337.535181 130.048716 
L 337.958459 129.380762 
L 338.381738 138.345511 
L 338.805016 137.934845 
L 339.228294 136.938133 
L 339.651573 143.048187 
L 340.074851 143.713506 
L 340.49813 143.334026 
L 342.614522 163.517057 
L 343.0378 162.775985 
L 343.461079 165.403876 
L 344.307635 174.456165 
L 344.730914 176.034296 
L 345.577471 182.523744 
L 346.000749 183.927912 
L 346.424027 189.092093 
L 346.847306 190.008099 
L 347.270584 194.085453 
L 347.693863 195.579895 
L 348.117141 198.465326 
L 348.54042 202.622277 
L 348.963698 204.346702 
L 349.386976 206.949642 
L 349.810255 206.735664 
L 350.233533 210.652053 
L 350.656812 216.811344 
L 351.08009 219.575582 
L 351.503368 221.287229 
L 351.926647 220.783906 
L 352.349925 228.990234 
L 352.773204 227.513812 
L 353.196482 229.568056 
L 353.619761 232.191994 
L 354.466317 238.780213 
L 354.889596 242.251122 
L 355.736153 247.222282 
L 356.159431 245.374026 
L 356.582709 250.620869 
L 357.005988 253.194849 
L 357.429266 255.076768 
L 358.275823 256.371845 
L 358.699102 263.049975 
L 359.12238 263.551859 
L 359.545658 263.19374 
L 359.968937 268.154347 
L 360.392215 268.588929 
L 360.815494 271.616859 
L 361.238772 269.01926 
L 361.66205 271.758117 
L 362.085329 275.864539 
L 362.508607 274.520926 
L 362.931886 273.673224 
L 363.355164 281.842505 
L 363.778443 280.054915 
L 364.201721 281.405355 
L 365.048278 286.108025 
L 365.471556 286.073386 
L 365.894835 284.666537 
L 366.318113 290.058038 
L 366.741391 289.756217 
L 367.16467 287.407625 
L 367.587948 288.309068 
L 368.011227 291.337624 
L 368.434505 289.037604 
L 368.857784 291.252093 
L 369.281062 294.940373 
L 369.70434 294.935035 
L 370.127619 292.971337 
L 370.550897 294.680866 
L 370.974176 293.997475 
L 371.397454 292.562594 
L 371.820732 289.529574 
L 372.244011 294.082509 
L 372.667289 293.705542 
L 373.090568 289.589373 
L 373.513846 291.022963 
L 373.937125 291.376387 
L 374.360403 294.092236 
L 374.783681 289.278308 
L 375.20696 291.079332 
L 375.630238 290.352305 
L 376.053517 290.011297 
L 376.476795 287.412625 
L 376.900073 286.106482 
L 377.323352 286.514466 
L 377.74663 284.255604 
L 378.169909 284.510298 
L 378.593187 283.815068 
L 379.016466 284.625535 
L 379.439744 283.559431 
L 379.863022 278.075857 
L 380.286301 278.755674 
L 380.709579 282.146685 
L 381.132858 273.552802 
L 381.556136 274.940312 
L 381.979414 272.17014 
L 382.402693 267.690676 
L 382.825971 270.15261 
L 383.24925 268.185441 
L 383.672528 267.614749 
L 384.519085 261.969824 
L 384.942363 260.881626 
L 385.365642 258.283233 
L 385.78892 256.958452 
L 386.212199 254.638793 
L 386.635477 253.157671 
L 387.058755 251.008081 
L 387.482034 247.859589 
L 387.905312 246.853044 
L 388.328591 243.915307 
L 388.751869 237.378861 
L 389.175148 236.533958 
L 389.598426 236.847641 
L 390.021704 231.443993 
L 390.444983 231.593788 
L 391.29154 226.129884 
L 391.714818 223.53574 
L 392.138096 219.403326 
L 392.561375 219.219773 
L 393.407932 210.286846 
L 393.83121 209.886545 
L 394.254489 207.530952 
L 394.677767 201.644912 
L 395.101045 199.974029 
L 395.947602 198.104502 
L 396.370881 190.801973 
L 397.217437 187.141403 
L 397.640716 185.947516 
L 398.487273 177.497197 
L 398.487273 177.497197 
" style="fill:none;stroke:#2ca02c;stroke-linecap:square;stroke-opacity:0.8;stroke-width:1.5;"/>
   </g>
   <g id="patch_3">
    <path d="M 57.6 307.584 
L 57.6 41.472 
" style="fill:none;stroke:#000000;stroke-linecap:square;stroke-linejoin:miter;stroke-width:2;"/>
   </g>
   <g id="patch_4">
    <path d="M 414.72 307.584 
L 414.72 41.472 
" style="fill:none;stroke:#000000;stroke-linecap:square;stroke-linejoin:miter;stroke-width:2;"/>
   </g>
   <g id="patch_5">
    <path d="M 57.6 307.584 
L 414.72 307.584 
" style="fill:none;stroke:#000000;stroke-linecap:square;stroke-linejoin:miter;stroke-width:2;"/>
   </g>
   <g id="patch_6">
    <path d="M 57.6 41.472 
L 414.72 41.472 
" style="fill:none;stroke:#000000;stroke-linecap:square;stroke-linejoin:miter;stroke-width:2;"/>
   </g>
  </g>
 </g>
 <defs>
  <clipPath id="pe261030d38">
   <rect height="266.112" width="357.12" x="57.6" y="41.472"/>
  </clipPath>
 </defs>
</svg>
