<?xml version="1.0" encoding="utf-8" standalone="no"?>
<!DOCTYPE svg PUBLIC "-//W3C//DTD SVG 1.1//EN"
  "http://www.w3.org/Graphics/SVG/1.1/DTD/svg11.dtd">
<!-- Created with matplotlib (https://matplotlib.org/) -->
<svg height="345.6pt" version="1.1" viewBox="0 0 460.8 345.6" width="460.8pt" xmlns="http://www.w3.org/2000/svg" xmlns:xlink="http://www.w3.org/1999/xlink">
 <defs>
  <style type="text/css">
*{stroke-linecap:butt;stroke-linejoin:round;}
  </style>
 </defs>
 <g id="figure_1">
  <g id="patch_1">
   <path d="M 0 345.6 
L 460.8 345.6 
L 460.8 0 
L 0 0 
z
" style="fill:#ffffff;"/>
  </g>
  <g id="axes_1">
   <g id="patch_2">
    <path d="M 57.6 307.584 
L 414.72 307.584 
L 414.72 41.472 
L 57.6 41.472 
z
" style="fill:#ffffff;"/>
   </g>
   <g id="matplotlib.axis_1">
    <g id="xtick_1">
     <g id="line2d_1">
      <defs>
       <path d="M 0 0 
L 0 3.5 
" id="m1fec540d90" style="stroke:#000000;stroke-width:0.8;"/>
      </defs>
      <g>
       <use style="stroke:#000000;stroke-width:0.8;" x="73.832727" xlink:href="#m1fec540d90" y="307.584"/>
      </g>
     </g>
     <g id="text_1">
      <!-- 0.00 -->
      <defs>
       <path d="M 31.78125 66.40625 
Q 24.171875 66.40625 20.328125 58.90625 
Q 16.5 51.421875 16.5 36.375 
Q 16.5 21.390625 20.328125 13.890625 
Q 24.171875 6.390625 31.78125 6.390625 
Q 39.453125 6.390625 43.28125 13.890625 
Q 47.125 21.390625 47.125 36.375 
Q 47.125 51.421875 43.28125 58.90625 
Q 39.453125 66.40625 31.78125 66.40625 
z
M 31.78125 74.21875 
Q 44.046875 74.21875 50.515625 64.515625 
Q 56.984375 54.828125 56.984375 36.375 
Q 56.984375 17.96875 50.515625 8.265625 
Q 44.046875 -1.421875 31.78125 -1.421875 
Q 19.53125 -1.421875 13.0625 8.265625 
Q 6.59375 17.96875 6.59375 36.375 
Q 6.59375 54.828125 13.0625 64.515625 
Q 19.53125 74.21875 31.78125 74.21875 
z
" id="DejaVuSans-48"/>
       <path d="M 10.6875 12.40625 
L 21 12.40625 
L 21 0 
L 10.6875 0 
z
" id="DejaVuSans-46"/>
      </defs>
      <g transform="translate(62.699915 322.182437)scale(0.1 -0.1)">
       <use xlink:href="#DejaVuSans-48"/>
       <use x="63.623047" xlink:href="#DejaVuSans-46"/>
       <use x="95.410156" xlink:href="#DejaVuSans-48"/>
       <use x="159.033203" xlink:href="#DejaVuSans-48"/>
      </g>
     </g>
    </g>
    <g id="xtick_2">
     <g id="line2d_2">
      <g>
       <use style="stroke:#000000;stroke-width:0.8;" x="138.848292" xlink:href="#m1fec540d90" y="307.584"/>
      </g>
     </g>
     <g id="text_2">
      <!-- 0.01 -->
      <defs>
       <path d="M 12.40625 8.296875 
L 28.515625 8.296875 
L 28.515625 63.921875 
L 10.984375 60.40625 
L 10.984375 69.390625 
L 28.421875 72.90625 
L 38.28125 72.90625 
L 38.28125 8.296875 
L 54.390625 8.296875 
L 54.390625 0 
L 12.40625 0 
z
" id="DejaVuSans-49"/>
      </defs>
      <g transform="translate(127.71548 322.182437)scale(0.1 -0.1)">
       <use xlink:href="#DejaVuSans-48"/>
       <use x="63.623047" xlink:href="#DejaVuSans-46"/>
       <use x="95.410156" xlink:href="#DejaVuSans-48"/>
       <use x="159.033203" xlink:href="#DejaVuSans-49"/>
      </g>
     </g>
    </g>
    <g id="xtick_3">
     <g id="line2d_3">
      <g>
       <use style="stroke:#000000;stroke-width:0.8;" x="203.863857" xlink:href="#m1fec540d90" y="307.584"/>
      </g>
     </g>
     <g id="text_3">
      <!-- 0.02 -->
      <defs>
       <path d="M 19.1875 8.296875 
L 53.609375 8.296875 
L 53.609375 0 
L 7.328125 0 
L 7.328125 8.296875 
Q 12.9375 14.109375 22.625 23.890625 
Q 32.328125 33.6875 34.8125 36.53125 
Q 39.546875 41.84375 41.421875 45.53125 
Q 43.3125 49.21875 43.3125 52.78125 
Q 43.3125 58.59375 39.234375 62.25 
Q 35.15625 65.921875 28.609375 65.921875 
Q 23.96875 65.921875 18.8125 64.3125 
Q 13.671875 62.703125 7.8125 59.421875 
L 7.8125 69.390625 
Q 13.765625 71.78125 18.9375 73 
Q 24.125 74.21875 28.421875 74.21875 
Q 39.75 74.21875 46.484375 68.546875 
Q 53.21875 62.890625 53.21875 53.421875 
Q 53.21875 48.921875 51.53125 44.890625 
Q 49.859375 40.875 45.40625 35.40625 
Q 44.1875 33.984375 37.640625 27.21875 
Q 31.109375 20.453125 19.1875 8.296875 
z
" id="DejaVuSans-50"/>
      </defs>
      <g transform="translate(192.731044 322.182437)scale(0.1 -0.1)">
       <use xlink:href="#DejaVuSans-48"/>
       <use x="63.623047" xlink:href="#DejaVuSans-46"/>
       <use x="95.410156" xlink:href="#DejaVuSans-48"/>
       <use x="159.033203" xlink:href="#DejaVuSans-50"/>
      </g>
     </g>
    </g>
    <g id="xtick_4">
     <g id="line2d_4">
      <g>
       <use style="stroke:#000000;stroke-width:0.8;" x="268.879422" xlink:href="#m1fec540d90" y="307.584"/>
      </g>
     </g>
     <g id="text_4">
      <!-- 0.03 -->
      <defs>
       <path d="M 40.578125 39.3125 
Q 47.65625 37.796875 51.625 33 
Q 55.609375 28.21875 55.609375 21.1875 
Q 55.609375 10.40625 48.1875 4.484375 
Q 40.765625 -1.421875 27.09375 -1.421875 
Q 22.515625 -1.421875 17.65625 -0.515625 
Q 12.796875 0.390625 7.625 2.203125 
L 7.625 11.71875 
Q 11.71875 9.328125 16.59375 8.109375 
Q 21.484375 6.890625 26.8125 6.890625 
Q 36.078125 6.890625 40.9375 10.546875 
Q 45.796875 14.203125 45.796875 21.1875 
Q 45.796875 27.640625 41.28125 31.265625 
Q 36.765625 34.90625 28.71875 34.90625 
L 20.21875 34.90625 
L 20.21875 43.015625 
L 29.109375 43.015625 
Q 36.375 43.015625 40.234375 45.921875 
Q 44.09375 48.828125 44.09375 54.296875 
Q 44.09375 59.90625 40.109375 62.90625 
Q 36.140625 65.921875 28.71875 65.921875 
Q 24.65625 65.921875 20.015625 65.03125 
Q 15.375 64.15625 9.8125 62.3125 
L 9.8125 71.09375 
Q 15.4375 72.65625 20.34375 73.4375 
Q 25.25 74.21875 29.59375 74.21875 
Q 40.828125 74.21875 47.359375 69.109375 
Q 53.90625 64.015625 53.90625 55.328125 
Q 53.90625 49.265625 50.4375 45.09375 
Q 46.96875 40.921875 40.578125 39.3125 
z
" id="DejaVuSans-51"/>
      </defs>
      <g transform="translate(257.746609 322.182437)scale(0.1 -0.1)">
       <use xlink:href="#DejaVuSans-48"/>
       <use x="63.623047" xlink:href="#DejaVuSans-46"/>
       <use x="95.410156" xlink:href="#DejaVuSans-48"/>
       <use x="159.033203" xlink:href="#DejaVuSans-51"/>
      </g>
     </g>
    </g>
    <g id="xtick_5">
     <g id="line2d_5">
      <g>
       <use style="stroke:#000000;stroke-width:0.8;" x="333.894986" xlink:href="#m1fec540d90" y="307.584"/>
      </g>
     </g>
     <g id="text_5">
      <!-- 0.04 -->
      <defs>
       <path d="M 37.796875 64.3125 
L 12.890625 25.390625 
L 37.796875 25.390625 
z
M 35.203125 72.90625 
L 47.609375 72.90625 
L 47.609375 25.390625 
L 58.015625 25.390625 
L 58.015625 17.1875 
L 47.609375 17.1875 
L 47.609375 0 
L 37.796875 0 
L 37.796875 17.1875 
L 4.890625 17.1875 
L 4.890625 26.703125 
z
" id="DejaVuSans-52"/>
      </defs>
      <g transform="translate(322.762174 322.182437)scale(0.1 -0.1)">
       <use xlink:href="#DejaVuSans-48"/>
       <use x="63.623047" xlink:href="#DejaVuSans-46"/>
       <use x="95.410156" xlink:href="#DejaVuSans-48"/>
       <use x="159.033203" xlink:href="#DejaVuSans-52"/>
      </g>
     </g>
    </g>
    <g id="xtick_6">
     <g id="line2d_6">
      <g>
       <use style="stroke:#000000;stroke-width:0.8;" x="398.910551" xlink:href="#m1fec540d90" y="307.584"/>
      </g>
     </g>
     <g id="text_6">
      <!-- 0.05 -->
      <defs>
       <path d="M 10.796875 72.90625 
L 49.515625 72.90625 
L 49.515625 64.59375 
L 19.828125 64.59375 
L 19.828125 46.734375 
Q 21.96875 47.46875 24.109375 47.828125 
Q 26.265625 48.1875 28.421875 48.1875 
Q 40.625 48.1875 47.75 41.5 
Q 54.890625 34.8125 54.890625 23.390625 
Q 54.890625 11.625 47.5625 5.09375 
Q 40.234375 -1.421875 26.90625 -1.421875 
Q 22.3125 -1.421875 17.546875 -0.640625 
Q 12.796875 0.140625 7.71875 1.703125 
L 7.71875 11.625 
Q 12.109375 9.234375 16.796875 8.0625 
Q 21.484375 6.890625 26.703125 6.890625 
Q 35.15625 6.890625 40.078125 11.328125 
Q 45.015625 15.765625 45.015625 23.390625 
Q 45.015625 31 40.078125 35.4375 
Q 35.15625 39.890625 26.703125 39.890625 
Q 22.75 39.890625 18.8125 39.015625 
Q 14.890625 38.140625 10.796875 36.28125 
z
" id="DejaVuSans-53"/>
      </defs>
      <g transform="translate(387.777739 322.182437)scale(0.1 -0.1)">
       <use xlink:href="#DejaVuSans-48"/>
       <use x="63.623047" xlink:href="#DejaVuSans-46"/>
       <use x="95.410156" xlink:href="#DejaVuSans-48"/>
       <use x="159.033203" xlink:href="#DejaVuSans-53"/>
      </g>
     </g>
    </g>
   </g>
   <g id="matplotlib.axis_2">
    <g id="ytick_1">
     <g id="line2d_7">
      <defs>
       <path d="M 0 0 
L -3.5 0 
" id="mfec453a8d8" style="stroke:#000000;stroke-width:0.8;"/>
      </defs>
      <g>
       <use style="stroke:#000000;stroke-width:0.8;" x="57.6" xlink:href="#mfec453a8d8" y="278.438242"/>
      </g>
     </g>
     <g id="text_7">
      <!-- −3000 -->
      <defs>
       <path d="M 10.59375 35.5 
L 73.1875 35.5 
L 73.1875 27.203125 
L 10.59375 27.203125 
z
" id="DejaVuSans-8722"/>
      </defs>
      <g transform="translate(16.770313 282.237461)scale(0.1 -0.1)">
       <use xlink:href="#DejaVuSans-8722"/>
       <use x="83.789062" xlink:href="#DejaVuSans-51"/>
       <use x="147.412109" xlink:href="#DejaVuSans-48"/>
       <use x="211.035156" xlink:href="#DejaVuSans-48"/>
       <use x="274.658203" xlink:href="#DejaVuSans-48"/>
      </g>
     </g>
    </g>
    <g id="ytick_2">
     <g id="line2d_8">
      <g>
       <use style="stroke:#000000;stroke-width:0.8;" x="57.6" xlink:href="#mfec453a8d8" y="243.610482"/>
      </g>
     </g>
     <g id="text_8">
      <!-- −2000 -->
      <g transform="translate(16.770313 247.4097)scale(0.1 -0.1)">
       <use xlink:href="#DejaVuSans-8722"/>
       <use x="83.789062" xlink:href="#DejaVuSans-50"/>
       <use x="147.412109" xlink:href="#DejaVuSans-48"/>
       <use x="211.035156" xlink:href="#DejaVuSans-48"/>
       <use x="274.658203" xlink:href="#DejaVuSans-48"/>
      </g>
     </g>
    </g>
    <g id="ytick_3">
     <g id="line2d_9">
      <g>
       <use style="stroke:#000000;stroke-width:0.8;" x="57.6" xlink:href="#mfec453a8d8" y="208.782721"/>
      </g>
     </g>
     <g id="text_9">
      <!-- −1000 -->
      <g transform="translate(16.770313 212.58194)scale(0.1 -0.1)">
       <use xlink:href="#DejaVuSans-8722"/>
       <use x="83.789062" xlink:href="#DejaVuSans-49"/>
       <use x="147.412109" xlink:href="#DejaVuSans-48"/>
       <use x="211.035156" xlink:href="#DejaVuSans-48"/>
       <use x="274.658203" xlink:href="#DejaVuSans-48"/>
      </g>
     </g>
    </g>
    <g id="ytick_4">
     <g id="line2d_10">
      <g>
       <use style="stroke:#000000;stroke-width:0.8;" x="57.6" xlink:href="#mfec453a8d8" y="173.954961"/>
      </g>
     </g>
     <g id="text_10">
      <!-- 0 -->
      <g transform="translate(44.2375 177.75418)scale(0.1 -0.1)">
       <use xlink:href="#DejaVuSans-48"/>
      </g>
     </g>
    </g>
    <g id="ytick_5">
     <g id="line2d_11">
      <g>
       <use style="stroke:#000000;stroke-width:0.8;" x="57.6" xlink:href="#mfec453a8d8" y="139.127201"/>
      </g>
     </g>
     <g id="text_11">
      <!-- 1000 -->
      <g transform="translate(25.15 142.92642)scale(0.1 -0.1)">
       <use xlink:href="#DejaVuSans-49"/>
       <use x="63.623047" xlink:href="#DejaVuSans-48"/>
       <use x="127.246094" xlink:href="#DejaVuSans-48"/>
       <use x="190.869141" xlink:href="#DejaVuSans-48"/>
      </g>
     </g>
    </g>
    <g id="ytick_6">
     <g id="line2d_12">
      <g>
       <use style="stroke:#000000;stroke-width:0.8;" x="57.6" xlink:href="#mfec453a8d8" y="104.299441"/>
      </g>
     </g>
     <g id="text_12">
      <!-- 2000 -->
      <g transform="translate(25.15 108.09866)scale(0.1 -0.1)">
       <use xlink:href="#DejaVuSans-50"/>
       <use x="63.623047" xlink:href="#DejaVuSans-48"/>
       <use x="127.246094" xlink:href="#DejaVuSans-48"/>
       <use x="190.869141" xlink:href="#DejaVuSans-48"/>
      </g>
     </g>
    </g>
    <g id="ytick_7">
     <g id="line2d_13">
      <g>
       <use style="stroke:#000000;stroke-width:0.8;" x="57.6" xlink:href="#mfec453a8d8" y="69.471681"/>
      </g>
     </g>
     <g id="text_13">
      <!-- 3000 -->
      <g transform="translate(25.15 73.2709)scale(0.1 -0.1)">
       <use xlink:href="#DejaVuSans-51"/>
       <use x="63.623047" xlink:href="#DejaVuSans-48"/>
       <use x="127.246094" xlink:href="#DejaVuSans-48"/>
       <use x="190.869141" xlink:href="#DejaVuSans-48"/>
      </g>
     </g>
    </g>
   </g>
   <g id="line2d_14">
    <path clip-path="url(#pa490ab50fe)" d="M 73.832727 173.954961 
L 79.335347 136.874007 
L 82.298296 118.23026 
L 84.837966 103.536314 
L 86.954358 92.443296 
L 89.07075 82.576346 
L 90.763864 75.66597 
L 92.456978 69.702215 
L 93.726813 65.88553 
L 94.996648 62.65451 
L 96.266483 60.026665 
L 97.536319 58.016236 
L 98.382875 57.024479 
L 99.229432 56.314432 
L 100.075989 55.887804 
L 100.922546 55.745624 
L 101.769103 55.888233 
L 102.61566 56.315289 
L 103.462216 57.025763 
L 104.308773 58.017943 
L 105.15533 59.289438 
L 106.425165 61.713515 
L 107.695001 64.745866 
L 108.964836 68.370059 
L 110.234671 72.566452 
L 111.927785 79.011996 
L 113.620898 86.371934 
L 115.737291 96.748956 
L 117.853683 108.287283 
L 120.393353 123.420754 
L 123.356302 142.43473 
L 128.012365 173.96371 
L 133.514984 211.044223 
L 136.477933 229.687379 
L 139.017603 244.380636 
L 141.133995 255.472963 
L 143.250388 265.339126 
L 144.943501 272.248813 
L 146.636615 278.211831 
L 147.90645 282.027938 
L 149.176285 285.25836 
L 150.446121 287.885591 
L 151.715956 289.895393 
L 152.562513 290.886726 
L 153.40907 291.596348 
L 154.255626 292.022547 
L 155.102183 292.164298 
L 155.94874 292.021259 
L 156.795297 291.593775 
L 157.641854 290.882875 
L 158.488411 289.890272 
L 159.334967 288.618358 
L 160.604803 286.193663 
L 161.874638 283.160708 
L 163.144473 279.535929 
L 164.414308 275.338972 
L 166.107422 268.892715 
L 167.800536 261.532112 
L 169.916928 251.154341 
L 172.03332 239.615365 
L 174.57299 224.481259 
L 177.535939 205.46676 
L 182.192002 173.937463 
L 187.694621 136.857392 
L 190.65757 118.214828 
L 193.197241 103.52226 
L 195.313633 92.430624 
L 197.430025 82.565247 
L 199.123139 75.65625 
L 200.816252 69.693968 
L 202.086087 65.87844 
L 203.355923 62.648616 
L 204.625758 60.021999 
L 205.895593 58.012824 
L 206.74215 57.021914 
L 207.588707 56.312719 
L 208.435264 55.886947 
L 209.281821 55.745625 
L 210.128377 55.889094 
L 210.974934 56.317006 
L 211.821491 57.028333 
L 212.668048 58.021359 
L 213.514605 59.293692 
L 214.78444 61.719006 
L 216.054275 64.752564 
L 217.32411 68.377928 
L 218.593946 72.57545 
L 220.287059 79.022421 
L 221.980173 86.383687 
L 224.096565 96.762207 
L 226.212957 108.301833 
L 228.752628 123.436573 
L 231.715577 142.451595 
L 236.371639 173.981208 
L 241.874259 211.060837 
L 244.837208 229.702809 
L 247.376878 244.394689 
L 249.49327 255.485634 
L 251.609662 265.350224 
L 253.302776 272.258532 
L 254.99589 278.220077 
L 256.265725 282.035026 
L 257.53556 285.264252 
L 258.805395 287.890255 
L 260.075231 289.898803 
L 260.921787 290.889291 
L 261.768344 291.59806 
L 262.614901 292.023403 
L 263.461458 292.164295 
L 264.308015 292.020398 
L 265.154572 291.592057 
L 266.001128 290.880304 
L 266.847685 289.886855 
L 267.694242 288.614103 
L 268.964077 286.188171 
L 270.233913 283.154008 
L 271.503748 279.528059 
L 272.773583 275.329973 
L 274.466697 268.882288 
L 276.15981 261.520359 
L 278.276202 251.141089 
L 280.392595 239.600814 
L 282.932265 224.46544 
L 285.895214 205.449895 
L 290.551277 173.919965 
L 296.053896 136.840779 
L 299.016845 118.199398 
L 301.556515 103.508208 
L 303.672907 92.417954 
L 305.7893 82.55415 
L 307.482413 75.646532 
L 309.175527 69.685723 
L 310.445362 65.871353 
L 311.715197 62.642725 
L 312.985033 60.017337 
L 314.254868 58.009415 
L 315.101425 57.019351 
L 315.947982 56.311008 
L 316.794538 55.886093 
L 317.641095 55.74563 
L 318.487652 55.889957 
L 319.334209 56.318726 
L 320.180766 57.030905 
L 321.027323 58.024777 
L 321.873879 59.297948 
L 323.143715 61.724499 
L 324.41355 64.759265 
L 325.683385 68.3858 
L 326.95322 72.58445 
L 328.646334 79.032848 
L 330.339448 86.395442 
L 332.45584 96.77546 
L 334.572232 108.316385 
L 337.111902 123.452393 
L 340.074851 142.468461 
L 344.730914 173.998706 
L 350.233533 211.07745 
L 353.196482 229.718239 
L 355.736153 244.40874 
L 357.852545 255.498303 
L 359.968937 265.361321 
L 361.66205 272.268248 
L 363.355164 278.228321 
L 364.624999 282.042112 
L 365.894835 285.270142 
L 367.16467 287.894916 
L 368.434505 289.902211 
L 369.281062 290.891852 
L 370.127619 291.599769 
L 370.974176 292.024256 
L 371.820732 292.164289 
L 372.667289 292.019533 
L 373.513846 291.590336 
L 374.360403 290.877731 
L 375.20696 289.883436 
L 376.053517 288.609845 
L 377.323352 286.182676 
L 378.593187 283.147306 
L 379.863022 279.520186 
L 381.132858 275.320972 
L 382.825971 268.87186 
L 384.519085 261.508603 
L 386.635477 251.127835 
L 388.751869 239.586261 
L 391.29154 224.449619 
L 394.254489 205.433029 
L 398.487273 176.803553 
L 398.487273 176.803553 
" style="fill:none;stroke:#1f77b4;stroke-linecap:square;stroke-width:1.5;"/>
   </g>
   <g id="line2d_15">
    <path clip-path="url(#pa490ab50fe)" d="M 73.832727 173.954961 
L 79.335347 136.924201 
L 81.875017 121.054295 
L 84.414688 106.140563 
L 87.377637 90.568908 
L 90.340586 77.373358 
L 93.726813 65.987659 
L 96.689762 59.402542 
L 97.11304 58.759646 
L 100.075989 55.970194 
L 100.499268 55.954286 
L 103.462216 57.074894 
L 104.308773 58.398378 
L 106.848444 62.665372 
L 110.234671 72.585258 
L 113.620898 86.409462 
L 117.430404 106.059961 
L 121.23991 128.87716 
L 125.472694 156.681304 
L 135.208098 221.636537 
L 137.747768 236.950378 
L 140.710717 253.12553 
L 143.673666 267.046872 
L 147.059893 279.405379 
L 150.022842 287.00252 
L 150.869399 288.253585 
L 153.40907 291.557981 
L 154.255626 291.626605 
L 156.795297 291.591663 
L 160.181524 287.04632 
L 163.144473 279.535051 
L 166.5307 267.141903 
L 168.223814 259.529519 
L 170.763485 246.576989 
L 173.303155 232.210605 
L 176.689382 210.96087 
L 180.498888 185.536751 
L 188.1179 134.260856 
L 191.080849 115.874211 
L 193.620519 101.311314 
L 197.006746 84.572789 
L 200.392974 71.271846 
L 203.355923 62.684233 
L 205.049036 59.821348 
L 206.74215 57.030439 
L 210.128377 55.933229 
L 213.091326 58.792415 
L 213.514605 59.36287 
L 216.900832 67.196466 
L 220.287059 79.120571 
L 223.673287 94.684372 
L 227.482792 115.871704 
L 231.292298 139.783138 
L 236.371639 173.954952 
L 241.45098 208.108265 
L 244.413929 226.878053 
L 247.376878 244.144482 
L 250.339827 259.416292 
L 253.726054 273.627099 
L 256.689003 283.148931 
L 260.075231 289.841511 
L 263.038179 291.95772 
L 263.461458 292.07425 
L 266.424407 290.288224 
L 266.847685 289.777846 
L 269.810634 284.183343 
L 271.080469 280.379558 
L 273.62014 272.194521 
L 275.313254 265.273994 
L 277.006367 257.49716 
L 279.122759 246.670251 
L 281.239151 234.581956 
L 283.778822 219.086146 
L 286.741771 199.846944 
L 298.170288 123.445806 
L 300.28668 110.831602 
L 303.672907 92.616166 
L 307.059135 77.530189 
L 310.022084 67.15451 
L 313.408311 59.382856 
L 316.37126 56.195647 
L 316.794538 56.020854 
L 319.757487 56.728635 
L 320.180766 57.184397 
L 323.143715 61.771761 
L 324.41355 65.204276 
L 326.529942 71.122824 
L 329.916169 84.455908 
L 333.725675 103.693943 
L 337.535181 126.22604 
L 341.767965 153.77245 
L 352.773204 227.011723 
L 354.043039 234.501873 
L 357.005988 250.979399 
L 360.392215 266.903809 
L 363.355164 278.108272 
L 366.741391 286.939498 
L 369.70434 291.188665 
L 370.127619 291.421848 
L 373.090568 291.794318 
L 373.937125 290.891523 
L 376.476795 287.866706 
L 379.863022 279.532366 
L 381.979414 272.166621 
L 384.095807 263.424935 
L 386.212199 253.301067 
L 388.328591 241.851012 
L 390.021704 232.071579 
L 393.407932 211.001899 
L 398.487273 176.855853 
L 398.487273 176.855853 
" style="fill:none;stroke:#ff7f0e;stroke-linecap:square;stroke-width:2;"/>
   </g>
   <g id="line2d_16">
    <path clip-path="url(#pa490ab50fe)" d="M 73.832727 172.921447 
L 74.256006 171.757716 
L 74.679284 168.333031 
L 75.102563 163.304721 
L 75.525841 161.595011 
L 75.949119 158.825724 
L 76.372398 158.844247 
L 76.795676 152.174414 
L 77.218955 152.699584 
L 77.642233 146.378089 
L 78.065511 145.239755 
L 78.48879 142.295653 
L 78.912068 142.045188 
L 79.335347 136.336013 
L 79.758625 137.438186 
L 80.181904 129.561699 
L 81.451739 123.546785 
L 82.298296 118.012762 
L 82.721574 117.084922 
L 83.144852 112.021253 
L 83.568131 114.035751 
L 83.991409 107.600007 
L 84.414688 108.157116 
L 84.837966 105.781893 
L 86.107801 96.619372 
L 86.53108 96.717016 
L 86.954358 94.919932 
L 87.377637 88.585825 
L 87.800915 88.893149 
L 88.224193 86.350295 
L 88.647472 85.029306 
L 89.07075 84.439499 
L 89.494029 79.927208 
L 89.917307 79.039471 
L 90.340586 76.422182 
L 90.763864 78.370485 
L 91.187142 74.287986 
L 91.610421 72.459234 
L 92.033699 71.849784 
L 92.456978 70.83762 
L 92.880256 68.96411 
L 93.303534 68.425731 
L 93.726813 64.625309 
L 94.150091 66.772471 
L 94.57337 65.225423 
L 94.996648 65.6687 
L 95.843205 60.41933 
L 96.266483 61.61232 
L 96.689762 58.698161 
L 97.11304 58.153034 
L 97.536319 60.880967 
L 97.959597 56.25456 
L 98.382875 56.95182 
L 98.806154 57.052747 
L 99.229432 57.96601 
L 100.075989 56.132083 
L 100.499268 56.551077 
L 100.922546 53.804439 
L 101.345824 54.801251 
L 101.769103 58.62353 
L 102.192381 59.852079 
L 102.61566 54.389358 
L 103.038938 57.044767 
L 103.462216 57.66677 
L 103.885495 56.331653 
L 104.308773 58.887022 
L 104.732052 60.509705 
L 105.15533 60.701661 
L 105.578609 59.632716 
L 106.001887 62.213501 
L 106.425165 61.942518 
L 106.848444 62.665501 
L 107.271722 60.141612 
L 108.118279 67.630827 
L 108.541557 64.364225 
L 108.964836 68.565306 
L 109.388114 68.001735 
L 109.811393 71.658629 
L 110.234671 73.015336 
L 110.65795 78.232136 
L 111.081228 74.210145 
L 111.504506 79.897853 
L 111.927785 79.937987 
L 112.351063 78.246237 
L 112.774342 84.083589 
L 113.19762 86.376484 
L 113.620898 83.902598 
L 114.044177 88.643781 
L 114.467455 88.623299 
L 114.890734 94.447628 
L 115.737291 97.716734 
L 116.160569 98.494661 
L 116.583847 103.503389 
L 117.007126 101.281546 
L 117.430404 104.932946 
L 117.853683 107.096822 
L 119.123518 115.849242 
L 119.546796 120.062351 
L 119.970075 122.252115 
L 120.393353 123.714251 
L 121.23991 130.746143 
L 121.663188 129.119395 
L 122.086467 133.926269 
L 122.509745 136.987207 
L 122.933024 141.091274 
L 123.356302 140.099 
L 123.77958 143.353863 
L 124.202859 150.98004 
L 124.626137 154.617095 
L 125.049416 154.10479 
L 125.895973 161.302705 
L 126.319251 161.675166 
L 126.742529 162.954219 
L 127.165808 170.752621 
L 127.589086 171.997492 
L 128.012365 176.859214 
L 128.435643 177.804616 
L 128.858921 180.63782 
L 129.2822 182.630574 
L 129.705478 187.847701 
L 130.128757 189.472557 
L 130.975314 193.791656 
L 131.398592 198.619048 
L 131.82187 198.546042 
L 132.245149 200.897259 
L 132.668427 206.969227 
L 133.091706 210.200057 
L 133.514984 211.117958 
L 133.938262 214.014843 
L 134.361541 219.862898 
L 134.784819 220.614218 
L 135.208098 221.105258 
L 135.631376 221.8639 
L 136.054654 227.55097 
L 136.477933 230.896665 
L 136.901211 229.599225 
L 137.32449 236.336393 
L 137.747768 236.802175 
L 138.171047 240.842097 
L 138.594325 242.067163 
L 139.017603 243.809282 
L 139.86416 250.462835 
L 140.287439 250.698301 
L 140.710717 253.021368 
L 141.133995 253.159578 
L 141.557274 258.970599 
L 141.980552 259.442067 
L 142.403831 260.371962 
L 142.827109 267.048956 
L 143.250388 266.60699 
L 143.673666 269.939711 
L 144.096944 266.103773 
L 144.520223 270.9428 
L 145.790058 275.830665 
L 146.213336 275.960719 
L 146.636615 279.872414 
L 147.059893 279.786798 
L 147.483172 277.965555 
L 147.90645 281.380747 
L 148.329729 283.84965 
L 148.753007 287.632677 
L 149.599564 286.203276 
L 150.022842 287.594282 
L 150.446121 287.74531 
L 151.292677 290.641428 
L 151.715956 288.019302 
L 152.139234 290.174223 
L 152.562513 289.884558 
L 152.985791 290.232888 
L 153.40907 291.43992 
L 153.832348 293.069372 
L 154.255626 291.736366 
L 154.678905 294.043795 
L 155.102183 292.643149 
L 155.525462 292.368672 
L 155.94874 290.520602 
L 156.372018 292.956401 
L 156.795297 290.804586 
L 157.218575 290.055274 
L 158.065132 287.726232 
L 158.488411 289.785571 
L 158.911689 288.339978 
L 159.334967 287.304885 
L 159.758246 291.301392 
L 160.181524 285.623993 
L 160.604803 284.547278 
L 161.028081 285.972212 
L 161.451359 285.836907 
L 162.297916 280.816699 
L 162.721195 283.143149 
L 163.144473 282.611087 
L 163.567752 277.085232 
L 163.99103 274.738966 
L 164.414308 274.599578 
L 164.837587 273.185283 
L 165.260865 272.222578 
L 165.684144 274.759571 
L 166.107422 268.724311 
L 166.5307 267.040744 
L 166.953979 264.215649 
L 167.377257 265.695604 
L 167.800536 260.770292 
L 168.223814 260.330493 
L 168.647093 254.564112 
L 169.070371 253.50373 
L 169.493649 252.826438 
L 169.916928 250.56581 
L 170.340206 247.41509 
L 170.763485 249.251426 
L 171.186763 245.141873 
L 171.610041 243.385812 
L 172.03332 238.810232 
L 172.456598 238.051604 
L 172.879877 235.43513 
L 173.303155 230.243179 
L 173.726434 231.393715 
L 174.149712 224.735295 
L 174.57299 225.788413 
L 174.996269 220.099496 
L 175.842826 217.380225 
L 176.266104 215.031628 
L 176.689382 210.525392 
L 177.112661 209.059772 
L 177.535939 206.017521 
L 177.959218 201.768867 
L 178.382496 200.600373 
L 178.805775 196.889412 
L 179.229053 190.950117 
L 179.652331 191.337178 
L 180.07561 189.259168 
L 180.498888 184.660306 
L 180.922167 183.062915 
L 181.768723 176.04612 
L 182.192002 176.578177 
L 182.61528 174.252314 
L 183.038559 168.911405 
L 183.885116 161.995687 
L 184.308394 160.627496 
L 184.731672 155.139787 
L 185.154951 156.004086 
L 185.578229 152.978819 
L 186.001508 146.187068 
L 186.424786 145.574412 
L 186.848064 145.410651 
L 187.694621 135.169458 
L 188.1179 133.331986 
L 188.541178 133.627339 
L 188.964457 126.401673 
L 189.387735 127.137406 
L 189.811013 122.46639 
L 190.234292 120.289119 
L 190.65757 117.070434 
L 191.504127 114.056828 
L 192.350684 107.73122 
L 193.620519 100.904124 
L 194.043798 101.394291 
L 194.467076 96.275408 
L 194.890354 93.719528 
L 195.313633 90.214346 
L 195.736911 91.537051 
L 196.16019 84.682808 
L 196.583468 84.628267 
L 197.006746 84.806963 
L 197.430025 82.782725 
L 197.853303 82.8303 
L 198.276582 79.154169 
L 198.69986 80.038778 
L 199.123139 75.1593 
L 199.546417 73.882409 
L 199.969695 73.961307 
L 200.392974 71.990811 
L 200.816252 67.966366 
L 201.239531 70.923118 
L 202.086087 64.165005 
L 202.509366 68.543897 
L 202.932644 65.189023 
L 203.779201 62.877616 
L 204.20248 62.872835 
L 204.625758 61.475879 
L 205.049036 58.096658 
L 205.472315 59.009283 
L 205.895593 57.665782 
L 206.318872 53.568 
L 206.74215 56.874376 
L 207.165428 56.249668 
L 207.588707 54.789176 
L 208.011985 54.585092 
L 208.435264 56.522863 
L 208.858542 59.239884 
L 209.281821 57.630667 
L 210.128377 55.662366 
L 210.551656 57.482082 
L 210.974934 57.090915 
L 211.398213 56.198483 
L 211.821491 56.29947 
L 212.244769 58.487418 
L 212.668048 57.982411 
L 213.091326 60.710257 
L 213.514605 59.313027 
L 213.937883 61.954972 
L 214.361162 59.835989 
L 214.78444 62.432098 
L 215.207718 63.883028 
L 215.630997 63.241481 
L 216.054275 66.763656 
L 216.477554 62.611953 
L 216.900832 69.465113 
L 217.32411 70.394595 
L 217.747389 69.769964 
L 218.170667 69.782926 
L 218.593946 72.028424 
L 219.017224 73.148616 
L 219.440503 76.048309 
L 220.287059 79.303472 
L 220.710338 80.064841 
L 221.556895 85.985619 
L 221.980173 86.938189 
L 222.403451 88.573217 
L 222.82673 92.705693 
L 223.250008 91.531368 
L 223.673287 97.921143 
L 224.096565 96.325658 
L 224.519844 100.896153 
L 224.943122 99.786107 
L 225.3664 104.254494 
L 225.789679 105.74958 
L 226.212957 108.883726 
L 226.636236 109.493436 
L 227.059514 113.466566 
L 227.906071 118.658384 
L 229.175906 126.251775 
L 229.599185 125.776605 
L 230.022463 134.308571 
L 230.445741 133.807223 
L 230.86902 137.382159 
L 231.292298 137.882673 
L 232.138855 147.653871 
L 232.562133 146.231314 
L 232.985412 151.743111 
L 233.40869 153.114863 
L 233.831969 153.710119 
L 234.255247 155.688037 
L 234.678526 162.692908 
L 235.101804 164.408736 
L 235.525082 164.730166 
L 235.948361 172.037846 
L 236.371639 174.925563 
L 236.794918 176.648813 
L 237.218196 180.570575 
L 238.064753 184.308567 
L 238.488031 188.927787 
L 238.91131 190.239324 
L 239.334588 192.360537 
L 240.604423 201.911582 
L 241.027702 206.109293 
L 241.45098 208.216222 
L 241.874259 209.363104 
L 242.720815 217.879099 
L 243.567372 222.875308 
L 243.990651 223.035142 
L 244.413929 230.385385 
L 244.837208 230.710294 
L 245.260486 231.290542 
L 245.683764 237.61417 
L 246.107043 238.928959 
L 246.530321 238.566063 
L 246.9536 240.999026 
L 247.800156 248.393845 
L 248.223435 249.511105 
L 248.646713 249.009749 
L 249.49327 254.327485 
L 249.916549 258.782572 
L 250.339827 258.27512 
L 250.763105 258.351343 
L 251.609662 264.077325 
L 252.032941 269.433947 
L 252.456219 266.608578 
L 252.879497 270.490506 
L 253.302776 272.449307 
L 253.726054 273.055765 
L 254.149333 274.728005 
L 254.99589 276.940353 
L 255.419168 280.89324 
L 255.842446 281.012195 
L 256.265725 280.630929 
L 256.689003 281.22358 
L 257.112282 284.212847 
L 257.53556 285.792361 
L 257.958838 283.81359 
L 258.382117 288.88087 
L 258.805395 285.481081 
L 259.228674 285.672695 
L 259.651952 287.161533 
L 260.075231 289.382153 
L 260.498509 290.670483 
L 260.921787 290.818448 
L 261.345066 292.515876 
L 261.768344 293.581157 
L 262.614901 291.37898 
L 263.038179 288.546103 
L 263.461458 292.085512 
L 263.884736 292.856743 
L 264.308015 289.336052 
L 264.731293 294.144536 
L 265.154572 290.915851 
L 265.57785 291.577263 
L 266.001128 288.565456 
L 266.424407 289.765906 
L 266.847685 288.122501 
L 267.270964 289.680693 
L 267.694242 284.399989 
L 268.11752 286.795319 
L 268.540799 285.693608 
L 268.964077 287.862391 
L 269.387356 283.965024 
L 269.810634 285.700555 
L 270.233913 280.948645 
L 270.657191 282.230754 
L 272.773583 274.125031 
L 273.196861 278.452614 
L 273.62014 271.04318 
L 274.043418 270.953358 
L 274.889975 267.787817 
L 275.313254 266.281075 
L 275.736532 263.269715 
L 276.15981 263.745022 
L 277.006367 257.928652 
L 277.429646 256.855043 
L 277.852924 251.297358 
L 278.276202 250.584051 
L 278.699481 246.557613 
L 279.122759 246.585051 
L 279.546038 243.759915 
L 279.969316 239.988974 
L 280.392595 243.120106 
L 280.815873 237.116188 
L 281.239151 233.134795 
L 281.66243 235.040355 
L 282.085708 227.615236 
L 283.778822 219.439725 
L 284.2021 217.938463 
L 285.048657 207.842521 
L 285.471936 209.999485 
L 285.895214 205.39447 
L 286.318492 206.013319 
L 286.741771 196.997069 
L 288.011606 188.234352 
L 288.434884 189.782955 
L 288.858163 184.428278 
L 290.127998 177.199249 
L 290.551277 173.2417 
L 290.974555 172.333547 
L 291.397833 166.944914 
L 291.821112 164.925231 
L 292.24439 160.822284 
L 292.667669 157.802944 
L 293.090947 157.822891 
L 293.514225 151.455671 
L 293.937504 151.661091 
L 294.360782 145.208627 
L 294.784061 144.547573 
L 295.207339 142.623188 
L 296.053896 133.433503 
L 296.477174 134.611488 
L 297.74701 128.119422 
L 298.170288 120.180291 
L 298.593566 119.632313 
L 299.016845 117.853064 
L 299.440123 120.491807 
L 299.863402 113.761541 
L 300.28668 110.224876 
L 300.709959 110.855364 
L 301.556515 101.840242 
L 301.979794 104.172826 
L 302.403072 102.059604 
L 302.826351 96.776144 
L 303.672907 92.267429 
L 304.096186 91.633209 
L 304.519464 88.920423 
L 304.942743 88.806107 
L 305.366021 83.906295 
L 305.7893 84.396399 
L 306.212578 81.604311 
L 306.635856 77.899429 
L 307.059135 76.39846 
L 307.482413 76.129076 
L 307.905692 71.135807 
L 308.32897 72.956397 
L 308.752248 71.432704 
L 309.175527 71.103743 
L 310.022084 69.518478 
L 310.868641 63.443867 
L 311.291919 63.710019 
L 311.715197 59.077806 
L 312.138476 61.869612 
L 312.561754 61.545914 
L 312.985033 59.449182 
L 313.408311 58.062423 
L 313.831589 58.449074 
L 314.678146 56.727797 
L 315.101425 57.369818 
L 315.524703 58.584845 
L 315.947982 57.665359 
L 316.37126 55.682178 
L 316.794538 55.307202 
L 317.217817 58.257493 
L 317.641095 54.05974 
L 318.064374 57.14155 
L 318.487652 55.313156 
L 318.91093 54.565058 
L 319.334209 57.771318 
L 319.757487 58.979509 
L 320.604044 56.130512 
L 321.450601 60.018839 
L 321.873879 58.803679 
L 322.720436 61.014436 
L 323.143715 59.614393 
L 323.566993 62.445686 
L 323.990271 63.802957 
L 324.41355 69.248018 
L 325.260107 65.496228 
L 325.683385 69.55742 
L 326.106664 70.927616 
L 326.529942 69.492775 
L 326.95322 72.959743 
L 327.376499 74.562082 
L 327.799777 74.983086 
L 328.223056 76.74321 
L 328.646334 81.833215 
L 329.069612 79.100596 
L 329.492891 81.664608 
L 330.339448 90.570315 
L 330.762726 88.488803 
L 331.186005 88.447334 
L 331.609283 94.020136 
L 332.032561 93.095982 
L 332.45584 100.325717 
L 332.879118 99.808294 
L 333.302397 99.539151 
L 333.725675 104.896864 
L 334.148953 105.413707 
L 334.572232 111.739352 
L 334.99551 110.033472 
L 335.418789 115.362474 
L 335.842067 116.332501 
L 336.265346 117.940174 
L 336.688624 120.300644 
L 337.111902 123.911415 
L 337.535181 128.548997 
L 337.958459 129.105447 
L 338.381738 131.44511 
L 338.805016 135.408868 
L 339.228294 137.186855 
L 339.651573 138.221913 
L 340.49813 147.212379 
L 340.921408 145.916085 
L 341.344686 148.711219 
L 341.767965 154.631679 
L 342.191243 158.455791 
L 342.614522 158.405891 
L 343.0378 158.543038 
L 343.461079 166.604798 
L 343.884357 168.441559 
L 344.307635 169.728155 
L 344.730914 175.143036 
L 345.577471 180.029673 
L 346.000749 181.679159 
L 346.424027 182.280929 
L 347.270584 191.566278 
L 347.693863 194.32451 
L 348.117141 195.831301 
L 348.54042 198.058026 
L 348.963698 201.567966 
L 349.386976 202.940264 
L 349.810255 210.247509 
L 350.233533 213.015814 
L 350.656812 211.602104 
L 351.08009 214.851823 
L 351.503368 220.885265 
L 351.926647 221.873706 
L 352.349925 224.281013 
L 352.773204 229.141848 
L 353.196482 230.258126 
L 353.619761 228.726514 
L 355.736153 245.4106 
L 356.582709 249.524556 
L 357.005988 250.549495 
L 357.429266 254.130444 
L 357.852545 256.011099 
L 358.275823 258.626608 
L 358.699102 256.562967 
L 359.12238 263.054997 
L 359.545658 262.555027 
L 359.968937 265.682674 
L 360.392215 269.9229 
L 360.815494 270.178154 
L 361.238772 268.647064 
L 361.66205 271.886295 
L 362.085329 276.64171 
L 362.508607 275.663624 
L 362.931886 275.438283 
L 363.778443 281.895201 
L 364.201721 280.667994 
L 364.624999 283.068541 
L 365.048278 284.287625 
L 365.471556 284.248667 
L 365.894835 286.338649 
L 366.318113 282.924435 
L 366.741391 288.482506 
L 367.16467 287.059252 
L 367.587948 287.985338 
L 368.011227 291.565797 
L 368.434505 287.962855 
L 368.857784 288.643314 
L 369.281062 288.085047 
L 369.70434 290.901412 
L 370.127619 290.021015 
L 370.550897 289.862642 
L 370.974176 288.216837 
L 371.397454 291.592242 
L 371.820732 293.458787 
L 372.244011 294.517796 
L 373.090568 290.046985 
L 373.513846 295.488 
L 373.937125 287.51615 
L 374.360403 292.172616 
L 374.783681 289.696381 
L 375.20696 290.714392 
L 375.630238 288.983235 
L 376.053517 289.147636 
L 376.476795 290.072049 
L 376.900073 287.290289 
L 377.323352 285.676805 
L 377.74663 287.565937 
L 378.593187 282.512991 
L 379.016466 281.761277 
L 379.439744 281.253131 
L 379.863022 281.473475 
L 380.286301 278.070911 
L 380.709579 278.327914 
L 381.132858 277.43911 
L 381.556136 275.344072 
L 381.979414 270.479045 
L 382.402693 269.663143 
L 382.825971 268.178545 
L 383.24925 268.493517 
L 383.672528 267.924029 
L 384.095807 262.992155 
L 385.365642 256.912942 
L 385.78892 256.814239 
L 386.635477 250.702827 
L 387.058755 248.560201 
L 387.482034 248.218171 
L 387.905312 247.08785 
L 388.328591 243.598293 
L 388.751869 238.841411 
L 390.021704 230.861304 
L 390.868261 228.08475 
L 391.29154 224.374127 
L 391.714818 223.556953 
L 392.138096 223.253877 
L 392.561375 213.405334 
L 392.984653 212.293862 
L 393.407932 209.072791 
L 393.83121 208.261699 
L 394.254489 205.457387 
L 394.677767 204.227567 
L 395.101045 200.730246 
L 395.524324 195.828995 
L 395.947602 194.301705 
L 396.370881 190.27918 
L 396.794159 193.225597 
L 397.217437 184.837602 
L 397.640716 181.380616 
L 398.063994 179.374798 
L 398.487273 178.442001 
L 398.487273 178.442001 
" style="fill:none;stroke:#2ca02c;stroke-linecap:square;stroke-opacity:0.8;stroke-width:1.5;"/>
   </g>
   <g id="patch_3">
    <path d="M 57.6 307.584 
L 57.6 41.472 
" style="fill:none;stroke:#000000;stroke-linecap:square;stroke-linejoin:miter;stroke-width:0.8;"/>
   </g>
   <g id="patch_4">
    <path d="M 414.72 307.584 
L 414.72 41.472 
" style="fill:none;stroke:#000000;stroke-linecap:square;stroke-linejoin:miter;stroke-width:0.8;"/>
   </g>
   <g id="patch_5">
    <path d="M 57.6 307.584 
L 414.72 307.584 
" style="fill:none;stroke:#000000;stroke-linecap:square;stroke-linejoin:miter;stroke-width:0.8;"/>
   </g>
   <g id="patch_6">
    <path d="M 57.6 41.472 
L 414.72 41.472 
" style="fill:none;stroke:#000000;stroke-linecap:square;stroke-linejoin:miter;stroke-width:0.8;"/>
   </g>
  </g>
 </g>
 <defs>
  <clipPath id="pa490ab50fe">
   <rect height="266.112" width="357.12" x="57.6" y="41.472"/>
  </clipPath>
 </defs>
</svg>
