<?xml version="1.0" encoding="utf-8" standalone="no"?>
<!DOCTYPE svg PUBLIC "-//W3C//DTD SVG 1.1//EN"
  "http://www.w3.org/Graphics/SVG/1.1/DTD/svg11.dtd">
<!-- Created with matplotlib (https://matplotlib.org/) -->
<svg height="345.6pt" version="1.1" viewBox="0 0 460.8 345.6" width="460.8pt" xmlns="http://www.w3.org/2000/svg" xmlns:xlink="http://www.w3.org/1999/xlink">
 <defs>
  <style type="text/css">
*{stroke-linecap:butt;stroke-linejoin:round;}
  </style>
 </defs>
 <g id="figure_1">
  <g id="patch_1">
   <path d="M 0 345.6 
L 460.8 345.6 
L 460.8 0 
L 0 0 
z
" style="fill:#ffffff;"/>
  </g>
  <g id="axes_1">
   <g id="patch_2">
    <path d="M 57.6 307.584 
L 414.72 307.584 
L 414.72 41.472 
L 57.6 41.472 
z
" style="fill:#ffffff;"/>
   </g>
   <g id="matplotlib.axis_1">
    <g id="xtick_1">
     <g id="line2d_1">
      <defs>
       <path d="M 0 0 
L 0 3.5 
" id="mc56b624364" style="stroke:#000000;stroke-width:0.8;"/>
      </defs>
      <g>
       <use style="stroke:#000000;stroke-width:0.8;" x="73.832727" xlink:href="#mc56b624364" y="307.584"/>
      </g>
     </g>
     <g id="text_1">
      <!-- 0.00 -->
      <defs>
       <path d="M 31.78125 66.40625 
Q 24.171875 66.40625 20.328125 58.90625 
Q 16.5 51.421875 16.5 36.375 
Q 16.5 21.390625 20.328125 13.890625 
Q 24.171875 6.390625 31.78125 6.390625 
Q 39.453125 6.390625 43.28125 13.890625 
Q 47.125 21.390625 47.125 36.375 
Q 47.125 51.421875 43.28125 58.90625 
Q 39.453125 66.40625 31.78125 66.40625 
z
M 31.78125 74.21875 
Q 44.046875 74.21875 50.515625 64.515625 
Q 56.984375 54.828125 56.984375 36.375 
Q 56.984375 17.96875 50.515625 8.265625 
Q 44.046875 -1.421875 31.78125 -1.421875 
Q 19.53125 -1.421875 13.0625 8.265625 
Q 6.59375 17.96875 6.59375 36.375 
Q 6.59375 54.828125 13.0625 64.515625 
Q 19.53125 74.21875 31.78125 74.21875 
z
" id="DejaVuSans-48"/>
       <path d="M 10.6875 12.40625 
L 21 12.40625 
L 21 0 
L 10.6875 0 
z
" id="DejaVuSans-46"/>
      </defs>
      <g transform="translate(53.793665 328.261187)scale(0.18 -0.18)">
       <use xlink:href="#DejaVuSans-48"/>
       <use x="63.623047" xlink:href="#DejaVuSans-46"/>
       <use x="95.410156" xlink:href="#DejaVuSans-48"/>
       <use x="159.033203" xlink:href="#DejaVuSans-48"/>
      </g>
     </g>
    </g>
    <g id="xtick_2">
     <g id="line2d_2">
      <g>
       <use style="stroke:#000000;stroke-width:0.8;" x="138.848292" xlink:href="#mc56b624364" y="307.584"/>
      </g>
     </g>
     <g id="text_2">
      <!-- 0.01 -->
      <defs>
       <path d="M 12.40625 8.296875 
L 28.515625 8.296875 
L 28.515625 63.921875 
L 10.984375 60.40625 
L 10.984375 69.390625 
L 28.421875 72.90625 
L 38.28125 72.90625 
L 38.28125 8.296875 
L 54.390625 8.296875 
L 54.390625 0 
L 12.40625 0 
z
" id="DejaVuSans-49"/>
      </defs>
      <g transform="translate(118.80923 328.261187)scale(0.18 -0.18)">
       <use xlink:href="#DejaVuSans-48"/>
       <use x="63.623047" xlink:href="#DejaVuSans-46"/>
       <use x="95.410156" xlink:href="#DejaVuSans-48"/>
       <use x="159.033203" xlink:href="#DejaVuSans-49"/>
      </g>
     </g>
    </g>
    <g id="xtick_3">
     <g id="line2d_3">
      <g>
       <use style="stroke:#000000;stroke-width:0.8;" x="203.863857" xlink:href="#mc56b624364" y="307.584"/>
      </g>
     </g>
     <g id="text_3">
      <!-- 0.02 -->
      <defs>
       <path d="M 19.1875 8.296875 
L 53.609375 8.296875 
L 53.609375 0 
L 7.328125 0 
L 7.328125 8.296875 
Q 12.9375 14.109375 22.625 23.890625 
Q 32.328125 33.6875 34.8125 36.53125 
Q 39.546875 41.84375 41.421875 45.53125 
Q 43.3125 49.21875 43.3125 52.78125 
Q 43.3125 58.59375 39.234375 62.25 
Q 35.15625 65.921875 28.609375 65.921875 
Q 23.96875 65.921875 18.8125 64.3125 
Q 13.671875 62.703125 7.8125 59.421875 
L 7.8125 69.390625 
Q 13.765625 71.78125 18.9375 73 
Q 24.125 74.21875 28.421875 74.21875 
Q 39.75 74.21875 46.484375 68.546875 
Q 53.21875 62.890625 53.21875 53.421875 
Q 53.21875 48.921875 51.53125 44.890625 
Q 49.859375 40.875 45.40625 35.40625 
Q 44.1875 33.984375 37.640625 27.21875 
Q 31.109375 20.453125 19.1875 8.296875 
z
" id="DejaVuSans-50"/>
      </defs>
      <g transform="translate(183.824794 328.261187)scale(0.18 -0.18)">
       <use xlink:href="#DejaVuSans-48"/>
       <use x="63.623047" xlink:href="#DejaVuSans-46"/>
       <use x="95.410156" xlink:href="#DejaVuSans-48"/>
       <use x="159.033203" xlink:href="#DejaVuSans-50"/>
      </g>
     </g>
    </g>
    <g id="xtick_4">
     <g id="line2d_4">
      <g>
       <use style="stroke:#000000;stroke-width:0.8;" x="268.879422" xlink:href="#mc56b624364" y="307.584"/>
      </g>
     </g>
     <g id="text_4">
      <!-- 0.03 -->
      <defs>
       <path d="M 40.578125 39.3125 
Q 47.65625 37.796875 51.625 33 
Q 55.609375 28.21875 55.609375 21.1875 
Q 55.609375 10.40625 48.1875 4.484375 
Q 40.765625 -1.421875 27.09375 -1.421875 
Q 22.515625 -1.421875 17.65625 -0.515625 
Q 12.796875 0.390625 7.625 2.203125 
L 7.625 11.71875 
Q 11.71875 9.328125 16.59375 8.109375 
Q 21.484375 6.890625 26.8125 6.890625 
Q 36.078125 6.890625 40.9375 10.546875 
Q 45.796875 14.203125 45.796875 21.1875 
Q 45.796875 27.640625 41.28125 31.265625 
Q 36.765625 34.90625 28.71875 34.90625 
L 20.21875 34.90625 
L 20.21875 43.015625 
L 29.109375 43.015625 
Q 36.375 43.015625 40.234375 45.921875 
Q 44.09375 48.828125 44.09375 54.296875 
Q 44.09375 59.90625 40.109375 62.90625 
Q 36.140625 65.921875 28.71875 65.921875 
Q 24.65625 65.921875 20.015625 65.03125 
Q 15.375 64.15625 9.8125 62.3125 
L 9.8125 71.09375 
Q 15.4375 72.65625 20.34375 73.4375 
Q 25.25 74.21875 29.59375 74.21875 
Q 40.828125 74.21875 47.359375 69.109375 
Q 53.90625 64.015625 53.90625 55.328125 
Q 53.90625 49.265625 50.4375 45.09375 
Q 46.96875 40.921875 40.578125 39.3125 
z
" id="DejaVuSans-51"/>
      </defs>
      <g transform="translate(248.840359 328.261187)scale(0.18 -0.18)">
       <use xlink:href="#DejaVuSans-48"/>
       <use x="63.623047" xlink:href="#DejaVuSans-46"/>
       <use x="95.410156" xlink:href="#DejaVuSans-48"/>
       <use x="159.033203" xlink:href="#DejaVuSans-51"/>
      </g>
     </g>
    </g>
    <g id="xtick_5">
     <g id="line2d_5">
      <g>
       <use style="stroke:#000000;stroke-width:0.8;" x="333.894986" xlink:href="#mc56b624364" y="307.584"/>
      </g>
     </g>
     <g id="text_5">
      <!-- 0.04 -->
      <defs>
       <path d="M 37.796875 64.3125 
L 12.890625 25.390625 
L 37.796875 25.390625 
z
M 35.203125 72.90625 
L 47.609375 72.90625 
L 47.609375 25.390625 
L 58.015625 25.390625 
L 58.015625 17.1875 
L 47.609375 17.1875 
L 47.609375 0 
L 37.796875 0 
L 37.796875 17.1875 
L 4.890625 17.1875 
L 4.890625 26.703125 
z
" id="DejaVuSans-52"/>
      </defs>
      <g transform="translate(313.855924 328.261187)scale(0.18 -0.18)">
       <use xlink:href="#DejaVuSans-48"/>
       <use x="63.623047" xlink:href="#DejaVuSans-46"/>
       <use x="95.410156" xlink:href="#DejaVuSans-48"/>
       <use x="159.033203" xlink:href="#DejaVuSans-52"/>
      </g>
     </g>
    </g>
    <g id="xtick_6">
     <g id="line2d_6">
      <g>
       <use style="stroke:#000000;stroke-width:0.8;" x="398.910551" xlink:href="#mc56b624364" y="307.584"/>
      </g>
     </g>
     <g id="text_6">
      <!-- 0.05 -->
      <defs>
       <path d="M 10.796875 72.90625 
L 49.515625 72.90625 
L 49.515625 64.59375 
L 19.828125 64.59375 
L 19.828125 46.734375 
Q 21.96875 47.46875 24.109375 47.828125 
Q 26.265625 48.1875 28.421875 48.1875 
Q 40.625 48.1875 47.75 41.5 
Q 54.890625 34.8125 54.890625 23.390625 
Q 54.890625 11.625 47.5625 5.09375 
Q 40.234375 -1.421875 26.90625 -1.421875 
Q 22.3125 -1.421875 17.546875 -0.640625 
Q 12.796875 0.140625 7.71875 1.703125 
L 7.71875 11.625 
Q 12.109375 9.234375 16.796875 8.0625 
Q 21.484375 6.890625 26.703125 6.890625 
Q 35.15625 6.890625 40.078125 11.328125 
Q 45.015625 15.765625 45.015625 23.390625 
Q 45.015625 31 40.078125 35.4375 
Q 35.15625 39.890625 26.703125 39.890625 
Q 22.75 39.890625 18.8125 39.015625 
Q 14.890625 38.140625 10.796875 36.28125 
z
" id="DejaVuSans-53"/>
      </defs>
      <g transform="translate(378.871489 328.261187)scale(0.18 -0.18)">
       <use xlink:href="#DejaVuSans-48"/>
       <use x="63.623047" xlink:href="#DejaVuSans-46"/>
       <use x="95.410156" xlink:href="#DejaVuSans-48"/>
       <use x="159.033203" xlink:href="#DejaVuSans-53"/>
      </g>
     </g>
    </g>
   </g>
   <g id="matplotlib.axis_2">
    <g id="ytick_1">
     <g id="line2d_7">
      <defs>
       <path d="M 0 0 
L -3.5 0 
" id="maccd8b1bcf" style="stroke:#000000;stroke-width:0.8;"/>
      </defs>
      <g>
       <use style="stroke:#000000;stroke-width:0.8;" x="57.6" xlink:href="#maccd8b1bcf" y="278.009691"/>
      </g>
     </g>
     <g id="text_7">
      <!-- 0 -->
      <g transform="translate(39.1475 284.848285)scale(0.18 -0.18)">
       <use xlink:href="#DejaVuSans-48"/>
      </g>
     </g>
    </g>
    <g id="ytick_2">
     <g id="line2d_8">
      <g>
       <use style="stroke:#000000;stroke-width:0.8;" x="57.6" xlink:href="#maccd8b1bcf" y="219.248604"/>
      </g>
     </g>
     <g id="text_8">
      <!-- 5 -->
      <g transform="translate(39.1475 226.087198)scale(0.18 -0.18)">
       <use xlink:href="#DejaVuSans-53"/>
      </g>
     </g>
    </g>
    <g id="ytick_3">
     <g id="line2d_9">
      <g>
       <use style="stroke:#000000;stroke-width:0.8;" x="57.6" xlink:href="#maccd8b1bcf" y="160.487517"/>
      </g>
     </g>
     <g id="text_9">
      <!-- 10 -->
      <g transform="translate(27.695 167.326111)scale(0.18 -0.18)">
       <use xlink:href="#DejaVuSans-49"/>
       <use x="63.623047" xlink:href="#DejaVuSans-48"/>
      </g>
     </g>
    </g>
    <g id="ytick_4">
     <g id="line2d_10">
      <g>
       <use style="stroke:#000000;stroke-width:0.8;" x="57.6" xlink:href="#maccd8b1bcf" y="101.72643"/>
      </g>
     </g>
     <g id="text_10">
      <!-- 15 -->
      <g transform="translate(27.695 108.565024)scale(0.18 -0.18)">
       <use xlink:href="#DejaVuSans-49"/>
       <use x="63.623047" xlink:href="#DejaVuSans-53"/>
      </g>
     </g>
    </g>
    <g id="ytick_5">
     <g id="line2d_11">
      <g>
       <use style="stroke:#000000;stroke-width:0.8;" x="57.6" xlink:href="#maccd8b1bcf" y="42.965344"/>
      </g>
     </g>
     <g id="text_11">
      <!-- 20 -->
      <g transform="translate(27.695 49.803937)scale(0.18 -0.18)">
       <use xlink:href="#DejaVuSans-50"/>
       <use x="63.623047" xlink:href="#DejaVuSans-48"/>
      </g>
     </g>
    </g>
   </g>
   <g id="line2d_12">
    <path clip-path="url(#pbc8acccd7f)" d="M 73.832727 278.009691 
L 74.679284 275.886904 
L 75.949119 272.077801 
L 77.218955 267.689637 
L 78.912068 261.120883 
L 80.605182 253.640029 
L 83.991409 236.558121 
L 87.800915 214.446123 
L 92.456978 184.942435 
L 100.499268 133.309929 
L 104.308773 111.341201 
L 107.271722 96.140534 
L 110.65795 81.721232 
L 113.620898 71.801589 
L 117.007126 64.38965 
L 119.970075 61.358413 
L 120.393353 61.184741 
L 123.356302 61.830589 
L 126.742529 66.711342 
L 128.435643 70.755132 
L 130.975314 78.700863 
L 133.514984 88.565721 
L 137.32449 107.048801 
L 141.133995 128.688142 
L 145.36678 155.214083 
L 155.94874 222.942789 
L 157.641854 232.724228 
L 160.604803 248.598139 
L 163.567752 262.221138 
L 166.5307 273.449838 
L 168.223814 278.440727 
L 170.340206 283.266182 
L 172.03332 286.088823 
L 172.879877 287.057595 
L 173.303155 287.452231 
L 174.149712 287.835901 
L 175.419547 288.289635 
L 175.842826 288.267051 
L 177.959218 287.197551 
L 178.805775 286.238042 
L 179.652331 285.039061 
L 180.498888 283.560508 
L 181.768723 280.875857 
L 182.61528 278.810501 
L 183.885116 275.181129 
L 185.578229 269.479228 
L 186.848064 264.612795 
L 189.811013 251.393761 
L 193.197241 233.686959 
L 196.583468 213.655196 
L 200.392974 189.448093 
L 208.011985 140.333135 
L 210.974934 122.549245 
L 213.937883 106.267942 
L 216.900832 91.955916 
L 220.287059 78.797418 
L 223.250008 70.244475 
L 224.096565 68.652726 
L 226.636236 64.3195 
L 227.482792 63.847273 
L 230.022463 62.682996 
L 233.40869 65.434707 
L 235.101804 68.462548 
L 236.794918 72.422886 
L 238.488031 77.442646 
L 240.181145 83.472793 
L 243.567372 98.022964 
L 247.376878 118.024395 
L 251.186384 140.752681 
L 255.842446 170.685564 
L 263.038179 217.052842 
L 265.57785 232.00173 
L 267.270964 241.455249 
L 270.233913 256.443044 
L 273.62014 270.690855 
L 275.313254 276.426557 
L 276.583089 280.083608 
L 277.852924 283.20841 
L 279.122759 285.830433 
L 279.969316 287.215733 
L 282.508987 289.650672 
L 284.625379 289.893298 
L 285.471936 289.541821 
L 286.318492 288.8726 
L 287.165049 287.815389 
L 288.434884 286.018901 
L 290.127998 282.510649 
L 290.974555 280.490469 
L 292.24439 276.84507 
L 293.514225 272.680761 
L 294.784061 267.942522 
L 296.900453 259.029457 
L 298.593566 251.070116 
L 300.709959 239.870503 
L 304.096186 220.405444 
L 308.752248 191.070738 
L 317.641095 134.229989 
L 320.604044 117.021811 
L 323.566993 101.520773 
L 326.95322 86.685532 
L 329.916169 76.349367 
L 333.302397 68.418604 
L 336.688624 64.687848 
L 339.651573 65.00234 
L 340.074851 65.250886 
L 342.191243 67.76498 
L 344.730914 72.991784 
L 346.424027 77.789021 
L 348.54042 85.477825 
L 350.233533 92.076287 
L 353.619761 108.175255 
L 357.429266 129.514649 
L 361.66205 155.843231 
L 373.090568 228.941479 
L 376.476795 247.77881 
L 380.286301 265.644258 
L 382.402693 273.790679 
L 384.095807 279.392882 
L 385.78892 283.903267 
L 386.635477 285.805404 
L 389.175148 289.947187 
L 391.714818 291.657597 
L 392.561375 291.670847 
L 392.984653 291.593374 
L 393.83121 290.958675 
L 395.524324 289.520035 
L 395.947602 288.946518 
L 398.487273 284.256835 
L 398.487273 284.256835 
" style="fill:none;stroke:#1f77b4;stroke-linecap:square;stroke-width:2;"/>
   </g>
   <g id="line2d_13">
    <path clip-path="url(#pbc8acccd7f)" d="M 73.832727 278.699772 
L 74.256006 281.047383 
L 74.679284 277.258294 
L 75.102563 275.597365 
L 75.525841 272.167952 
L 75.949119 276.891968 
L 76.372398 267.220602 
L 76.795676 266.952182 
L 77.218955 264.823403 
L 77.642233 270.245951 
L 78.065511 261.672415 
L 78.48879 257.937256 
L 78.912068 259.616551 
L 79.335347 261.812392 
L 79.758625 260.250841 
L 80.181904 257.418606 
L 80.605182 252.760479 
L 81.02846 255.988388 
L 81.451739 254.00445 
L 82.298296 243.902442 
L 82.721574 249.195511 
L 83.144852 242.132882 
L 83.568131 238.406968 
L 83.991409 238.670188 
L 84.414688 235.456613 
L 84.837966 230.756397 
L 85.261245 224.717444 
L 85.684523 224.919644 
L 86.107801 223.932165 
L 86.954358 220.117068 
L 87.377637 212.5723 
L 87.800915 207.237196 
L 88.224193 214.453467 
L 88.647472 208.008854 
L 89.07075 205.371746 
L 89.494029 201.009116 
L 89.917307 200.710798 
L 90.340586 198.233813 
L 90.763864 196.972829 
L 91.610421 189.249767 
L 92.033699 189.129679 
L 92.456978 183.745656 
L 92.880256 184.008671 
L 93.303534 180.425598 
L 93.726813 178.491944 
L 94.150091 172.274616 
L 94.57337 171.857689 
L 94.996648 168.503347 
L 95.419927 168.422435 
L 95.843205 163.715709 
L 96.266483 162.414355 
L 96.689762 159.488597 
L 97.11304 153.17098 
L 97.536319 144.940345 
L 97.959597 151.574275 
L 98.806154 145.286974 
L 99.229432 140.77704 
L 99.652711 140.790105 
L 100.075989 132.709383 
L 100.499268 134.82941 
L 101.345824 127.333158 
L 101.769103 129.999833 
L 102.192381 124.629082 
L 102.61566 122.079729 
L 103.038938 120.492615 
L 103.462216 113.885181 
L 103.885495 116.280021 
L 104.308773 114.911827 
L 104.732052 109.560997 
L 105.15533 114.656889 
L 105.578609 102.13396 
L 106.001887 101.726275 
L 106.848444 92.946605 
L 107.271722 99.086349 
L 107.695001 91.530116 
L 108.118279 92.941379 
L 108.541557 90.345089 
L 108.964836 89.07335 
L 109.388114 88.443234 
L 109.811393 80.148351 
L 110.234671 79.431816 
L 110.65795 78.982949 
L 111.081228 81.839882 
L 111.504506 80.288283 
L 111.927785 74.459641 
L 112.351063 75.702503 
L 112.774342 74.101739 
L 113.19762 76.505918 
L 113.620898 72.664992 
L 114.044177 73.32203 
L 114.467455 68.727387 
L 114.890734 67.453895 
L 115.314012 68.32081 
L 115.737291 64.732623 
L 116.160569 65.661122 
L 116.583847 62.968086 
L 117.007126 65.509167 
L 117.430404 69.725505 
L 118.276961 58.864969 
L 118.700239 65.087844 
L 119.123518 64.765349 
L 119.546796 62.232986 
L 119.970075 60.509826 
L 120.393353 61.905878 
L 120.816632 58.533073 
L 121.23991 62.138206 
L 121.663188 60.638225 
L 122.086467 61.368511 
L 122.509745 60.585153 
L 122.933024 53.568 
L 123.356302 64.172055 
L 123.77958 64.008437 
L 124.202859 63.337735 
L 124.626137 64.933124 
L 125.049416 62.750626 
L 125.472694 61.803903 
L 125.895973 66.550448 
L 126.319251 63.191665 
L 126.742529 64.213747 
L 127.165808 68.865971 
L 127.589086 66.900629 
L 128.012365 70.681187 
L 128.435643 72.265783 
L 128.858921 66.38165 
L 129.2822 77.319022 
L 129.705478 76.45404 
L 130.128757 75.991971 
L 130.552035 78.053774 
L 130.975314 77.624028 
L 131.398592 85.667028 
L 131.82187 83.115372 
L 132.245149 83.901818 
L 132.668427 88.999017 
L 133.091706 86.804833 
L 133.514984 85.338085 
L 133.938262 93.467527 
L 134.361541 91.332498 
L 134.784819 97.634731 
L 135.208098 100.051067 
L 135.631376 97.979302 
L 136.054654 99.24526 
L 136.901211 103.82448 
L 137.32449 112.762561 
L 137.747768 109.540257 
L 138.171047 109.19653 
L 138.594325 110.174561 
L 139.017603 116.8658 
L 139.440882 120.510096 
L 140.287439 122.224639 
L 140.710717 126.717221 
L 141.557274 128.887245 
L 141.980552 137.332392 
L 142.403831 131.771485 
L 142.827109 139.298988 
L 143.673666 144.419363 
L 144.096944 144.062915 
L 144.520223 151.102193 
L 144.943501 154.951173 
L 145.36678 155.428993 
L 145.790058 157.490426 
L 146.213336 156.060754 
L 147.059893 165.991431 
L 147.483172 173.405926 
L 147.90645 174.456308 
L 148.329729 173.02696 
L 148.753007 177.502289 
L 149.176285 184.452127 
L 149.599564 183.938792 
L 150.022842 183.832648 
L 150.446121 184.967275 
L 150.869399 188.419688 
L 151.292677 195.625406 
L 151.715956 199.721173 
L 152.139234 194.121144 
L 152.562513 206.441076 
L 152.985791 206.736613 
L 153.40907 211.673413 
L 153.832348 212.488426 
L 154.255626 213.975639 
L 154.678905 213.349716 
L 155.102183 219.032496 
L 155.525462 222.832267 
L 155.94874 221.605022 
L 156.372018 225.367807 
L 156.795297 226.344153 
L 157.218575 230.696165 
L 157.641854 232.124077 
L 158.065132 232.862883 
L 158.488411 235.396299 
L 158.911689 242.3024 
L 159.334967 242.766708 
L 159.758246 242.317392 
L 160.181524 247.817055 
L 160.604803 247.520892 
L 161.028081 251.093838 
L 161.451359 256.559344 
L 161.874638 258.063805 
L 162.297916 255.798303 
L 162.721195 254.833693 
L 163.144473 256.297689 
L 163.567752 259.640774 
L 163.99103 261.171481 
L 164.414308 270.918358 
L 164.837587 268.957598 
L 165.260865 271.448349 
L 165.684144 270.625784 
L 166.107422 265.041146 
L 166.5307 278.808743 
L 166.953979 271.847118 
L 167.377257 277.119908 
L 167.800536 273.813094 
L 168.223814 276.602544 
L 168.647093 281.366329 
L 169.070371 274.675765 
L 169.493649 281.343438 
L 169.916928 281.820364 
L 170.340206 284.153616 
L 170.763485 288.121958 
L 171.186763 284.454739 
L 171.610041 284.354622 
L 172.03332 282.499318 
L 172.456598 289.716433 
L 172.879877 292.640296 
L 173.303155 285.817901 
L 173.726434 285.796855 
L 174.149712 288.548851 
L 174.57299 292.162608 
L 175.419547 286.881319 
L 175.842826 290.101661 
L 177.112661 286.195404 
L 177.535939 287.839408 
L 178.805775 282.943792 
L 179.229053 288.78552 
L 179.652331 285.203681 
L 180.07561 284.926973 
L 180.498888 286.752803 
L 180.922167 279.525139 
L 181.345445 286.28561 
L 181.768723 280.898825 
L 182.192002 283.735095 
L 182.61528 282.847596 
L 183.038559 283.817098 
L 183.461837 273.585125 
L 183.885116 278.152324 
L 184.308394 272.448261 
L 184.731672 268.537699 
L 185.154951 266.815164 
L 185.578229 267.144335 
L 186.001508 264.538836 
L 186.424786 269.722738 
L 186.848064 260.805777 
L 187.271343 260.025269 
L 187.694621 265.942945 
L 188.1179 259.983289 
L 188.541178 256.312319 
L 188.964457 255.510108 
L 189.387735 251.415928 
L 189.811013 252.003352 
L 190.234292 246.954158 
L 190.65757 246.162881 
L 191.080849 246.107846 
L 191.504127 241.642357 
L 191.927405 243.526318 
L 192.350684 230.695387 
L 192.773962 238.851844 
L 193.620519 234.046405 
L 194.043798 228.539566 
L 194.890354 224.558418 
L 195.736911 218.0533 
L 196.16019 212.166522 
L 196.583468 208.214234 
L 197.006746 212.794404 
L 197.430025 209.637179 
L 197.853303 205.50055 
L 198.276582 203.376632 
L 198.69986 202.280303 
L 199.123139 193.634058 
L 199.546417 199.266943 
L 199.969695 192.715789 
L 200.392974 191.612246 
L 200.816252 189.364022 
L 201.239531 181.742015 
L 201.662809 185.701052 
L 202.086087 178.250092 
L 202.509366 177.158061 
L 203.355923 166.741181 
L 203.779201 171.296032 
L 204.20248 166.373705 
L 204.625758 163.429846 
L 205.049036 158.821343 
L 205.472315 158.457918 
L 205.895593 157.656197 
L 206.74215 141.936669 
L 207.165428 144.986489 
L 207.588707 144.634762 
L 208.011985 136.703051 
L 208.858542 134.36969 
L 209.281821 131.820738 
L 209.705099 127.052787 
L 210.128377 126.921326 
L 210.551656 120.684656 
L 210.974934 122.556455 
L 211.398213 118.842896 
L 211.821491 121.515429 
L 212.244769 116.127901 
L 212.668048 113.136149 
L 213.091326 111.116462 
L 213.514605 112.714245 
L 213.937883 105.065562 
L 214.361162 104.971409 
L 215.207718 99.370814 
L 215.630997 98.650204 
L 216.054275 93.761459 
L 216.477554 96.642175 
L 216.900832 87.044093 
L 217.32411 89.349993 
L 217.747389 86.715149 
L 218.170667 88.199887 
L 218.593946 80.885272 
L 219.017224 76.702696 
L 219.440503 78.502426 
L 219.863781 83.41848 
L 220.287059 78.885493 
L 220.710338 77.053109 
L 221.133616 76.615459 
L 221.980173 72.603925 
L 222.403451 72.840292 
L 222.82673 69.52758 
L 223.250008 71.333104 
L 223.673287 69.548794 
L 224.096565 71.695182 
L 224.519844 65.118492 
L 224.943122 63.429024 
L 225.3664 65.035636 
L 225.789679 67.299651 
L 226.212957 67.413823 
L 226.636236 64.956818 
L 227.059514 63.423356 
L 227.906071 65.448134 
L 228.752628 61.466808 
L 229.599185 65.066175 
L 230.022463 60.836172 
L 230.445741 59.68271 
L 230.86902 59.533713 
L 231.292298 59.227575 
L 231.715577 58.415879 
L 232.138855 67.478157 
L 232.562133 65.416192 
L 232.985412 69.2633 
L 233.40869 67.69103 
L 233.831969 65.598668 
L 234.255247 68.982052 
L 234.678526 68.546496 
L 235.101804 69.144727 
L 235.525082 70.653603 
L 235.948361 69.705757 
L 236.371639 71.922526 
L 236.794918 72.784556 
L 237.218196 74.077241 
L 237.641474 71.190401 
L 238.064753 79.726492 
L 238.488031 75.889047 
L 238.91131 75.869255 
L 239.334588 84.095481 
L 239.757867 79.947133 
L 240.181145 82.36266 
L 240.604423 87.349625 
L 241.027702 87.056665 
L 241.45098 93.026408 
L 241.874259 93.918584 
L 242.297537 90.155318 
L 242.720815 98.995315 
L 243.144094 94.519245 
L 243.567372 99.288755 
L 243.990651 102.404387 
L 244.413929 100.93722 
L 244.837208 105.12753 
L 245.260486 107.087748 
L 245.683764 115.342542 
L 246.107043 110.067205 
L 246.530321 114.263837 
L 246.9536 115.052964 
L 247.376878 121.69735 
L 247.800156 122.03938 
L 248.646713 125.298325 
L 249.069992 124.92073 
L 249.49327 129.855915 
L 249.916549 132.658622 
L 250.339827 139.409433 
L 250.763105 134.377371 
L 251.186384 138.282253 
L 251.609662 140.922177 
L 252.456219 151.380878 
L 252.879497 149.169078 
L 253.302776 153.460583 
L 253.726054 160.888525 
L 254.149333 158.336279 
L 254.572611 167.170612 
L 254.99589 168.28851 
L 255.419168 169.774429 
L 255.842446 170.3301 
L 256.265725 172.010846 
L 256.689003 179.163127 
L 257.112282 177.697549 
L 258.805395 189.586634 
L 259.228674 188.397205 
L 259.651952 198.24649 
L 260.075231 196.940618 
L 260.498509 200.633077 
L 260.921787 202.294187 
L 261.768344 210.491124 
L 262.191623 210.262783 
L 262.614901 216.501241 
L 263.038179 224.578688 
L 263.461458 220.033209 
L 263.884736 224.718996 
L 264.308015 224.965486 
L 264.731293 220.42707 
L 265.154572 232.419243 
L 265.57785 228.925432 
L 266.001128 234.539299 
L 266.424407 233.090871 
L 266.847685 240.649184 
L 267.270964 239.92382 
L 267.694242 245.215195 
L 268.11752 242.246721 
L 268.964077 250.848639 
L 269.387356 252.76153 
L 269.810634 251.990439 
L 270.233913 258.378828 
L 270.657191 256.216645 
L 271.080469 259.543656 
L 271.503748 260.887778 
L 271.927026 263.472213 
L 272.350305 267.835951 
L 272.773583 265.623105 
L 273.196861 265.648372 
L 273.62014 273.225525 
L 274.043418 269.061815 
L 274.466697 270.808702 
L 274.889975 282.720511 
L 275.313254 276.463262 
L 275.736532 276.067875 
L 276.15981 279.406032 
L 276.583089 278.504703 
L 277.006367 285.567279 
L 277.429646 285.484945 
L 277.852924 283.964691 
L 278.276202 285.160368 
L 279.122759 288.399267 
L 279.546038 281.627032 
L 279.969316 289.420129 
L 280.392595 291.16837 
L 280.815873 286.167449 
L 281.239151 288.980799 
L 281.66243 289.342056 
L 282.085708 287.89721 
L 282.508987 288.08058 
L 282.932265 290.054735 
L 283.355543 294.156727 
L 283.778822 289.94039 
L 284.2021 288.486354 
L 284.625379 295.166008 
L 285.048657 287.508348 
L 285.471936 293.353277 
L 286.318492 285.001817 
L 286.741771 290.072536 
L 287.165049 286.79236 
L 287.588328 287.151578 
L 288.011606 285.062323 
L 288.434884 281.680457 
L 288.858163 284.778558 
L 289.281441 283.02096 
L 289.70472 286.290014 
L 290.127998 283.777855 
L 290.551277 285.400473 
L 290.974555 285.675335 
L 291.397833 282.649742 
L 291.821112 274.694231 
L 292.24439 278.658372 
L 292.667669 276.4858 
L 293.090947 269.575618 
L 293.514225 276.628445 
L 294.360782 265.556724 
L 294.784061 266.014387 
L 295.207339 262.621589 
L 295.630618 263.91694 
L 296.053896 258.136798 
L 296.477174 260.994231 
L 296.900453 259.522416 
L 297.323731 256.733592 
L 297.74701 258.293441 
L 298.170288 252.620767 
L 298.593566 255.195682 
L 299.016845 252.236427 
L 299.440123 245.595224 
L 299.863402 242.222999 
L 300.28668 245.037726 
L 300.709959 241.044102 
L 301.133237 231.410016 
L 301.556515 236.164005 
L 302.403072 232.521278 
L 302.826351 229.470965 
L 303.249629 221.902183 
L 303.672907 219.192537 
L 304.096186 224.554708 
L 304.519464 218.184368 
L 305.366021 213.500638 
L 305.7893 213.251547 
L 306.212578 209.174896 
L 306.635856 200.697776 
L 307.059135 205.666718 
L 307.482413 195.599045 
L 307.905692 194.870434 
L 308.752248 187.535042 
L 309.175527 187.900879 
L 310.022084 182.566839 
L 310.445362 177.345406 
L 310.868641 176.636061 
L 311.291919 175.390036 
L 311.715197 174.604278 
L 312.561754 163.993833 
L 312.985033 162.933316 
L 313.408311 158.22309 
L 313.831589 158.537881 
L 314.254868 156.365794 
L 314.678146 149.104918 
L 315.101425 149.825139 
L 315.524703 143.811642 
L 315.947982 142.168736 
L 316.37126 143.567427 
L 316.794538 137.819802 
L 317.217817 136.517455 
L 317.641095 130.349295 
L 318.064374 127.602717 
L 318.487652 130.216532 
L 318.91093 127.09938 
L 319.334209 126.689661 
L 320.180766 118.744242 
L 320.604044 112.494551 
L 321.027323 115.872577 
L 321.450601 109.690715 
L 321.873879 107.97165 
L 322.297158 113.396705 
L 322.720436 105.500914 
L 323.143715 107.382615 
L 323.566993 101.313521 
L 323.990271 100.131947 
L 324.41355 103.376667 
L 324.836828 98.47005 
L 325.260107 91.526575 
L 325.683385 95.699265 
L 326.106664 90.73161 
L 326.529942 89.135304 
L 326.95322 89.171437 
L 327.376499 88.233161 
L 327.799777 83.297749 
L 328.223056 83.71412 
L 328.646334 82.447918 
L 329.069612 80.283397 
L 329.492891 73.564003 
L 329.916169 76.131435 
L 330.339448 74.560531 
L 330.762726 75.195356 
L 331.186005 71.975649 
L 331.609283 71.13774 
L 332.032561 71.229077 
L 332.45584 69.334376 
L 332.879118 64.729332 
L 333.302397 66.277146 
L 333.725675 68.699309 
L 334.148953 66.264811 
L 334.572232 65.630321 
L 334.99551 66.860259 
L 335.418789 66.124735 
L 335.842067 66.550689 
L 336.265346 65.117516 
L 336.688624 60.025268 
L 337.111902 62.353307 
L 337.958459 65.485577 
L 338.381738 65.272432 
L 338.805016 67.178997 
L 339.228294 61.100946 
L 339.651573 66.222039 
L 340.074851 69.962257 
L 340.49813 68.847879 
L 340.921408 65.958291 
L 341.344686 62.113473 
L 341.767965 65.127656 
L 342.191243 66.773544 
L 342.614522 70.480592 
L 343.0378 70.09293 
L 343.461079 72.888091 
L 343.884357 70.583851 
L 344.307635 70.712464 
L 344.730914 72.76092 
L 345.154192 71.580193 
L 345.577471 74.595837 
L 346.000749 80.77016 
L 346.424027 74.585039 
L 346.847306 76.18181 
L 347.270584 81.107121 
L 347.693863 84.158722 
L 348.117141 82.478233 
L 348.963698 86.391871 
L 349.386976 91.047087 
L 349.810255 92.014205 
L 350.233533 90.462361 
L 350.656812 89.681127 
L 351.08009 97.704058 
L 351.503368 98.681718 
L 351.926647 98.173824 
L 352.349925 104.71438 
L 352.773204 105.640936 
L 353.619761 110.430128 
L 354.043039 110.567758 
L 354.466317 112.574381 
L 354.889596 114.023911 
L 355.312874 115.973857 
L 355.736153 116.869788 
L 356.159431 122.992425 
L 356.582709 119.74001 
L 357.005988 127.700734 
L 357.429266 127.621863 
L 359.12238 141.002553 
L 359.545658 139.857132 
L 359.968937 150.786704 
L 360.392215 150.441168 
L 360.815494 147.236277 
L 361.238772 156.175422 
L 361.66205 154.790828 
L 362.085329 152.52017 
L 362.508607 165.495741 
L 362.931886 160.293638 
L 363.355164 166.731133 
L 363.778443 168.522578 
L 364.624999 179.170556 
L 365.048278 177.83202 
L 365.471556 187.848876 
L 366.318113 180.975428 
L 366.741391 186.142528 
L 368.011227 197.596443 
L 368.434505 198.460717 
L 368.857784 201.514936 
L 369.281062 206.924657 
L 369.70434 207.032774 
L 370.127619 206.320468 
L 370.550897 208.461929 
L 370.974176 214.460299 
L 371.397454 222.330386 
L 371.820732 221.908075 
L 372.244011 221.841674 
L 372.667289 227.666487 
L 373.090568 230.440209 
L 373.513846 235.238485 
L 373.937125 234.00074 
L 374.360403 234.315501 
L 374.783681 240.607622 
L 375.20696 239.932493 
L 375.630238 243.065547 
L 376.053517 248.093739 
L 376.476795 248.274527 
L 376.900073 250.696329 
L 377.323352 250.62398 
L 378.593187 258.723098 
L 379.016466 264.503655 
L 379.439744 258.452199 
L 379.863022 268.060091 
L 380.286301 270.950509 
L 380.709579 270.801265 
L 381.132858 269.081904 
L 381.556136 268.113818 
L 381.979414 269.763725 
L 382.402693 272.715307 
L 382.825971 271.612217 
L 383.24925 276.750342 
L 383.672528 279.646869 
L 384.095807 281.181939 
L 384.519085 285.106474 
L 384.942363 285.305361 
L 385.365642 283.375101 
L 385.78892 285.082646 
L 386.212199 283.019542 
L 386.635477 286.098928 
L 387.058755 287.480357 
L 387.482034 283.52078 
L 387.905312 283.641127 
L 388.328591 289.533721 
L 388.751869 292.514098 
L 389.175148 291.434727 
L 389.598426 287.314617 
L 390.021704 291.761897 
L 390.444983 291.216709 
L 390.868261 290.142767 
L 391.29154 295.488 
L 391.714818 288.357002 
L 392.138096 290.068497 
L 392.561375 293.03516 
L 392.984653 294.564143 
L 393.407932 292.581704 
L 393.83121 293.370713 
L 394.254489 290.462657 
L 394.677767 291.21864 
L 395.101045 293.401067 
L 395.524324 288.469114 
L 395.947602 293.721206 
L 396.794159 287.020689 
L 397.217437 287.566764 
L 397.640716 284.096776 
L 398.063994 283.316895 
L 398.487273 285.513103 
L 398.487273 285.513103 
" style="fill:none;stroke:#ff7f0e;stroke-linecap:square;stroke-opacity:0.8;stroke-width:1.5;"/>
   </g>
   <g id="patch_3">
    <path d="M 57.6 307.584 
L 57.6 41.472 
" style="fill:none;stroke:#000000;stroke-linecap:square;stroke-linejoin:miter;stroke-width:2;"/>
   </g>
   <g id="patch_4">
    <path d="M 414.72 307.584 
L 414.72 41.472 
" style="fill:none;stroke:#000000;stroke-linecap:square;stroke-linejoin:miter;stroke-width:2;"/>
   </g>
   <g id="patch_5">
    <path d="M 57.6 307.584 
L 414.72 307.584 
" style="fill:none;stroke:#000000;stroke-linecap:square;stroke-linejoin:miter;stroke-width:2;"/>
   </g>
   <g id="patch_6">
    <path d="M 57.6 41.472 
L 414.72 41.472 
" style="fill:none;stroke:#000000;stroke-linecap:square;stroke-linejoin:miter;stroke-width:2;"/>
   </g>
  </g>
 </g>
 <defs>
  <clipPath id="pbc8acccd7f">
   <rect height="266.112" width="357.12" x="57.6" y="41.472"/>
  </clipPath>
 </defs>
</svg>
